<svg xmlns="http://www.w3.org/2000/svg" width="217" height="84" viewBox="0 0 217 84" version="1.1"><path d="M 38.762 1.707 C 40.006 1.946, 41.806 1.937, 42.762 1.687 C 43.718 1.437, 42.700 1.241, 40.500 1.252 C 38.300 1.263, 37.518 1.468, 38.762 1.707 M 52 5.378 C 52 5.585, 52.788 6.373, 53.750 7.128 C 55.336 8.371, 55.371 8.336, 54.128 6.750 C 52.821 5.084, 52 4.555, 52 5.378 M 169.595 12.500 C 165.258 15.443, 164.253 15.658, 166.089 13.250 C 166.823 12.287, 165.978 12.822, 164.212 14.437 C 161.040 17.337, 160.055 18.702, 162 17.500 C 163.579 16.524, 163.164 18.619, 161.506 19.995 C 160.685 20.677, 158.590 23.721, 156.851 26.760 C 154.467 30.927, 153.939 32.680, 154.704 33.893 C 155.262 34.777, 156.004 35.390, 156.354 35.255 C 157.142 34.951, 171 49.802, 171 50.950 C 171 51.407, 172.643 51.973, 174.650 52.207 C 177.870 52.583, 178.830 52.119, 182.795 48.265 C 185.267 45.862, 189.287 42.523, 191.727 40.844 C 196.862 37.311, 196.876 36.475, 191.980 26.500 C 187.409 17.189, 180.200 10.022, 175.390 10.007 C 174.229 10.003, 171.621 11.125, 169.595 12.500 M 88.613 17.183 C 88.902 17.650, 89.557 17.774, 90.069 17.457 C 91.377 16.649, 91.230 16.333, 89.544 16.333 C 88.743 16.333, 88.324 16.716, 88.613 17.183 M 163.059 19.653 C 161.911 21.112, 161.192 22.526, 161.462 22.795 C 162.122 23.456, 164.878 21.096, 166.090 18.832 C 167.599 16.012, 165.469 16.588, 163.059 19.653 M 166.213 29.188 C 165.546 29.854, 165.014 31.098, 165.032 31.950 C 165.059 33.261, 165.267 33.233, 166.381 31.766 C 167.105 30.812, 167.991 30.324, 168.349 30.682 C 169.246 31.580, 169.171 34.027, 168.250 33.882 C 165.553 33.456, 164 34.230, 164 36 C 164 37.564, 164.667 38, 167.055 38 C 170.069 38, 170.106 37.938, 169.805 33.328 C 169.489 28.480, 168.295 27.105, 166.213 29.188 M 180.179 30.285 C 179.562 31.028, 178.932 33.181, 178.778 35.068 C 178.519 38.261, 178.721 38.521, 181.671 38.807 C 184.398 39.072, 184.771 38.839, 184.329 37.150 C 184.046 36.069, 182.955 34.960, 181.903 34.685 C 180.645 34.356, 180.201 33.641, 180.603 32.593 C 181.409 30.492, 182.728 30.567, 183.361 32.750 C 183.667 33.803, 183.796 33.536, 183.685 32.078 C 183.468 29.236, 181.770 28.368, 180.179 30.285 M 172.851 34.251 C 173.608 35.008, 174.337 35.063, 174.988 34.412 C 175.639 33.761, 175.247 33.369, 173.839 33.263 C 172.229 33.142, 171.985 33.385, 172.851 34.251 M 70.656 42.545 C 70.960 43.339, 71.612 43.740, 72.105 43.435 C 73.345 42.669, 73.231 42.303, 71.551 41.658 C 70.584 41.287, 70.286 41.582, 70.656 42.545 M 139.333 45.333 C 139.333 46.067, 139.926 46.667, 140.651 46.667 C 141.635 46.667, 141.689 46.330, 140.862 45.333 C 140.253 44.600, 139.660 44, 139.544 44 C 139.428 44, 139.333 44.600, 139.333 45.333 M 130.079 46.583 C 130.127 47.748, 130.364 47.985, 130.683 47.188 C 130.972 46.466, 130.936 45.603, 130.604 45.271 C 130.272 44.939, 130.036 45.529, 130.079 46.583 M 211 47.941 C 211 48.459, 211.445 49.157, 211.989 49.493 C 212.555 49.843, 212.723 49.442, 212.382 48.552 C 211.717 46.820, 211 46.503, 211 47.941 M 10.564 49.707 C 10.022 51.132, 10.136 51.247, 11.124 50.267 C 11.808 49.588, 12.115 48.781, 11.807 48.474 C 11.499 48.166, 10.940 48.721, 10.564 49.707 M 130.079 51.583 C 130.127 52.748, 130.364 52.985, 130.683 52.188 C 130.972 51.466, 130.936 50.603, 130.604 50.271 C 130.272 49.939, 130.036 50.529, 130.079 51.583 M 13.405 54.155 C 12.953 54.885, 13.131 55.037, 13.889 54.568 C 14.548 54.161, 15.743 54.372, 16.544 55.036 C 17.403 55.749, 18 55.828, 18 55.229 C 18 54.671, 17.288 53.941, 16.418 53.607 C 14.318 52.801, 14.231 52.817, 13.405 54.155 M 173.813 74.683 C 174.534 74.972, 175.397 74.936, 175.729 74.604 C 176.061 74.272, 175.471 74.036, 174.417 74.079 C 173.252 74.127, 173.015 74.364, 173.813 74.683 M 47.813 79.683 C 48.534 79.972, 49.397 79.936, 49.729 79.604 C 50.061 79.272, 49.471 79.036, 48.417 79.079 C 47.252 79.127, 47.015 79.364, 47.813 79.683" stroke="none" fill="#a3c71f" fill-rule="evenodd"/><path d="M 34.750 3.689 C 33.788 3.941, 33 4.762, 33 5.514 C 33 6.267, 32.474 7.207, 31.830 7.605 C 31.043 8.091, 30.869 7.783, 31.299 6.664 C 32.383 3.839, 30.400 4.815, 26.673 8.940 C 20.616 15.645, 20.775 19.407, 27.768 34.786 C 28.590 36.593, 28.989 38.345, 28.654 38.679 C 28.320 39.013, 27.774 38.573, 27.439 37.702 C 27.009 36.581, 25.951 37.783, 23.822 41.809 C 22.167 44.939, 20.648 48.175, 20.446 49 C 20.245 49.825, 19.784 51.512, 19.423 52.750 C 18.927 54.449, 19.177 55, 20.442 55 C 21.364 55, 21.840 54.550, 21.500 54 C 20.606 52.554, 22.191 52.830, 24.406 54.506 C 26.251 55.903, 26.235 55.978, 23.906 56.849 C 22.302 57.448, 21.255 57.374, 20.765 56.624 C 19.033 53.974, 20.158 59.520, 21.936 62.397 C 25.747 68.562, 32.726 72.004, 41.399 71.994 C 56.189 71.978, 65.663 63.516, 64.725 51.158 C 64.488 48.033, 63.735 45.445, 62.910 44.923 C 62.135 44.432, 61.862 44.024, 62.305 44.015 C 62.748 44.007, 61.277 41.440, 59.036 38.310 L 54.961 32.621 55.596 22.560 C 56.188 13.192, 56.080 12.310, 54.036 9.740 C 52.828 8.223, 51.415 7.244, 50.895 7.565 C 50.376 7.886, 50.074 7.575, 50.225 6.873 C 50.766 4.362, 40.364 2.222, 34.750 3.689 M 42.655 6.829 C 40.502 9.207, 40.545 10.890, 42.750 10.566 C 43.898 10.398, 44.516 9.396, 44.546 7.655 C 44.602 4.498, 44.718 4.549, 42.655 6.829 M 34 8.865 C 34 9.856, 34.675 10.667, 35.500 10.667 C 36.325 10.667, 37 10.115, 37 9.440 C 37 8.766, 36.325 7.955, 35.500 7.638 C 34.509 7.258, 34 7.674, 34 8.865 M 26.702 12.333 C 26.421 13.067, 26.748 13.667, 27.429 13.667 C 28.110 13.667, 28.667 13.067, 28.667 12.333 C 28.667 10.609, 27.364 10.609, 26.702 12.333 M 51.276 11.829 C 50.632 12.227, 50.431 13.080, 50.829 13.724 C 51.227 14.368, 52.080 14.569, 52.724 14.171 C 53.368 13.773, 53.569 12.920, 53.171 12.276 C 52.773 11.632, 51.920 11.431, 51.276 11.829 M 94 16 C 93.411 17.100, 93.305 18, 93.765 18 C 94.828 18, 97 15.852, 97 14.800 C 97 13.248, 95.057 14.025, 94 16 M 42.667 15.667 C 41.516 16.817, 41.938 18, 43.500 18 C 44.325 18, 45 17.325, 45 16.500 C 45 14.938, 43.817 14.516, 42.667 15.667 M 34 18 C 34 19.289, 34.506 19.998, 35.250 19.750 C 35.938 19.521, 36.500 18.733, 36.500 18 C 36.500 17.267, 35.938 16.479, 35.250 16.250 C 34.506 16.002, 34 16.711, 34 18 M 163.124 19.826 C 161.881 21.572, 161.275 23, 161.777 23 C 163.268 23, 166.239 19.217, 165.795 17.884 C 165.556 17.168, 164.437 17.982, 163.124 19.826 M 51 19.227 C 51 21.050, 52.773 22.561, 53.757 21.576 C 54.100 21.233, 53.620 20.192, 52.690 19.262 C 51.132 17.703, 51 17.700, 51 19.227 M 26 21.500 C 26 22.325, 26.675 23, 27.500 23 C 28.325 23, 29 22.325, 29 21.500 C 29 20.675, 28.325 20, 27.500 20 C 26.675 20, 26 20.675, 26 21.500 M 88.989 23.250 C 86.877 26.713, 86.540 28.005, 87.750 27.992 C 88.162 27.988, 89.526 26.188, 90.780 23.992 C 93.494 19.239, 91.850 18.558, 88.989 23.250 M 30.731 23.080 C 31.085 24.432, 31.538 24.886, 31.788 24.137 C 32.028 23.415, 31.750 22.350, 31.168 21.768 C 30.426 21.026, 30.296 21.417, 30.731 23.080 M 43.356 25.233 C 42.673 26.339, 43.571 27.320, 45.529 27.607 C 46.344 27.727, 47 27.045, 47 26.078 C 47 24.270, 44.334 23.651, 43.356 25.233 M 48.158 26 C 48.158 27.375, 48.385 27.938, 48.662 27.250 C 48.940 26.563, 48.940 25.438, 48.662 24.750 C 48.385 24.063, 48.158 24.625, 48.158 26 M 36 26.417 C 36 27.288, 36.712 28, 37.583 28 C 38.454 28, 38.989 27.466, 38.771 26.813 C 38.153 24.958, 36 24.651, 36 26.417 M 28.250 26.662 C 26.492 27.372, 26.688 30, 28.500 30 C 29.333 30, 30 29.111, 30 28 C 30 26.900, 29.887 26.036, 29.750 26.079 C 29.613 26.122, 28.938 26.385, 28.250 26.662 M 52 30 C 52 30.550, 52.477 31, 53.059 31 C 53.641 31, 53.840 30.550, 53.500 30 C 53.160 29.450, 52.684 29, 52.441 29 C 52.198 29, 52 29.450, 52 30 M 146.787 35.250 C 145.987 36.652, 145.503 41.133, 145.502 47.145 C 145.500 54.929, 145.838 57.163, 147.250 58.724 C 148.213 59.787, 149 61.162, 149 61.778 C 149 63.380, 154.779 67.568, 160.555 70.152 C 164.492 71.914, 167.437 72.376, 175.005 72.420 C 183.777 72.472, 185.011 72.226, 191.005 69.236 C 200.084 64.707, 203.916 58.430, 203.971 48 C 203.994 43.481, 202.191 37, 200.910 37 C 200.363 37, 197.571 38.736, 194.707 40.859 C 184.618 48.335, 179.152 53.987, 176.390 59.798 L 173.680 65.500 172.335 59.628 C 171.515 56.045, 169.599 51.859, 167.420 48.891 C 163.627 43.723, 151.411 33, 149.318 33 C 148.632 33, 147.493 34.013, 146.787 35.250 M 45.032 37.179 C 45.014 38.102, 45.676 39.534, 46.503 40.360 C 47.840 41.698, 47.780 41.935, 45.950 42.516 C 44.308 43.037, 44.131 43.453, 45.070 44.584 C 46.610 46.440, 50.631 46.403, 51.351 44.526 C 51.662 43.716, 51.273 42.692, 50.485 42.252 C 49.276 41.575, 49.260 41.053, 50.381 38.892 C 51.472 36.790, 51.475 36.333, 50.397 36.333 C 49.676 36.333, 48.829 37.002, 48.516 37.820 C 48.041 39.057, 47.703 38.987, 46.504 37.403 C 45.241 35.734, 45.060 35.707, 45.032 37.179 M 33.118 39 C 33.217 40.375, 32.946 42.318, 32.516 43.317 C 31.554 45.555, 33.138 47.322, 35.644 46.805 C 36.969 46.531, 37.445 45.640, 37.309 43.688 C 37.203 42.185, 37.476 41.176, 37.914 41.447 C 38.352 41.718, 38.499 40.828, 38.239 39.470 C 37.707 36.686, 36 36.093, 36 38.691 C 36 40.170, 35.808 40.139, 34.469 38.441 C 32.989 36.564, 32.945 36.582, 33.118 39 M 42.490 39.016 C 42.144 39.575, 41.443 39.774, 40.931 39.457 C 40.419 39.141, 40 39.617, 40 40.514 C 40 42.714, 43.235 42.021, 43.567 39.750 C 43.854 37.786, 43.429 37.496, 42.490 39.016 M 56.122 39.353 C 55.060 40.633, 55.544 42, 57.060 42 C 58.181 42, 59.019 39.130, 58.070 38.543 C 57.606 38.256, 56.730 38.621, 56.122 39.353 M 155.427 40.743 C 157.037 42.523, 158.575 43.759, 158.844 43.490 C 159.113 43.220, 159.146 42.888, 158.917 42.750 C 158.688 42.612, 157.150 41.377, 155.500 40.004 L 152.500 37.507 155.427 40.743 M 53.079 42.583 C 53.127 43.748, 53.364 43.985, 53.683 43.188 C 53.972 42.466, 53.936 41.603, 53.604 41.271 C 53.272 40.939, 53.036 41.529, 53.079 42.583 M 151 43 C 151 43.550, 151.477 44, 152.059 44 C 152.641 44, 152.840 43.550, 152.500 43 C 152.160 42.450, 151.684 42, 151.441 42 C 151.198 42, 151 42.450, 151 43 M 193.986 45.132 C 192.950 47.405, 187.964 51, 185.848 51 C 183.516 51, 178.811 59.145, 180.289 60.623 C 180.575 60.909, 181.103 59.807, 181.462 58.175 C 182.213 54.756, 184.150 52.864, 188.776 51.033 C 192.011 49.752, 196.755 44.422, 195.647 43.313 C 195.332 42.999, 194.585 43.817, 193.986 45.132 M 162.599 47.189 C 164.303 49.010, 166.441 51.613, 167.349 52.973 C 168.257 54.332, 169 55.051, 169 54.570 C 169 53.161, 162.640 45.140, 161 44.481 C 160.175 44.149, 160.894 45.367, 162.599 47.189 M 153.735 45.836 C 154.400 46.247, 155.375 48.365, 155.901 50.542 L 156.857 54.500 156.679 49.944 C 156.533 46.180, 156.156 45.362, 154.514 45.238 C 153.260 45.144, 152.972 45.365, 153.735 45.836 M 22.446 47.087 C 22.077 47.685, 22.294 48.694, 22.929 49.329 C 23.801 50.201, 24.301 50.131, 24.976 49.039 C 25.929 47.497, 25.448 46, 24 46 C 23.515 46, 22.816 46.489, 22.446 47.087 M 148.232 49 C 148.232 50.925, 148.438 51.712, 148.689 50.750 C 148.941 49.788, 148.941 48.212, 148.689 47.250 C 148.438 46.288, 148.232 47.075, 148.232 49 M 58.431 50.112 C 57.569 51.507, 60.172 53.228, 61.355 52.045 C 62.316 51.084, 61.390 49, 60 49 C 59.515 49, 58.809 49.500, 58.431 50.112 M 195.790 53.044 C 194.870 54.647, 192.628 56.866, 190.808 57.975 C 187.246 60.147, 187.464 60.657, 191.221 58.945 C 193.494 57.909, 198.686 51.353, 197.875 50.542 C 197.648 50.315, 196.710 51.441, 195.790 53.044 M 27.610 53.573 C 27.190 54.669, 27.511 55.048, 28.671 54.823 C 29.586 54.645, 30.522 53.938, 30.750 53.250 C 31.363 51.411, 28.320 51.724, 27.610 53.573 M 42.195 54.500 C 42.215 56.150, 42.439 56.704, 42.693 55.731 C 42.947 54.758, 42.930 53.408, 42.656 52.731 C 42.382 52.054, 42.175 52.850, 42.195 54.500 M 35.533 53.947 C 34.653 55.370, 35.775 57, 37.632 57 C 38.508 57, 39.010 56.297, 38.823 55.333 C 38.434 53.324, 36.437 52.484, 35.533 53.947 M 45.696 54.349 C 44.961 56.265, 45.805 57, 48.740 57 C 50.492 57, 51.056 56.524, 50.813 55.250 C 50.398 53.070, 46.453 52.376, 45.696 54.349 M 54.079 55.583 C 54.127 56.748, 54.364 56.985, 54.683 56.188 C 54.972 55.466, 54.936 54.603, 54.604 54.271 C 54.272 53.939, 54.036 54.529, 54.079 55.583 M 149.004 54.300 C 148.987 57.776, 158.001 67.008, 161.400 66.996 C 162.005 66.994, 160.972 66.061, 159.105 64.923 C 154.858 62.333, 153.667 61.142, 151.077 56.895 C 149.939 55.028, 149.006 53.860, 149.004 54.300 M 199.624 56.539 C 198.659 59.053, 198.943 59.702, 200.122 57.675 C 200.706 56.671, 200.973 55.639, 200.715 55.382 C 200.458 55.124, 199.966 55.645, 199.624 56.539 M 57.976 57.015 C 57.015 57.609, 56.897 58.429, 57.563 59.865 C 58.390 61.644, 58.720 61.717, 60.372 60.491 C 62.013 59.273, 62.064 58.921, 60.784 57.641 C 59.887 56.744, 58.804 56.503, 57.976 57.015 M 169.086 57 C 169.055 57.825, 169.467 59.175, 170 60 C 171.181 61.828, 171.181 60.249, 170 57.500 C 169.433 56.181, 169.122 56.011, 169.086 57 M 157 58 C 157.825 58.533, 159.175 58.945, 160 58.914 C 160.989 58.878, 160.819 58.567, 159.500 58 C 156.751 56.819, 155.172 56.819, 157 58 M 27 62.378 C 27 63.135, 27.759 64.373, 28.687 65.128 C 30.178 66.340, 30.292 66.279, 29.664 64.609 C 29.051 62.976, 29.170 62.896, 30.534 64.028 C 31.849 65.119, 32.062 65.101, 31.806 63.919 C 31.204 61.128, 27 59.779, 27 62.378 M 46.604 63.590 C 45.370 66.806, 48.668 68.310, 50.942 65.570 C 51.890 64.428, 51.726 63.924, 50.130 63.070 C 47.528 61.677, 47.326 61.707, 46.604 63.590 M 170.232 65 C 170.232 66.925, 170.438 67.713, 170.689 66.750 C 170.941 65.787, 170.941 64.213, 170.689 63.250 C 170.438 62.288, 170.232 63.075, 170.232 65 M 177.981 63.523 C 176.924 64.796, 176.986 64.943, 178.359 64.416 C 179.261 64.069, 180 63.384, 180 62.893 C 180 61.607, 179.421 61.788, 177.981 63.523 M 191.500 64.043 C 189.300 65.137, 188.329 65.799, 189.343 65.512 C 190.356 65.226, 192.269 64.720, 193.593 64.387 C 194.917 64.055, 196 63.382, 196 62.892 C 196 61.756, 196.198 61.705, 191.500 64.043 M 38.377 65.460 C 38.034 66.354, 37.969 67.302, 38.233 67.567 C 39.080 68.414, 42.098 66.793, 41.730 65.689 C 41.129 63.887, 39.035 63.744, 38.377 65.460 M 175.459 67.067 C 175.096 67.653, 175.014 68.348, 175.276 68.610 C 175.538 68.872, 176.019 68.392, 176.345 67.543 C 177.021 65.781, 176.445 65.471, 175.459 67.067 M 181.981 69.523 C 180.924 70.796, 180.986 70.943, 182.359 70.416 C 183.261 70.069, 184 69.384, 184 68.893 C 184 67.607, 183.421 67.788, 181.981 69.523" stroke="none" fill="#ffd57c" fill-rule="evenodd"/><path d="M 94.763 13.890 C 89.283 19.808, 82.527 31.426, 83.577 33.124 C 83.874 33.606, 83.679 34, 83.142 34 C 81.859 34, 79.994 42.848, 80.022 48.799 C 80.034 51.385, 80.922 55.435, 81.996 57.801 C 84.285 62.845, 89.742 68.637, 91.778 68.183 C 92.560 68.009, 92.936 68.294, 92.613 68.817 C 91.876 70.009, 97.500 72.427, 98.940 71.537 C 99.523 71.177, 100 71.359, 100 71.941 C 100 72.523, 101.827 73, 104.059 73 C 106.479 73, 107.871 72.601, 107.507 72.011 C 107.160 71.450, 107.549 71.274, 108.407 71.603 C 110.295 72.327, 117 70.190, 117 68.863 C 117 68.324, 117.398 68.128, 117.884 68.428 C 119.421 69.378, 127.047 60.285, 126.314 58.376 C 125.885 57.258, 126.045 56.910, 126.780 57.364 C 129.522 59.058, 129.619 41.806, 126.895 36.884 C 126.169 35.573, 125.671 34.163, 125.788 33.750 C 126.125 32.560, 124.207 32.880, 123.807 34.080 C 123.609 34.674, 122.680 33.552, 121.743 31.586 C 120.805 29.621, 120.367 28.063, 120.769 28.125 C 121.171 28.186, 121.859 28.184, 122.298 28.118 C 123.418 27.952, 117.130 19, 115.893 19 C 115.337 19, 115.203 19.520, 115.595 20.155 C 116.048 20.886, 115.869 21.037, 115.106 20.565 C 114.273 20.050, 114.217 19.443, 114.926 18.589 C 115.669 17.694, 114.913 16.344, 112.162 13.658 C 110.078 11.624, 108.027 10.306, 107.604 10.730 C 107.180 11.153, 106.983 10.825, 107.167 10 C 107.406 8.922, 106.489 8.415, 103.905 8.199 C 100.643 7.926, 99.796 8.453, 94.763 13.890 M 94.200 15.200 C 93.540 15.860, 93 16.737, 93 17.148 C 93 17.560, 91.909 19.074, 90.575 20.513 C 87.520 23.810, 85.672 28.667, 87.472 28.667 C 88.161 28.667, 89.798 26.618, 91.112 24.113 C 92.425 21.609, 94.287 18.674, 95.250 17.591 C 97.979 14.521, 97.033 12.367, 94.200 15.200 M 56.079 20.583 C 56.127 21.748, 56.364 21.985, 56.683 21.188 C 56.972 20.466, 56.936 19.603, 56.604 19.271 C 56.272 18.939, 56.036 19.529, 56.079 20.583 M 91.667 27.667 C 91.300 28.033, 91 28.798, 91 29.367 C 91 29.993, 91.466 29.934, 92.183 29.217 C 92.834 28.566, 93.134 27.801, 92.850 27.517 C 92.566 27.233, 92.033 27.300, 91.667 27.667 M 122.393 30.582 C 122.727 31.452, 123 32.378, 123 32.641 C 123 32.903, 123.430 32.852, 123.956 32.527 C 125.117 31.809, 124.185 29, 122.786 29 C 122.236 29, 122.059 29.712, 122.393 30.582 M 166.750 33.716 C 162.682 34.333, 162.896 38, 167 38 C 169.533 38, 170 37.611, 170 35.500 C 170 34.125, 169.887 33.067, 169.750 33.150 C 169.613 33.232, 168.262 33.487, 166.750 33.716 M 178.333 35.576 C 177.551 37.612, 178.859 39, 181.559 39 C 183.283 39, 184 38.447, 184 37.117 C 184 34.831, 179.127 33.506, 178.333 35.576 M 122.079 40.583 C 122.127 41.748, 122.364 41.985, 122.683 41.188 C 122.972 40.466, 122.936 39.603, 122.604 39.271 C 122.272 38.939, 122.036 39.529, 122.079 40.583 M 47.625 41.484 C 45.327 43.223, 46.153 46, 48.969 46 C 50.333 46, 51 45.344, 51 44 C 51 42.900, 50.523 42, 49.941 42 C 49.359 42, 49.160 41.550, 49.500 41 C 50.325 39.665, 49.872 39.782, 47.625 41.484 M 96.531 41.293 C 96.103 42.279, 96.034 43.367, 96.376 43.710 C 97.392 44.725, 98.211 43.299, 97.743 41.328 C 97.329 39.581, 97.275 39.580, 96.531 41.293 M 36.068 41.809 C 36.030 42.529, 35.601 42.871, 35.113 42.570 C 34.626 42.269, 33.642 42.726, 32.928 43.587 C 31.855 44.879, 31.879 45.311, 33.064 46.061 C 34.847 47.189, 35.153 47.189, 36.937 46.060 C 38.071 45.342, 38.138 44.663, 37.254 42.826 C 36.639 41.547, 36.105 41.089, 36.068 41.809 M 109.132 42.341 C 108.203 43.460, 108.270 43.890, 109.442 44.340 C 111.251 45.034, 112.605 43.205, 111.270 41.870 C 110.663 41.263, 109.884 41.435, 109.132 42.341 M 144.079 44.583 C 144.127 45.748, 144.364 45.985, 144.683 45.188 C 144.972 44.466, 144.936 43.603, 144.604 43.271 C 144.272 42.939, 144.036 43.529, 144.079 44.583 M 102.537 45.061 C 103.240 46.197, 106 46.319, 106 45.213 C 106 44.780, 105.090 44.357, 103.978 44.273 C 102.866 44.190, 102.218 44.544, 102.537 45.061 M 144.079 50.583 C 144.127 51.748, 144.364 51.985, 144.683 51.188 C 144.972 50.466, 144.936 49.603, 144.604 49.271 C 144.272 48.939, 144.036 49.529, 144.079 50.583 M 65.158 52 C 65.158 53.375, 65.385 53.938, 65.662 53.250 C 65.940 52.563, 65.940 51.438, 65.662 50.750 C 65.385 50.063, 65.158 50.625, 65.158 52 M 179.872 52.750 C 178.629 54.336, 178.664 54.371, 180.250 53.128 C 181.916 51.821, 182.445 51, 181.622 51 C 181.415 51, 180.627 51.788, 179.872 52.750 M 123.824 56.046 C 122.903 58.221, 122.329 60, 122.549 60 C 123.282 60, 126.126 53.878, 125.811 52.978 C 125.640 52.491, 124.746 53.872, 123.824 56.046 M 172.506 53.750 C 172.903 54.712, 173.460 56.312, 173.744 57.304 C 174.189 58.855, 174.503 58.714, 175.979 56.304 C 177.812 53.312, 177.121 52.044, 173.643 52.015 C 172.265 52.004, 171.972 52.451, 172.506 53.750 M 86.031 54.500 C 86.031 55.050, 86.467 56.175, 87 57 C 87.533 57.825, 87.969 58.050, 87.969 57.500 C 87.969 56.950, 87.533 55.825, 87 55 C 86.467 54.175, 86.031 53.950, 86.031 54.500 M 117.079 54.668 C 117.036 55.311, 116.741 56.661, 116.424 57.668 C 115.877 59.409, 115.906 59.412, 116.995 57.712 C 117.626 56.729, 117.920 55.379, 117.650 54.712 C 117.295 53.837, 117.136 53.825, 117.079 54.668 M 120 62 C 119.099 62.582, 118.975 62.975, 119.691 62.985 C 120.346 62.993, 121.160 62.550, 121.500 62 C 122.267 60.758, 121.921 60.758, 120 62 M 90 64.378 C 90 64.585, 90.787 65.373, 91.750 66.128 C 93.336 67.371, 93.371 67.336, 92.128 65.750 C 90.821 64.084, 90 63.555, 90 64.378" stroke="none" fill="#df9c33" fill-rule="evenodd"/><path d="M 30.421 3.844 C 25.485 6.150, 22.374 9.898, 20.921 15.292 C 19.996 18.728, 20.158 20.146, 22.018 24.911 C 25.617 34.132, 25.590 35.252, 21.608 42.374 C 19.624 45.922, 18 49.484, 18 50.290 C 18 51.096, 17.273 52.358, 16.385 53.095 C 13.862 55.190, 10.953 51.065, 11.701 46.452 C 12.179 43.507, 12.012 43.058, 10.634 43.587 C 8.591 44.371, 8.554 46.798, 10.525 50.749 C 12.151 54.009, 14.150 55.263, 16.363 54.414 C 17.318 54.048, 17.915 55.065, 18.353 57.805 C 19.280 63.600, 25.142 69.700, 32 72.005 C 35.125 73.055, 37.640 74.533, 37.823 75.427 C 38.001 76.292, 37.664 77, 37.073 77 C 36.483 77, 36 77.450, 36 78 C 36 78.550, 36.949 79, 38.108 79 C 39.858 79, 40.110 78.575, 39.589 76.500 C 38.998 74.144, 39.193 74, 42.981 74 C 46.601 74, 47 74.248, 47 76.500 C 47 78.333, 47.533 79, 49 79 C 50.100 79, 51 78.550, 51 78 C 51 77.450, 50.325 77, 49.500 77 C 48.667 77, 48 76.111, 48 75 C 48 73.866, 48.667 73, 49.540 73 C 52.417 73, 58.796 69.071, 61.762 65.473 C 64.760 61.836, 67 56.091, 67 52.042 C 67 50.817, 67.900 48.671, 69 47.273 C 70.100 45.874, 71 44.116, 71 43.365 C 71 41.187, 72.580 41.783, 73.779 44.413 C 74.383 45.741, 75.806 47.121, 76.939 47.481 C 78.315 47.917, 79 48.988, 79 50.701 C 79 60.668, 87.620 70.822, 98.250 73.377 C 101.168 74.078, 101.779 75.821, 99.800 77.800 C 98.867 78.733, 99.113 79, 100.908 79 C 102.871 79, 103.123 78.626, 102.589 76.500 C 102.023 74.244, 102.259 74, 105 74 C 107.741 74, 107.977 74.244, 107.411 76.500 C 106.890 78.575, 107.142 79, 108.892 79 C 110.051 79, 111 78.550, 111 78 C 111 77.450, 110.550 77, 110 77 C 108.280 77, 108.910 73.966, 110.750 73.384 C 121.619 69.947, 130 61.035, 130 52.914 C 130 51.732, 131.350 49.226, 133 47.347 C 134.650 45.468, 136 43.541, 136 43.065 C 136 42.589, 137.537 43.737, 139.415 45.615 C 141.628 47.828, 143.061 50.404, 143.489 52.937 C 145.029 62.052, 153.720 70.534, 164.062 73.015 C 167.064 73.735, 169 74.748, 169 75.600 C 169 76.370, 168.325 77, 167.500 77 C 166.675 77, 166 77.450, 166 78 C 166 78.550, 166.900 79, 168 79 C 169.467 79, 170 78.333, 170 76.500 C 170 74.523, 170.505 74, 172.418 74 C 176.315 74, 177.825 74.953, 177.273 77.065 C 176.927 78.389, 177.277 79, 178.383 79 C 179.273 79, 180 78.550, 180 78 C 180 77.450, 179.564 77, 179.031 77 C 178.499 77, 178.322 76.325, 178.638 75.500 C 178.955 74.675, 180.274 74, 181.569 74 C 186.084 74, 195.208 69.792, 199.072 65.928 C 201.246 63.754, 203.476 60.222, 204.207 57.793 C 205.276 54.243, 205.928 53.500, 207.970 53.500 C 209.431 53.500, 210.862 52.682, 211.471 51.500 C 212.037 50.400, 212.929 48.833, 213.453 48.018 C 214.903 45.761, 214.870 42.836, 213.401 43.400 C 212.701 43.668, 211.913 43.350, 211.649 42.694 C 211.385 42.037, 211.229 43.630, 211.301 46.233 C 211.549 55.107, 206.695 55.573, 205.661 46.776 C 205.312 43.805, 204.511 39.896, 203.881 38.089 C 202.890 35.246, 202.378 34.874, 200.079 35.334 C 197.659 35.818, 197.271 35.443, 195.742 31.136 C 193.250 24.120, 186.682 14.536, 182.348 11.591 C 179.930 9.947, 177.172 9, 174.804 9 C 171.623 9, 170.127 9.885, 164.659 15 C 160.982 18.440, 157.020 23.361, 155.373 26.535 C 152.952 31.199, 152.156 31.985, 150.310 31.531 C 147.376 30.809, 145.308 33.888, 143.790 41.236 C 143.136 44.406, 142.295 47, 141.922 47 C 140.609 47, 138.737 43.951, 138.081 40.744 C 137.232 36.588, 134.366 36.240, 134.803 40.345 C 135.100 43.141, 132.760 48, 131.116 48 C 130.656 48, 130.008 45.715, 129.677 42.923 C 128.165 30.155, 112.751 8.100, 104.135 6.377 C 101.031 5.756, 100.408 6.136, 94.656 12.148 C 85.911 21.290, 79 35.430, 79 44.182 C 79 45.732, 78.620 47, 78.155 47 C 76.446 47, 73.699 42.933, 73.601 40.257 C 73.484 37.052, 70.533 36.346, 70.443 39.500 C 70.335 43.255, 69.019 46.779, 67.509 47.358 C 66.609 47.704, 66 47.375, 66 46.545 C 66 45.780, 64.471 43.150, 62.602 40.702 C 56.912 33.247, 56.701 32.520, 57.452 22.930 C 58.221 13.101, 57.467 10.676, 52.041 5.517 C 49.245 2.858, 48.123 2.502, 41.702 2.236 C 36.243 2.011, 33.513 2.400, 30.421 3.844 M 30.840 5.022 C 21.766 9.816, 19.400 18.137, 24.375 27.759 C 26.836 32.517, 26.354 36.542, 22.500 43.434 C 17.143 53.013, 18.037 60.313, 25.355 66.739 C 34.712 74.954, 50.136 74.680, 59.339 66.136 C 67.198 58.840, 67.627 49.038, 60.496 39.699 C 55.321 32.920, 54.834 31.004, 56.227 22.882 C 57.384 16.136, 57.331 15.650, 54.967 11.255 C 53.454 8.442, 51.153 5.959, 49.016 4.834 C 44.355 2.381, 35.670 2.470, 30.840 5.022 M 94.629 14.034 C 88.767 20.365, 82.856 31.259, 81.081 39 C 77.138 56.196, 85.754 70.497, 101.345 72.634 C 111.144 73.977, 123.060 67.447, 127.134 58.500 C 132.372 47, 126.729 29.805, 112.661 14.396 C 107.739 9.004, 106.304 8, 103.519 8 C 100.763 8, 99.289 9, 94.629 14.034 M 168.921 12.933 C 164.184 16.076, 158.285 23.189, 155.435 29.196 L 153.681 32.892 161.287 39.994 C 166.472 44.836, 169.841 48.996, 171.874 53.064 C 174.261 57.840, 174.979 58.640, 175.476 57.077 C 176.317 54.427, 185.771 44.942, 191.501 40.999 C 195.571 38.199, 196.085 37.454, 195.545 35.145 C 194.408 30.291, 189.079 20.548, 185.268 16.354 C 178.695 9.123, 175.632 8.482, 168.921 12.933 M 166.213 29.188 C 165.546 29.854, 165.014 31.098, 165.032 31.950 C 165.058 33.226, 165.308 33.178, 166.443 31.680 C 167.777 29.921, 167.859 29.921, 168.938 31.680 C 169.938 33.311, 170.025 33.249, 169.777 31.078 C 169.455 28.262, 167.941 27.459, 166.213 29.188 M 180.213 30.188 C 179.546 30.854, 179.014 32.097, 179.032 32.950 C 179.059 34.254, 179.274 34.223, 180.392 32.750 C 181.123 31.788, 181.975 31, 182.287 31 C 182.598 31, 183.082 31.788, 183.361 32.750 C 183.667 33.803, 183.796 33.536, 183.685 32.078 C 183.471 29.273, 181.953 28.447, 180.213 30.188 M 147.724 33.419 C 145.663 35.480, 143.628 46.270, 144.395 51.068 C 146.517 64.341, 156.606 71.969, 173.140 72.800 C 183.120 73.301, 189.378 71.682, 196.004 66.882 C 201.495 62.904, 203.950 57.368, 203.978 48.899 C 204 42.433, 202.542 36, 201.055 36 C 199.626 36, 183.352 48.793, 180.524 52.139 C 178.962 53.987, 176.767 57.525, 175.647 60 L 173.611 64.500 172.769 59.673 C 171.650 53.252, 168.710 48.845, 160.185 40.808 C 151.454 32.579, 149.640 31.503, 147.724 33.419 M 172.851 34.251 C 173.608 35.008, 174.337 35.063, 174.988 34.412 C 175.639 33.761, 175.247 33.369, 173.839 33.263 C 172.229 33.142, 171.985 33.385, 172.851 34.251 M 33.030 38.050 C 33.014 38.903, 33.529 40.129, 34.176 40.776 C 35.609 42.209, 38 40.590, 38 38.186 C 38 36.903, 37.753 36.955, 36.642 38.474 C 35.323 40.279, 35.254 40.278, 34.173 38.416 C 33.318 36.942, 33.054 36.858, 33.030 38.050 M 45.032 37.628 C 44.986 39.258, 47.730 41.285, 48.956 40.527 C 49.530 40.172, 49.986 39.121, 49.970 38.191 C 49.942 36.680, 49.826 36.694, 48.881 38.320 C 47.857 40.079, 47.777 40.079, 46.443 38.320 C 45.684 37.319, 45.049 37.007, 45.032 37.628 M 40.603 41.167 C 40.886 41.625, 41.541 42, 42.059 42 C 42.577 42, 43 41.625, 43 41.167 C 43 40.708, 42.345 40.333, 41.544 40.333 C 40.743 40.333, 40.320 40.708, 40.603 41.167 M 96 42.500 C 96 43.325, 96.450 44, 97 44 C 97.550 44, 98 43.325, 98 42.500 C 98 41.675, 97.550 41, 97 41 C 96.450 41, 96 41.675, 96 42.500 M 109.500 42 C 109.101 42.646, 109.224 43.624, 109.774 44.174 C 110.441 44.841, 111.016 44.783, 111.500 44 C 111.899 43.354, 111.776 42.376, 111.226 41.826 C 110.559 41.159, 109.984 41.217, 109.500 42 M 102.537 45.061 C 103.240 46.197, 106 46.319, 106 45.213 C 106 44.780, 105.090 44.357, 103.978 44.273 C 102.866 44.190, 102.218 44.544, 102.537 45.061" stroke="none" fill="#32483e" fill-rule="evenodd"/><path d="M 31.600 5.600 C 31.244 6.527, 31.178 7.511, 31.453 7.786 C 31.728 8.061, 32.244 7.527, 32.600 6.600 C 32.956 5.673, 33.022 4.689, 32.747 4.414 C 32.472 4.139, 31.956 4.673, 31.600 5.600 M 42.655 6.829 C 40.502 9.207, 40.545 10.890, 42.750 10.566 C 43.898 10.398, 44.516 9.396, 44.546 7.655 C 44.602 4.498, 44.718 4.549, 42.655 6.829 M 26.405 8.250 L 24.500 10.500 26.750 8.595 C 27.988 7.547, 29 6.535, 29 6.345 C 29 5.545, 28.195 6.136, 26.405 8.250 M 34 8.865 C 34 9.856, 34.675 10.667, 35.500 10.667 C 36.325 10.667, 37 10.115, 37 9.440 C 37 8.766, 36.325 7.955, 35.500 7.638 C 34.509 7.258, 34 7.674, 34 8.865 M 26.702 12.333 C 26.421 13.067, 26.748 13.667, 27.429 13.667 C 28.110 13.667, 28.667 13.067, 28.667 12.333 C 28.667 10.609, 27.364 10.609, 26.702 12.333 M 51.276 11.829 C 50.632 12.227, 50.431 13.080, 50.829 13.724 C 51.227 14.368, 52.080 14.569, 52.724 14.171 C 53.368 13.773, 53.569 12.920, 53.171 12.276 C 52.773 11.632, 51.920 11.431, 51.276 11.829 M 42.667 15.667 C 41.516 16.817, 41.938 18, 43.500 18 C 44.325 18, 45 17.325, 45 16.500 C 45 14.938, 43.817 14.516, 42.667 15.667 M 34 18 C 34 19.289, 34.506 19.998, 35.250 19.750 C 35.938 19.521, 36.500 18.733, 36.500 18 C 36.500 17.267, 35.938 16.479, 35.250 16.250 C 34.506 16.002, 34 16.711, 34 18 M 56.079 17.583 C 56.127 18.748, 56.364 18.985, 56.683 18.188 C 56.972 17.466, 56.936 16.603, 56.604 16.271 C 56.272 15.939, 56.036 16.529, 56.079 17.583 M 51 19.227 C 51 21.050, 52.773 22.561, 53.757 21.576 C 54.100 21.233, 53.620 20.192, 52.690 19.262 C 51.132 17.703, 51 17.700, 51 19.227 M 91.441 19.555 C 89.611 21.022, 89.643 21.042, 92 19.920 C 95.061 18.462, 95.628 18, 94.358 18 C 93.821 18, 92.509 18.700, 91.441 19.555 M 26 21.500 C 26 22.325, 26.675 23, 27.500 23 C 28.325 23, 29 22.325, 29 21.500 C 29 20.675, 28.325 20, 27.500 20 C 26.675 20, 26 20.675, 26 21.500 M 30.731 23.080 C 31.085 24.432, 31.538 24.886, 31.788 24.137 C 32.028 23.415, 31.750 22.350, 31.168 21.768 C 30.426 21.026, 30.296 21.417, 30.731 23.080 M 43.356 25.233 C 42.673 26.339, 43.571 27.320, 45.529 27.607 C 46.344 27.727, 47 27.045, 47 26.078 C 47 24.270, 44.334 23.651, 43.356 25.233 M 48.158 26 C 48.158 27.375, 48.385 27.938, 48.662 27.250 C 48.940 26.563, 48.940 25.438, 48.662 24.750 C 48.385 24.063, 48.158 24.625, 48.158 26 M 36 26.417 C 36 27.288, 36.712 28, 37.583 28 C 38.454 28, 38.989 27.466, 38.771 26.813 C 38.153 24.958, 36 24.651, 36 26.417 M 28.250 26.662 C 26.492 27.372, 26.688 30, 28.500 30 C 29.333 30, 30 29.111, 30 28 C 30 26.900, 29.887 26.036, 29.750 26.079 C 29.613 26.122, 28.938 26.385, 28.250 26.662 M 91.667 27.667 C 91.300 28.033, 91 28.798, 91 29.367 C 91 29.993, 91.466 29.934, 92.183 29.217 C 92.834 28.566, 93.134 27.801, 92.850 27.517 C 92.566 27.233, 92.033 27.300, 91.667 27.667 M 121.688 31.417 C 123.713 35.402, 123.650 35.354, 124.365 33.491 C 124.702 32.614, 124.579 32.142, 124.093 32.442 C 123.106 33.052, 121.735 30.238, 122.453 29.076 C 122.705 28.668, 122.284 28.333, 121.517 28.333 C 120.360 28.333, 120.389 28.860, 121.688 31.417 M 52 30 C 52 30.550, 52.477 31, 53.059 31 C 53.641 31, 53.840 30.550, 53.500 30 C 53.160 29.450, 52.684 29, 52.441 29 C 52.198 29, 52 29.450, 52 30 M 26.006 33.559 C 26.003 34.691, 26.661 36.491, 27.468 37.559 C 29.389 40.098, 29.414 38.022, 27.506 34.364 C 26.257 31.968, 26.011 31.837, 26.006 33.559 M 42.490 39.016 C 42.144 39.575, 41.330 39.728, 40.681 39.356 C 40.031 38.984, 39.851 39.065, 40.279 39.535 C 41.573 40.957, 43.667 40.866, 43.667 39.387 C 43.667 37.739, 43.343 37.637, 42.490 39.016 M 56.122 39.353 C 55.060 40.633, 55.544 42, 57.060 42 C 58.181 42, 59.019 39.130, 58.070 38.543 C 57.606 38.256, 56.730 38.621, 56.122 39.353 M 155.427 40.743 C 157.037 42.523, 158.575 43.759, 158.844 43.490 C 159.113 43.220, 159.146 42.888, 158.917 42.750 C 158.688 42.612, 157.150 41.377, 155.500 40.004 L 152.500 37.507 155.427 40.743 M 122.079 40.583 C 122.127 41.748, 122.364 41.985, 122.683 41.188 C 122.972 40.466, 122.936 39.603, 122.604 39.271 C 122.272 38.939, 122.036 39.529, 122.079 40.583 M 33.325 40.658 C 33.687 41.020, 33.424 42.032, 32.741 42.908 C 31.670 44.281, 31.719 44.330, 33.092 43.259 C 33.968 42.576, 35.078 42.351, 35.559 42.759 C 36.040 43.166, 35.831 42.712, 35.095 41.750 C 34.358 40.788, 33.510 40, 33.211 40 C 32.912 40, 32.963 40.296, 33.325 40.658 M 53.079 42.583 C 53.127 43.748, 53.364 43.985, 53.683 43.188 C 53.972 42.466, 53.936 41.603, 53.604 41.271 C 53.272 40.939, 53.036 41.529, 53.079 42.583 M 151 43 C 151 43.550, 151.477 44, 152.059 44 C 152.641 44, 152.840 43.550, 152.500 43 C 152.160 42.450, 151.684 42, 151.441 42 C 151.198 42, 151 42.450, 151 43 M 44 43.378 C 44 43.585, 44.685 44.324, 45.523 45.019 C 46.796 46.076, 46.943 46.014, 46.416 44.641 C 45.878 43.240, 44 42.257, 44 43.378 M 193.986 45.132 C 192.950 47.405, 187.964 51, 185.848 51 C 183.516 51, 178.811 59.145, 180.289 60.623 C 180.575 60.909, 181.103 59.807, 181.462 58.175 C 182.213 54.756, 184.150 52.864, 188.776 51.033 C 192.011 49.752, 196.755 44.422, 195.647 43.313 C 195.332 42.999, 194.585 43.817, 193.986 45.132 M 162.599 47.189 C 164.303 49.010, 166.441 51.613, 167.349 52.973 C 168.257 54.332, 169 55.051, 169 54.570 C 169 53.161, 162.640 45.140, 161 44.481 C 160.175 44.149, 160.894 45.367, 162.599 47.189 M 187.872 45.750 C 186.629 47.336, 186.664 47.371, 188.250 46.128 C 189.916 44.821, 190.445 44, 189.622 44 C 189.415 44, 188.627 44.788, 187.872 45.750 M 153.735 45.836 C 154.400 46.247, 155.375 48.365, 155.901 50.542 L 156.857 54.500 156.679 49.944 C 156.533 46.180, 156.156 45.362, 154.514 45.238 C 153.260 45.144, 152.972 45.365, 153.735 45.836 M 22.446 47.087 C 22.077 47.685, 22.294 48.694, 22.929 49.329 C 23.801 50.201, 24.301 50.131, 24.976 49.039 C 25.929 47.497, 25.448 46, 24 46 C 23.515 46, 22.816 46.489, 22.446 47.087 M 144 47.500 C 144 48.325, 144.436 49, 144.969 49 C 145.501 49, 145.678 48.325, 145.362 47.500 C 145.045 46.675, 144.609 46, 144.393 46 C 144.177 46, 144 46.675, 144 47.500 M 148.232 49 C 148.232 50.925, 148.438 51.712, 148.689 50.750 C 148.941 49.788, 148.941 48.212, 148.689 47.250 C 148.438 46.288, 148.232 47.075, 148.232 49 M 19.459 50.067 C 19.096 50.653, 19.014 51.348, 19.276 51.610 C 19.538 51.872, 20.019 51.392, 20.345 50.543 C 21.021 48.781, 20.445 48.471, 19.459 50.067 M 58.431 50.112 C 57.569 51.507, 60.172 53.228, 61.355 52.045 C 62.316 51.084, 61.390 49, 60 49 C 59.515 49, 58.809 49.500, 58.431 50.112 M 195.790 53.044 C 194.870 54.647, 192.628 56.866, 190.808 57.975 C 187.246 60.147, 187.464 60.657, 191.221 58.945 C 193.494 57.909, 198.686 51.353, 197.875 50.542 C 197.648 50.315, 196.710 51.441, 195.790 53.044 M 27.610 53.573 C 27.190 54.669, 27.511 55.048, 28.671 54.823 C 29.586 54.645, 30.522 53.938, 30.750 53.250 C 31.363 51.411, 28.320 51.724, 27.610 53.573 M 42.195 54.500 C 42.215 56.150, 42.439 56.704, 42.693 55.731 C 42.947 54.758, 42.930 53.408, 42.656 52.731 C 42.382 52.054, 42.175 52.850, 42.195 54.500 M 123.824 56.046 C 122.903 58.221, 122.329 60, 122.549 60 C 123.282 60, 126.126 53.878, 125.811 52.978 C 125.640 52.491, 124.746 53.872, 123.824 56.046 M 201.415 53.138 C 200.983 53.836, 201.123 54.042, 201.760 53.648 C 202.348 53.285, 203.057 53.553, 203.336 54.244 C 203.698 55.143, 203.865 55.161, 203.921 54.309 C 204.035 52.588, 202.265 51.761, 201.415 53.138 M 21.500 54 C 21.840 54.550, 21.416 55, 20.559 55 C 19.702 55, 19.036 55.788, 19.079 56.750 C 19.134 57.970, 19.322 58.087, 19.700 57.137 C 20.021 56.329, 20.498 56.176, 20.871 56.761 C 21.264 57.379, 22.401 57.411, 23.906 56.849 C 26.235 55.978, 26.251 55.903, 24.406 54.506 C 22.191 52.830, 20.606 52.554, 21.500 54 M 35.533 53.947 C 34.653 55.370, 35.775 57, 37.632 57 C 38.508 57, 39.010 56.297, 38.823 55.333 C 38.434 53.324, 36.437 52.484, 35.533 53.947 M 45.696 54.349 C 44.961 56.265, 45.805 57, 48.740 57 C 50.492 57, 51.056 56.524, 50.813 55.250 C 50.398 53.070, 46.453 52.376, 45.696 54.349 M 54.079 55.583 C 54.127 56.748, 54.364 56.985, 54.683 56.188 C 54.972 55.466, 54.936 54.603, 54.604 54.271 C 54.272 53.939, 54.036 54.529, 54.079 55.583 M 86.031 54.500 C 86.031 55.050, 86.467 56.175, 87 57 C 87.533 57.825, 87.969 58.050, 87.969 57.500 C 87.969 56.950, 87.533 55.825, 87 55 C 86.467 54.175, 86.031 53.950, 86.031 54.500 M 117.079 54.668 C 117.036 55.311, 116.741 56.661, 116.424 57.668 C 115.877 59.409, 115.906 59.412, 116.995 57.712 C 117.626 56.729, 117.920 55.379, 117.650 54.712 C 117.295 53.837, 117.136 53.825, 117.079 54.668 M 149.004 54.300 C 148.987 57.776, 158.001 67.008, 161.400 66.996 C 162.005 66.994, 160.972 66.061, 159.105 64.923 C 154.858 62.333, 153.667 61.142, 151.077 56.895 C 149.939 55.028, 149.006 53.860, 149.004 54.300 M 199.624 56.539 C 198.659 59.053, 198.943 59.702, 200.122 57.675 C 200.706 56.671, 200.973 55.639, 200.715 55.382 C 200.458 55.124, 199.966 55.645, 199.624 56.539 M 57.976 57.015 C 57.015 57.609, 56.897 58.429, 57.563 59.865 C 58.390 61.644, 58.720 61.717, 60.372 60.491 C 62.013 59.273, 62.064 58.921, 60.784 57.641 C 59.887 56.744, 58.804 56.503, 57.976 57.015 M 169.086 57 C 169.055 57.825, 169.467 59.175, 170 60 C 171.181 61.828, 171.181 60.249, 170 57.500 C 169.433 56.181, 169.122 56.011, 169.086 57 M 157 58 C 157.825 58.533, 159.175 58.945, 160 58.914 C 160.989 58.878, 160.819 58.567, 159.500 58 C 156.751 56.819, 155.172 56.819, 157 58 M 27 62.378 C 27 63.135, 27.759 64.373, 28.687 65.128 C 30.178 66.340, 30.292 66.279, 29.664 64.609 C 29.051 62.976, 29.170 62.896, 30.534 64.028 C 31.849 65.119, 32.062 65.101, 31.806 63.919 C 31.204 61.128, 27 59.779, 27 62.378 M 120 62 C 119.099 62.582, 118.975 62.975, 119.691 62.985 C 120.346 62.993, 121.160 62.550, 121.500 62 C 122.267 60.758, 121.921 60.758, 120 62 M 46.604 63.590 C 45.370 66.806, 48.668 68.310, 50.942 65.570 C 51.890 64.428, 51.726 63.924, 50.130 63.070 C 47.528 61.677, 47.326 61.707, 46.604 63.590 M 170.232 65 C 170.232 66.925, 170.438 67.713, 170.689 66.750 C 170.941 65.787, 170.941 64.213, 170.689 63.250 C 170.438 62.288, 170.232 63.075, 170.232 65 M 177.981 63.523 C 176.924 64.796, 176.986 64.943, 178.359 64.416 C 179.261 64.069, 180 63.384, 180 62.893 C 180 61.607, 179.421 61.788, 177.981 63.523 M 191.500 64.043 C 189.300 65.137, 188.329 65.799, 189.343 65.512 C 190.356 65.226, 192.269 64.720, 193.593 64.387 C 194.917 64.055, 196 63.382, 196 62.892 C 196 61.756, 196.198 61.705, 191.500 64.043 M 38.377 65.460 C 38.034 66.354, 37.969 67.302, 38.233 67.567 C 39.080 68.414, 42.098 66.793, 41.730 65.689 C 41.129 63.887, 39.035 63.744, 38.377 65.460 M 90 64.378 C 90 64.585, 90.787 65.373, 91.750 66.128 C 93.336 67.371, 93.371 67.336, 92.128 65.750 C 90.821 64.084, 90 63.555, 90 64.378 M 175.459 67.067 C 175.096 67.653, 175.014 68.348, 175.276 68.610 C 175.538 68.872, 176.019 68.392, 176.345 67.543 C 177.021 65.781, 176.445 65.471, 175.459 67.067 M 181.981 69.523 C 180.924 70.796, 180.986 70.943, 182.359 70.416 C 183.261 70.069, 184 69.384, 184 68.893 C 184 67.607, 183.421 67.788, 181.981 69.523 M 191.507 68.989 C 191.157 69.555, 191.558 69.723, 192.448 69.382 C 194.180 68.717, 194.497 68, 193.059 68 C 192.541 68, 191.843 68.445, 191.507 68.989 M 41.269 72.693 C 42.242 72.947, 43.592 72.930, 44.269 72.656 C 44.946 72.382, 44.150 72.175, 42.500 72.195 C 40.850 72.215, 40.296 72.439, 41.269 72.693 M 180.813 72.683 C 181.534 72.972, 182.397 72.936, 182.729 72.604 C 183.061 72.272, 182.471 72.036, 181.417 72.079 C 180.252 72.127, 180.015 72.364, 180.813 72.683" stroke="none" fill="#e1bf59" fill-rule="evenodd"/></svg>