<svg xmlns="http://www.w3.org/2000/svg" width="640" height="640" viewBox="0 0 640 640" version="1.1"><path d="M 232.803 2.399 C 227.506 3.825, 220.208 8.293, 219.297 10.669 C 218.964 11.535, 219.439 14.326, 220.351 16.872 C 221.263 19.417, 222.008 22.432, 222.005 23.570 C 221.997 26.826, 216.096 32.900, 205.598 40.461 C 194.843 48.206, 193.795 50.002, 196.515 56.032 C 199.760 63.228, 200.357 63.392, 211.071 60.011 C 221.917 56.588, 224 56.366, 224 58.634 C 224 59.533, 224.539 62.068, 225.198 64.268 C 226.113 67.321, 227.179 68.594, 229.698 69.647 C 231.514 70.406, 233 71.609, 233 72.321 C 233 73.033, 230.078 74.764, 226.506 76.168 C 221.106 78.290, 219.822 78.490, 218.884 77.360 C 216.562 74.562, 214.583 75.107, 171.109 90.510 C 162.647 93.508, 160.672 94.691, 159.745 97.312 C 159.588 97.759, 158.201 97.647, 156.664 97.062 C 155.127 96.478, 152.559 96, 150.958 96 C 148.939 96, 147.533 95.217, 146.373 93.446 C 144.736 90.948, 144.777 90.812, 148.264 87.196 C 163.051 71.865, 159.427 47.965, 140.796 37.940 C 135.071 34.860, 133.729 34.550, 126 34.526 C 118.698 34.504, 116.702 34.892, 111.839 37.280 C 101.305 42.453, 94.984 51.902, 94.219 63.621 C 93.589 73.258, 95.719 79.438, 102.064 86.380 C 107.866 92.728, 114.768 96.051, 123.629 96.762 C 129.676 97.248, 129.775 97.304, 130.853 100.905 C 131.800 104.065, 131.597 105.425, 129.344 111.028 C 127.912 114.587, 126.236 117.832, 125.620 118.238 C 125.004 118.644, 121.418 120.163, 117.650 121.613 C 111.249 124.078, 110.835 124.423, 111.327 126.876 C 112.649 133.465, 118.564 147.609, 121.114 150.277 C 124.134 153.437, 126.502 159.248, 125.662 161.437 C 125.377 162.182, 122.748 163.569, 119.821 164.519 C 116.895 165.469, 112.362 167.146, 109.750 168.246 C 104.359 170.516, 104.008 171.733, 106.573 179.260 C 108.762 185.684, 109.984 186.493, 115.425 185.123 C 123.062 183.200, 122.396 182.156, 132.884 212.500 C 145.740 249.692, 151.113 264.492, 152.583 266.750 C 153.729 268.513, 154.986 269, 158.387 269 C 169.461 269, 181.690 264.795, 187.750 258.902 C 192.855 253.939, 193.113 251.471, 189.515 242.025 C 188.148 238.436, 183.698 226.050, 179.625 214.500 C 175.553 202.950, 170.147 188.050, 167.611 181.390 C 165.075 174.729, 163 168.770, 163 168.148 C 163 167.525, 164.688 166.224, 166.750 165.256 C 169.624 163.907, 170.577 162.820, 170.830 160.603 C 171.136 157.925, 168.660 149.529, 167.028 147.709 C 166.638 147.274, 161.221 148.737, 154.991 150.959 C 148.761 153.182, 142.908 155, 141.984 155 C 140.053 155, 136.595 147.368, 138.103 146.436 C 138.618 146.118, 140.656 146.391, 142.632 147.043 C 147.665 148.705, 155.812 147.797, 161.594 144.931 C 165.973 142.760, 167.641 141.003, 171.623 134.371 C 172.708 132.563, 172.814 132.561, 174.771 134.312 C 176.739 136.074, 177.139 136, 189.148 131.634 C 195.941 129.164, 205.646 125.536, 210.712 123.571 C 215.779 121.607, 220.124 120, 220.367 120 C 220.611 120, 220.581 121.704, 220.302 123.786 C 219.993 126.089, 220.422 129.074, 221.397 131.408 C 222.279 133.518, 223 136.101, 223 137.149 C 223 138.196, 220.491 142.079, 217.423 145.777 C 210.560 154.051, 203.914 167.566, 200.838 179.500 C 197.584 192.129, 197.584 221.583, 200.839 239.383 C 203.491 253.889, 208.609 271.988, 214.987 289.412 C 234.029 341.438, 249.312 381.975, 281.940 467 C 292.809 495.325, 308.128 535.375, 315.982 556 C 332.774 600.099, 338.181 611.849, 345.233 619.565 C 351.341 626.248, 355.491 628.505, 364.584 630.088 C 378.525 632.516, 414.610 628.795, 437.722 622.547 C 469.721 613.896, 506.385 594.566, 529.841 573.980 C 534.979 569.472, 540.471 563.750, 542.046 561.266 C 549.568 549.405, 548.147 535.707, 535.953 502.537 C 532.711 493.716, 523.929 469.850, 516.437 449.500 C 508.946 429.150, 499.753 403.950, 496.008 393.500 C 485.952 365.438, 451 270.769, 442.340 248.136 C 438.208 237.336, 433.794 225.575, 432.532 222 C 414.705 171.505, 392.405 136.662, 365.733 117.629 C 358.122 112.198, 346.565 106.634, 339.463 104.981 C 330.134 102.810, 329.382 102.258, 325.415 94.661 C 323.358 90.722, 321.186 87.134, 320.588 86.688 C 319.989 86.241, 312.413 86.069, 303.750 86.306 C 284.967 86.820, 283.572 85.800, 296.750 81.188 C 310.903 76.235, 317.001 73.244, 316.989 71.263 C 316.961 66.653, 309.887 49, 308.068 49 C 307.540 49, 302.021 50.843, 295.804 53.096 C 278.591 59.334, 277.061 59.710, 275.956 57.971 C 275.442 57.162, 275.280 55.825, 275.596 55 C 278.180 48.253, 275.891 40.704, 270.579 38.457 L 267.500 37.155 270 36.195 C 280.034 32.340, 288.169 28.470, 289.628 26.859 C 291.259 25.057, 291.258 24.661, 289.620 19.464 C 286.823 10.591, 286.358 10.466, 265.380 12.958 C 245.498 15.320, 246.462 15.539, 243.556 8 C 240.631 0.410, 240.482 0.332, 232.803 2.399 M 232.500 4.217 C 230.850 4.800, 227.700 6.478, 225.500 7.946 C 221.059 10.908, 220.715 12.671, 223.264 19.391 C 224.075 21.531, 224.528 24.090, 224.269 25.078 C 223.406 28.379, 217.033 34.816, 208.225 41.283 C 197.899 48.863, 196.782 50.042, 198.042 52.034 C 198.831 53.281, 198.972 53.254, 198.985 51.855 C 198.993 50.934, 203.847 46.592, 209.998 42.002 C 226.796 29.466, 228.620 26.548, 225.466 17.268 L 223.631 11.870 226.565 9.509 C 230.840 6.070, 237.504 4.346, 239.657 6.122 C 241.174 7.373, 241.217 7.293, 240.129 5.250 C 238.828 2.808, 237.137 2.580, 232.500 4.217 M 238.233 30.472 C 235.337 31.820, 232.714 33.583, 232.404 34.389 C 232.095 35.195, 232.776 37.965, 233.917 40.545 C 235.499 44.121, 236.409 45.109, 237.746 44.705 C 242.225 43.351, 251.572 39.771, 252.201 39.169 C 253.056 38.350, 249.371 29.856, 247.699 28.793 C 245.733 27.543, 243.780 27.889, 238.233 30.472 M 121.407 37.031 C 106.451 39.996, 96.665 51.443, 96.643 66 C 96.626 76.879, 102.797 86.776, 112.533 91.485 C 118.181 94.216, 128.509 94.656, 135.157 92.448 C 142.979 89.850, 151.279 81.289, 153.550 73.477 C 158.291 57.167, 148.846 41.326, 132 37.334 C 128.975 36.618, 126.275 36.074, 126 36.125 C 125.725 36.177, 123.658 36.584, 121.407 37.031 M 248.013 42.981 C 238.917 46.146, 229.379 52.161, 227.098 56.169 C 225.895 58.283, 225.895 59.253, 227.098 62.995 C 228.738 68.096, 230.609 69.158, 231.913 65.728 C 233.213 62.308, 240.497 56.228, 247 53.134 C 251.729 50.883, 253.831 50.515, 262 50.508 C 267.225 50.504, 272.175 50.725, 273 51 C 275.491 51.830, 275.474 45.872, 272.976 42.697 C 271.022 40.212, 270.290 40.001, 263.677 40.013 C 258.335 40.023, 254.330 40.782, 248.013 42.981 M 116.878 42.563 C 111.319 44.274, 105.167 49.957, 102.169 56.150 C 99.726 61.198, 99.502 64.579, 101.114 72.097 C 103.236 81.992, 113.490 90.025, 124.322 90.278 C 139.090 90.624, 149.299 82.188, 150.715 68.471 C 151.443 61.417, 150.506 57.054, 147.207 52.142 C 144.533 48.160, 138.577 43, 136.656 43 C 136.130 43, 137.508 44.310, 139.719 45.911 C 147.220 51.345, 150.621 58.698, 149.710 67.516 C 147.958 84.492, 131.006 93.955, 115.500 86.613 C 105.914 82.073, 102.017 75.520, 102.006 63.921 C 101.993 50.925, 115.120 40.796, 130.109 42.236 C 133.062 42.520, 134.613 42.370, 133.835 41.877 C 131.786 40.578, 122.042 40.973, 116.878 42.563 M 116.585 48.638 C 116.170 49.720, 116.505 50.703, 117.471 51.244 C 119.986 52.651, 124.350 62.050, 123.078 63.322 C 121.521 64.879, 121.751 67.067, 123.698 69.219 C 125.588 71.308, 125.636 79.989, 123.764 81.146 C 122.398 81.990, 123.643 85.286, 125.139 84.787 C 125.783 84.572, 126.411 81.659, 126.586 78.074 C 126.821 73.261, 127.410 71.192, 129.038 69.459 C 131.745 66.578, 131.258 63.890, 127.724 62.196 C 124.760 60.776, 120.044 52.663, 120.329 49.478 C 120.548 47.038, 117.465 46.347, 116.585 48.638 M 302.500 52.534 C 300.850 53.288, 294.663 55.539, 288.750 57.535 C 282.837 59.532, 278 61.510, 278 61.931 C 278 62.353, 279.782 66.928, 281.961 72.099 C 285.799 81.207, 286.017 81.492, 288.956 81.247 C 292.049 80.989, 312.881 73.519, 314.207 72.193 C 315.086 71.314, 309.916 54.809, 308.063 52.575 C 306.536 50.736, 306.433 50.736, 302.500 52.534 M 257.780 53.030 C 248.389 54.613, 235.554 61.944, 234.446 66.359 C 233.956 68.310, 240.454 86.169, 246.054 98.264 C 247.488 101.361, 248.318 101.300, 256 97.536 C 262.137 94.529, 270.353 91.413, 277.250 89.474 C 281.326 88.329, 283 87.369, 282.999 86.179 C 282.998 82.961, 273.237 56.587, 271.202 54.302 C 269.001 51.831, 266.376 51.582, 257.780 53.030 M 226.235 78.980 C 223.889 80.045, 221.720 81.566, 221.415 82.360 C 221.110 83.155, 221.727 85.761, 222.786 88.152 C 223.844 90.544, 225.758 95.088, 227.039 98.250 C 228.542 101.962, 229.949 104, 231.006 104 C 232.500 104, 242.006 101.120, 242.863 100.408 C 243.063 100.242, 241.295 94.908, 238.934 88.553 C 234.136 75.640, 233.932 75.486, 226.235 78.980 M 206.313 80.703 C 202.566 82.069, 191.850 85.868, 182.500 89.146 C 173.150 92.424, 164.910 95.689, 164.188 96.401 C 163.106 97.468, 163.232 98.731, 164.907 103.598 C 168.844 115.036, 175.652 130.378, 177.234 131.376 C 180.186 133.238, 228.117 114.944, 228.796 111.696 C 228.959 110.917, 227.987 108.200, 226.635 105.658 C 225.283 103.115, 222.541 96.124, 220.541 90.122 C 217.873 82.117, 216.401 79.077, 215.015 78.714 C 213.976 78.442, 210.060 79.338, 206.313 80.703 M 302 88.677 C 281.374 91.013, 269.224 94.336, 254.619 101.635 C 237.654 110.113, 228.677 116.020, 225.531 120.774 C 223.031 124.552, 223.005 124.762, 224.512 129.034 C 225.363 131.446, 226.539 133.715, 227.126 134.078 C 227.714 134.441, 232.988 131.381, 238.847 127.279 C 261.344 111.527, 282.458 104.577, 314.290 102.444 C 321.323 101.973, 325 101.330, 325 100.569 C 325 99.933, 323.535 96.956, 321.744 93.956 L 318.488 88.500 311.994 88.390 C 308.422 88.330, 303.925 88.458, 302 88.677 M 138.500 94.059 C 136.300 95.098, 133.682 95.959, 132.683 95.974 C 131.267 95.994, 131.015 96.497, 131.545 98.250 C 132.604 101.754, 133.826 102.617, 135.778 101.238 C 136.725 100.569, 139.216 99.093, 141.313 97.958 C 143.715 96.658, 145.010 95.297, 144.813 94.280 C 144.364 91.966, 143.033 91.920, 138.500 94.059 M 144.759 99.390 C 142.702 100.143, 139.910 101.484, 138.556 102.372 C 135.045 104.672, 131.184 111.751, 129.869 118.297 C 128.921 123.018, 129.013 124.757, 130.445 129.207 C 134.911 143.082, 143.169 148.020, 155.923 144.441 C 163.334 142.362, 167.025 139.156, 169.505 132.640 C 171.092 128.472, 171.174 127.333, 170.079 124.640 C 169.377 122.913, 167.187 117.054, 165.214 111.621 C 162.090 103.018, 161.230 101.576, 158.563 100.462 C 153.414 98.312, 148.707 97.947, 144.759 99.390 M 234.750 107.162 C 233.238 107.715, 232 108.579, 232 109.083 C 232 110.488, 233.253 110.149, 236 108 C 238.798 105.811, 238.675 105.729, 234.750 107.162 M 294.500 109.029 C 269.157 112.939, 242.678 126.497, 223.845 145.207 C 217.556 151.454, 215.233 154.673, 211.576 162.207 C 204.137 177.532, 202.491 186.033, 202.612 208.500 C 202.691 223.141, 203.197 230.139, 204.816 239 C 207.267 252.420, 213.418 275.259, 218.574 290.084 C 222.127 300.301, 256.199 389.385, 284.519 462.500 C 299.036 499.982, 315.232 542.934, 326.184 573 C 336.935 602.514, 347.105 619.009, 357.587 623.936 C 365.337 627.579, 379.914 628.297, 399.801 626.016 C 431.479 622.383, 454.762 615.040, 485.895 598.864 C 507.069 587.863, 519.187 579.608, 531.829 567.573 C 540.857 558.979, 543.553 550.995, 541.904 537.728 C 540.428 525.845, 535.666 511.211, 518.630 466.196 C 510.032 443.478, 497.858 410.628, 491.575 393.196 C 470.361 334.334, 430.973 226.573, 426.808 216 C 421.037 201.350, 409.206 176.774, 402.890 166.318 C 383.527 134.262, 359.409 113.582, 335.471 108.511 C 326.158 106.539, 309.257 106.752, 294.500 109.029 M 147.031 110.330 C 140.607 112.012, 137.666 116.566, 138.257 123.918 C 138.620 128.430, 139.212 129.801, 141.802 132.114 C 147.242 136.975, 154.946 137.144, 159.586 132.505 C 161.568 130.523, 162 129.080, 162 124.447 C 162 117.146, 159.652 112.170, 155.360 110.377 C 153.547 109.620, 151.937 109.036, 151.782 109.080 C 151.627 109.125, 149.489 109.687, 147.031 110.330 M 144.995 113.222 C 140.149 116.484, 138.632 119.948, 139.955 124.729 C 141.213 129.271, 141.775 130.120, 144.973 132.308 C 149.429 135.358, 158.778 133.627, 160.379 129.455 C 162.076 125.033, 160.129 116.003, 156.905 113.339 C 156.132 112.701, 153.923 111.884, 151.995 111.524 C 149.251 111.011, 147.731 111.380, 144.995 113.222 M 118.500 123.668 C 115.750 125.085, 113.353 126.373, 113.174 126.532 C 112.859 126.810, 120.821 147.137, 121.525 147.853 C 122.160 148.498, 135 143.852, 135 142.977 C 135 142.505, 134.541 141.835, 133.981 141.488 C 132.429 140.529, 128.335 131.944, 127.549 128 C 125.911 119.788, 125.975 119.818, 118.500 123.668 M 129.060 148.395 C 124.741 149.956, 124.334 151.197, 126.539 156.087 C 128.562 160.573, 129.543 160.784, 135.123 157.937 C 138.187 156.374, 139 155.466, 138.481 154.187 C 138.104 153.259, 137.347 151.262, 136.800 149.750 C 135.710 146.740, 134.317 146.496, 129.060 148.395 M 152.500 153.563 C 146.450 156.051, 135.425 160.329, 128 163.070 C 107.773 170.537, 107 170.928, 107 173.692 C 107 175.005, 107.909 177.862, 109.020 180.040 C 110.568 183.073, 111.631 184, 113.564 184 C 115.999 184, 153.901 169.428, 163.700 164.724 C 168.450 162.444, 168.498 162.372, 168.348 157.828 C 168.182 152.796, 166.612 148.989, 164.715 149.020 C 164.047 149.030, 158.550 151.075, 152.500 153.563 M 157 169.453 C 155.625 170.175, 147.975 173.350, 140 176.508 C 132.025 179.666, 125.172 182.544, 124.770 182.905 C 123.933 183.656, 131.427 203.309, 132.714 203.738 C 133.180 203.893, 136.205 201.786, 139.436 199.054 C 148.139 191.696, 155.094 188.694, 162.244 189.211 C 165.410 189.440, 168 189.297, 168 188.893 C 168 187.150, 161.718 170.391, 160.663 169.320 C 159.769 168.413, 158.921 168.443, 157 169.453 M 154.759 191.376 C 150.171 193.071, 146.924 195.129, 140.723 200.270 C 132.318 207.240, 132.205 210.167, 140.341 210.167 C 150.552 210.167, 162.975 204.176, 166.557 197.524 C 168.259 194.364, 168.293 193.864, 166.904 192.475 C 164.700 190.272, 159.117 189.767, 154.759 191.376 M 378.548 191.923 C 378.234 192.431, 376.538 193.162, 374.778 193.549 C 370.698 194.445, 366 197.896, 366 199.997 C 366 200.888, 365.339 202.491, 364.532 203.559 C 362.584 206.134, 362.564 213.393, 364.500 215 C 365.325 215.685, 366 216.997, 366 217.916 C 366 218.836, 367.760 221.256, 369.911 223.294 C 373.542 226.735, 374.258 227, 379.911 227 C 383.693 227, 386 226.581, 386 225.894 C 386 225.286, 387.115 223.911, 388.477 222.839 C 392.522 219.657, 396.319 209.632, 394.250 207.595 C 393.837 207.189, 392.972 205.426, 392.326 203.678 C 391.448 201.302, 391.133 201.024, 391.076 202.576 C 390.987 205.014, 387.072 209, 384.767 209 C 381.942 209, 377.115 205.595, 376.508 203.174 C 375.832 200.481, 376.755 196.839, 378.385 195.765 C 378.998 195.361, 381.075 195.021, 383 195.009 L 386.500 194.987 383.500 193 C 380.125 190.765, 379.365 190.600, 378.548 191.923 M 166.462 200.311 C 161.929 206.561, 152.343 211.150, 142.498 211.782 C 136.015 212.198, 134.982 212.509, 135.512 213.885 C 135.854 214.773, 139.725 226.032, 144.115 238.905 C 148.504 251.778, 152.552 263.162, 153.109 264.203 C 154.868 267.490, 158.395 268.097, 166.269 266.469 C 176.242 264.407, 185.962 259.423, 188.415 255.115 C 190.117 252.125, 190.202 251.203, 189.139 247.230 C 187.502 241.110, 170.625 195.992, 170 196.064 C 169.725 196.096, 168.133 198.007, 166.462 200.311 M 287.115 202.639 C 285.254 203.451, 282.355 205.492, 280.673 207.173 C 277.775 210.071, 277.613 210.655, 277.568 218.365 C 277.526 225.462, 277.830 226.915, 279.948 229.750 C 281.283 231.537, 283.136 233, 284.066 233 C 284.995 233, 286.315 233.675, 287 234.500 C 290.105 238.241, 301.331 234.722, 305.218 228.790 C 307.880 224.728, 308.101 210, 305.500 210 C 304.675 210, 304 210.868, 304 211.929 C 304 214.820, 301.257 217, 297.620 217 C 292.103 217, 290.342 214.471, 290.844 207.269 C 290.948 205.784, 291.845 204.826, 293.527 204.404 C 295.543 203.898, 295.821 203.490, 294.904 202.385 C 293.481 200.670, 291.481 200.735, 287.115 202.639 M 351.773 250.750 C 347.760 255.338, 343.559 257, 335.978 257 C 332.205 257, 328.823 256.522, 328.462 255.938 C 328.101 255.354, 326.837 254.455, 325.653 253.941 C 324.469 253.426, 322.725 252.451, 321.778 251.775 C 320.476 250.845, 319.773 250.827, 318.901 251.699 C 317.166 253.434, 318.649 258, 320.948 258 C 321.998 258, 323.626 258.769, 324.565 259.708 C 325.954 261.097, 328.189 261.417, 336.500 261.417 C 344.811 261.417, 347.046 261.097, 348.435 259.708 C 349.374 258.769, 350.604 258, 351.167 258 C 351.730 258, 353.498 257.069, 355.096 255.932 C 357.171 254.454, 358 253.027, 358 250.932 C 358 247.073, 355.064 246.987, 351.773 250.750" stroke="none" fill="#000000" fill-rule="evenodd"/><path d="M 232.500 4.217 C 230.850 4.800, 227.700 6.478, 225.500 7.946 C 221.059 10.908, 220.715 12.671, 223.264 19.391 C 224.075 21.531, 224.528 24.090, 224.269 25.078 C 223.406 28.379, 217.033 34.816, 208.225 41.283 C 197.899 48.863, 196.782 50.042, 198.042 52.034 C 198.831 53.281, 198.972 53.254, 198.985 51.855 C 198.993 50.934, 203.847 46.592, 209.998 42.002 C 226.796 29.466, 228.620 26.548, 225.466 17.268 L 223.631 11.870 226.565 9.509 C 230.840 6.070, 237.504 4.346, 239.657 6.122 C 241.174 7.373, 241.217 7.293, 240.129 5.250 C 238.828 2.808, 237.137 2.580, 232.500 4.217 M 239.001 30.123 C 237.626 30.672, 235.516 32.045, 234.313 33.176 C 232.133 35.224, 232.131 35.249, 233.963 39.866 C 235.291 43.214, 236.314 44.452, 237.650 44.325 C 241.412 43.970, 252 39.458, 252 38.211 C 252 37.501, 251.091 35.138, 249.980 32.960 C 248.240 29.549, 247.511 29.009, 244.730 29.063 C 242.953 29.098, 240.375 29.575, 239.001 30.123 M 124.345 38.543 C 123.588 40.515, 124.293 41.208, 126.280 40.446 C 128.778 39.488, 129.252 37, 126.937 37 C 125.837 37, 124.671 37.694, 124.345 38.543 M 135 40.393 C 135 42.283, 137.707 43.206, 138.348 41.535 C 138.953 39.958, 138.192 39, 136.333 39 C 135.600 39, 135 39.627, 135 40.393 M 257 40.691 C 247.555 42.272, 235.066 48.300, 229.565 53.933 C 225.974 57.611, 225.887 57.868, 226.933 61.752 C 228.301 66.830, 230.552 68.987, 231.469 66.098 C 232.387 63.205, 241.171 55.610, 246.491 53.109 C 255.154 49.037, 263.207 48.257, 272.499 50.589 C 274.588 51.113, 275 50.862, 275 49.059 C 275 46.134, 272.441 41.383, 270.455 40.621 C 268.729 39.959, 261.138 39.998, 257 40.691 M 118.183 43.902 C 108.910 47.104, 102 55.805, 102 64.279 C 102 74.481, 106.442 82.114, 115 86.618 C 120.261 89.387, 132.148 89.168, 137.763 86.200 C 148.130 80.719, 152.899 65.440, 147.501 55.001 C 145.353 50.848, 140.066 45.935, 135.522 43.871 C 130.428 41.557, 124.944 41.567, 118.183 43.902 M 116.334 48.571 C 115.941 49.597, 116.286 50.736, 117.191 51.398 C 120.159 53.568, 123.117 60.861, 122.456 64.382 C 122.005 66.788, 122.301 68.158, 123.542 69.399 C 124.895 70.752, 125.108 72.079, 124.573 75.803 C 123.409 83.892, 123.437 84.500, 124.969 84.500 C 126.081 84.500, 126.504 82.938, 126.708 78.085 C 126.914 73.177, 127.449 71.230, 128.988 69.796 C 130.095 68.765, 131 67.072, 131 66.032 C 131 63.922, 128.490 61, 126.677 61 C 125.208 61, 120.500 52.270, 120.500 49.546 C 120.500 47.018, 117.225 46.251, 116.334 48.571 M 306.823 54.606 C 305.254 56.175, 300.025 58.307, 289.750 61.569 C 287.137 62.399, 285 63.510, 285 64.039 C 285 65.244, 288.690 65.311, 289.426 64.119 C 289.726 63.635, 290.990 62.991, 292.235 62.689 C 293.481 62.386, 297.922 60.870, 302.104 59.320 C 308.382 56.992, 309.599 56.192, 309.085 54.733 C 308.508 53.096, 308.342 53.087, 306.823 54.606 M 238.248 62.152 C 237.150 63.250, 238.895 68.802, 247.554 91.750 C 250.029 98.310, 251.983 100.455, 253.396 98.168 C 253.834 97.459, 240.871 62.538, 239.757 61.423 C 239.542 61.209, 238.863 61.537, 238.248 62.152 M 280 66 C 281.182 68.208, 281.833 68.392, 283.878 67.096 C 285.829 65.861, 284.344 64, 281.406 64 C 279.240 64, 279.064 64.250, 280 66 M 232.557 79.908 C 232.248 80.408, 229.746 81.393, 226.998 82.097 C 221.882 83.408, 221.569 83.712, 222.589 86.372 C 223.104 87.714, 223.639 87.662, 226.825 85.954 C 228.830 84.879, 231.152 83.993, 231.985 83.985 C 234.521 83.959, 236.104 82.434, 235.427 80.670 C 234.723 78.836, 233.431 78.493, 232.557 79.908 M 104.471 83.047 C 104.082 83.677, 104.430 84.859, 105.245 85.674 C 106.554 86.982, 106.794 86.980, 107.304 85.651 C 108.044 83.722, 105.499 81.383, 104.471 83.047 M 215.833 82.915 C 215.650 83.419, 204.250 87.988, 190.500 93.070 C 176.750 98.152, 165.405 102.372, 165.290 102.448 C 165.174 102.525, 165.341 103.590, 165.662 104.815 C 166.136 106.630, 166.513 106.819, 167.694 105.839 C 168.915 104.826, 179.035 100.962, 214.102 88.119 C 218.203 86.617, 218.615 86.192, 217.884 84.217 C 217.008 81.846, 216.370 81.442, 215.833 82.915 M 147.946 87.750 L 144.500 91.500 148.250 88.054 C 150.313 86.158, 152 84.471, 152 84.304 C 152 83.540, 151.154 84.260, 147.946 87.750 M 112.652 89.465 C 112.047 91.042, 112.808 92, 114.667 92 C 115.400 92, 116 91.373, 116 90.607 C 116 88.717, 113.293 87.794, 112.652 89.465 M 138.500 94.027 C 136.300 95.052, 133.704 96.101, 132.731 96.357 C 131.210 96.757, 131.128 97.186, 132.142 99.411 C 133.604 102.622, 134.305 102.632, 138.411 99.500 C 140.214 98.125, 142.209 97, 142.844 97 C 143.480 97, 144 95.875, 144 94.500 C 144 91.583, 143.781 91.564, 138.500 94.027 M 142.436 100.413 C 140.751 101.146, 137.767 103.623, 135.805 105.915 C 129.545 113.228, 128.058 123.821, 132.030 132.801 C 135.824 141.379, 140.810 145, 148.825 145 C 159.336 145, 167.004 140.095, 169.469 131.792 C 170.807 127.288, 170.754 126.690, 168.577 121.752 C 167.304 118.863, 165.230 113.286, 163.969 109.358 C 161.992 103.200, 161.211 101.994, 158.304 100.608 C 154.246 98.673, 146.646 98.579, 142.436 100.413 M 146.445 110.068 C 141.445 111.522, 138.727 115.243, 138.223 121.329 C 137.438 130.792, 142.128 136, 151.435 136 C 160.680 136, 165.338 127.411, 161.518 117.407 C 158.823 110.351, 153.833 107.921, 146.445 110.068 M 142.968 114.680 C 139.971 117.202, 139.809 117.680, 140.229 122.745 C 140.807 129.718, 143.826 133.001, 150.335 133.734 C 154.432 134.196, 155.219 133.935, 157.952 131.202 C 161.625 127.529, 161.986 122.854, 159.043 117.083 C 156.837 112.761, 155.483 112, 149.995 112 C 147.287 112, 145.213 112.791, 142.968 114.680 M 123.519 125.606 C 122.430 126.405, 119.861 127.560, 117.812 128.175 C 114.680 129.113, 114.237 129.574, 115.034 131.063 C 115.932 132.742, 116.260 132.722, 121.241 130.695 C 124.134 129.518, 126.622 128.496, 126.771 128.423 C 126.921 128.350, 126.696 127.360, 126.271 126.223 C 125.575 124.356, 125.307 124.296, 123.519 125.606 M 380.500 130 C 383.766 133.300, 386.662 136, 386.937 136 C 387.212 136, 384.766 133.300, 381.500 130 C 378.234 126.700, 375.338 124, 375.063 124 C 374.788 124, 377.234 126.700, 380.500 130 M 129.676 148.454 C 127.572 149.203, 125.612 150.055, 125.320 150.347 C 124.625 151.042, 128.048 160, 129.009 160 C 129.414 160, 131.805 159.089, 134.322 157.976 L 138.897 155.952 137.128 151.786 C 136.155 149.494, 134.941 147.501, 134.429 147.356 C 133.918 147.211, 131.779 147.705, 129.676 148.454 M 146.750 148.706 C 147.988 148.944, 150.012 148.944, 151.250 148.706 C 152.488 148.467, 151.475 148.272, 149 148.272 C 146.525 148.272, 145.512 148.467, 146.750 148.706 M 149.500 155.048 C 141.250 158.354, 129.100 163.037, 122.500 165.455 C 115.900 167.872, 109.713 170.157, 108.750 170.532 C 106.622 171.361, 106.531 173.634, 108.442 178.207 C 110.993 184.312, 112.268 184.741, 119.850 182.049 C 128.989 178.804, 157.325 167.364, 163.840 164.290 C 169.117 161.799, 169.172 161.728, 168.549 158.135 C 167.792 153.772, 165.999 148.993, 165.129 149.019 C 164.783 149.029, 157.750 151.742, 149.500 155.048 M 148.500 173.371 C 143 175.737, 135.463 178.755, 131.750 180.077 C 127.317 181.656, 125 183.019, 125 184.047 C 125 185.420, 131.661 202.941, 132.527 203.846 C 132.709 204.036, 135.626 201.887, 139.010 199.071 C 149.377 190.444, 158.618 186.764, 164.399 188.962 C 165.982 189.564, 167.438 189.896, 167.633 189.700 C 167.944 189.390, 163.489 175.625, 161.500 170.750 C 160.520 168.348, 159.876 168.478, 148.500 173.371 M 151.337 193.519 C 144.011 197.170, 134.442 206.102, 135.342 208.449 C 135.953 210.040, 136.815 210.200, 141.913 209.667 C 145.141 209.329, 150.358 208.090, 153.506 206.912 C 159.787 204.562, 167 198.213, 167 195.035 C 167 190.482, 158.987 189.707, 151.337 193.519 M 380.258 196.298 C 375.474 198.433, 376.313 204.397, 381.715 206.654 C 385.036 208.042, 385.373 207.998, 387.619 205.889 C 390.429 203.249, 390.589 201.276, 388.228 198.383 C 386.092 195.766, 383.166 195, 380.258 196.298 M 167.471 200.058 C 162.954 206.813, 152.203 212.025, 142.177 212.319 C 138.783 212.419, 136.004 212.589, 136.003 212.698 C 135.983 214.177, 152.382 260.973, 153.735 263.298 C 156.142 267.436, 159.531 267.797, 169.742 265.003 C 182.093 261.625, 189 256.716, 189 251.316 C 189 250.084, 187.924 245.797, 186.608 241.788 C 183.829 233.320, 170.575 198.242, 169.900 197.567 C 169.649 197.315, 168.556 198.436, 167.471 200.058 M 197.370 207 C 197.370 212.775, 197.535 215.137, 197.737 212.250 C 197.939 209.363, 197.939 204.637, 197.737 201.750 C 197.535 198.863, 197.370 201.225, 197.370 207 M 393.607 199.826 C 392.910 200.954, 394.038 205, 395.049 205 C 396.174 205, 397.270 201.246, 396.506 200.009 C 395.751 198.788, 394.306 198.697, 393.607 199.826 M 302.681 202.653 C 301.588 203.746, 301.897 206, 303.140 206 C 303.767 206, 304.861 206.787, 305.572 207.750 C 306.484 208.983, 307.182 209.188, 307.939 208.443 C 308.701 207.694, 308.192 206.600, 306.187 204.679 C 304.633 203.190, 303.055 202.278, 302.681 202.653 M 291.863 207.402 C 291.135 208.998, 291.085 210.760, 291.711 212.652 C 292.493 215.011, 293.297 215.554, 296.397 215.815 C 302.562 216.333, 304.962 212.246, 301.443 207.223 C 299.189 204.004, 293.361 204.114, 291.863 207.402 M 308.742 214.697 C 308.499 215.139, 308.368 217.525, 308.452 220 C 308.558 223.132, 309.033 224.500, 310.014 224.500 C 311.793 224.500, 312.102 214.869, 310.342 214.281 C 309.705 214.068, 308.985 214.256, 308.742 214.697 M 394 218.500 C 394 219.875, 394.450 221, 395 221 C 395.550 221, 396 219.875, 396 218.500 C 396 217.125, 395.550 216, 395 216 C 394.450 216, 394 217.125, 394 218.500 M 362.166 219.060 C 362.350 220.316, 363.100 221.541, 363.834 221.783 C 364.741 222.082, 365.061 221.491, 364.834 219.940 C 364.650 218.684, 363.900 217.459, 363.166 217.217 C 362.259 216.918, 361.939 217.509, 362.166 219.060 M 389.090 224.073 C 387.311 225.554, 386.973 226.373, 387.800 227.200 C 388.627 228.027, 389.446 227.689, 390.927 225.910 C 394.393 221.747, 393.253 220.607, 389.090 224.073 M 378 229.500 C 378 230.664, 378.727 231.042, 380.531 230.816 C 381.923 230.642, 383.062 230.050, 383.062 229.500 C 383.062 228.950, 381.923 228.358, 380.531 228.184 C 378.727 227.958, 378 228.336, 378 229.500 M 350.211 247.035 C 345.887 250.872, 344.900 253, 347.443 253 C 348.237 253, 349.677 251.663, 350.642 250.029 C 351.608 248.394, 353.658 246.618, 355.199 246.081 C 358.457 244.945, 358.689 244.413, 356.211 243.765 C 355.103 243.476, 352.819 244.720, 350.211 247.035 M 318.409 247.376 C 317.562 249.584, 318.689 250.711, 320.217 249.183 C 321.119 248.281, 321.122 247.722, 320.233 246.833 C 319.343 245.943, 318.909 246.072, 318.409 247.376 M 324.192 251.075 C 324.389 251.666, 324.978 252.150, 325.500 252.150 C 326.022 252.150, 326.611 251.666, 326.808 251.075 C 327.005 250.484, 326.417 250, 325.500 250 C 324.583 250, 323.995 250.484, 324.192 251.075 M 330 254.500 C 330 255.628, 330.702 256.039, 332.250 255.820 C 333.488 255.644, 334.500 255.050, 334.500 254.500 C 334.500 253.950, 333.488 253.356, 332.250 253.180 C 330.702 252.961, 330 253.372, 330 254.500 M 336.694 253.639 C 335.484 254.850, 337.124 256, 340.059 256 C 342.007 256, 343 255.493, 343 254.500 C 343 252.988, 338.025 252.309, 336.694 253.639 M 327.500 263 C 326.300 264.942, 328.584 266.250, 331.901 265.522 C 334.914 264.860, 336.260 263.014, 333.750 262.986 C 333.063 262.979, 331.538 262.715, 330.363 262.399 C 329.187 262.084, 327.899 262.354, 327.500 263 M 341 263.177 L 338.500 264.228 341.337 265.227 C 344.385 266.299, 346.786 265.081, 345.554 263.087 C 344.754 261.793, 344.273 261.802, 341 263.177 M 536.453 568.250 L 532.500 572.500 536.750 568.547 C 540.702 564.871, 541.460 564, 540.703 564 C 540.540 564, 538.627 565.913, 536.453 568.250" stroke="none" fill="#cea7b6" fill-rule="evenodd"/><path d="M 121.407 37.031 C 104.504 40.382, 93.695 55.578, 96.975 71.378 C 98.384 78.164, 102.955 85.185, 108.409 88.937 C 112.114 91.487, 112.604 91.606, 112.726 89.990 C 112.801 88.988, 110.474 85.767, 107.555 82.834 C 103.205 78.463, 102.044 76.543, 101.123 72.201 C 100.505 69.286, 100 65.559, 100 63.919 C 100 59.710, 102.670 53.678, 104.134 54.583 C 104.872 55.039, 105.042 54.877, 104.591 54.148 C 103.779 52.833, 107.558 47, 109.223 47 C 109.821 47, 109.453 48.013, 108.405 49.250 L 106.500 51.500 108.726 49.616 C 109.951 48.580, 110.724 47.363, 110.445 46.910 C 109.676 45.667, 113.921 43.275, 119.250 41.946 C 122.118 41.232, 124 40.203, 124 39.349 C 124 38.572, 125.013 37.529, 126.250 37.031 C 128.980 35.934, 126.939 35.934, 121.407 37.031 M 127.732 39 C 126.066 40.946, 126.115 41, 129.569 41 C 131.997 41, 132.893 41.365, 132.405 42.155 C 131.940 42.906, 132.133 43.036, 132.957 42.526 C 133.676 42.082, 134.554 42.278, 134.987 42.979 C 135.530 43.857, 135.947 43.894, 136.434 43.107 C 136.810 42.498, 136.641 42, 136.059 42 C 134.555 42, 134.738 39.021, 136.250 38.900 C 137.717 38.783, 133.209 37.246, 130.972 37.100 C 130.132 37.045, 128.674 37.900, 127.732 39 M 138.186 39.501 C 138.564 39.889, 138.483 41.229, 138.008 42.480 C 137.318 44.293, 137.478 44.728, 138.797 44.627 C 139.707 44.557, 140.463 45.174, 140.476 45.999 C 140.489 46.823, 141.400 47.498, 142.500 47.499 C 143.832 47.500, 144.500 48.168, 144.501 49.500 C 144.502 50.600, 145.177 51.511, 146.001 51.524 C 146.826 51.537, 147.438 52.320, 147.363 53.263 C 147.288 54.207, 147.589 54.754, 148.032 54.480 C 149.606 53.508, 151.249 61.310, 150.758 67.424 C 149.880 78.363, 143.717 86.419, 134.187 89.088 C 129.352 90.441, 121.725 90.682, 118.283 89.590 C 116.786 89.115, 116.114 89.458, 115.740 90.886 C 115.119 93.261, 117.243 93.967, 125.072 93.986 C 133.755 94.008, 139.661 91.487, 146.178 84.976 C 150.706 80.453, 152.199 78.124, 153.550 73.477 C 157.203 60.910, 152.061 47.340, 141.239 40.990 C 139.182 39.784, 137.809 39.114, 138.186 39.501 M 260.264 49.718 C 261.784 49.947, 264.034 49.941, 265.264 49.704 C 266.494 49.467, 265.250 49.279, 262.500 49.286 C 259.750 49.294, 258.744 49.488, 260.264 49.718 M 302.500 52.534 C 300.850 53.288, 294.663 55.539, 288.750 57.535 C 281.847 59.866, 278 61.673, 278 62.583 C 278 63.484, 279.070 64, 280.941 64 C 284.266 64, 285.955 65.781, 283.878 67.096 C 281.881 68.362, 280.773 68.194, 281.588 66.750 C 282.091 65.859, 281.966 65.799, 281.153 66.544 C 280.310 67.315, 280.784 69.400, 282.972 74.544 C 285.770 81.121, 286.097 81.486, 288.960 81.247 C 292.093 80.985, 312.891 73.509, 314.240 72.160 C 314.659 71.741, 313.936 68.270, 312.633 64.449 C 310.502 58.202, 310.009 57.517, 307.745 57.673 C 305.334 57.838, 293.392 62.076, 289.764 64.054 C 287.521 65.276, 285 65.268, 285 64.039 C 285 63.510, 287.137 62.399, 289.750 61.569 C 304.485 56.892, 309.029 54.474, 307.559 52.096 C 306.733 50.759, 306.301 50.796, 302.500 52.534 M 257.715 53.040 C 252.618 53.897, 239.996 59.355, 240.006 60.697 C 240.009 61.139, 243.139 69.563, 246.961 79.418 C 250.784 89.272, 253.659 97.743, 253.351 98.241 C 253.043 98.740, 254.525 98.288, 256.645 97.238 C 262.086 94.544, 270.521 91.365, 277.250 89.474 C 281.326 88.329, 283 87.369, 282.999 86.179 C 282.998 82.961, 273.237 56.587, 271.202 54.302 C 268.997 51.827, 266.384 51.582, 257.715 53.040 M 236.073 63.635 C 234.933 65.084, 234 66.869, 234 67.601 C 234 68.807, 242.922 91.498, 246.065 98.289 C 246.863 100.013, 247.892 100.872, 248.760 100.539 C 249.532 100.242, 250.689 99.993, 251.332 99.985 C 252.215 99.973, 252.217 99.789, 251.340 99.231 C 250.225 98.522, 244.247 83.720, 239.477 69.855 C 237.808 65.004, 237.489 62.911, 238.295 62.105 C 238.903 61.497, 239.118 61, 238.773 61 C 238.427 61, 237.212 62.186, 236.073 63.635 M 225.962 79.250 C 223.267 80.609, 221.380 82.292, 221.196 83.500 C 221.019 84.665, 221.228 85.062, 221.696 84.451 C 222.138 83.875, 224.525 82.816, 227 82.098 C 229.475 81.381, 232.097 80.306, 232.826 79.711 C 233.801 78.915, 234.422 79.009, 235.171 80.064 C 235.978 81.203, 236.066 81.121, 235.594 79.668 C 235.267 78.661, 235 77.648, 235 77.418 C 235 76.234, 229.888 77.270, 225.962 79.250 M 206.387 80.677 C 202.599 82.057, 191.850 85.868, 182.500 89.146 C 173.150 92.424, 164.948 95.651, 164.273 96.316 C 163.502 97.076, 163.316 98.500, 163.773 100.147 L 164.500 102.769 190 93.301 C 204.025 88.094, 215.651 83.418, 215.835 82.911 C 216.020 82.403, 216.582 82.242, 217.085 82.553 C 218.177 83.227, 218.268 81.936, 217.235 80.427 C 215.701 78.187, 213.057 78.248, 206.387 80.677 M 104.471 83.047 C 104.082 83.677, 104.430 84.859, 105.245 85.674 C 106.554 86.982, 106.794 86.980, 107.304 85.651 C 108.044 83.722, 105.499 81.383, 104.471 83.047 M 232 84 C 229.525 84.825, 226.488 86.078, 225.250 86.785 C 223.544 87.759, 223 87.780, 223 86.869 C 223 86.207, 222.711 85.956, 222.357 86.309 C 222.004 86.663, 222.144 87.525, 222.669 88.226 C 223.194 88.927, 224.904 92.763, 226.471 96.750 C 228.246 101.272, 229.884 104, 230.821 104 C 233.198 104, 243 100.712, 243 99.915 C 243 99.519, 241.537 95.438, 239.750 90.847 L 236.500 82.500 232 84 M 306.750 85.723 C 308.538 85.945, 311.462 85.945, 313.250 85.723 C 315.038 85.502, 313.575 85.320, 310 85.320 C 306.425 85.320, 304.962 85.502, 306.750 85.723 M 212 88.709 C 210.075 89.559, 199.571 93.518, 188.658 97.505 C 177.745 101.492, 168.223 105.373, 167.498 106.127 C 166.401 107.269, 166.972 109.419, 170.895 118.926 C 173.489 125.211, 176.337 130.810, 177.223 131.369 C 179.956 133.093, 227.787 115.138, 228.835 111.995 C 229.041 111.376, 227.857 108.086, 226.202 104.685 C 224.548 101.283, 222.394 95.912, 221.415 92.750 C 219.435 86.354, 218.369 85.896, 212 88.709 M 302 88.677 C 281.374 91.013, 269.224 94.336, 254.619 101.635 C 237.654 110.113, 228.677 116.020, 225.531 120.774 C 223.031 124.552, 223.005 124.762, 224.512 129.034 C 225.363 131.446, 226.539 133.715, 227.126 134.078 C 227.714 134.441, 232.988 131.381, 238.847 127.279 C 261.344 111.527, 282.458 104.577, 314.290 102.444 C 321.323 101.973, 325 101.330, 325 100.569 C 325 99.933, 323.535 96.956, 321.744 93.956 L 318.488 88.500 311.994 88.390 C 308.422 88.330, 303.925 88.458, 302 88.677 M 234.750 107.162 C 233.238 107.715, 232 108.579, 232 109.083 C 232 110.488, 233.253 110.149, 236 108 C 238.798 105.811, 238.675 105.729, 234.750 107.162 M 294.500 109.029 C 269.157 112.939, 242.678 126.497, 223.845 145.207 C 217.556 151.454, 215.233 154.673, 211.576 162.207 C 204.137 177.532, 202.491 186.033, 202.612 208.500 C 202.691 223.141, 203.197 230.139, 204.816 239 C 207.267 252.420, 213.418 275.259, 218.574 290.084 C 222.127 300.301, 256.199 389.385, 284.519 462.500 C 299.036 499.982, 315.232 542.934, 326.184 573 C 336.935 602.514, 347.105 619.009, 357.587 623.936 C 365.337 627.579, 379.914 628.297, 399.801 626.016 C 431.479 622.383, 454.762 615.040, 485.895 598.864 C 507.069 587.863, 519.187 579.608, 531.829 567.573 C 540.857 558.979, 543.553 550.995, 541.904 537.728 C 540.428 525.845, 535.666 511.211, 518.630 466.196 C 510.032 443.478, 497.858 410.628, 491.575 393.196 C 470.361 334.334, 430.973 226.573, 426.808 216 C 421.037 201.350, 409.206 176.774, 402.890 166.318 C 383.527 134.262, 359.409 113.582, 335.471 108.511 C 326.158 106.539, 309.257 106.752, 294.500 109.029 M 162.272 124 C 162.272 126.475, 162.467 127.487, 162.706 126.250 C 162.944 125.013, 162.944 122.987, 162.706 121.750 C 162.467 120.513, 162.272 121.525, 162.272 124 M 118.250 123.768 C 115.362 125.223, 113 126.785, 113 127.238 C 113 129.241, 116.433 129.040, 121.023 126.769 C 125.049 124.776, 126 124.595, 126 125.820 C 126 126.652, 126.279 127.054, 126.620 126.713 C 127.636 125.698, 126.064 120.995, 124.731 121.061 C 124.054 121.094, 121.138 122.312, 118.250 123.768 M 121.789 130.422 C 118.648 131.699, 115.764 132.465, 115.380 132.122 C 114.996 131.780, 114.942 132.175, 115.261 133 C 116.984 137.459, 121.247 147.549, 121.536 147.853 C 122.154 148.501, 135 143.850, 135 142.977 C 135 142.505, 134.544 141.836, 133.986 141.491 C 132.794 140.755, 128.962 133.469, 128.099 130.299 L 127.500 128.098 121.789 130.422 M 378.548 191.923 C 378.234 192.431, 376.538 193.162, 374.778 193.549 C 370.698 194.445, 366 197.896, 366 199.997 C 366 200.888, 365.339 202.491, 364.532 203.559 C 362.584 206.134, 362.564 213.393, 364.500 215 C 365.325 215.685, 366 216.997, 366 217.916 C 366 218.836, 367.760 221.256, 369.911 223.294 C 373.542 226.735, 374.258 227, 379.911 227 C 383.693 227, 386 226.581, 386 225.894 C 386 225.286, 387.115 223.911, 388.477 222.839 C 392.522 219.657, 396.319 209.632, 394.250 207.595 C 393.837 207.189, 392.972 205.426, 392.326 203.678 C 391.448 201.302, 391.133 201.024, 391.076 202.576 C 390.987 205.014, 387.072 209, 384.767 209 C 381.983 209, 377.119 205.610, 376.529 203.259 C 375.681 199.881, 376.943 196.153, 379.175 195.445 C 380.262 195.100, 381.376 195.042, 381.651 195.317 C 381.926 195.592, 381.240 196.106, 380.127 196.460 C 375.420 197.954, 376.432 204.447, 381.715 206.654 C 385.036 208.042, 385.373 207.998, 387.619 205.889 C 388.928 204.658, 390 203.039, 390 202.291 C 390 199.816, 386.806 196.002, 384.635 195.884 C 382.767 195.783, 382.735 195.708, 384.376 195.286 C 386.022 194.864, 385.900 194.573, 383.376 192.909 C 380.124 190.765, 379.360 190.609, 378.548 191.923 M 171.573 201 C 171.941 202.375, 172.659 204.175, 173.169 205 C 173.813 206.042, 173.892 205.737, 173.427 204 C 173.059 202.625, 172.341 200.825, 171.831 200 C 171.187 198.958, 171.108 199.263, 171.573 201 M 393.607 199.826 C 392.910 200.954, 394.038 205, 395.049 205 C 396.174 205, 397.270 201.246, 396.506 200.009 C 395.751 198.788, 394.306 198.697, 393.607 199.826 M 287.115 202.639 C 285.254 203.451, 282.355 205.492, 280.673 207.173 C 277.775 210.071, 277.613 210.655, 277.568 218.365 C 277.526 225.462, 277.830 226.915, 279.948 229.750 C 281.283 231.537, 283.136 233, 284.066 233 C 284.995 233, 286.315 233.675, 287 234.500 C 290.105 238.241, 301.331 234.722, 305.218 228.790 C 307.880 224.728, 308.101 210, 305.500 210 C 304.675 210, 304 210.868, 304 211.929 C 304 215.022, 301.230 217.016, 297.179 216.840 L 293.500 216.680 296.996 216.258 C 298.919 216.026, 301.056 215.368, 301.746 214.796 C 303.460 213.373, 303.321 209.904, 301.443 207.223 C 299.481 204.421, 293.609 204.125, 292.080 206.750 C 291.121 208.397, 291.059 208.398, 291.030 206.769 C 291.012 205.738, 292.022 204.782, 293.527 204.404 C 295.543 203.898, 295.821 203.490, 294.904 202.385 C 293.481 200.670, 291.481 200.735, 287.115 202.639 M 302.681 202.653 C 301.588 203.746, 301.897 206, 303.140 206 C 303.767 206, 304.861 206.787, 305.572 207.750 C 306.484 208.983, 307.182 209.188, 307.939 208.443 C 308.701 207.694, 308.192 206.600, 306.187 204.679 C 304.633 203.190, 303.055 202.278, 302.681 202.653 M 175.573 212 C 175.941 213.375, 176.659 215.175, 177.169 216 C 177.813 217.042, 177.892 216.737, 177.427 215 C 177.059 213.625, 176.341 211.825, 175.831 211 C 175.187 209.958, 175.108 210.263, 175.573 212 M 308.742 214.697 C 308.499 215.139, 308.368 217.525, 308.452 220 C 308.558 223.132, 309.033 224.500, 310.014 224.500 C 311.793 224.500, 312.102 214.869, 310.342 214.281 C 309.705 214.068, 308.985 214.256, 308.742 214.697 M 394 218.500 C 394 219.875, 394.450 221, 395 221 C 395.550 221, 396 219.875, 396 218.500 C 396 217.125, 395.550 216, 395 216 C 394.450 216, 394 217.125, 394 218.500 M 362.166 219.060 C 362.350 220.316, 363.100 221.541, 363.834 221.783 C 364.741 222.082, 365.061 221.491, 364.834 219.940 C 364.650 218.684, 363.900 217.459, 363.166 217.217 C 362.259 216.918, 361.939 217.509, 362.166 219.060 M 389.090 224.073 C 387.311 225.554, 386.973 226.373, 387.800 227.200 C 388.627 228.027, 389.446 227.689, 390.927 225.910 C 394.393 221.747, 393.253 220.607, 389.090 224.073 M 180.573 225 C 180.941 226.375, 181.659 228.175, 182.169 229 C 182.813 230.042, 182.892 229.737, 182.427 228 C 182.059 226.625, 181.341 224.825, 180.831 224 C 180.187 222.958, 180.108 223.263, 180.573 225 M 378 229.500 C 378 230.664, 378.727 231.042, 380.531 230.816 C 381.923 230.642, 383.062 230.050, 383.062 229.500 C 383.062 228.950, 381.923 228.358, 380.531 228.184 C 378.727 227.958, 378 228.336, 378 229.500 M 350.211 247.035 C 345.887 250.872, 344.900 253, 347.443 253 C 348.237 253, 349.677 251.663, 350.642 250.029 C 351.608 248.394, 353.658 246.618, 355.199 246.081 C 358.457 244.945, 358.689 244.413, 356.211 243.765 C 355.103 243.476, 352.819 244.720, 350.211 247.035 M 188.656 248.500 C 188.991 250.700, 189.431 252.688, 189.633 252.917 C 190.390 253.776, 189.823 248.420, 188.953 246.500 C 188.322 245.106, 188.232 245.712, 188.656 248.500 M 318.409 247.376 C 317.562 249.584, 318.689 250.711, 320.217 249.183 C 321.119 248.281, 321.122 247.722, 320.233 246.833 C 319.343 245.943, 318.909 246.072, 318.409 247.376 M 351.773 250.750 C 347.760 255.338, 343.559 257, 335.978 257 C 332.205 257, 328.823 256.522, 328.462 255.938 C 328.101 255.354, 326.837 254.455, 325.653 253.941 C 324.469 253.426, 322.725 252.451, 321.778 251.775 C 320.476 250.845, 319.773 250.827, 318.901 251.699 C 317.166 253.434, 318.649 258, 320.948 258 C 321.998 258, 323.626 258.769, 324.565 259.708 C 325.954 261.097, 328.189 261.417, 336.500 261.417 C 344.811 261.417, 347.046 261.097, 348.435 259.708 C 349.374 258.769, 350.604 258, 351.167 258 C 351.730 258, 353.498 257.069, 355.096 255.932 C 357.171 254.454, 358 253.027, 358 250.932 C 358 247.073, 355.064 246.987, 351.773 250.750 M 324.192 251.075 C 324.389 251.666, 324.978 252.150, 325.500 252.150 C 326.022 252.150, 326.611 251.666, 326.808 251.075 C 327.005 250.484, 326.417 250, 325.500 250 C 324.583 250, 323.995 250.484, 324.192 251.075 M 330 254.500 C 330 255.628, 330.702 256.039, 332.250 255.820 C 333.488 255.644, 334.500 255.050, 334.500 254.500 C 334.500 253.950, 333.488 253.356, 332.250 253.180 C 330.702 252.961, 330 253.372, 330 254.500 M 336.694 253.639 C 335.484 254.850, 337.124 256, 340.059 256 C 342.007 256, 343 255.493, 343 254.500 C 343 252.988, 338.025 252.309, 336.694 253.639 M 327.500 263 C 326.300 264.942, 328.584 266.250, 331.901 265.522 C 334.914 264.860, 336.260 263.014, 333.750 262.986 C 333.063 262.979, 331.538 262.715, 330.363 262.399 C 329.187 262.084, 327.899 262.354, 327.500 263 M 341 263.177 L 338.500 264.228 341.337 265.227 C 344.385 266.299, 346.786 265.081, 345.554 263.087 C 344.754 261.793, 344.273 261.802, 341 263.177" stroke="none" fill="#0e938c" fill-rule="evenodd"/></svg>