<svg xmlns="http://www.w3.org/2000/svg" width="360" height="360" viewBox="0 0 360 360" version="1.1"><path d="M 268.270 60.528 C 266.520 61.264, 263.900 63.766, 262.356 66.175 C 260.831 68.554, 259.456 70.683, 259.302 70.907 C 259.147 71.130, 257.912 70.118, 256.558 68.657 C 255.203 67.196, 253.399 66, 252.548 66 C 250.369 66, 247.177 69.447, 246.367 72.675 C 245.304 76.910, 247.782 86.980, 251.246 92.500 C 257.847 103.018, 259 106.023, 259 112.702 C 259 116.201, 258.380 120.549, 257.622 122.363 C 255.249 128.041, 243.877 137.583, 234 142.183 C 227.275 145.315, 218.883 148.046, 217.883 147.427 C 217.397 147.127, 217.011 145.221, 217.024 143.191 C 217.090 133.271, 222.820 118.723, 232.464 103.988 C 240.356 91.931, 242.314 86.179, 240.147 81.422 C 238.737 78.328, 233.399 78.111, 229.727 81 C 226.468 83.564, 226 83.516, 226 80.622 C 226 75.446, 221.104 74.634, 217.668 79.241 C 216.014 81.458, 215.488 84.185, 214.918 93.510 C 214.252 104.385, 212.993 108.732, 210.887 107.430 C 210.399 107.129, 210 107.392, 210 108.014 C 210 110.024, 213.411 108.559, 214.710 105.991 C 215.441 104.546, 215.977 99.722, 215.987 94.500 C 216.004 84.795, 217.938 78.797, 221.247 78.180 C 223.167 77.822, 225 81.429, 225 85.565 C 225 88.876, 225.998 88.629, 229.293 84.500 C 231.326 81.952, 232.871 81, 234.975 81 C 241.172 81, 240.007 88.767, 231.997 100.843 C 219.483 119.709, 213.139 137.459, 215.612 146.681 C 216.536 150.125, 218.457 150.159, 227.497 146.888 C 241.521 141.813, 255.478 131.494, 259.129 123.500 C 261.838 117.569, 261.602 107.836, 258.593 101.373 C 257.280 98.552, 255.701 95.933, 255.084 95.552 C 252.529 93.973, 248.718 84.357, 248.228 78.251 C 247.817 73.131, 248.056 71.595, 249.517 69.982 C 251.965 67.277, 254.002 67.494, 256.724 70.750 L 259.023 73.500 260.762 71.169 C 267.273 62.440, 271.898 59.839, 275.913 62.652 C 278.784 64.662, 278.551 66.247, 274.527 72.097 C 269.059 80.046, 267.570 87.396, 270.829 90.345 C 273.821 93.053, 275.611 92.308, 281.100 86.072 C 287.274 79.058, 291.583 76.428, 295.349 77.373 C 298.489 78.161, 298.656 79.604, 296 83 C 293.091 86.720, 293.400 89.834, 296.750 90.550 C 301.548 91.577, 304 92.910, 304 94.493 C 304 96.619, 298.999 99.455, 292.745 100.875 C 275.381 104.817, 268.013 117.538, 277.745 126.775 C 279.642 128.576, 282.558 130.754, 284.225 131.616 C 288.439 133.796, 300.167 133.515, 309.174 131.019 C 317.796 128.630, 320 129.029, 320 132.978 C 320 136.307, 315.113 141, 311.646 141 C 310.435 141, 308.445 141.701, 307.223 142.557 C 305.357 143.863, 305.007 145.029, 305.044 149.807 C 305.068 152.938, 305.736 157.300, 306.529 159.500 C 308.243 164.258, 308.374 167.433, 306.965 170.066 C 304.908 173.908, 298.262 171.363, 295.307 165.602 C 289.559 154.391, 280.873 147.585, 270.234 145.954 C 258.601 144.172, 250.332 146.810, 234.164 157.461 C 214.463 170.440, 196.694 197.665, 194.490 218.249 C 193.872 224.022, 194.006 225.065, 195.436 225.614 C 199.341 227.112, 207.496 213.797, 210.511 201 C 214.451 184.272, 215.230 182.092, 218.716 178.019 C 221.453 174.821, 222.840 173.960, 224.874 174.196 C 227.418 174.490, 227.495 174.696, 227.326 180.750 C 227.231 184.188, 227.473 187, 227.865 187 C 228.257 187, 230.343 186.100, 232.502 184.999 C 235.815 183.310, 236.639 183.211, 237.789 184.361 C 240.578 187.149, 237.592 193.167, 228.703 202.668 C 216.245 215.985, 210.576 225.101, 207.619 236.571 C 205.673 244.124, 204.446 256.001, 205.612 255.998 C 206.593 255.996, 210.626 249.806, 213.889 243.293 C 215.048 240.980, 218.723 235.831, 222.056 231.851 C 228.619 224.016, 237.967 209.501, 241.604 201.500 C 245.034 193.956, 248.034 181.601, 248.987 171.095 C 249.970 160.260, 251.833 156.687, 256.753 156.194 C 262.815 155.586, 264.193 161.281, 261.546 176 C 260.804 180.125, 260.315 183.624, 260.459 183.777 C 260.602 183.929, 263.066 182.474, 265.934 180.545 C 268.801 178.615, 272.810 176.538, 274.842 175.929 C 284.243 173.112, 288.173 177.361, 281.572 183.205 C 279.608 184.945, 278 186.735, 278 187.184 C 278 187.633, 279.784 188, 281.965 188 C 286.730 188, 289.056 190.801, 286.453 193.404 C 284.895 194.962, 283.567 195.374, 270 198.505 C 257.296 201.437, 252.831 204.706, 250.124 213.059 C 248.601 217.759, 250.261 222.769, 253.785 224.108 C 258.546 225.919, 274.291 222.495, 279.563 218.503 C 281.248 217.227, 284.623 214.362, 287.063 212.135 C 292.409 207.257, 296.743 205.928, 298.677 208.573 C 300.464 211.017, 300.342 214.243, 298.328 217.751 C 296.328 221.236, 297.152 224.553, 299.758 223.511 C 300.716 223.128, 304.095 222.568, 307.266 222.267 C 314.255 221.603, 317 223.399, 317 228.632 C 317 233.053, 314.533 234.555, 304.370 236.319 C 293.575 238.192, 293.156 238.529, 296.844 242.363 C 300.526 246.191, 301.573 249.839, 299.718 252.373 C 298.382 254.199, 298.225 254.193, 293.629 252.160 C 291.035 251.013, 287.649 249.174, 286.105 248.074 C 280.153 243.837, 255.377 239.298, 243.058 240.189 C 238.795 240.498, 236.085 241.332, 233.600 243.100 C 226.897 247.869, 221.350 257.024, 226.992 254.004 C 233.325 250.615, 254.389 248.532, 258.746 250.864 C 259.835 251.447, 261.304 253.320, 262.011 255.028 C 263.118 257.699, 263.069 258.359, 261.662 259.767 C 259.824 261.604, 256.328 261.765, 244.434 260.560 C 237.344 259.842, 235.802 259.994, 231.678 261.818 C 225.893 264.377, 216.270 271.686, 212.395 276.463 C 210.803 278.426, 208.375 281.355, 207 282.972 L 204.500 285.913 189.500 284.867 C 181.250 284.291, 165.500 283.737, 154.500 283.636 C 137.490 283.479, 134.008 283.186, 131.207 281.678 C 127.348 279.599, 117.376 271.349, 107.500 262.065 C 94.119 249.484, 84.054 244.215, 70.020 242.441 C 62.510 241.493, 57.048 239.420, 53.764 236.274 C 47.834 230.593, 52.035 227.996, 64.010 229.940 C 68.380 230.650, 72.641 230.968, 73.478 230.647 C 76.568 229.461, 74.416 220.407, 70.138 216.595 C 67.426 214.178, 67.393 211.327, 70.068 210.478 C 72.719 209.637, 78.844 213.773, 81.431 218.152 C 86.093 226.044, 101.806 242.433, 112.198 250.241 C 116.625 253.568, 120 254.975, 120 253.495 C 120 252.850, 106.568 228.867, 103.219 223.534 C 98.574 216.135, 89.084 205.232, 84.113 201.583 C 79.344 198.082, 75.345 196.104, 66 192.622 C 58.694 189.900, 57.497 188.628, 58.948 185.125 C 61.239 179.596, 64.004 179.378, 78.674 183.572 C 82.453 184.652, 84.526 179.207, 84.297 168.801 C 84.126 161.024, 84.309 160.037, 86.015 159.495 C 88.530 158.697, 91.364 160.298, 94.007 164.010 C 95.619 166.273, 96.382 169.444, 97.073 176.743 C 98.564 192.503, 101.480 200.339, 111.311 215 C 121.700 230.492, 129.175 237.457, 134.729 236.818 C 137.136 236.542, 137.519 236.040, 137.641 233 C 137.751 230.263, 137.681 230.113, 137.319 232.309 C 137.064 233.854, 136.254 235.349, 135.518 235.631 C 131.697 237.098, 122.405 228.187, 113.372 214.395 C 103.282 198.991, 100.472 191.637, 99.099 177.040 C 98.154 166.998, 96.489 162.811, 92.037 159.282 C 90.018 157.681, 84.338 157.661, 83.309 159.250 C 82.864 159.938, 82.500 164.550, 82.500 169.500 C 82.500 174.896, 81.996 179.380, 81.243 180.698 L 79.985 182.896 75.743 180.970 C 69.538 178.153, 62.548 178.362, 59.455 181.455 C 56.272 184.637, 56.176 189.238, 59.250 191.221 C 60.487 192.019, 65.314 194.120, 69.976 195.889 C 74.638 197.659, 79.819 200.150, 81.491 201.425 C 85.777 204.695, 95.299 214.701, 98.997 219.822 C 102.689 224.936, 116.924 250.327, 116.412 250.887 C 115.766 251.596, 102.160 239.926, 96.182 233.536 C 92.943 230.073, 87.708 223.805, 84.549 219.608 C 81.390 215.411, 77.849 211.308, 76.680 210.489 C 72.729 207.721, 66 209.055, 66 212.605 C 66 213.268, 67.575 215.696, 69.500 218 C 72.187 221.217, 73 223.096, 73 226.095 C 73 228.243, 72.563 230, 72.028 230 C 71.494 230, 67.733 229.270, 63.671 228.377 C 57.323 226.982, 55.892 226.947, 53.485 228.127 C 49.016 230.318, 48.204 232.457, 50.614 235.685 C 53.675 239.785, 60.575 242.760, 71.106 244.522 C 85.979 247.009, 91.487 250.222, 110.421 267.456 C 130.511 285.744, 131.523 286.180, 152.978 285.790 C 161.515 285.634, 177.090 285.912, 187.588 286.406 L 206.676 287.306 208.588 284.418 C 211.844 279.501, 222.514 269.669, 228.512 266.058 C 234.818 262.263, 238.971 261.801, 252.500 263.394 C 258.877 264.145, 259.745 264.024, 262.250 262.036 C 266.775 258.447, 265.636 252.415, 259.870 249.433 C 256.012 247.438, 243.891 247.435, 235.508 249.426 C 232.213 250.209, 229.416 250.749, 229.293 250.627 C 229.171 250.504, 230.244 249.138, 231.678 247.591 C 237.326 241.501, 242.813 240.878, 263.728 243.955 C 276.870 245.889, 278.376 246.401, 291.494 253.408 C 297.483 256.607, 300.034 256.435, 301.812 252.714 C 303.407 249.377, 302.646 245.071, 299.950 242.177 C 298.878 241.026, 298 239.921, 298 239.722 C 298 239.523, 301.590 238.777, 305.979 238.065 C 315.875 236.458, 319 234.071, 319 228.120 C 319 225.017, 318.422 223.691, 316.365 222.073 C 313.450 219.779, 306.985 219.295, 302.426 221.028 C 298.875 222.378, 298.519 221.830, 300.483 218.033 C 302.930 213.301, 302.149 207.824, 298.799 206.226 C 294.752 204.296, 291.723 205.575, 284.048 212.457 C 276.127 219.560, 269.444 222.279, 259.574 222.417 C 254.150 222.493, 253.483 222.265, 252.124 219.877 C 250.783 217.518, 250.811 216.784, 252.405 212.609 C 254.994 205.830, 258.912 203.336, 271.671 200.345 C 287.159 196.714, 289 195.797, 289 191.716 C 289 188.024, 287.513 186, 284.800 186 C 282.505 186, 282.537 185.404, 285 182.273 C 287.375 179.253, 287.585 175.730, 285.492 173.993 C 283.158 172.056, 275.616 173.371, 268.913 176.885 C 265.645 178.598, 262.830 180, 262.659 180 C 262.487 180, 262.996 176.413, 263.790 172.029 C 266.108 159.231, 264.168 154, 257.103 154 C 250.238 154, 247.219 159.903, 247.060 173.638 C 246.992 179.468, 243.114 193.806, 239.389 202 C 235.898 209.678, 228.972 220.576, 221.685 229.859 C 218.283 234.192, 213.783 240.542, 211.684 243.969 C 209.585 247.397, 207.668 250.002, 207.425 249.758 C 206.326 248.660, 210.438 232.076, 213.132 226.738 C 217.100 218.877, 220.269 214.619, 229.494 204.749 C 238.674 194.929, 240.208 192.242, 239.805 186.694 C 239.550 183.194, 239.121 182.446, 237.209 182.175 C 235.950 181.996, 233.331 182.787, 231.390 183.933 L 227.861 186.015 228.645 183.757 C 229.076 182.516, 229.445 179.948, 229.464 178.050 C 229.492 175.343, 228.930 174.278, 226.851 173.102 C 224.390 171.709, 223.946 171.777, 220.574 174.052 C 215.750 177.307, 212.666 183.952, 209.633 197.629 C 207.038 209.326, 205.228 213.694, 200.004 220.862 C 195.671 226.807, 194.600 225.267, 196.426 215.722 C 198.339 205.723, 201.565 197.919, 208.138 187.389 C 218.294 171.118, 231.273 159.546, 248.701 151.224 C 255.692 147.886, 257.328 147.500, 264.500 147.500 C 277.174 147.500, 283.676 151.229, 291.372 162.910 C 296.442 170.606, 300.173 174, 303.563 174 C 309.144 174, 310.909 168.079, 308.048 158.952 C 304.494 147.611, 305.411 144.201, 312.560 142.181 C 319.733 140.154, 323.496 134.070, 320.140 129.925 L 318.234 127.571 308.967 129.452 C 295.248 132.237, 289.334 131.989, 283.466 128.383 C 276.621 124.176, 274.569 121.111, 275.451 116.411 C 276.632 110.114, 281.136 106.637, 292.810 103.011 C 302.664 99.949, 306 97.740, 306 94.277 C 306 91.989, 302.069 89, 299.059 89 C 294.975 89, 294.689 87.913, 297.673 83.720 C 300.596 79.612, 300.252 77.427, 296.456 75.983 C 292.114 74.332, 288.805 75.986, 281.693 83.360 C 275.995 89.266, 274.609 90.238, 273.193 89.320 C 270.169 87.359, 271.345 80.645, 275.950 73.577 C 280.474 66.633, 280.774 65.142, 278.250 62.142 C 276 59.468, 272.238 58.860, 268.270 60.528 M 194.953 68.751 C 192.341 71.085, 191.652 72.569, 191.253 76.724 C 190.760 81.852, 190.925 82.560, 198.536 108 C 202.057 119.768, 203.633 134.149, 202.038 139.952 L 200.814 144.405 198.930 141.952 C 197.894 140.604, 194.902 136.412, 192.283 132.638 L 187.519 125.776 186.936 114.138 C 186.257 100.577, 184.989 97, 180.863 97 C 176.784 97, 175.471 99.417, 172.581 112.250 C 172.002 114.823, 171.623 115, 166.703 115 C 159.965 115, 157 116.956, 157 121.402 C 157 126.076, 159.485 127.792, 168 129 C 174.936 129.984, 177.504 131.193, 180.744 135 C 182.592 137.172, 189.108 150.693, 190.595 155.442 C 191.571 158.558, 191.879 158.920, 191.921 157 C 191.992 153.762, 185.948 139.932, 182.469 135.371 C 178.667 130.385, 174.823 128.351, 167.686 127.546 C 160.921 126.784, 158 124.931, 158 121.402 C 158 118.027, 161.634 116, 167.684 116 L 172.923 116 174.018 111.750 C 176.118 103.596, 177.089 101.229, 179.069 99.438 C 180.941 97.743, 181.165 97.736, 182.755 99.326 C 184.086 100.657, 184.571 103.648, 185.030 113.349 C 185.726 128.046, 186.138 128.979, 197.623 141.882 L 200.746 145.391 202.373 142.245 C 205.924 135.379, 203.826 118.744, 196.593 96.405 C 191.488 80.642, 192.044 70.390, 198.107 68.466 C 202.287 67.139, 204.059 70.616, 205.056 82.105 C 205.553 87.822, 206.636 95.425, 207.464 99 L 208.969 105.500 208.457 100 C 208.175 96.975, 207.506 89.325, 206.970 83 C 206.251 74.523, 205.509 70.843, 204.147 69 C 201.536 65.467, 198.714 65.391, 194.953 68.751 M 125.767 68.704 C 121.206 73.744, 120.961 80.352, 124.862 93.127 C 126.436 98.282, 128.334 105.650, 129.081 109.500 C 130.556 117.113, 130.947 138.492, 129.757 146.500 C 129.239 149.981, 129.321 151.044, 130.025 150 C 130.909 148.690, 131.166 148.719, 132.058 150.232 C 132.620 151.185, 135.025 153.788, 137.404 156.018 C 141.722 160.065, 141.727 160.078, 140.790 164.785 C 138.862 174.463, 141.965 200.501, 147.220 218.750 C 148.369 222.738, 149.737 226, 150.261 226 C 150.785 226, 150.949 225.311, 150.626 224.468 C 145.501 211.112, 140.144 169.751, 142.690 163.194 L 143.585 160.889 147.509 164.008 C 149.668 165.723, 151.958 168.373, 152.599 169.898 C 155.160 175.989, 157.191 188.161, 157.705 200.500 C 158.314 215.119, 157.406 220.176, 153.294 225.062 C 150.986 227.805, 150.890 228.168, 152.557 227.847 C 156.056 227.173, 159.178 219.692, 159.744 210.625 C 160.392 200.233, 158.581 183.515, 155.860 174.776 C 153.638 167.642, 152.666 166.465, 141 156.791 C 133.299 150.404, 129.877 145.058, 131.918 142.599 C 135.215 138.626, 140.435 141.604, 150.589 153.250 C 154.306 157.512, 157.730 161, 158.198 161 C 159.383 161, 161 156.430, 161 153.084 C 161 148.413, 162.903 144.489, 166.075 142.614 C 168.868 140.965, 169.277 140.952, 171.547 142.439 C 174.806 144.574, 174.705 147.539, 171 158.500 C 169.350 163.381, 168 168.007, 168 168.780 C 168 169.552, 167.100 171.329, 166 172.727 C 162.962 176.589, 163.442 184.117, 168.093 205.598 C 173.744 231.698, 174.168 235.131, 172.444 240.814 C 169.782 249.586, 171.446 259.055, 175.900 260.468 C 182.137 262.448, 181.932 260.643, 169.052 200.172 C 165.584 183.891, 165.151 175.950, 167.618 173.902 C 169.018 172.741, 169.560 172.961, 171.626 175.529 C 177.081 182.312, 180.825 197.739, 181.085 214.500 C 181.228 223.704, 181.320 224.142, 182.246 220 C 182.799 217.525, 185.261 207.625, 187.717 198 C 191.272 184.064, 192.253 178.362, 192.533 170 L 192.884 159.500 192.012 168 C 191.082 177.057, 184.081 208, 182.961 208 C 182.594 208, 182.017 204.737, 181.680 200.750 C 180.757 189.848, 175.389 175.787, 170.967 172.690 C 168.910 171.249, 168.912 171.235, 172.454 160.279 C 177.246 145.455, 177.036 142.254, 171.135 140.197 C 168.812 139.387, 167.615 139.556, 165.178 141.038 C 161.256 143.423, 160.192 145.511, 159.380 152.423 C 159.016 155.521, 158.387 158.261, 157.983 158.511 C 157.579 158.760, 156.083 157.285, 154.660 155.232 C 153.237 153.180, 149.634 149.093, 146.655 146.151 L 141.238 140.803 144.943 132.134 C 146.980 127.366, 150.905 119.644, 153.664 114.973 C 159.874 104.459, 162.200 97.632, 162.200 89.918 C 162.200 82.169, 160.260 79, 155.517 79 C 150.518 79, 147.732 82.592, 144.576 93.108 C 142.275 100.773, 141.603 102.004, 139.704 102.030 C 137.720 102.058, 137.675 102.163, 139.258 103.085 C 140.225 103.648, 141.427 103.854, 141.929 103.544 C 142.432 103.233, 144.073 99.271, 145.576 94.740 C 148.824 84.948, 150.499 82.141, 153.854 80.866 C 160.462 78.353, 162.603 89.852, 157.752 101.796 C 156.346 105.260, 152.952 112.010, 150.210 116.796 C 147.468 121.583, 143.997 128.682, 142.496 132.570 C 139.879 139.351, 139.635 139.637, 136.526 139.570 L 133.286 139.500 132.704 128 C 132.064 115.357, 130.159 104.626, 126.435 92.698 C 123.430 83.070, 123.276 75.699, 125.989 71.250 C 130.423 63.977, 133.213 68.715, 134.840 86.277 C 135.440 92.754, 136.427 98.829, 137.034 99.777 C 137.958 101.219, 138.038 101.093, 137.524 99 C 137.187 97.625, 136.548 91.301, 136.105 84.948 C 135.661 78.594, 134.666 72.069, 133.892 70.448 C 132.195 66.892, 128.186 66.032, 125.767 68.704 M 63.223 81.557 C 61.790 82.560, 61 84.150, 61 86.028 C 61 89.559, 65.960 103.445, 69.454 109.696 L 71.988 114.231 69.244 113.639 C 50.059 109.501, 40.831 109.244, 36.176 112.716 C 33.204 114.933, 32.516 116.935, 33.449 120.652 C 34.533 124.973, 40.588 126.771, 58.037 127.951 C 66.541 128.526, 74.973 129.335, 76.773 129.749 C 83.105 131.203, 100.551 150.985, 112.279 170.012 C 117.929 179.177, 122.658 189.285, 127.479 202.504 C 132.108 215.196, 133.147 217.534, 132.365 213.500 C 131.046 206.697, 124.834 189.630, 120.631 181.260 C 111.190 162.462, 92.378 137.751, 82.557 131.245 C 77.081 127.618, 75.079 127.224, 56.258 126.068 C 40.190 125.081, 35.750 123.534, 35.186 118.725 C 34.938 116.612, 35.569 115.607, 38.186 113.953 C 41.068 112.129, 42.557 111.923, 49.616 112.370 C 54.080 112.653, 60.943 113.659, 64.868 114.606 C 68.793 115.554, 72.296 116.037, 72.652 115.681 C 73.008 115.325, 71.120 109.964, 68.457 103.767 C 64.899 95.489, 63.599 91.173, 63.557 87.500 C 63.504 82.818, 63.668 82.480, 66.150 82.193 C 69.905 81.759, 75.053 86.625, 77.470 92.891 C 78.554 95.701, 79.754 98, 80.138 98 C 80.522 98, 80.814 95.577, 80.787 92.616 C 80.761 89.654, 81.049 86.729, 81.429 86.116 C 82.385 84.567, 86.520 84.717, 87.875 86.349 C 90.313 89.287, 91.124 98.215, 89.906 108.700 L 88.721 118.901 95.416 126.133 C 99.099 130.110, 106.403 138.682, 111.647 145.182 C 116.891 151.682, 121.366 157, 121.591 157 C 124.124 157, 112.302 141.451, 100.107 128.745 L 90.714 118.958 91.903 108.729 C 93.185 97.691, 92.343 89.698, 89.428 85.250 C 87.112 81.715, 82.027 82.445, 79.944 86.612 L 78.389 89.723 76.136 86.286 C 74.896 84.396, 72.348 82.208, 70.473 81.424 C 66.219 79.647, 65.942 79.652, 63.223 81.557 M 174.350 240.500 C 173.883 241.600, 173.500 245.746, 173.500 249.714 C 173.500 255.240, 173.908 257.336, 175.243 258.671 C 176.601 260.029, 177.251 260.149, 178.189 259.211 C 179.126 258.274, 179.107 256.315, 178.103 250.341 C 177.394 246.124, 176.451 241.734, 176.007 240.587 C 175.208 238.520, 175.192 238.520, 174.350 240.500" stroke="none" fill="#492626" fill-rule="evenodd"/><path d="M 270.317 62.137 C 268.566 62.624, 266.184 64.255, 265.024 65.761 C 263.863 67.268, 262.032 69.625, 260.953 71 L 258.992 73.500 256.709 70.750 C 254.005 67.494, 251.965 67.276, 249.517 69.982 C 248.056 71.595, 247.817 73.131, 248.228 78.251 C 248.718 84.357, 252.529 93.973, 255.084 95.552 C 255.701 95.933, 257.280 98.552, 258.593 101.373 C 261.602 107.836, 261.838 117.569, 259.129 123.500 C 256.988 128.187, 250.424 134.477, 241.976 139.937 C 235.321 144.239, 219.835 150.258, 217.615 149.406 C 214.495 148.208, 214.281 142.132, 216.986 131.553 C 219.305 122.488, 223.967 112.949, 231.997 100.843 C 240.007 88.767, 241.172 81, 234.975 81 C 232.871 81, 231.326 81.952, 229.293 84.500 C 225.998 88.629, 225 88.876, 225 85.565 C 225 81.429, 223.167 77.822, 221.247 78.180 C 217.938 78.797, 216.004 84.795, 215.987 94.500 C 215.977 99.722, 215.441 104.546, 214.710 105.991 C 213.411 108.559, 210 110.024, 210 108.014 C 210 107.392, 210.563 107.200, 211.250 107.588 C 212.250 108.152, 212.250 108.024, 211.250 106.947 C 210.563 106.206, 209.947 104.227, 209.882 102.550 L 209.763 99.500 209.111 102.500 C 208.546 105.100, 208.287 104.576, 207.172 98.573 C 206.464 94.763, 205.495 87.160, 205.019 81.677 C 204.060 70.637, 202.238 67.155, 198.107 68.466 C 192.044 70.390, 191.488 80.642, 196.593 96.405 C 203.826 118.744, 205.924 135.379, 202.373 142.245 L 200.746 145.391 197.623 141.882 C 186.138 128.979, 185.726 128.046, 185.030 113.349 C 184.571 103.648, 184.086 100.657, 182.755 99.326 C 181.165 97.736, 180.941 97.743, 179.069 99.438 C 177.089 101.229, 176.118 103.596, 174.018 111.750 L 172.923 116 167.684 116 C 161.634 116, 158 118.027, 158 121.402 C 158 124.931, 160.921 126.784, 167.686 127.546 C 174.340 128.297, 180.560 131.284, 179.395 133.170 C 178.965 133.866, 179.135 134.034, 179.834 133.602 C 182.538 131.931, 192.631 153.093, 191.597 158.265 C 191.203 160.236, 191.376 160.885, 192.166 160.397 C 193 159.882, 193.154 162.464, 192.742 170.097 C 192.331 177.735, 190.995 185.152, 187.717 198 C 185.261 207.625, 182.799 217.525, 182.246 220 C 181.320 224.142, 181.228 223.704, 181.085 214.500 C 180.825 197.739, 177.081 182.312, 171.626 175.529 C 169.560 172.961, 169.018 172.741, 167.618 173.902 C 165.151 175.950, 165.584 183.891, 169.052 200.172 C 181.932 260.643, 182.137 262.448, 175.900 260.468 C 171.446 259.055, 169.782 249.586, 172.444 240.814 C 174.168 235.131, 173.744 231.698, 168.093 205.598 C 163.442 184.117, 162.962 176.589, 166 172.727 C 167.100 171.329, 168 169.552, 168 168.780 C 168 168.007, 169.350 163.381, 171 158.500 C 174.705 147.539, 174.806 144.574, 171.547 142.439 C 169.277 140.952, 168.868 140.965, 166.078 142.613 C 162.524 144.712, 162.094 145.619, 160.966 153.394 C 159.793 161.478, 158.617 162.357, 154.803 158 C 141.484 142.782, 136.880 139.327, 133.095 141.710 C 128.932 144.331, 132.294 149.920, 143.194 158.500 C 147.387 161.800, 150.746 165.165, 150.659 165.978 C 150.571 166.790, 151.115 167.465, 151.867 167.478 C 155.807 167.542, 160.581 193.066, 159.750 209.621 C 159.245 219.680, 156.271 227.144, 152.487 227.847 C 150.551 228.207, 150.553 228.156, 152.601 225.858 C 155.772 222.299, 156.709 220.098, 153.711 223.250 C 152.273 224.763, 150.693 226, 150.202 226 C 149.710 226, 148.369 222.737, 147.220 218.750 C 141.965 200.501, 138.862 174.463, 140.790 164.785 C 141.727 160.078, 141.722 160.065, 137.404 156.018 C 135.025 153.788, 132.585 151.185, 131.982 150.232 C 131.189 148.981, 130.737 148.849, 130.357 149.756 C 130.066 150.447, 129.341 150.711, 128.745 150.342 C 128.064 149.921, 127.888 150.267, 128.274 151.271 C 128.611 152.151, 128.438 153.021, 127.889 153.204 C 127.340 153.387, 126.743 154.428, 126.563 155.518 C 126.185 157.797, 124.230 157.645, 122.313 155.188 C 121.085 153.616, 121.037 153.620, 121.605 155.250 C 121.940 156.213, 121.982 157, 121.698 157 C 121.414 157, 116.891 151.682, 111.647 145.182 C 106.403 138.682, 99.099 130.110, 95.416 126.133 L 88.721 118.901 89.906 108.700 C 91.124 98.215, 90.313 89.287, 87.875 86.349 C 86.520 84.717, 82.385 84.567, 81.429 86.116 C 81.049 86.729, 80.761 89.654, 80.787 92.616 C 80.814 95.577, 80.522 98, 80.138 98 C 79.754 98, 78.554 95.701, 77.470 92.891 C 75.053 86.625, 69.905 81.759, 66.150 82.193 C 63.668 82.480, 63.504 82.818, 63.557 87.500 C 63.599 91.173, 64.899 95.489, 68.457 103.767 C 71.120 109.964, 73.008 115.325, 72.652 115.681 C 72.296 116.037, 68.793 115.554, 64.868 114.606 C 60.943 113.659, 54.080 112.653, 49.616 112.370 C 42.557 111.923, 41.068 112.129, 38.186 113.953 C 35.569 115.607, 34.938 116.612, 35.186 118.725 C 35.750 123.534, 40.190 125.081, 56.258 126.068 C 75.079 127.224, 77.081 127.618, 82.557 131.245 C 92.378 137.751, 111.190 162.462, 120.631 181.260 C 125.907 191.765, 132.380 210.440, 131.677 213.128 C 131.407 214.161, 131.612 214.740, 132.133 214.418 C 132.700 214.067, 132.805 214.929, 132.394 216.565 C 131.913 218.484, 132.046 219.089, 132.843 218.597 C 133.546 218.163, 133.773 218.428, 133.441 219.294 C 133.145 220.063, 133.594 222.674, 134.437 225.096 C 136.407 230.751, 136.423 234.722, 134.480 235.325 C 133.409 235.657, 133.481 235.749, 134.723 235.636 C 135.798 235.538, 136.750 234.311, 137.165 232.488 C 137.824 229.593, 137.840 229.609, 137.673 233 C 137.523 236.031, 137.128 236.543, 134.729 236.818 C 129.175 237.457, 121.700 230.492, 111.311 215 C 101.480 200.339, 98.564 192.503, 97.073 176.743 C 96.382 169.444, 95.619 166.273, 94.007 164.010 C 91.364 160.298, 88.530 158.697, 86.015 159.495 C 84.309 160.037, 84.126 161.024, 84.297 168.801 C 84.526 179.207, 82.453 184.652, 78.674 183.572 C 64.004 179.378, 61.239 179.596, 58.948 185.125 C 57.494 188.635, 58.721 189.932, 66 192.586 C 77.417 196.749, 83.538 200.447, 90.214 207.217 C 96.722 213.817, 99.867 218.947, 94.325 213.924 C 92.119 211.926, 92.237 212.246, 94.992 215.750 C 96.831 218.087, 98.574 220, 98.867 220 C 99.160 220, 98.860 219.460, 98.200 218.800 C 97.540 218.140, 97 217.213, 97 216.741 C 97 215.024, 99.238 217.333, 102.447 222.360 C 106.167 228.189, 120 252.725, 120 253.495 C 120 254.975, 116.625 253.568, 112.198 250.241 C 101.806 242.433, 86.093 226.044, 81.431 218.152 C 78.844 213.773, 72.719 209.637, 70.068 210.478 C 67.393 211.327, 67.426 214.178, 70.138 216.595 C 74.416 220.407, 76.568 229.461, 73.478 230.647 C 72.641 230.968, 68.380 230.650, 64.010 229.940 C 52.035 227.996, 47.834 230.593, 53.764 236.274 C 57.048 239.420, 62.510 241.493, 70.020 242.441 C 84.054 244.215, 94.119 249.484, 107.500 262.065 C 117.376 271.349, 127.348 279.599, 131.207 281.678 C 134.008 283.186, 137.490 283.479, 154.500 283.636 C 165.500 283.737, 181.250 284.291, 189.500 284.867 L 204.500 285.913 207 282.972 C 208.375 281.355, 210.803 278.426, 212.395 276.463 C 216.270 271.686, 225.893 264.377, 231.678 261.818 C 235.802 259.994, 237.344 259.842, 244.434 260.560 C 256.328 261.765, 259.824 261.604, 261.662 259.767 C 263.069 258.359, 263.118 257.699, 262.011 255.028 C 261.304 253.320, 259.835 251.447, 258.746 250.864 C 254.389 248.532, 233.325 250.615, 226.992 254.004 C 221.350 257.024, 226.897 247.869, 233.600 243.100 C 236.085 241.332, 238.795 240.498, 243.058 240.189 C 255.377 239.298, 280.153 243.837, 286.105 248.074 C 287.649 249.174, 291.035 251.013, 293.629 252.160 C 298.225 254.193, 298.382 254.199, 299.718 252.373 C 301.573 249.839, 300.526 246.191, 296.844 242.363 C 293.156 238.529, 293.575 238.192, 304.370 236.319 C 314.533 234.555, 317 233.053, 317 228.632 C 317 223.399, 314.255 221.603, 307.266 222.267 C 304.095 222.568, 300.716 223.128, 299.758 223.511 C 297.152 224.553, 296.328 221.236, 298.328 217.751 C 300.342 214.243, 300.464 211.017, 298.677 208.573 C 296.743 205.928, 292.409 207.257, 287.063 212.135 C 284.623 214.362, 281.248 217.227, 279.563 218.503 C 274.276 222.506, 258.544 225.918, 253.760 224.099 C 250.247 222.763, 248.565 217.580, 250.138 212.941 C 252.961 204.622, 257.366 201.421, 270 198.505 C 283.567 195.374, 284.895 194.962, 286.453 193.404 C 289.056 190.801, 286.730 188, 281.965 188 C 279.784 188, 278 187.633, 278 187.184 C 278 186.735, 279.608 184.945, 281.572 183.205 C 288.173 177.361, 284.243 173.112, 274.842 175.929 C 272.810 176.538, 268.801 178.615, 265.934 180.545 C 263.066 182.474, 260.602 183.929, 260.459 183.777 C 260.315 183.624, 260.804 180.125, 261.546 176 C 264.193 161.281, 262.815 155.586, 256.753 156.194 C 251.833 156.687, 249.970 160.260, 248.987 171.095 C 248.034 181.601, 245.034 193.956, 241.604 201.500 C 237.967 209.501, 228.619 224.016, 222.056 231.851 C 218.723 235.831, 215.048 240.980, 213.889 243.293 C 210.626 249.806, 206.593 255.996, 205.612 255.998 C 204.446 256.001, 205.673 244.124, 207.619 236.571 C 210.576 225.101, 216.245 215.985, 228.703 202.668 C 237.592 193.167, 240.578 187.149, 237.789 184.361 C 236.639 183.211, 235.815 183.310, 232.502 184.999 C 230.343 186.100, 228.257 187, 227.865 187 C 227.473 187, 227.231 184.188, 227.326 180.750 C 227.495 174.696, 227.418 174.490, 224.874 174.196 C 222.840 173.960, 221.453 174.821, 218.716 178.019 C 215.230 182.092, 214.451 184.272, 210.511 201 C 207.496 213.797, 199.341 227.112, 195.436 225.614 C 194.006 225.065, 193.872 224.022, 194.490 218.249 C 196.694 197.665, 214.463 170.440, 234.164 157.461 C 250.332 146.810, 258.601 144.172, 270.234 145.954 C 280.873 147.585, 289.559 154.391, 295.307 165.602 C 298.262 171.363, 304.908 173.908, 306.965 170.066 C 308.374 167.433, 308.243 164.258, 306.529 159.500 C 305.736 157.300, 305.068 152.938, 305.044 149.807 C 305.007 145.029, 305.357 143.863, 307.223 142.557 C 308.445 141.701, 310.435 141, 311.646 141 C 315.291 141, 319.998 136.310, 320.015 132.661 C 320.027 130.252, 320.261 129.857, 321 131 C 321.533 131.825, 321.976 131.993, 321.985 131.372 C 321.993 130.752, 321.239 129.627, 320.308 128.872 C 318.907 127.736, 318.756 127.733, 319.433 128.857 C 320.043 129.870, 319.768 130.061, 318.346 129.610 C 317.298 129.277, 313.171 129.911, 309.174 131.019 C 300.167 133.515, 288.439 133.796, 284.225 131.616 C 266.803 122.607, 271.489 105.700, 292.745 100.875 C 298.999 99.455, 304 96.619, 304 94.493 C 304 92.910, 301.548 91.577, 296.750 90.550 C 293.400 89.834, 293.091 86.720, 296 83 C 298.656 79.604, 298.489 78.161, 295.349 77.373 C 291.583 76.428, 287.274 79.058, 281.100 86.072 C 275.612 92.306, 273.380 93.182, 270.655 90.171 C 267.658 86.859, 269.167 79.890, 274.588 72.009 C 276.531 69.183, 277.982 66.166, 277.811 65.305 C 277.275 62.607, 273.844 61.156, 270.317 62.137 M 195.218 67.750 C 193.670 69.263, 193.325 69.774, 194.452 68.887 C 195.578 67.999, 197.400 66.775, 198.500 66.167 C 199.600 65.559, 199.945 65.047, 199.266 65.030 C 198.587 65.014, 196.765 66.237, 195.218 67.750 M 125.405 68.250 C 123.516 70.482, 123.516 70.486, 125.500 68.853 C 126.600 67.948, 128.400 66.987, 129.500 66.719 C 131.424 66.251, 131.420 66.228, 129.405 66.116 C 128.253 66.052, 126.453 67.013, 125.405 68.250 M 203.606 68.152 C 204.648 69.611, 205.700 70.611, 205.944 70.374 C 206.189 70.138, 205.337 68.944, 204.050 67.722 L 201.712 65.500 203.606 68.152 M 256.412 68.500 C 257.687 69.875, 259.012 71, 259.358 71 C 259.704 71, 259.009 69.875, 257.813 68.500 C 256.618 67.125, 255.292 66, 254.867 66 C 254.443 66, 255.138 67.125, 256.412 68.500 M 125.989 71.250 C 123.276 75.699, 123.430 83.070, 126.435 92.698 C 130.159 104.626, 132.064 115.357, 132.704 128 L 133.286 139.500 136.526 139.570 C 139.635 139.637, 139.879 139.351, 142.496 132.570 C 143.997 128.682, 147.468 121.583, 150.210 116.796 C 152.952 112.010, 156.346 105.260, 157.752 101.796 C 162.603 89.852, 160.462 78.353, 153.854 80.866 C 150.499 82.141, 148.824 84.948, 145.576 94.740 C 144.073 99.271, 142.432 103.233, 141.929 103.544 C 141.427 103.854, 140.225 103.648, 139.258 103.085 C 138.178 102.456, 138.005 102.049, 138.809 102.030 C 139.529 102.014, 139.835 101.543, 139.490 100.984 C 139.144 100.425, 138.490 100.197, 138.036 100.478 C 136.658 101.329, 135.930 98.059, 134.815 86.012 C 133.667 73.612, 132.022 68, 129.536 68 C 128.675 68, 127.079 69.463, 125.989 71.250 M 206.158 75 C 206.158 76.375, 206.385 76.938, 206.662 76.250 C 206.940 75.563, 206.940 74.438, 206.662 73.750 C 206.385 73.063, 206.158 73.625, 206.158 75 M 190.195 77.500 C 190.215 79.150, 190.439 79.704, 190.693 78.731 C 190.947 77.758, 190.930 76.408, 190.656 75.731 C 190.382 75.054, 190.175 75.850, 190.195 77.500 M 272.954 78.086 C 272.340 79.233, 272.026 80.360, 272.257 80.590 C 272.487 80.820, 273.189 79.882, 273.816 78.504 C 275.194 75.480, 274.523 75.154, 272.954 78.086 M 284.689 79.250 C 281.575 82.334, 281.563 82.373, 284.454 80.008 C 286.129 78.637, 287.928 77.175, 288.450 76.758 C 288.972 76.341, 289.078 76, 288.685 76 C 288.292 76, 286.494 77.463, 284.689 79.250 M 121.158 80 C 121.158 81.375, 121.385 81.938, 121.662 81.250 C 121.940 80.563, 121.940 79.438, 121.662 78.750 C 121.385 78.063, 121.158 78.625, 121.158 80 M 155.737 78.722 C 157.581 78.952, 159.625 80.054, 160.487 81.285 C 161.319 82.473, 162 82.965, 162 82.377 C 162 80.351, 158.334 78, 155.421 78.160 C 152.536 78.318, 152.540 78.325, 155.737 78.722 M 235.500 78.712 C 237.150 78.939, 239.063 79.857, 239.750 80.753 C 240.438 81.649, 241 81.936, 241 81.391 C 241 79.455, 238.557 78.002, 235.550 78.150 L 232.500 78.300 235.500 78.712 M 226.116 80.750 C 225.977 83.443, 227.243 83.653, 229.128 81.250 C 230.356 79.683, 230.326 79.636, 228.834 80.803 C 227.421 81.907, 227.096 81.831, 226.700 80.303 C 226.331 78.881, 226.207 78.976, 226.116 80.750 M 61.872 81.750 C 60.603 83.369, 60.650 83.390, 62.500 82.033 C 63.600 81.226, 64.688 80.439, 64.917 80.283 C 65.146 80.127, 64.863 80, 64.289 80 C 63.715 80, 62.627 80.787, 61.872 81.750 M 136.158 82 C 136.158 83.375, 136.385 83.938, 136.662 83.250 C 136.940 82.563, 136.940 81.438, 136.662 80.750 C 136.385 80.063, 136.158 80.625, 136.158 82 M 147.584 82.641 C 147.057 84.014, 147.204 84.076, 148.477 83.019 C 150.212 81.579, 150.393 81, 149.107 81 C 148.616 81, 147.931 81.739, 147.584 82.641 M 80.655 83.829 C 79.745 84.835, 79 86.060, 79 86.551 C 79 87.043, 79.680 86.474, 80.511 85.288 C 81.342 84.101, 83.254 82.944, 84.761 82.715 L 87.500 82.300 84.905 82.150 C 83.478 82.067, 81.565 82.823, 80.655 83.829 M 89.100 84.705 C 89.829 85.917, 90.640 86.694, 90.903 86.431 C 91.166 86.168, 90.570 85.176, 89.579 84.226 C 87.857 82.577, 87.835 82.598, 89.100 84.705 M 271.195 85.500 C 271.215 87.150, 271.439 87.704, 271.693 86.731 C 271.947 85.758, 271.930 84.408, 271.656 83.731 C 271.382 83.054, 271.175 83.850, 271.195 85.500 M 60.158 86 C 60.158 87.375, 60.385 87.938, 60.662 87.250 C 60.940 86.563, 60.940 85.438, 60.662 84.750 C 60.385 84.063, 60.158 84.625, 60.158 86 M 162.195 86.500 C 162.215 88.150, 162.439 88.704, 162.693 87.731 C 162.947 86.758, 162.930 85.408, 162.656 84.731 C 162.382 84.054, 162.175 84.850, 162.195 86.500 M 277.907 86.612 C 277.171 87.498, 275.654 88.595, 274.535 89.048 C 273.101 89.630, 272.965 89.892, 274.076 89.937 C 274.942 89.971, 276.708 88.875, 278 87.500 C 279.292 86.125, 280.100 85, 279.797 85 C 279.493 85, 278.643 85.725, 277.907 86.612 M 207.195 88.500 C 207.215 90.150, 207.439 90.704, 207.693 89.731 C 207.947 88.758, 207.930 87.408, 207.656 86.731 C 207.382 86.054, 207.175 86.850, 207.195 88.500 M 214.343 93.500 C 214.346 97.900, 214.522 99.576, 214.733 97.224 C 214.945 94.872, 214.942 91.272, 214.727 89.224 C 214.512 87.176, 214.339 89.100, 214.343 93.500 M 136.195 90.500 C 136.215 92.150, 136.439 92.704, 136.693 91.731 C 136.947 90.758, 136.930 89.408, 136.656 88.731 C 136.382 88.054, 136.175 88.850, 136.195 90.500 M 162.232 94 C 162.232 95.925, 162.438 96.713, 162.689 95.750 C 162.941 94.787, 162.941 93.213, 162.689 92.250 C 162.438 91.287, 162.232 92.075, 162.232 94 M 92.158 94 C 92.158 95.375, 92.385 95.938, 92.662 95.250 C 92.940 94.563, 92.940 93.438, 92.662 92.750 C 92.385 92.063, 92.158 92.625, 92.158 94 M 237 97 C 236.411 98.100, 236.155 99, 236.430 99 C 236.705 99, 237.411 98.100, 238 97 C 238.589 95.900, 238.845 95, 238.570 95 C 238.295 95, 237.589 95.900, 237 97 M 179.750 96.662 C 180.438 96.940, 181.563 96.940, 182.250 96.662 C 182.938 96.385, 182.375 96.158, 181 96.158 C 179.625 96.158, 179.063 96.385, 179.750 96.662 M 304.100 98.295 C 302.835 100.402, 302.857 100.423, 304.579 98.774 C 305.570 97.824, 306.166 96.832, 305.903 96.569 C 305.640 96.306, 304.829 97.083, 304.100 98.295 M 184.031 97.500 C 184.031 98.050, 184.467 99.175, 185 100 C 185.533 100.825, 185.969 101.050, 185.969 100.500 C 185.969 99.950, 185.533 98.825, 185 98 C 184.467 97.175, 184.031 96.950, 184.031 97.500 M 161.079 98.668 C 161.036 99.311, 160.741 100.661, 160.424 101.668 C 159.877 103.409, 159.906 103.412, 160.995 101.712 C 161.626 100.729, 161.920 99.379, 161.650 98.712 C 161.295 97.837, 161.136 97.825, 161.079 98.668 M 92.195 106.500 C 92.215 108.150, 92.439 108.704, 92.693 107.731 C 92.947 106.758, 92.930 105.408, 92.656 104.731 C 92.382 104.054, 92.175 104.850, 92.195 106.500 M 284 106 C 283.175 106.533, 282.950 106.969, 283.500 106.969 C 284.050 106.969, 285.175 106.533, 286 106 C 286.825 105.467, 287.050 105.031, 286.500 105.031 C 285.950 105.031, 284.825 105.467, 284 106 M 156.500 110 C 155.647 111.650, 155.174 113, 155.449 113 C 155.724 113, 156.647 111.650, 157.500 110 C 158.353 108.350, 158.826 107, 158.551 107 C 158.276 107, 157.353 108.350, 156.500 110 M 278.924 109.750 L 276.500 112.500 279.250 110.076 C 280.762 108.742, 282 107.505, 282 107.326 C 282 106.541, 281.190 107.180, 278.924 109.750 M 52.750 110.662 C 53.438 110.940, 54.563 110.940, 55.250 110.662 C 55.938 110.385, 55.375 110.158, 54 110.158 C 52.625 110.158, 52.063 110.385, 52.750 110.662 M 187.195 112.500 C 187.215 114.150, 187.439 114.704, 187.693 113.731 C 187.947 112.758, 187.930 111.408, 187.656 110.731 C 187.382 110.054, 187.175 110.850, 187.195 112.500 M 69 113 C 67.793 113.780, 67.951 113.972, 69.809 113.985 C 71.097 113.993, 71.845 113.558, 71.500 113 C 70.757 111.798, 70.861 111.798, 69 113 M 91.195 114.500 C 91.215 116.150, 91.439 116.704, 91.693 115.731 C 91.947 114.758, 91.930 113.408, 91.656 112.731 C 91.382 112.054, 91.175 112.850, 91.195 114.500 M 129.158 114 C 129.158 115.375, 129.385 115.938, 129.662 115.250 C 129.940 114.563, 129.940 113.438, 129.662 112.750 C 129.385 112.063, 129.158 112.625, 129.158 114 M 224.951 116.097 C 223.801 118.350, 223.032 120.365, 223.242 120.575 C 223.451 120.785, 224.602 118.941, 225.798 116.478 C 228.524 110.869, 227.787 110.537, 224.951 116.097 M 153 116 C 152.411 117.100, 152.155 118, 152.430 118 C 152.705 118, 153.411 117.100, 154 116 C 154.589 114.900, 154.845 114, 154.570 114 C 154.295 114, 153.589 114.900, 153 116 M 163.762 114.707 C 165.006 114.946, 166.806 114.937, 167.762 114.687 C 168.718 114.437, 167.700 114.241, 165.500 114.252 C 163.300 114.263, 162.518 114.468, 163.762 114.707 M 157.872 116.750 C 156.603 118.369, 156.650 118.390, 158.500 117.033 C 159.600 116.226, 160.688 115.439, 160.917 115.283 C 161.146 115.127, 160.863 115, 160.289 115 C 159.715 115, 158.627 115.787, 157.872 116.750 M 32.102 118.059 C 32.046 119.466, 32.708 121.491, 33.574 122.559 C 34.440 123.626, 34.818 123.864, 34.415 123.087 C 34.011 122.310, 33.349 120.285, 32.943 118.587 C 32.264 115.749, 32.196 115.706, 32.102 118.059 M 149 123 C 147.878 125.200, 147.184 127, 147.459 127 C 147.734 127, 148.878 125.200, 150 123 C 151.122 120.800, 151.816 119, 151.541 119 C 151.266 119, 150.122 120.800, 149 123 M 156.195 121.500 C 156.215 123.150, 156.439 123.704, 156.693 122.731 C 156.947 121.758, 156.930 120.408, 156.656 119.731 C 156.382 119.054, 156.175 119.850, 156.195 121.500 M 92 120.275 C 92 120.426, 95.487 123.914, 99.750 128.025 L 107.500 135.500 100.025 127.750 C 93.082 120.552, 92 119.544, 92 120.275 M 130.272 124 C 130.272 126.475, 130.467 127.487, 130.706 126.250 C 130.944 125.013, 130.944 122.987, 130.706 121.750 C 130.467 120.513, 130.272 121.525, 130.272 124 M 187.158 122 C 187.158 123.375, 187.385 123.938, 187.662 123.250 C 187.940 122.563, 187.940 121.438, 187.662 120.750 C 187.385 120.063, 187.158 120.625, 187.158 122 M 201.158 122 C 201.158 123.375, 201.385 123.938, 201.662 123.250 C 201.940 122.563, 201.940 121.438, 201.662 120.750 C 201.385 120.063, 201.158 120.625, 201.158 122 M 277.496 123.843 C 278.586 125.131, 280.383 126.649, 281.489 127.215 C 283.613 128.303, 283.303 127.967, 278.507 123.985 C 275.620 121.588, 275.584 121.583, 277.496 123.843 M 254.980 125.524 C 254.284 126.362, 253.909 127.242, 254.145 127.479 C 254.382 127.715, 255.125 127.030, 255.796 125.955 C 257.248 123.630, 256.764 123.375, 254.980 125.524 M 188 125.642 C 188 126.179, 188.700 127.491, 189.555 128.559 C 191.022 130.389, 191.042 130.357, 189.920 128 C 188.462 124.939, 188 124.372, 188 125.642 M 46.250 127.689 C 47.212 127.941, 48.788 127.941, 49.750 127.689 C 50.712 127.438, 49.925 127.232, 48 127.232 C 46.075 127.232, 45.288 127.438, 46.250 127.689 M 64.250 128.689 C 65.213 128.941, 66.787 128.941, 67.750 128.689 C 68.713 128.438, 67.925 128.232, 66 128.232 C 64.075 128.232, 63.288 128.438, 64.250 128.689 M 202.300 133 C 202.300 136.025, 202.487 137.262, 202.716 135.750 C 202.945 134.238, 202.945 131.762, 202.716 130.250 C 202.487 128.738, 202.300 129.975, 202.300 133 M 168.750 129.662 C 169.438 129.940, 170.563 129.940, 171.250 129.662 C 171.938 129.385, 171.375 129.158, 170 129.158 C 168.625 129.158, 168.063 129.385, 168.750 129.662 M 78 130.704 C 78.825 131.004, 80.850 132.431, 82.500 133.875 L 85.500 136.500 82.563 133.250 C 80.948 131.463, 78.923 130.036, 78.063 130.079 C 76.717 130.147, 76.708 130.234, 78 130.704 M 173 130.383 C 173 130.594, 173.901 131.002, 175.001 131.290 C 176.102 131.578, 176.751 131.405, 176.442 130.907 C 175.904 130.036, 173 129.594, 173 130.383 M 247.924 132.750 L 245.500 135.500 248.250 133.076 C 250.820 130.810, 251.459 130, 250.674 130 C 250.495 130, 249.258 131.238, 247.924 132.750 M 292.750 131.662 C 293.438 131.940, 294.563 131.940, 295.250 131.662 C 295.938 131.385, 295.375 131.158, 294 131.158 C 292.625 131.158, 292.063 131.385, 292.750 131.662 M 180.970 136.944 C 181.543 138.014, 182.505 139.194, 183.109 139.567 C 183.713 139.941, 183.434 139.066, 182.489 137.623 C 180.487 134.568, 179.451 134.105, 180.970 136.944 M 86 136.621 C 86 137.146, 88.362 139.808, 91.250 142.538 L 96.500 147.500 91.500 142.021 C 88.750 139.008, 86.388 136.345, 86.250 136.104 C 86.112 135.864, 86 136.096, 86 136.621 M 108.500 138 C 109.495 139.100, 110.535 140, 110.810 140 C 111.085 140, 110.495 139.100, 109.500 138 C 108.505 136.900, 107.465 136, 107.190 136 C 106.915 136, 107.505 136.900, 108.500 138 M 142.245 138.362 C 141.267 140.508, 141.699 141.239, 146.833 146.116 L 152.500 151.500 147.305 146 C 142.997 141.439, 142.286 140.188, 143.146 138.675 C 143.717 137.671, 143.990 136.657, 143.754 136.421 C 143.518 136.185, 142.839 137.058, 142.245 138.362 M 130.158 139 C 130.158 140.375, 130.385 140.938, 130.662 140.250 C 130.940 139.563, 130.940 138.438, 130.662 137.750 C 130.385 137.063, 130.158 137.625, 130.158 139 M 317.694 139.532 C 316.151 140.889, 315.285 142, 315.770 142 C 316.255 142, 317.708 140.875, 319 139.500 C 321.989 136.319, 321.328 136.335, 317.694 139.532 M 217.158 140 C 217.158 141.375, 217.385 141.938, 217.662 141.250 C 217.940 140.563, 217.940 139.438, 217.662 138.750 C 217.385 138.063, 217.158 138.625, 217.158 140 M 163.757 141.250 C 162.462 142.488, 162.099 143, 162.951 142.390 C 163.803 141.779, 165.400 140.781, 166.500 140.170 C 167.600 139.560, 167.963 139.047, 167.306 139.030 C 166.649 139.014, 165.052 140.012, 163.757 141.250 M 170 139.714 C 170.825 140.020, 172.400 140.684, 173.500 141.190 C 175.468 142.096, 175.469 142.085, 173.559 140.555 C 172.491 139.700, 170.916 139.036, 170.059 139.079 C 168.712 139.147, 168.704 139.234, 170 139.714 M 200.143 141.890 C 199.309 142.419, 199.172 142.988, 199.788 143.369 C 200.340 143.710, 201.048 143.316, 201.364 142.494 C 202.026 140.767, 201.964 140.737, 200.143 141.890 M 113.500 144 C 114.495 145.100, 115.535 146, 115.810 146 C 116.085 146, 115.495 145.100, 114.500 144 C 113.505 142.900, 112.465 142, 112.190 142 C 111.915 142, 112.505 142.900, 113.500 144 M 129.232 145 C 129.232 146.925, 129.438 147.713, 129.689 146.750 C 129.941 145.787, 129.941 144.213, 129.689 143.250 C 129.438 142.287, 129.232 143.075, 129.232 145 M 307.035 144.934 C 306.466 145.998, 306.060 148.586, 306.134 150.684 L 306.267 154.500 306.910 150 C 307.263 147.525, 307.904 144.938, 308.335 144.250 C 308.766 143.563, 308.882 143, 308.594 143 C 308.306 143, 307.605 143.870, 307.035 144.934 M 217.268 145.417 C 217.395 146.472, 218.175 147.518, 219 147.743 C 219.965 148.006, 220.107 147.857, 219.400 147.326 C 218.795 146.872, 218.015 145.825, 217.668 145 C 217.223 143.946, 217.104 144.070, 217.268 145.417 M 176.158 147 C 176.158 148.375, 176.385 148.938, 176.662 148.250 C 176.940 147.563, 176.940 146.438, 176.662 145.750 C 176.385 145.063, 176.158 145.625, 176.158 147 M 159.158 149 C 159.158 150.375, 159.385 150.938, 159.662 150.250 C 159.940 149.563, 159.940 148.438, 159.662 147.750 C 159.385 147.063, 159.158 147.625, 159.158 149 M 261.768 147.725 C 263.565 147.947, 266.265 147.943, 267.768 147.715 C 269.271 147.486, 267.800 147.304, 264.500 147.310 C 261.200 147.315, 259.971 147.502, 261.768 147.725 M 97.500 150 C 98.495 151.100, 99.535 152, 99.810 152 C 100.085 152, 99.495 151.100, 98.500 150 C 97.505 148.900, 96.465 148, 96.190 148 C 95.915 148, 96.505 148.900, 97.500 150 M 278.083 150.285 C 278.313 150.442, 280.750 152.278, 283.500 154.366 L 288.500 158.163 284 154.084 C 281.525 151.841, 279.087 150.004, 278.583 150.003 C 278.079 150.001, 277.854 150.128, 278.083 150.285 M 153.036 152.556 C 153.056 153.075, 154.159 154.830, 155.488 156.456 C 157.596 159.036, 157.990 159.190, 158.576 157.663 C 158.945 156.701, 158.966 155.633, 158.624 155.290 C 158.281 154.947, 158 155.504, 158 156.528 C 158 157.935, 157.390 157.562, 155.500 155 C 154.125 153.136, 153.016 152.036, 153.036 152.556 M 189.141 153 C 189.141 153.825, 189.527 155.400, 190 156.500 C 190.542 157.761, 190.859 157.945, 190.859 157 C 190.859 156.175, 190.473 154.600, 190 153.500 C 189.458 152.239, 189.141 152.055, 189.141 153 M 102 156 C 103.175 157.650, 104.361 159, 104.636 159 C 104.911 159, 104.175 157.650, 103 156 C 101.825 154.350, 100.639 153, 100.364 153 C 100.089 153, 100.825 154.350, 102 156 M 241.750 154.572 C 238.012 156.600, 238.239 157.445, 242 155.500 C 243.650 154.647, 245 153.735, 245 153.474 C 245 152.831, 244.893 152.867, 241.750 154.572 M 255.250 153.689 C 256.212 153.941, 257.788 153.941, 258.750 153.689 C 259.712 153.438, 258.925 153.232, 257 153.232 C 255.075 153.232, 254.287 153.438, 255.250 153.689 M 250.405 156.250 L 248.500 158.500 250.750 156.595 C 252.864 154.805, 253.455 154, 252.655 154 C 252.465 154, 251.453 155.012, 250.405 156.250 M 83.250 157.662 C 82.563 157.940, 82 158.634, 82 159.206 C 82 159.922, 82.389 159.923, 83.250 159.211 C 83.938 158.642, 85.850 157.980, 87.500 157.738 L 90.500 157.300 87.500 157.229 C 85.850 157.190, 83.938 157.385, 83.250 157.662 M 290 162 C 290.589 163.100, 291.295 164, 291.570 164 C 291.845 164, 291.589 163.100, 291 162 C 290.411 160.900, 289.705 160, 289.430 160 C 289.155 160, 289.411 160.900, 290 162 M 95.511 163.377 C 96.457 164.820, 97.419 166, 97.650 166 C 98.374 166, 96.045 162.146, 94.891 161.433 C 94.287 161.059, 94.566 161.934, 95.511 163.377 M 107 163 C 107.589 164.100, 108.295 165, 108.570 165 C 108.845 165, 108.589 164.100, 108 163 C 107.411 161.900, 106.705 161, 106.430 161 C 106.155 161, 106.411 161.900, 107 163 M 143 161.277 C 143 161.468, 144.463 162.695, 146.250 164.003 C 148.261 165.475, 148.960 165.717, 148.082 164.637 C 146.751 162.997, 143 160.517, 143 161.277 M 247.158 165 C 247.158 166.375, 247.385 166.938, 247.662 166.250 C 247.940 165.563, 247.940 164.438, 247.662 163.750 C 247.385 163.063, 247.158 163.625, 247.158 165 M 142.365 173.500 C 142.368 179, 142.536 181.122, 142.738 178.216 C 142.941 175.311, 142.939 170.811, 142.734 168.216 C 142.528 165.622, 142.363 168, 142.365 173.500 M 220.101 171.599 C 216.198 175.778, 213.275 179.636, 213.607 180.172 C 213.938 180.708, 214.935 180.101, 215.824 178.823 C 216.712 177.546, 218.352 175.727, 219.469 174.783 C 220.586 173.839, 221.069 173.052, 220.542 173.033 C 220.015 173.015, 221.571 170.975, 224 168.500 C 226.429 166.025, 228.142 164, 227.807 164 C 227.472 164, 224.004 167.420, 220.101 171.599 M 292.786 166.576 C 293.981 168.782, 299.848 174.569, 300.240 173.927 C 300.383 173.692, 298.530 171.509, 296.122 169.076 C 293.714 166.643, 292.212 165.518, 292.786 166.576 M 82.300 171 C 82.300 174.025, 82.487 175.262, 82.716 173.750 C 82.945 172.238, 82.945 169.762, 82.716 168.250 C 82.487 166.738, 82.300 167.975, 82.300 171 M 169.719 168.687 C 169.341 170.665, 169.790 171.833, 171.418 173.114 C 172.635 174.072, 174.459 176.692, 175.472 178.938 C 176.484 181.183, 177.499 182.834, 177.726 182.607 C 178.405 181.928, 174.365 174.638, 172.250 172.725 C 170.951 171.550, 170.447 170.113, 170.760 168.475 C 171.020 167.114, 171.008 166, 170.733 166 C 170.458 166, 170.002 167.209, 169.719 168.687 M 191.195 169.500 C 191.215 171.150, 191.439 171.704, 191.693 170.731 C 191.947 169.758, 191.930 168.408, 191.656 167.731 C 191.382 167.054, 191.175 167.850, 191.195 169.500 M 264.158 170 C 264.158 171.375, 264.385 171.938, 264.662 171.250 C 264.940 170.563, 264.940 169.438, 264.662 168.750 C 264.385 168.063, 264.158 168.625, 264.158 170 M 309.079 169.179 C 309.036 170.102, 308.293 171.564, 307.429 172.429 C 306.564 173.293, 306.323 174, 306.893 174 C 308.281 174, 310.254 170.194, 309.644 168.695 C 309.369 168.020, 309.124 168.230, 309.079 169.179 M 226.083 172.283 C 226.313 172.439, 227.400 173.226, 228.500 174.033 C 230.350 175.390, 230.397 175.369, 229.128 173.750 C 228.373 172.787, 227.285 172, 226.711 172 C 226.137 172, 225.854 172.127, 226.083 172.283 M 279.269 172.693 C 280.242 172.947, 281.592 172.930, 282.269 172.656 C 282.946 172.382, 282.150 172.175, 280.500 172.195 C 278.850 172.215, 278.296 172.439, 279.269 172.693 M 273 174 C 271.172 175.181, 272.751 175.181, 275.500 174 C 276.819 173.433, 276.989 173.122, 276 173.086 C 275.175 173.055, 273.825 173.467, 273 174 M 99.272 178 C 99.272 180.475, 99.467 181.488, 99.706 180.250 C 99.944 179.012, 99.944 176.988, 99.706 175.750 C 99.467 174.512, 99.272 175.525, 99.272 178 M 246.158 178 C 246.158 179.375, 246.385 179.938, 246.662 179.250 C 246.940 178.563, 246.940 177.438, 246.662 176.750 C 246.385 176.063, 246.158 176.625, 246.158 178 M 266.441 177.555 C 264.577 179.049, 264.589 179.067, 266.750 178.020 C 267.988 177.420, 269 176.720, 269 176.465 C 269 175.700, 268.481 175.921, 266.441 177.555 M 64.250 178.689 C 65.213 178.941, 66.787 178.941, 67.750 178.689 C 68.713 178.438, 67.925 178.232, 66 178.232 C 64.075 178.232, 63.288 178.438, 64.250 178.689 M 58.494 181.006 C 55.938 183.831, 57.026 184.093, 59.714 181.301 C 60.932 180.035, 61.564 179, 61.119 179 C 60.674 179, 59.493 179.903, 58.494 181.006 M 77 181.455 C 77 182.227, 79.976 182.847, 80.399 182.164 C 80.653 181.752, 79.993 181.350, 78.931 181.270 C 77.869 181.190, 77 181.273, 77 181.455 M 232.441 182.555 C 230.595 184.034, 230.615 184.054, 232.862 182.960 C 234.161 182.327, 236.285 182.013, 237.582 182.260 C 238.879 182.508, 239.702 182.326, 239.411 181.856 C 238.555 180.471, 234.539 180.874, 232.441 182.555 M 284.200 183.200 C 282.492 184.908, 282.715 186.013, 284.750 185.921 C 285.863 185.871, 286.030 185.653, 285.208 185.324 C 284.216 184.926, 284.187 184.480, 285.081 183.403 C 286.503 181.689, 285.859 181.541, 284.200 183.200 M 178.157 184.500 C 178.154 185.050, 178.759 187.075, 179.500 189 C 180.241 190.925, 180.862 191.825, 180.879 191 C 180.896 190.175, 180.292 188.150, 179.536 186.500 C 178.781 184.850, 178.160 183.950, 178.157 184.500 M 240.252 187.500 C 240.263 189.700, 240.468 190.482, 240.707 189.238 C 240.946 187.994, 240.937 186.194, 240.687 185.238 C 240.437 184.282, 240.241 185.300, 240.252 187.500 M 56.158 187 C 56.158 188.375, 56.385 188.938, 56.662 188.250 C 56.940 187.563, 56.940 186.438, 56.662 185.750 C 56.385 185.063, 56.158 185.625, 56.158 187 M 120.031 185.500 C 120.031 186.050, 120.467 187.175, 121 188 C 121.533 188.825, 121.969 189.050, 121.969 188.500 C 121.969 187.950, 121.533 186.825, 121 186 C 120.467 185.175, 120.031 184.950, 120.031 185.500 M 156.195 187.500 C 156.215 189.150, 156.439 189.704, 156.693 188.731 C 156.947 187.758, 156.930 186.408, 156.656 185.731 C 156.382 185.054, 156.175 185.850, 156.195 187.500 M 143.232 189 C 143.232 190.925, 143.438 191.713, 143.689 190.750 C 143.941 189.787, 143.941 188.213, 143.689 187.250 C 143.438 186.287, 143.232 187.075, 143.232 189 M 288.921 192.249 C 288.623 194.399, 288.776 195.624, 289.279 195.121 C 289.762 194.638, 289.995 192.951, 289.798 191.372 C 289.468 188.728, 289.399 188.798, 288.921 192.249 M 203 196 C 201.878 198.200, 201.184 200, 201.459 200 C 201.734 200, 202.878 198.200, 204 196 C 205.122 193.800, 205.816 192, 205.541 192 C 205.266 192, 204.122 193.800, 203 196 M 144.195 195.500 C 144.215 197.150, 144.439 197.704, 144.693 196.731 C 144.947 195.758, 144.930 194.408, 144.656 193.731 C 144.382 193.054, 144.175 193.850, 144.195 195.500 M 157.320 200 C 157.320 203.575, 157.502 205.037, 157.723 203.250 C 157.945 201.463, 157.945 198.537, 157.723 196.750 C 157.502 194.963, 157.320 196.425, 157.320 200 M 181.158 196 C 181.158 197.375, 181.385 197.938, 181.662 197.250 C 181.940 196.563, 181.940 195.438, 181.662 194.750 C 181.385 194.063, 181.158 194.625, 181.158 196 M 145.158 201 C 145.158 202.375, 145.385 202.938, 145.662 202.250 C 145.940 201.563, 145.940 200.438, 145.662 199.750 C 145.385 199.063, 145.158 199.625, 145.158 201 M 82.500 203 C 83.495 204.100, 84.535 205, 84.810 205 C 85.085 205, 84.495 204.100, 83.500 203 C 82.505 201.900, 81.465 201, 81.190 201 C 80.915 201, 81.505 201.900, 82.500 203 M 182 204.833 C 182 206.575, 182.459 208, 183.019 208 C 183.624 208, 183.770 206.883, 183.378 205.250 C 182.437 201.324, 182 201.192, 182 204.833 M 146.158 206 C 146.158 207.375, 146.385 207.938, 146.662 207.250 C 146.940 206.563, 146.940 205.438, 146.662 204.750 C 146.385 204.063, 146.158 204.625, 146.158 206 M 235.500 208 C 234.647 209.650, 234.174 211, 234.449 211 C 234.724 211, 235.647 209.650, 236.500 208 C 237.353 206.350, 237.826 205, 237.551 205 C 237.276 205, 236.353 206.350, 235.500 208 M 255.807 206.750 C 254.045 208.802, 252.724 211, 253.253 211 C 253.457 211, 254.622 209.650, 255.842 208 C 258.252 204.740, 258.230 203.929, 255.807 206.750 M 224.453 210.250 L 220.500 214.500 224.750 210.547 C 227.088 208.373, 229 206.460, 229 206.297 C 229 205.540, 228.129 206.298, 224.453 210.250 M 70.269 208.693 C 71.242 208.947, 72.592 208.930, 73.269 208.656 C 73.946 208.382, 73.150 208.175, 71.500 208.195 C 69.850 208.215, 69.296 208.439, 70.269 208.693 M 157.272 212 C 157.272 214.475, 157.467 215.488, 157.706 214.250 C 157.944 213.012, 157.944 210.988, 157.706 209.750 C 157.467 208.512, 157.272 209.525, 157.272 212 M 205.624 209.539 C 204.659 212.053, 204.943 212.702, 206.122 210.675 C 206.706 209.671, 206.973 208.639, 206.715 208.382 C 206.458 208.124, 205.966 208.645, 205.624 209.539 M 282.453 213.250 L 278.500 217.500 282.750 213.547 C 285.087 211.373, 287 209.460, 287 209.297 C 287 208.540, 286.129 209.298, 282.453 213.250 M 302.232 212 C 302.232 213.925, 302.438 214.713, 302.689 213.750 C 302.941 212.787, 302.941 211.213, 302.689 210.250 C 302.438 209.287, 302.232 210.075, 302.232 212 M 81.552 215.877 C 84.273 219.384, 87.765 223.659, 89.311 225.377 C 90.857 227.095, 89.365 224.818, 85.995 220.317 C 82.625 215.817, 79.133 211.542, 78.235 210.817 C 77.338 210.093, 78.830 212.370, 81.552 215.877 M 65.030 212.765 C 65.014 213.460, 66.463 215.506, 68.250 217.311 C 70.037 219.116, 70.548 219.447, 69.384 218.046 C 68.220 216.646, 66.771 214.600, 66.164 213.500 C 65.557 212.400, 65.047 212.069, 65.030 212.765 M 203 215 C 202.411 216.100, 202.155 217, 202.430 217 C 202.705 217, 203.411 216.100, 204 215 C 204.589 213.900, 204.845 213, 204.570 213 C 204.295 213, 203.589 213.900, 203 215 M 218.374 217.750 C 217.273 219.262, 215.977 221.175, 215.494 222 C 214.784 223.214, 214.891 223.276, 216.058 222.327 C 217.503 221.151, 221.438 215, 220.745 215 C 220.542 215, 219.475 216.238, 218.374 217.750 M 251.158 217 C 251.158 218.375, 251.385 218.938, 251.662 218.250 C 251.940 217.563, 251.940 216.438, 251.662 215.750 C 251.385 215.063, 251.158 215.625, 251.158 217 M 117 220 C 118.175 221.650, 119.361 223, 119.636 223 C 119.911 223, 119.175 221.650, 118 220 C 116.825 218.350, 115.639 217, 115.364 217 C 115.089 217, 115.825 218.350, 117 220 M 310.188 219.923 C 312.767 220.283, 315.804 221.418, 316.938 222.444 C 318.072 223.470, 319 223.887, 319 223.371 C 319 221.565, 313.159 219.001, 309.346 219.134 C 305.547 219.266, 305.558 219.275, 310.188 219.923 M 226 223 C 224.825 224.650, 224.089 226, 224.364 226 C 224.639 226, 225.825 224.650, 227 223 C 228.175 221.350, 228.911 220, 228.636 220 C 228.361 220, 227.175 221.350, 226 223 M 253.226 221.579 C 254.176 222.570, 255.168 223.166, 255.431 222.903 C 255.694 222.640, 254.917 221.829, 253.705 221.100 C 251.598 219.835, 251.577 219.857, 253.226 221.579 M 195.116 222.191 C 194.931 224.889, 196.574 225.140, 198.616 222.726 L 200.500 220.500 198.338 222.325 C 196.245 224.093, 196.161 224.093, 195.704 222.325 C 195.300 220.762, 195.215 220.743, 195.116 222.191 M 101 224 C 101.589 225.100, 102.295 226, 102.570 226 C 102.845 226, 102.589 225.100, 102 224 C 101.411 222.900, 100.705 222, 100.430 222 C 100.155 222, 100.411 222.900, 101 224 M 259.269 222.693 C 260.242 222.947, 261.592 222.930, 262.269 222.656 C 262.946 222.382, 262.150 222.175, 260.500 222.195 C 258.850 222.215, 258.296 222.439, 259.269 222.693 M 121 224.625 C 121 225.152, 123.138 227.590, 125.750 230.042 L 130.500 234.500 126 229.519 C 123.525 226.779, 121.388 224.341, 121.250 224.102 C 121.112 223.863, 121 224.098, 121 224.625 M 319.232 228 C 319.232 229.925, 319.438 230.713, 319.689 229.750 C 319.941 228.787, 319.941 227.213, 319.689 226.250 C 319.438 225.287, 319.232 226.075, 319.232 228 M 221.405 229.250 L 219.500 231.500 221.750 229.595 C 223.864 227.805, 224.455 227, 223.655 227 C 223.465 227, 222.453 228.012, 221.405 229.250 M 211.162 230.543 C 210.523 231.946, 210.018 233.635, 210.039 234.297 C 210.061 234.959, 210.743 233.969, 211.554 232.099 C 213.263 228.161, 212.902 226.726, 211.162 230.543 M 69.750 229.662 C 70.438 229.940, 71.563 229.940, 72.250 229.662 C 72.938 229.385, 72.375 229.158, 71 229.158 C 69.625 229.158, 69.063 229.385, 69.750 229.662 M 96 233.405 C 100.523 238.190, 112 248.528, 112 247.817 C 112 247.607, 107.388 243.208, 101.750 238.040 C 96.112 232.872, 93.525 230.786, 96 233.405 M 316 234.830 C 313.736 237.038, 313.707 237.160, 315.694 236.128 C 316.901 235.502, 318.184 234.512, 318.544 233.928 C 319.775 231.937, 318.504 232.387, 316 234.830 M 49 234.678 C 49 235.235, 50.013 236.547, 51.250 237.595 L 53.500 239.500 51.511 237 C 50.417 235.625, 49.404 234.313, 49.261 234.083 C 49.117 233.854, 49 234.122, 49 234.678 M 109.500 239 C 110.353 240.650, 111.276 242, 111.551 242 C 111.826 242, 111.353 240.650, 110.500 239 C 109.647 237.350, 108.724 236, 108.449 236 C 108.174 236, 108.647 237.350, 109.500 239 M 214.381 238.250 C 213.976 238.938, 213.002 240.625, 212.217 242 C 210.846 244.400, 210.856 244.420, 212.468 242.500 C 214.499 240.080, 216.250 237, 215.594 237 C 215.332 237, 214.786 237.563, 214.381 238.250 M 309.750 237.662 C 310.438 237.940, 311.563 237.940, 312.250 237.662 C 312.938 237.385, 312.375 237.158, 311 237.158 C 309.625 237.158, 309.063 237.385, 309.750 237.662 M 174.667 239.667 C 174.300 240.033, 174.014 241.046, 174.030 241.917 C 174.055 243.217, 174.251 243.174, 175.122 241.675 C 176.199 239.823, 175.887 238.447, 174.667 239.667 M 298 239.969 C 298 240.501, 298.675 240.678, 299.500 240.362 C 300.325 240.045, 301 239.609, 301 239.393 C 301 239.177, 300.325 239, 299.500 239 C 298.675 239, 298 239.436, 298 239.969 M 58 242 C 58.825 242.533, 59.950 242.969, 60.500 242.969 C 61.050 242.969, 60.825 242.533, 60 242 C 59.175 241.467, 58.050 241.031, 57.500 241.031 C 56.950 241.031, 57.175 241.467, 58 242 M 208.158 243 C 208.158 244.375, 208.385 244.938, 208.662 244.250 C 208.940 243.563, 208.940 242.438, 208.662 241.750 C 208.385 241.063, 208.158 241.625, 208.158 243 M 242.728 242.722 C 244.503 242.943, 247.653 242.946, 249.728 242.730 C 251.802 242.513, 250.350 242.333, 246.500 242.328 C 242.650 242.324, 240.952 242.501, 242.728 242.722 M 257.269 243.693 C 258.242 243.947, 259.592 243.930, 260.269 243.656 C 260.946 243.382, 260.150 243.175, 258.500 243.195 C 256.850 243.215, 256.296 243.439, 257.269 243.693 M 233.559 245.532 C 232.491 246.339, 232.099 247, 232.686 247 C 233.274 247, 234.315 246.325, 235 245.500 C 236.557 243.624, 236.067 243.634, 233.559 245.532 M 209.364 246.494 C 209.048 247.316, 208.388 247.740, 207.895 247.435 C 207.403 247.131, 207 247.610, 207 248.500 C 207 249.390, 207.448 249.841, 207.995 249.503 C 209.204 248.756, 211.297 245, 210.504 245 C 210.192 245, 209.679 245.672, 209.364 246.494 M 114.426 248.696 C 114.563 249.628, 115.242 250.581, 115.934 250.811 C 116.915 251.138, 116.943 250.762, 116.062 249.116 C 114.695 246.561, 114.090 246.406, 114.426 248.696 M 244.762 247.707 C 246.006 247.946, 247.806 247.937, 248.762 247.687 C 249.718 247.437, 248.700 247.241, 246.500 247.252 C 244.300 247.263, 243.518 247.468, 244.762 247.707 M 252.269 247.693 C 253.242 247.947, 254.592 247.930, 255.269 247.656 C 255.946 247.382, 255.150 247.175, 253.500 247.195 C 251.850 247.215, 251.296 247.439, 252.269 247.693 M 258.083 248.303 C 258.313 248.469, 259.850 249.396, 261.500 250.362 L 264.500 252.119 262.139 250.059 C 260.841 248.927, 259.303 248, 258.723 248 C 258.142 248, 257.854 248.136, 258.083 248.303 M 282 248.337 C 282 248.987, 291.505 255, 292.533 255 C 293.005 255, 291.391 253.739, 288.946 252.197 C 282.330 248.026, 282 247.843, 282 248.337 M 173.158 253 C 173.158 254.375, 173.385 254.938, 173.662 254.250 C 173.940 253.563, 173.940 252.438, 173.662 251.750 C 173.385 251.063, 173.158 251.625, 173.158 253 M 301.237 253.760 C 300.069 256.251, 300.097 256.332, 301.603 254.826 C 302.499 253.930, 303.067 252.717, 302.866 252.131 C 302.665 251.545, 301.931 252.278, 301.237 253.760 M 178.158 254 C 178.158 255.375, 178.385 255.938, 178.662 255.250 C 178.940 254.563, 178.940 253.438, 178.662 252.750 C 178.385 252.063, 178.158 252.625, 178.158 254 M 97 256.500 C 98.292 257.875, 99.574 259, 99.849 259 C 100.124 259, 99.292 257.875, 98 256.500 C 96.708 255.125, 95.426 254, 95.151 254 C 94.876 254, 95.708 255.125, 97 256.500 M 265.158 257 C 265.158 258.375, 265.385 258.938, 265.662 258.250 C 265.940 257.563, 265.940 256.438, 265.662 255.750 C 265.385 255.063, 265.158 255.625, 265.158 257 M 174 256.686 C 174 257.274, 174.694 258.331, 175.542 259.035 C 176.797 260.076, 177.310 260.072, 178.292 259.011 C 179.250 257.976, 179.210 257.872, 178.098 258.506 C 177.197 259.020, 176.215 258.647, 175.348 257.462 C 174.607 256.447, 174 256.099, 174 256.686 M 103 261.500 C 104.292 262.875, 105.574 264, 105.849 264 C 106.124 264, 105.292 262.875, 104 261.500 C 102.708 260.125, 101.426 259, 101.151 259 C 100.876 259, 101.708 260.125, 103 261.500 M 238.750 262.706 C 239.988 262.944, 242.012 262.944, 243.250 262.706 C 244.488 262.467, 243.475 262.272, 241 262.272 C 238.525 262.272, 237.512 262.467, 238.750 262.706 M 229.441 265.555 C 227.577 267.049, 227.589 267.067, 229.750 266.020 C 230.988 265.420, 232 264.720, 232 264.465 C 232 263.700, 231.481 263.921, 229.441 265.555 M 115 272.500 C 116.866 274.425, 118.617 276, 118.892 276 C 119.167 276, 117.866 274.425, 116 272.500 C 114.134 270.575, 112.383 269, 112.108 269 C 111.833 269, 113.134 270.575, 115 272.500 M 217.733 274.112 C 214.561 276.908, 211.466 280.164, 210.855 281.348 C 210.244 282.532, 211.264 281.813, 213.122 279.751 C 214.980 277.690, 218.300 274.446, 220.500 272.543 C 222.700 270.640, 224.275 269.071, 224 269.056 C 223.725 269.041, 220.905 271.316, 217.733 274.112 M 121.500 278 C 122.495 279.100, 123.535 280, 123.810 280 C 124.085 280, 123.495 279.100, 122.500 278 C 121.505 276.900, 120.465 276, 120.190 276 C 119.915 276, 120.505 276.900, 121.500 278 M 132 285 C 132.825 285.533, 134.175 285.945, 135 285.914 C 135.989 285.878, 135.819 285.567, 134.500 285 C 131.751 283.819, 130.172 283.819, 132 285 M 152.750 285.662 C 153.438 285.940, 154.563 285.940, 155.250 285.662 C 155.938 285.385, 155.375 285.158, 154 285.158 C 152.625 285.158, 152.063 285.385, 152.750 285.662 M 161.750 285.706 C 162.988 285.944, 165.012 285.944, 166.250 285.706 C 167.488 285.467, 166.475 285.272, 164 285.272 C 161.525 285.272, 160.512 285.467, 161.750 285.706 M 142.762 286.707 C 144.006 286.946, 145.806 286.937, 146.762 286.687 C 147.718 286.437, 146.700 286.241, 144.500 286.252 C 142.300 286.263, 141.518 286.468, 142.762 286.707 M 174.264 286.718 C 175.784 286.947, 178.034 286.941, 179.264 286.704 C 180.494 286.467, 179.250 286.279, 176.500 286.286 C 173.750 286.294, 172.744 286.488, 174.264 286.718 M 191.750 287.732 C 194.088 287.943, 197.912 287.943, 200.250 287.732 C 202.588 287.522, 200.675 287.349, 196 287.349 C 191.325 287.349, 189.412 287.522, 191.750 287.732" stroke="none" fill="#eb8a8f" fill-rule="evenodd"/></svg>