<svg xmlns="http://www.w3.org/2000/svg" width="253" height="231" viewBox="0 0 253 231" version="1.1"><path d="M 145.104 15.896 C 143.947 17.053, 142.995 19.238, 142.989 20.750 C 142.983 22.262, 142.710 25.075, 142.383 27 C 141.827 30.267, 141.365 30.641, 135.447 32.621 L 129.105 34.743 128.689 32.621 C 128.460 31.455, 128.211 32.201, 128.136 34.280 C 128.061 36.359, 126.801 40.859, 125.336 44.280 C 123.367 48.876, 122.553 52.746, 122.220 59.102 L 121.770 67.704 125.114 68.373 C 126.954 68.741, 131.761 68.743, 135.797 68.377 C 144.059 67.628, 145.072 66.922, 152.930 56.420 C 155.367 53.164, 158.742 49.210, 160.430 47.634 C 163.389 44.871, 163.763 44.789, 170.800 45.375 C 182.483 46.348, 183.676 47.597, 180.928 55.982 C 179.939 58.997, 179.288 61.621, 179.480 61.813 C 179.672 62.005, 180.834 61.624, 182.062 60.967 C 185.013 59.387, 190.957 61.121, 194.157 64.495 C 196.217 66.667, 197.284 66.948, 203 66.820 L 209.500 66.674 204.278 66.087 C 199.950 65.600, 199.220 65.243, 200.013 64 C 201.486 61.690, 201.175 51.663, 199.507 47.670 C 198.685 45.704, 196.514 42.900, 194.682 41.438 L 191.350 38.779 192.675 33.672 C 195.380 23.246, 194.236 20.244, 187.201 19.300 C 183.434 18.795, 183.266 18.904, 181.292 23.140 C 180.175 25.538, 178.947 28.512, 178.563 29.750 C 178.179 30.988, 177.281 32, 176.566 32 C 175.581 32, 175.384 30.363, 175.752 25.221 C 176.314 17.372, 175.484 16.143, 169.043 15.279 C 165.134 14.755, 164.957 14.858, 163.410 18.562 C 162.531 20.666, 161.570 23.875, 161.275 25.694 C 160.906 27.968, 160.193 29, 158.993 29 C 157.597 29, 157.155 27.888, 156.787 23.449 C 156.272 17.234, 154.915 15.333, 150.341 14.418 C 147.937 13.937, 146.719 14.281, 145.104 15.896 M 106.558 20.907 C 106.249 21.405, 106.898 21.578, 107.999 21.290 C 110.334 20.679, 110.629 20, 108.559 20 C 107.766 20, 106.866 20.408, 106.558 20.907 M 118.813 20.683 C 119.534 20.972, 120.397 20.936, 120.729 20.604 C 121.061 20.272, 120.471 20.036, 119.417 20.079 C 118.252 20.127, 118.015 20.364, 118.813 20.683 M 125 22.378 C 125 22.585, 125.787 23.373, 126.750 24.128 C 128.336 25.371, 128.371 25.336, 127.128 23.750 C 125.821 22.084, 125 21.555, 125 22.378 M 128.079 27.583 C 128.127 28.748, 128.364 28.985, 128.683 28.188 C 128.972 27.466, 128.936 26.603, 128.604 26.271 C 128.272 25.939, 128.036 26.529, 128.079 27.583 M 95.872 38.750 C 94.629 40.336, 94.664 40.371, 96.250 39.128 C 97.916 37.821, 98.445 37, 97.622 37 C 97.415 37, 96.627 37.788, 95.872 38.750 M 91 41 C 90.175 41.533, 89.950 41.969, 90.500 41.969 C 91.050 41.969, 92.175 41.533, 93 41 C 93.825 40.467, 94.050 40.031, 93.500 40.031 C 92.950 40.031, 91.825 40.467, 91 41 M 86 43 C 85.175 43.533, 84.950 43.969, 85.500 43.969 C 86.050 43.969, 87.175 43.533, 88 43 C 88.825 42.467, 89.050 42.031, 88.500 42.031 C 87.950 42.031, 86.825 42.467, 86 43 M 77.405 48.250 L 75.500 50.500 78 48.511 C 79.375 47.417, 80.688 46.404, 80.917 46.261 C 81.146 46.117, 80.878 46, 80.322 46 C 79.765 46, 78.453 47.013, 77.405 48.250 M 66.079 65.583 C 66.127 66.748, 66.364 66.985, 66.683 66.188 C 66.972 65.466, 66.936 64.603, 66.604 64.271 C 66.272 63.939, 66.036 64.529, 66.079 65.583 M 65.232 71 C 65.232 72.925, 65.438 73.713, 65.689 72.750 C 65.941 71.787, 65.941 70.213, 65.689 69.250 C 65.438 68.287, 65.232 69.075, 65.232 71 M 210.232 73 C 210.232 74.925, 210.438 75.713, 210.689 74.750 C 210.941 73.787, 210.941 72.213, 210.689 71.250 C 210.438 70.287, 210.232 71.075, 210.232 73 M 205.500 79 C 203.870 79.701, 203.812 79.872, 205.191 79.930 C 206.121 79.968, 207.160 79.550, 207.500 79 C 208.211 77.850, 208.176 77.850, 205.500 79 M 202.158 82 C 202.158 83.375, 202.385 83.938, 202.662 83.250 C 202.940 82.563, 202.940 81.438, 202.662 80.750 C 202.385 80.063, 202.158 80.625, 202.158 82 M 61.624 86.539 C 60.659 89.053, 60.943 89.702, 62.122 87.675 C 62.706 86.671, 62.973 85.639, 62.715 85.382 C 62.458 85.124, 61.966 85.645, 61.624 86.539 M 205.813 85.683 C 206.534 85.972, 207.397 85.936, 207.729 85.604 C 208.061 85.272, 207.471 85.036, 206.417 85.079 C 205.252 85.127, 205.015 85.364, 205.813 85.683 M 59.571 92.571 C 59.204 94.037, 59.096 95.429, 59.331 95.665 C 59.567 95.900, 60.061 94.894, 60.429 93.429 C 60.796 91.963, 60.904 90.571, 60.669 90.335 C 60.433 90.100, 59.939 91.106, 59.571 92.571 M 211.731 94.920 C 211.296 96.583, 211.426 96.974, 212.168 96.232 C 212.750 95.650, 213.028 94.585, 212.788 93.863 C 212.538 93.114, 212.085 93.568, 211.731 94.920 M 58.079 99.583 C 58.127 100.748, 58.364 100.985, 58.683 100.188 C 58.972 99.466, 58.936 98.603, 58.604 98.271 C 58.272 97.939, 58.036 98.529, 58.079 99.583 M 207.813 98.683 C 208.534 98.972, 209.397 98.936, 209.729 98.604 C 210.061 98.272, 209.471 98.036, 208.417 98.079 C 207.252 98.127, 207.015 98.364, 207.813 98.683 M 204.195 101.500 C 204.215 103.150, 204.439 103.704, 204.693 102.731 C 204.947 101.758, 204.930 100.408, 204.656 99.731 C 204.382 99.054, 204.175 99.850, 204.195 101.500 M 57.232 105 C 57.232 106.925, 57.438 107.713, 57.689 106.750 C 57.941 105.787, 57.941 104.213, 57.689 103.250 C 57.438 102.287, 57.232 103.075, 57.232 105 M 228.079 110.583 C 228.127 111.748, 228.364 111.985, 228.683 111.188 C 228.972 110.466, 228.936 109.603, 228.604 109.271 C 228.272 108.939, 228.036 109.529, 228.079 110.583 M 235.632 109.786 C 235.365 110.218, 235.981 110.571, 237 110.571 C 238.019 110.571, 238.635 110.218, 238.368 109.786 C 238.100 109.354, 237.485 109, 237 109 C 236.515 109, 235.900 109.354, 235.632 109.786 M 56.320 120 C 56.320 123.575, 56.502 125.037, 56.723 123.250 C 56.945 121.463, 56.945 118.537, 56.723 116.750 C 56.502 114.963, 56.320 116.425, 56.320 120 M 243.564 115.707 C 243.022 117.132, 243.136 117.247, 244.124 116.267 C 244.808 115.588, 245.115 114.781, 244.807 114.474 C 244.499 114.166, 243.940 114.721, 243.564 115.707 M 6 116.711 C 6 117.285, 6.787 118.373, 7.750 119.128 C 9.369 120.397, 9.390 120.350, 8.033 118.500 C 7.226 117.400, 6.439 116.313, 6.283 116.083 C 6.127 115.854, 6 116.137, 6 116.711 M 13.564 118.707 C 13.022 120.132, 13.136 120.247, 14.124 119.267 C 14.808 118.588, 15.115 117.781, 14.807 117.474 C 14.499 117.166, 13.940 117.721, 13.564 118.707 M 197.636 125.636 C 197.283 128.216, 197.186 130.520, 197.422 130.755 C 197.657 130.991, 198.163 129.096, 198.545 126.545 C 198.928 123.995, 199.025 121.691, 198.760 121.427 C 198.496 121.162, 197.990 123.057, 197.636 125.636 M 15.500 125 C 16.495 126.100, 17.535 127, 17.810 127 C 18.085 127, 17.495 126.100, 16.500 125 C 15.505 123.900, 14.465 123, 14.190 123 C 13.915 123, 14.505 123.900, 15.500 125 M 57.118 134.083 C 57.183 135.963, 57.603 138.850, 58.051 140.500 C 58.587 142.473, 58.674 141.445, 58.308 137.500 C 57.693 130.887, 56.932 128.702, 57.118 134.083 M 195.571 135.571 C 195.204 137.037, 195.096 138.429, 195.331 138.665 C 195.567 138.900, 196.061 137.894, 196.429 136.429 C 196.796 134.963, 196.904 133.571, 196.669 133.335 C 196.433 133.100, 195.939 134.106, 195.571 135.571 M 219.453 137.250 L 215.500 141.500 219.750 137.547 C 222.088 135.373, 224 133.460, 224 133.297 C 224 132.540, 223.129 133.298, 219.453 137.250 M 28 137.500 C 29.866 139.425, 31.617 141, 31.892 141 C 32.167 141, 30.866 139.425, 29 137.500 C 27.134 135.575, 25.383 134, 25.108 134 C 24.833 134, 26.134 135.575, 28 137.500 M 223.405 137.250 L 221.500 139.500 223.750 137.595 C 224.988 136.547, 226 135.535, 226 135.345 C 226 134.545, 225.195 135.136, 223.405 137.250 M 26.500 140 C 28.648 142.200, 30.631 144, 30.906 144 C 31.181 144, 29.648 142.200, 27.500 140 C 25.352 137.800, 23.369 136, 23.094 136 C 22.819 136, 24.352 137.800, 26.500 140 M 193.200 143.700 C 192.576 145.734, 192.230 147.564, 192.433 147.766 C 192.635 147.968, 193.340 146.499, 194 144.500 C 194.660 142.501, 195.005 140.672, 194.767 140.434 C 194.530 140.196, 193.824 141.666, 193.200 143.700 M 218.872 141.750 C 217.629 143.336, 217.664 143.371, 219.250 142.128 C 220.213 141.373, 221 140.585, 221 140.378 C 221 139.555, 220.179 140.084, 218.872 141.750 M 59.216 147.205 C 59.564 149.127, 59.241 150.034, 58.103 150.339 C 57.082 150.612, 57.324 150.810, 58.769 150.884 C 60.753 150.985, 60.955 150.654, 60.378 148.250 C 59.500 144.589, 58.596 143.776, 59.216 147.205 M 50.813 149.683 C 51.534 149.972, 52.397 149.936, 52.729 149.604 C 53.061 149.272, 52.471 149.036, 51.417 149.079 C 50.252 149.127, 50.015 149.364, 50.813 149.683 M 51.813 152.683 C 52.534 152.972, 53.397 152.936, 53.729 152.604 C 54.061 152.272, 53.471 152.036, 52.417 152.079 C 51.252 152.127, 51.015 152.364, 51.813 152.683 M 194.813 152.683 C 195.534 152.972, 196.397 152.936, 196.729 152.604 C 197.061 152.272, 196.471 152.036, 195.417 152.079 C 194.252 152.127, 194.015 152.364, 194.813 152.683 M 60.429 154.571 C 61.293 155.436, 62.036 156.898, 62.079 157.821 C 62.124 158.770, 62.369 158.980, 62.644 158.305 C 63.254 156.806, 61.281 153, 59.893 153 C 59.323 153, 59.564 153.707, 60.429 154.571 M 188.452 156.093 C 187.572 157.794, 187.030 159.363, 187.247 159.580 C 187.464 159.797, 188.390 158.406, 189.305 156.487 C 191.361 152.175, 190.649 151.845, 188.452 156.093 M 63.031 160.500 C 63.031 161.050, 63.467 162.175, 64 163 C 64.533 163.825, 64.969 164.050, 64.969 163.500 C 64.969 162.950, 64.533 161.825, 64 161 C 63.467 160.175, 63.031 159.950, 63.031 160.500 M 184.695 164.513 C 183.781 166.431, 183.239 168, 183.490 168 C 184.175 168, 187.210 161.877, 186.753 161.420 C 186.536 161.203, 185.610 162.594, 184.695 164.513 M 65.031 165.500 C 65.031 166.050, 65.467 167.175, 66 168 C 66.533 168.825, 66.969 169.050, 66.969 168.500 C 66.969 167.950, 66.533 166.825, 66 166 C 65.467 165.175, 65.031 164.950, 65.031 165.500 M 181.564 170.707 C 181.022 172.132, 181.136 172.247, 182.124 171.267 C 182.808 170.588, 183.115 169.781, 182.807 169.474 C 182.499 169.166, 181.940 169.721, 181.564 170.707 M 67 170.358 C 67 171.445, 73.967 185, 74.525 185 C 74.800 185, 73.392 181.738, 71.395 177.750 C 67.650 170.269, 67 169.176, 67 170.358 M 178.500 176 C 177.647 177.650, 177.174 179, 177.449 179 C 177.724 179, 178.647 177.650, 179.500 176 C 180.353 174.350, 180.826 173, 180.551 173 C 180.276 173, 179.353 174.350, 178.500 176 M 174.771 182.250 C 172.583 185.623, 170.621 189.640, 171.718 188.500 C 173.120 187.043, 177.245 180, 176.697 180 C 176.440 180, 175.573 181.012, 174.771 182.250 M 76.693 189.077 C 77.687 190.769, 79.139 192.682, 79.920 193.327 C 80.701 193.972, 80.079 192.588, 78.537 190.250 C 75.300 185.342, 74.024 184.530, 76.693 189.077 M 165.793 196.750 C 162.712 201.424, 160.793 205, 161.366 205 C 161.606 205, 162.688 203.499, 163.771 201.664 C 164.854 199.829, 166.525 197.129, 167.485 195.664 C 168.445 194.199, 169.013 193, 168.748 193 C 168.483 193, 167.153 194.688, 165.793 196.750 M 81.970 196.944 C 82.543 198.014, 83.505 199.194, 84.109 199.567 C 84.713 199.941, 84.434 199.066, 83.489 197.623 C 81.487 194.568, 80.451 194.105, 81.970 196.944 M 89.174 206.868 C 90.453 208.446, 91.657 209.602, 91.848 209.437 C 92.390 208.970, 88.603 204.067, 87.674 204.031 C 87.220 204.014, 87.895 205.291, 89.174 206.868 M 94.500 212.911 C 96.589 215.323, 104 221.458, 104 220.775 C 104 220.558, 101.412 218.181, 98.250 215.491 C 95.088 212.802, 93.400 211.641, 94.500 212.911 M 154.980 213.524 C 154.284 214.362, 153.909 215.242, 154.145 215.479 C 154.382 215.715, 155.125 215.030, 155.796 213.955 C 157.248 211.630, 156.764 211.375, 154.980 213.524 M 149.507 218.989 C 149.157 219.555, 149.558 219.723, 150.448 219.382 C 152.180 218.717, 152.497 218, 151.059 218 C 150.541 218, 149.843 218.445, 149.507 218.989 M 145 222.089 C 142.846 223.851, 142.804 223.986, 144.694 223.062 C 145.901 222.472, 147.165 221.542, 147.503 220.995 C 148.406 219.534, 147.800 219.799, 145 222.089 M 107 223 C 107.825 223.533, 108.950 223.969, 109.500 223.969 C 110.050 223.969, 109.825 223.533, 109 223 C 108.175 222.467, 107.050 222.031, 106.500 222.031 C 105.950 222.031, 106.175 222.467, 107 223 M 112 225 C 112.825 225.533, 113.950 225.969, 114.500 225.969 C 115.050 225.969, 114.825 225.533, 114 225 C 113.175 224.467, 112.050 224.031, 111.500 224.031 C 110.950 224.031, 111.175 224.467, 112 225 M 139 225 C 138.175 225.533, 137.950 225.969, 138.500 225.969 C 139.050 225.969, 140.175 225.533, 141 225 C 141.825 224.467, 142.050 224.031, 141.500 224.031 C 140.950 224.031, 139.825 224.467, 139 225 M 117.787 227.180 C 118.729 227.554, 122.650 227.859, 126.500 227.859 C 130.350 227.859, 134.271 227.554, 135.213 227.180 C 136.155 226.806, 132.234 226.500, 126.500 226.500 C 120.766 226.500, 116.845 226.806, 117.787 227.180" stroke="none" fill="#fd827b" fill-rule="evenodd"/><path d="M 109.722 20.973 C 105.341 21.809, 103.686 23.669, 101.442 30.281 C 99.728 35.330, 95.613 40.999, 93.661 41.001 C 91.071 41.003, 79.942 47.057, 76.027 50.595 C 64.179 61.298, 63.184 78.490, 73.991 85.773 C 86.041 93.893, 104.723 91.913, 113.821 81.551 C 119.047 75.599, 120.280 72.195, 121.136 61.354 C 121.736 53.759, 122.700 49.290, 124.969 43.578 C 128.326 35.126, 128.915 27.751, 126.506 24.311 C 125.565 22.969, 123.433 21.932, 120.756 21.516 C 118.415 21.152, 115.825 20.719, 115 20.553 C 114.175 20.388, 111.800 20.577, 109.722 20.973 M 165.750 46.720 C 162.298 47.238, 162.213 48.750, 165.565 50.025 C 168.879 51.285, 179 51.293, 179 50.035 C 179 47.855, 171.194 45.902, 165.750 46.720 M 180.336 62.477 C 176.624 65.077, 172.166 89.396, 174.111 96.439 C 176.488 105.050, 185.218 112.124, 193.623 112.251 C 197.221 112.305, 198.351 111.835, 200.232 109.500 C 201.479 107.951, 202.985 104.843, 203.579 102.592 C 204.493 99.123, 205.101 98.448, 207.575 98.160 C 211.149 97.743, 211.965 96.567, 211.985 91.809 C 212.002 87.692, 211.157 86.873, 206.034 86.041 C 202.919 85.534, 202.500 85.117, 202.500 82.520 C 202.500 80.052, 203.029 79.423, 205.769 78.637 C 209.484 77.572, 210.853 74.334, 209.373 70.110 C 208.526 67.692, 207.965 67.478, 201.730 67.204 C 198.028 67.042, 195 66.473, 195 65.940 C 195 64.291, 188.662 61.008, 185.473 61.004 C 183.807 61.002, 181.496 61.665, 180.336 62.477 M 111.158 135 C 111.158 136.375, 111.385 136.938, 111.662 136.250 C 111.940 135.563, 111.940 134.438, 111.662 133.750 C 111.385 133.063, 111.158 133.625, 111.158 135 M 146.079 135.583 C 146.127 136.748, 146.364 136.985, 146.683 136.188 C 146.972 135.466, 146.936 134.603, 146.604 134.271 C 146.272 133.939, 146.036 134.529, 146.079 135.583" stroke="none" fill="#d21f25" fill-rule="evenodd"/><path d="M 229.044 109.691 C 229.068 111.236, 229.449 114.367, 229.891 116.650 C 231.924 127.147, 218.527 142.486, 202.513 147.996 C 199.309 149.098, 195.659 150, 194.402 150 C 192.175 150, 190.286 151.619, 191.313 152.647 C 192.249 153.582, 204.400 150.015, 210.646 146.972 C 218.042 143.368, 227.807 133.415, 230.600 126.634 C 232.195 122.760, 233.423 121.527, 238.250 118.951 C 241.412 117.263, 244 115.459, 244 114.941 C 244 113.616, 243.438 113.736, 238.960 116.020 C 234.515 118.288, 234.357 118.144, 236.574 113.857 C 237.439 112.184, 237.852 110.519, 237.492 110.159 C 236.868 109.535, 235.951 110.530, 233.340 114.663 C 232.324 116.271, 232.089 115.967, 231.458 112.228 C 230.624 107.283, 228.979 105.556, 229.044 109.691 M 20 115 C 18.709 119.793, 17.603 120.077, 16.395 115.925 C 15.903 114.233, 15.050 112.996, 14.500 113.175 C 13.950 113.354, 13.641 113.922, 13.812 114.438 C 13.984 114.953, 14.394 116.718, 14.722 118.360 L 15.319 121.345 11.815 118.673 C 8.041 115.794, 7 115.433, 7 117.002 C 7 117.553, 9.218 119.597, 11.928 121.544 C 14.917 123.691, 18.015 127.134, 19.800 130.292 C 23.470 136.785, 31.104 144.006, 37.986 147.493 C 45.456 151.278, 61 154.415, 61 152.137 C 61 151.663, 57.693 150.741, 53.652 150.089 C 49.610 149.437, 43.516 147.585, 40.109 145.974 C 33.200 142.707, 24.326 134.491, 21.269 128.533 C 19.338 124.770, 19.336 124.593, 21.151 118.761 C 23.264 111.974, 23.375 111, 22.039 111 C 21.510 111, 20.592 112.800, 20 115 M 102.655 131.829 C 100.675 134.016, 100.599 135.888, 102.392 138.250 C 103.918 140.260, 108.034 140.566, 109.800 138.800 C 111.347 137.253, 111.347 132.747, 109.800 131.200 C 108.033 129.433, 104.546 129.740, 102.655 131.829 M 148.200 131.200 C 147.540 131.860, 147 133.570, 147 135 C 147 136.430, 147.540 138.140, 148.200 138.800 C 150.828 141.428, 157 139.320, 157 135.794 C 157 131.461, 151.047 128.353, 148.200 131.200 M 115 152.566 C 115 153.956, 117.530 157.687, 119.816 159.669 C 123.029 162.453, 127.971 163.362, 132.735 162.043 C 137.252 160.792, 137.925 160.338, 140.784 156.615 C 143.380 153.236, 143.571 152, 141.500 152 C 140.675 152, 140 152.446, 140 152.991 C 140 153.537, 138.583 155.337, 136.852 156.991 C 134.237 159.490, 132.881 160, 128.851 160 C 124.503 160, 123.594 159.584, 120.116 156 C 116.463 152.235, 115 151.254, 115 152.566" stroke="none" fill="#181415" fill-rule="evenodd"/><path d="M 110.813 20.683 C 111.534 20.972, 112.397 20.936, 112.729 20.604 C 113.061 20.272, 112.471 20.036, 111.417 20.079 C 110.252 20.127, 110.015 20.364, 110.813 20.683 M 115.813 20.683 C 116.534 20.972, 117.397 20.936, 117.729 20.604 C 118.061 20.272, 117.471 20.036, 116.417 20.079 C 115.252 20.127, 115.015 20.364, 115.813 20.683 M 125.624 41.539 C 124.659 44.053, 124.943 44.702, 126.122 42.675 C 126.706 41.671, 126.973 40.639, 126.715 40.382 C 126.458 40.124, 125.966 40.645, 125.624 41.539 M 160.316 47.750 C 158.690 49.263, 155.367 53.164, 152.930 56.420 C 145.072 66.922, 144.059 67.628, 135.797 68.377 C 131.761 68.743, 127.006 68.751, 125.230 68.396 C 122.034 67.757, 121.998 67.685, 121.845 61.625 C 121.692 55.555, 121.684 55.572, 121.041 63.500 C 120.091 75.194, 115.325 82.690, 105.590 87.800 C 101.243 90.082, 99.259 90.474, 92 90.486 C 84.540 90.498, 82.766 90.133, 77.500 87.500 C 73.457 85.479, 70.704 83.265, 69.060 80.715 C 66.213 76.300, 66.163 76.349, 62.309 87.303 C 56.096 104.968, 55.374 124.934, 60.133 147.500 C 62.944 160.825, 71.448 179.794, 80.942 193.914 C 88.695 205.444, 90.007 207.071, 97.480 214.424 C 111.848 228.562, 131.610 231.061, 146.993 220.685 C 154.219 215.812, 155.135 214.549, 174.339 183 C 180.355 173.117, 190.898 152.592, 191.547 149.500 C 191.663 148.950, 192.743 145.350, 193.947 141.500 C 196.381 133.719, 198.997 120.188, 198.999 115.365 C 199 112.287, 198.914 112.231, 194.186 112.231 C 185.331 112.231, 176.568 105.338, 174.111 96.441 C 172.685 91.274, 175.985 68.070, 178.792 63.527 C 179.130 62.981, 179.490 61.852, 179.593 61.018 C 179.696 60.183, 180.455 57.381, 181.280 54.791 C 183.164 48.876, 182.113 47.135, 175.941 45.944 C 167.455 44.307, 163.529 44.760, 160.316 47.750 M 165.750 46.720 C 162.298 47.238, 162.213 48.750, 165.565 50.025 C 168.879 51.285, 179 51.293, 179 50.035 C 179 47.855, 171.194 45.902, 165.750 46.720 M 122.079 51.583 C 122.127 52.748, 122.364 52.985, 122.683 52.188 C 122.972 51.466, 122.936 50.603, 122.604 50.271 C 122.272 49.939, 122.036 50.529, 122.079 51.583 M 183.750 60.662 C 184.438 60.940, 185.563 60.940, 186.250 60.662 C 186.938 60.385, 186.375 60.158, 185 60.158 C 183.625 60.158, 183.063 60.385, 183.750 60.662 M 202.733 85.124 C 203.412 85.808, 204.219 86.115, 204.526 85.807 C 204.834 85.499, 204.279 84.940, 203.293 84.564 C 201.868 84.022, 201.753 84.136, 202.733 85.124 M 212.158 91 C 212.158 92.375, 212.385 92.938, 212.662 92.250 C 212.940 91.563, 212.940 90.438, 212.662 89.750 C 212.385 89.063, 212.158 89.625, 212.158 91 M 102.571 131.571 C 99.631 134.512, 101.258 139.133, 105.699 140.450 C 108.270 141.213, 112 138.078, 112 135.155 C 112 130.872, 105.675 128.468, 102.571 131.571 M 147.500 130.833 C 147.736 131.070, 147.471 132.121, 146.909 133.169 C 144.405 137.849, 150.070 142.495, 154.635 139.504 C 159.517 136.304, 156.575 129.764, 150.439 130.177 C 148.586 130.302, 147.264 130.597, 147.500 130.833 M 138.180 155.071 C 136.354 157.249, 134.442 158.773, 133.930 158.457 C 133.419 158.141, 133 158.359, 133 158.941 C 133 160.634, 125.682 160.163, 122.973 158.296 C 119.915 156.189, 118.025 153.769, 118.648 152.761 C 118.906 152.342, 118.191 152, 117.059 152 C 114.448 152, 114.453 153.424, 117.079 157.111 C 122.884 165.264, 135.847 164.838, 141.111 156.320 C 144.240 151.258, 142.130 150.359, 138.180 155.071" stroke="none" fill="#ed4f4a" fill-rule="evenodd"/></svg>