<svg xmlns="http://www.w3.org/2000/svg" width="83" height="138" viewBox="0 0 83 138" version="1.1"><path d="M 29.854 5.780 C 28.399 5.963, 26.416 6.987, 25.449 8.056 C 24.482 9.125, 22.442 10, 20.918 10 C 19.162 10, 17.434 10.904, 16.205 12.466 C 15.138 13.822, 14.054 14.721, 13.795 14.462 C 13.537 14.203, 12.811 15.118, 12.184 16.496 C 11.133 18.801, 11.239 19, 13.521 19 C 14.885 19, 16 18.606, 16 18.124 C 16 17.642, 18.447 16.179, 21.438 14.874 C 24.429 13.568, 27.071 11.776, 27.308 10.892 C 27.821 8.976, 32.154 7.947, 34.405 9.207 C 35.282 9.698, 36 10.968, 36 12.031 C 36 14.266, 32.308 15.550, 28.947 14.483 C 27.422 13.999, 26.966 14.136, 27.456 14.929 C 28.616 16.806, 35.895 15.908, 36.562 13.805 C 36.877 12.812, 37.581 12, 38.126 12 C 38.672 12, 38.780 11.438, 38.367 10.750 C 37.850 9.889, 38.138 9.923, 39.295 10.862 C 41.156 12.371, 44.510 11.634, 43.466 9.945 C 42.162 7.836, 33.818 5.283, 29.854 5.780 M 30 7.500 C 30 7.775, 30.225 8, 30.500 8 C 30.775 8, 31 7.775, 31 7.500 C 31 7.225, 30.775 7, 30.500 7 C 30.225 7, 30 7.225, 30 7.500 M 44 7.500 C 44 7.775, 44.225 8, 44.500 8 C 44.775 8, 45 7.775, 45 7.500 C 45 7.225, 44.775 7, 44.500 7 C 44.225 7, 44 7.225, 44 7.500 M 46.431 12.112 C 46.053 12.723, 46.364 13.616, 47.122 14.096 C 49.154 15.383, 49.558 15.213, 49.725 13 C 49.886 10.869, 47.583 10.248, 46.431 12.112 M 25 15.500 C 25 15.775, 25.225 16, 25.500 16 C 25.775 16, 26 15.775, 26 15.500 C 26 15.225, 25.775 15, 25.500 15 C 25.225 15, 25 15.225, 25 15.500 M 54 15.500 C 54 15.775, 54.225 16, 54.500 16 C 54.775 16, 55 15.775, 55 15.500 C 55 15.225, 54.775 15, 54.500 15 C 54.225 15, 54 15.225, 54 15.500 M 48 18.500 C 48 18.775, 48.225 19, 48.500 19 C 48.775 19, 49 18.775, 49 18.500 C 49 18.225, 48.775 18, 48.500 18 C 48.225 18, 48 18.225, 48 18.500 M 10 20.500 C 10 20.775, 10.225 21, 10.500 21 C 10.775 21, 11 20.775, 11 20.500 C 11 20.225, 10.775 20, 10.500 20 C 10.225 20, 10 20.225, 10 20.500 M 53 20.500 C 53 20.775, 53.225 21, 53.500 21 C 53.775 21, 54 20.775, 54 20.500 C 54 20.225, 53.775 20, 53.500 20 C 53.225 20, 53 20.225, 53 20.500 M 51 21.500 C 51 21.775, 51.225 22, 51.500 22 C 51.775 22, 52 21.775, 52 21.500 C 52 21.225, 51.775 21, 51.500 21 C 51.225 21, 51 21.225, 51 21.500 M 48 22.500 C 48 22.775, 48.225 23, 48.500 23 C 48.775 23, 49 22.775, 49 22.500 C 49 22.225, 48.775 22, 48.500 22 C 48.225 22, 48 22.225, 48 22.500 M 15 25.500 C 15 25.775, 15.225 26, 15.500 26 C 15.775 26, 16 25.775, 16 25.500 C 16 25.225, 15.775 25, 15.500 25 C 15.225 25, 15 25.225, 15 25.500 M 21.813 25.683 C 22.534 25.972, 23.397 25.936, 23.729 25.604 C 24.061 25.272, 23.471 25.036, 22.417 25.079 C 21.252 25.127, 21.015 25.364, 21.813 25.683 M 51 26.500 C 51 26.775, 51.225 27, 51.500 27 C 51.775 27, 52 26.775, 52 26.500 C 52 26.225, 51.775 26, 51.500 26 C 51.225 26, 51 26.225, 51 26.500 M 37.813 28.683 C 38.534 28.972, 39.397 28.936, 39.729 28.604 C 40.061 28.272, 39.471 28.036, 38.417 28.079 C 37.252 28.127, 37.015 28.364, 37.813 28.683 M 50 31.500 C 50 31.775, 50.225 32, 50.500 32 C 50.775 32, 51 31.775, 51 31.500 C 51 31.225, 50.775 31, 50.500 31 C 50.225 31, 50 31.225, 50 31.500 M 49 36.500 C 49 36.775, 49.225 37, 49.500 37 C 49.775 37, 50 36.775, 50 36.500 C 50 36.225, 49.775 36, 49.500 36 C 49.225 36, 49 36.225, 49 36.500 M 54 38.500 C 54 38.775, 54.225 39, 54.500 39 C 54.775 39, 55 38.775, 55 38.500 C 55 38.225, 54.775 38, 54.500 38 C 54.225 38, 54 38.225, 54 38.500 M 18 39.500 C 18 39.775, 18.225 40, 18.500 40 C 18.775 40, 19 39.775, 19 39.500 C 19 39.225, 18.775 39, 18.500 39 C 18.225 39, 18 39.225, 18 39.500 M 11 46.500 C 11 46.775, 11.225 47, 11.500 47 C 11.775 47, 12 46.775, 12 46.500 C 12 46.225, 11.775 46, 11.500 46 C 11.225 46, 11 46.225, 11 46.500 M 63 50.500 C 63 50.775, 63.225 51, 63.500 51 C 63.775 51, 64 50.775, 64 50.500 C 64 50.225, 63.775 50, 63.500 50 C 63.225 50, 63 50.225, 63 50.500 M 36 55.699 C 30.204 56.325, 29.415 56.837, 31.597 58.549 C 33.031 59.674, 32.578 59.623, 29.762 58.342 C 26.263 56.750, 25.721 56.747, 21.262 58.308 C 16.893 59.837, 17.718 59.840, 25.250 58.326 C 26.855 58.003, 28 58.210, 28 58.823 C 28 59.401, 26.538 60.055, 24.750 60.277 C 22.962 60.498, 25.464 60.752, 30.309 60.840 C 35.876 60.941, 38.894 60.638, 38.509 60.015 C 38.129 59.400, 39.103 59.271, 41.106 59.671 C 43.553 60.161, 44.125 60.012, 43.526 59.042 C 43.011 58.208, 41.411 57.950, 38.870 58.291 C 36.742 58.576, 35 58.452, 35 58.014 C 35 56.454, 42.444 56.223, 44.183 57.730 C 46.034 59.335, 50.601 58.782, 55 56.422 C 57.240 55.219, 56.565 55.093, 48.500 55.200 C 43.550 55.266, 37.925 55.490, 36 55.699 M 45 56.500 C 45 56.775, 45.225 57, 45.500 57 C 45.775 57, 46 56.775, 46 56.500 C 46 56.225, 45.775 56, 45.500 56 C 45.225 56, 45 56.225, 45 56.500 M 48 57.059 C 48 57.641, 48.450 57.840, 49 57.500 C 49.550 57.160, 50 56.684, 50 56.441 C 50 56.198, 49.550 56, 49 56 C 48.450 56, 48 56.477, 48 57.059 M 55.961 60.073 C 54.057 61.087, 53.063 61.935, 53.750 61.958 C 54.438 61.981, 55 63.125, 55 64.500 C 55 65.875, 54.438 67.010, 53.750 67.022 C 53.063 67.034, 51.375 67.924, 50 69 C 44.137 73.586, 42.936 68.890, 48.750 64.112 C 52.488 61.040, 52.491 61.033, 49.500 61.965 C 44.248 63.601, 31.349 65.123, 28.373 64.458 L 25.500 63.817 28.750 66.481 C 30.856 68.207, 32 70.034, 32 71.671 L 32 74.196 28.750 72.025 C 26.962 70.832, 24.712 69.610, 23.750 69.311 C 22.725 68.992, 22 67.779, 22 66.383 C 22 64.987, 21.379 63.948, 20.500 63.875 C 18.160 63.680, 17.583 63.522, 16.355 62.740 C 14.366 61.475, 13.911 64.875, 13.293 85.631 C 12.592 109.132, 13.386 114.114, 18.234 116.621 C 19.854 117.459, 21.815 117.901, 22.590 117.604 C 23.366 117.306, 24 117.499, 24 118.031 C 24 119.472, 39.204 119.178, 49.170 117.544 C 57.831 116.124, 64.497 113.516, 66.916 110.601 C 69.395 107.614, 69.980 101.807, 68.487 95 C 66.479 85.843, 63.292 72.662, 61.201 64.865 L 59.422 58.231 55.961 60.073 M 51.501 70.110 C 45.089 71.928, 44.160 77.495, 49.580 81.629 C 52.534 83.882, 53.318 84.109, 54.065 82.930 C 54.838 81.708, 54.974 81.718, 55.002 83 C 55.040 84.781, 58.471 79.535, 59.499 76.125 C 59.989 74.499, 59.865 73.965, 59.107 74.434 C 58.498 74.810, 57.990 74.754, 57.978 74.309 C 57.966 73.864, 57.178 72.546, 56.228 71.380 C 54.807 69.636, 53.968 69.410, 51.501 70.110 M 17.500 73 C 17.840 73.550, 18.343 74, 18.618 74 C 18.893 74, 18.840 73.550, 18.500 73 C 18.160 72.450, 17.657 72, 17.382 72 C 17.107 72, 17.160 72.450, 17.500 73 M 23.500 72.759 C 15.867 74.322, 18.592 86.320, 26.449 85.747 C 28.307 85.611, 29.679 85.350, 29.497 85.167 C 29.315 84.983, 29.756 83.432, 30.476 81.718 C 31.591 79.068, 31.557 78.254, 30.251 76.261 C 28.364 73.380, 26.129 72.221, 23.500 72.759 M 53 74 C 53 74.733, 53.300 75.033, 53.667 74.667 C 54.033 74.300, 54.033 73.700, 53.667 73.333 C 53.300 72.967, 53 73.267, 53 74 M 17 75.500 C 17 75.775, 17.225 76, 17.500 76 C 17.775 76, 18 75.775, 18 75.500 C 18 75.225, 17.775 75, 17.500 75 C 17.225 75, 17 75.225, 17 75.500 M 25.333 76.667 C 25.700 77.033, 26.300 77.033, 26.667 76.667 C 27.033 76.300, 26.733 76, 26 76 C 25.267 76, 24.967 76.300, 25.333 76.667 M 40.603 81.833 C 40.320 82.292, 40.723 82.667, 41.500 82.667 C 42.277 82.667, 42.680 82.292, 42.397 81.833 C 42.114 81.375, 41.710 81, 41.500 81 C 41.290 81, 40.886 81.375, 40.603 81.833 M 44 81.500 C 44 81.775, 44.225 82, 44.500 82 C 44.775 82, 45 81.775, 45 81.500 C 45 81.225, 44.775 81, 44.500 81 C 44.225 81, 44 81.225, 44 81.500 M 37 84.822 C 35.625 85.020, 33.788 85.817, 32.919 86.593 C 32.049 87.369, 30.976 87.666, 30.533 87.252 C 30.091 86.838, 30.256 87.513, 30.900 88.750 C 32.119 91.094, 34.435 91.723, 35.500 90 C 36.439 88.480, 39.856 88.802, 43.095 90.715 C 45.829 92.330, 46.086 92.331, 47.511 90.727 C 48.343 89.790, 48.734 89.228, 48.379 89.478 C 48.025 89.728, 46.904 88.877, 45.890 87.587 C 43.939 85.107, 41.117 84.229, 37 84.822 M 49.405 87.155 C 48.962 87.870, 49.130 88.038, 49.845 87.595 C 50.480 87.203, 51 86.684, 51 86.441 C 51 85.607, 50.117 86.002, 49.405 87.155 M 64 91.500 C 64 91.775, 64.225 92, 64.500 92 C 64.775 92, 65 91.775, 65 91.500 C 65 91.225, 64.775 91, 64.500 91 C 64.225 91, 64 91.225, 64 91.500 M 19 93.500 C 19 93.775, 19.225 94, 19.500 94 C 19.775 94, 20 93.775, 20 93.500 C 20 93.225, 19.775 93, 19.500 93 C 19.225 93, 19 93.225, 19 93.500 M 39 94.500 C 39 94.775, 39.225 95, 39.500 95 C 39.775 95, 40 94.775, 40 94.500 C 40 94.225, 39.775 94, 39.500 94 C 39.225 94, 39 94.225, 39 94.500 M 67 104.500 C 67 104.775, 67.225 105, 67.500 105 C 67.775 105, 68 104.775, 68 104.500 C 68 104.225, 67.775 104, 67.500 104 C 67.225 104, 67 104.225, 67 104.500 M 70 111.500 C 70 111.775, 70.225 112, 70.500 112 C 70.775 112, 71 111.775, 71 111.500 C 71 111.225, 70.775 111, 70.500 111 C 70.225 111, 70 111.225, 70 111.500 M 23 113.500 C 23 113.775, 23.225 114, 23.500 114 C 23.775 114, 24 113.775, 24 113.500 C 24 113.225, 23.775 113, 23.500 113 C 23.225 113, 23 113.225, 23 113.500 M 59 113.500 C 59 113.775, 59.225 114, 59.500 114 C 59.775 114, 60 113.775, 60 113.500 C 60 113.225, 59.775 113, 59.500 113 C 59.225 113, 59 113.225, 59 113.500 M 56 114.500 C 56 114.775, 56.225 115, 56.500 115 C 56.775 115, 57 114.775, 57 114.500 C 57 114.225, 56.775 114, 56.500 114 C 56.225 114, 56 114.225, 56 114.500 M 14 121.500 C 14 121.775, 14.225 122, 14.500 122 C 14.775 122, 15 121.775, 15 121.500 C 15 121.225, 14.775 121, 14.500 121 C 14.225 121, 14 121.225, 14 121.500" stroke="none" fill="#ffffff" fill-rule="evenodd"/><path d="M 25.994 2.934 C 24.615 3.354, 21.915 4.491, 19.994 5.463 C 10.270 10.377, 4.026 21.884, 8.601 26.458 C 9.624 27.481, 9.985 28.924, 9.601 30.453 C 9.170 32.172, 9.744 33.731, 11.640 35.984 L 14.280 39.121 11.130 41.810 C 8.708 43.879, 7.748 45.769, 6.969 50 C 5.396 58.539, 3.749 89.804, 4.187 102.795 C 4.679 117.419, 6.447 121.565, 13.717 125.145 C 18.139 127.322, 19.670 127.495, 34 127.436 C 50.990 127.365, 61.230 125.689, 68.971 121.709 C 74.546 118.844, 79 111.146, 79 104.378 C 79 97.112, 67.701 49.191, 64.552 43.101 C 62.885 39.878, 58.956 36.438, 55.793 35.434 C 53.818 34.808, 53.837 34.706, 56.376 32.353 C 59.072 29.852, 59.798 26.198, 57.963 24.363 C 57.247 23.647, 57.255 22.459, 57.990 20.526 C 58.843 18.283, 58.687 17.009, 57.208 14.113 C 55.126 10.040, 47.702 4.567, 42.177 3.033 C 37.966 1.863, 29.681 1.813, 25.994 2.934 M 29.354 4.716 C 28.174 4.934, 26.417 5.987, 25.449 7.056 C 24.482 8.125, 22.592 9, 21.249 9 C 15.564 9, 7.569 19.458, 9.910 23.832 C 11.458 26.725, 14.709 27.120, 27.706 25.994 C 48.813 24.166, 56 22.186, 56 18.199 C 56 13.548, 46.559 5.738, 42.032 6.644 C 40.499 6.950, 38.177 6.615, 36.872 5.899 C 34.180 4.422, 32.434 4.147, 29.354 4.716 M 29.250 9.662 C 28.563 9.940, 28 11.029, 28 12.083 C 28 13.551, 28.711 14, 31.031 14 C 34.372 14, 36.210 11.380, 33.896 9.914 C 32.373 8.950, 31.175 8.885, 29.250 9.662 M 43.279 26.621 C 38.757 27.378, 29.982 28.335, 23.779 28.749 C 12.646 29.490, 12.500 29.532, 12.500 31.976 C 12.500 35.931, 16.126 36.576, 30.770 35.228 C 50.230 33.436, 57.994 30.755, 56.324 26.403 C 55.693 24.758, 54.262 24.782, 43.279 26.621 M 41 36.563 C 36.875 37.284, 30.125 37.915, 26 37.964 C 18.893 38.049, 18.306 38.234, 14.805 41.490 C 12.773 43.380, 10.680 45.730, 10.155 46.713 C 8.642 49.543, 6.929 72.778, 6.705 93.500 C 6.519 110.743, 6.685 112.870, 8.500 116.500 C 12.472 124.443, 23.784 127.136, 44.141 124.985 C 56.781 123.649, 66.379 121.063, 70.382 117.914 C 77.470 112.338, 77.783 104.680, 71.951 79.500 C 64.364 46.745, 61.718 39.720, 56.475 38.404 C 55.159 38.074, 53.558 37.173, 52.919 36.402 C 51.581 34.790, 51.105 34.796, 41 36.563 M 35.500 52.689 C 27.687 53.701, 16.286 56.312, 14.381 57.526 C 12.521 58.709, 12.107 60.482, 11.002 71.981 C 10.309 79.190, 9.944 91.050, 10.191 98.336 C 10.703 113.408, 11.848 116.562, 17.898 119.550 C 26.025 123.564, 52.496 121.903, 62.999 116.720 C 65.473 115.499, 68.556 112.925, 69.851 111 C 71.958 107.868, 72.149 106.712, 71.677 100 C 71.387 95.875, 68.978 83.962, 66.324 73.527 C 62.036 56.661, 61.222 54.414, 59 53.292 C 56.641 52.101, 42.779 51.745, 35.500 52.689 M 28.147 55.985 C 11.218 58.962, 12.842 61.586, 31.500 61.401 C 40.721 61.309, 47.444 60.063, 55.752 56.904 C 64.100 53.730, 44.649 53.082, 28.147 55.985 M 55.077 59.260 C 45.617 63.466, 28.604 65.081, 19.270 62.660 L 14.104 61.320 13.350 66.910 C 12.935 69.984, 12.574 80.825, 12.548 91 C 12.476 118.662, 13.167 119.556, 34.500 119.413 C 53.180 119.287, 64.128 116.117, 68.040 109.701 C 70.381 105.864, 70.487 101.974, 68.523 92 C 67.091 84.723, 60.269 57.872, 59.755 57.485 C 59.615 57.380, 57.509 58.179, 55.077 59.260 M 48.750 65.573 C 45.149 67.931, 43.874 70, 46.021 70 C 47.513 70, 55 64.886, 55 63.867 C 55 62.379, 52.648 63.021, 48.750 65.573 M 22 65.867 C 22 66.886, 29.487 72, 30.979 72 C 33.189 72, 31.806 69.902, 28.020 67.513 C 23.882 64.901, 22 64.386, 22 65.867 M 49 72 C 45.231 75.769, 47.603 82, 52.806 82 C 57.640 82, 59.329 73.317, 54.951 70.974 C 52.323 69.567, 51.247 69.753, 49 72 M 52 73.427 C 52 74.354, 52.855 75, 54.083 75 C 56.520 75, 56.176 72.663, 53.667 72.177 C 52.680 71.985, 52 72.495, 52 73.427 M 21.524 74.358 C 19.043 76.173, 19.043 81.827, 21.524 83.642 C 27.580 88.070, 33.851 79.537, 28.014 74.810 C 25.340 72.645, 23.996 72.551, 21.524 74.358 M 25 76.500 C 25 77.325, 25.675 78, 26.500 78 C 27.325 78, 28 77.325, 28 76.500 C 28 75.675, 27.325 75, 26.500 75 C 25.675 75, 25 75.675, 25 76.500 M 35.250 86.499 C 33.462 87.271, 32 88.375, 32 88.952 C 32 90.284, 32.617 90.268, 36.595 88.830 C 39.293 87.854, 40.255 87.937, 42.380 89.330 C 45.252 91.211, 47 91.473, 47 90.023 C 47 88.885, 43.387 86.455, 40.500 85.651 C 39.400 85.345, 37.038 85.727, 35.250 86.499" stroke="none" fill="#1f2021" fill-rule="evenodd"/><path d="M 27 2.500 C 27 2.775, 27.225 3, 27.500 3 C 27.775 3, 28 2.775, 28 2.500 C 28 2.225, 27.775 2, 27.500 2 C 27.225 2, 27 2.225, 27 2.500 M 40 2.500 C 40 2.775, 40.225 3, 40.500 3 C 40.775 3, 41 2.775, 41 2.500 C 41 2.225, 40.775 2, 40.500 2 C 40.225 2, 40 2.225, 40 2.500 M 21 4.500 C 21 4.775, 21.225 5, 21.500 5 C 21.775 5, 22 4.775, 22 4.500 C 22 4.225, 21.775 4, 21.500 4 C 21.225 4, 21 4.225, 21 4.500 M 29.354 4.716 C 28.174 4.934, 26.417 5.987, 25.449 7.056 C 24.482 8.125, 22.592 9, 21.249 9 C 18.349 9, 12.723 12.743, 13.568 14.110 C 13.893 14.636, 15.056 13.927, 16.152 12.534 C 17.377 10.977, 19.153 10, 20.758 10 C 22.195 10, 24.358 9.073, 25.565 7.939 C 27.025 6.567, 29.153 5.859, 31.928 5.820 C 34.220 5.789, 35.838 5.505, 35.522 5.189 C 34.767 4.433, 32.025 4.223, 29.354 4.716 M 46 4.500 C 46 4.775, 46.225 5, 46.500 5 C 46.775 5, 47 4.775, 47 4.500 C 47 4.225, 46.775 4, 46.500 4 C 46.225 4, 46 4.225, 46 4.500 M 19 5.500 C 19 5.775, 19.225 6, 19.500 6 C 19.775 6, 20 5.775, 20 5.500 C 20 5.225, 19.775 5, 19.500 5 C 19.225 5, 19 5.225, 19 5.500 M 48 5.500 C 48 5.775, 48.225 6, 48.500 6 C 48.775 6, 49 5.775, 49 5.500 C 49 5.225, 48.775 5, 48.500 5 C 48.225 5, 48 5.225, 48 5.500 M 17 6.500 C 17 6.775, 17.225 7, 17.500 7 C 17.775 7, 18 6.775, 18 6.500 C 18 6.225, 17.775 6, 17.500 6 C 17.225 6, 17 6.225, 17 6.500 M 37 6.500 C 37 6.775, 37.225 7, 37.500 7 C 37.775 7, 38 6.775, 38 6.500 C 38 6.225, 37.775 6, 37.500 6 C 37.225 6, 37 6.225, 37 6.500 M 41 7 C 39.570 7.458, 39.197 7.843, 40.128 7.900 C 41.023 7.955, 42.311 8.670, 42.990 9.488 C 44.716 11.568, 41.596 12.728, 39.295 10.862 C 38.138 9.923, 37.850 9.889, 38.367 10.750 C 38.780 11.438, 38.672 12, 38.126 12 C 37.581 12, 36.869 12.836, 36.545 13.858 C 36.085 15.309, 35.027 15.693, 31.728 15.608 C 27.813 15.508, 27.526 15.315, 27.853 13 C 28.047 11.625, 28.722 10.169, 29.353 9.765 C 30.162 9.247, 30.104 9.026, 29.156 9.015 C 28.417 9.007, 27.602 9.787, 27.345 10.750 C 27.087 11.713, 24.429 13.568, 21.438 14.874 C 18.447 16.179, 16 17.642, 16 18.124 C 16 18.606, 14.859 19, 13.465 19 C 11.179 19, 11.037 18.778, 12.020 16.750 C 13.076 14.571, 13.061 14.562, 11.533 16.471 C 10.666 17.556, 10.166 18.989, 10.422 19.657 C 10.678 20.324, 10.437 21.021, 9.887 21.204 C 8.201 21.766, 10.126 25.097, 12.701 26.077 C 15.976 27.321, 21 27.248, 21 25.955 C 21 25.301, 22.314 25.156, 24.504 25.567 C 28.522 26.321, 48 24.177, 48 22.981 C 48 22.544, 48.970 22.441, 50.156 22.751 C 51.763 23.171, 52.106 22.980, 51.502 22.003 C 50.954 21.117, 51.080 20.931, 51.889 21.432 C 52.548 21.839, 53.743 21.628, 54.544 20.964 C 56.225 19.569, 56.510 16, 54.941 16 C 54.359 16, 54.137 15.588, 54.448 15.084 C 55.251 13.785, 46.858 6.841, 45.237 7.462 C 44.500 7.745, 44.171 7.532, 44.507 6.989 C 45.203 5.863, 44.543 5.865, 41 7 M 50.500 7 C 50.840 7.550, 51.343 8, 51.618 8 C 51.893 8, 51.840 7.550, 51.500 7 C 51.160 6.450, 50.657 6, 50.382 6 C 50.107 6, 50.160 6.450, 50.500 7 M 30 7.500 C 30 7.775, 30.225 8, 30.500 8 C 30.775 8, 31 7.775, 31 7.500 C 31 7.225, 30.775 7, 30.500 7 C 30.225 7, 30 7.225, 30 7.500 M 33.375 9.397 C 35.894 11.421, 34.749 13.981, 31.281 14.079 C 29.752 14.122, 29.082 14.391, 29.793 14.677 C 30.504 14.962, 32.192 14.918, 33.543 14.579 C 36.682 13.791, 36.805 10.460, 33.750 8.980 C 31.632 7.954, 31.610 7.978, 33.375 9.397 M 11.872 10.750 C 10.629 12.336, 10.664 12.371, 12.250 11.128 C 13.916 9.821, 14.445 9, 13.622 9 C 13.415 9, 12.627 9.787, 11.872 10.750 M 46.431 12.112 C 46.053 12.723, 46.364 13.616, 47.122 14.096 C 49.154 15.383, 49.558 15.213, 49.725 13 C 49.886 10.869, 47.583 10.248, 46.431 12.112 M 56.500 13 C 56.840 13.550, 57.343 14, 57.618 14 C 57.893 14, 57.840 13.550, 57.500 13 C 57.160 12.450, 56.657 12, 56.382 12 C 56.107 12, 56.160 12.450, 56.500 13 M 9 14.500 C 9 14.775, 9.225 15, 9.500 15 C 9.775 15, 10 14.775, 10 14.500 C 10 14.225, 9.775 14, 9.500 14 C 9.225 14, 9 14.225, 9 14.500 M 25 15.500 C 25 15.775, 25.225 16, 25.500 16 C 25.775 16, 26 15.775, 26 15.500 C 26 15.225, 25.775 15, 25.500 15 C 25.225 15, 25 15.225, 25 15.500 M 8 16.500 C 8 16.775, 8.225 17, 8.500 17 C 8.775 17, 9 16.775, 9 16.500 C 9 16.225, 8.775 16, 8.500 16 C 8.225 16, 8 16.225, 8 16.500 M 58 16.500 C 58 16.775, 58.225 17, 58.500 17 C 58.775 17, 59 16.775, 59 16.500 C 59 16.225, 58.775 16, 58.500 16 C 58.225 16, 58 16.225, 58 16.500 M 7 18.500 C 7 18.775, 7.225 19, 7.500 19 C 7.775 19, 8 18.775, 8 18.500 C 8 18.225, 7.775 18, 7.500 18 C 7.225 18, 7 18.225, 7 18.500 M 48 18.500 C 48 18.775, 48.225 19, 48.500 19 C 48.775 19, 49 18.775, 49 18.500 C 49 18.225, 48.775 18, 48.500 18 C 48.225 18, 48 18.225, 48 18.500 M 58 19.500 C 58 19.775, 58.225 20, 58.500 20 C 58.775 20, 59 19.775, 59 19.500 C 59 19.225, 58.775 19, 58.500 19 C 58.225 19, 58 19.225, 58 19.500 M 53 20.500 C 53 20.775, 53.225 21, 53.500 21 C 53.775 21, 54 20.775, 54 20.500 C 54 20.225, 53.775 20, 53.500 20 C 53.225 20, 53 20.225, 53 20.500 M 7 25.500 C 7 25.775, 7.225 26, 7.500 26 C 7.775 26, 8 25.775, 8 25.500 C 8 25.225, 7.775 25, 7.500 25 C 7.225 25, 7 25.225, 7 25.500 M 15 25.500 C 15 25.775, 15.225 26, 15.500 26 C 15.775 26, 16 25.775, 16 25.500 C 16 25.225, 15.775 25, 15.500 25 C 15.225 25, 15 25.225, 15 25.500 M 51.595 26.155 C 52.035 26.865, 51.870 27.038, 51.167 26.603 C 49.424 25.526, 37.542 27.083, 39.165 28.176 C 40.018 28.750, 39.236 28.879, 37 28.533 C 35.075 28.235, 28.775 28.331, 23 28.746 C 13.243 29.447, 12.478 29.654, 12.189 31.682 C 11.661 35.393, 15.124 36.358, 26.337 35.623 C 38.430 34.831, 50 33.003, 50 31.885 C 50 31.433, 50.640 31.308, 51.423 31.609 C 53.325 32.339, 57.110 28.449, 56.370 26.523 C 56.049 25.685, 54.683 25, 53.334 25 C 51.735 25, 51.130 25.402, 51.595 26.155 M 9 27.500 C 9 27.775, 9.225 28, 9.500 28 C 9.775 28, 10 27.775, 10 27.500 C 10 27.225, 9.775 27, 9.500 27 C 9.225 27, 9 27.225, 9 27.500 M 9 30.500 C 9 30.775, 9.225 31, 9.500 31 C 9.775 31, 10 30.775, 10 30.500 C 10 30.225, 9.775 30, 9.500 30 C 9.225 30, 9 30.225, 9 30.500 M 58 30.500 C 58 30.775, 58.225 31, 58.500 31 C 58.775 31, 59 30.775, 59 30.500 C 59 30.225, 58.775 30, 58.500 30 C 58.225 30, 58 30.225, 58 30.500 M 56 32.500 C 56 32.775, 56.225 33, 56.500 33 C 56.775 33, 57 32.775, 57 32.500 C 57 32.225, 56.775 32, 56.500 32 C 56.225 32, 56 32.225, 56 32.500 M 9 33.711 C 9 34.285, 9.787 35.373, 10.750 36.128 C 12.369 37.397, 12.390 37.350, 11.033 35.500 C 10.226 34.400, 9.439 33.313, 9.283 33.083 C 9.127 32.854, 9 33.137, 9 33.711 M 54 34.500 C 54 34.775, 54.225 35, 54.500 35 C 54.775 35, 55 34.775, 55 34.500 C 55 34.225, 54.775 34, 54.500 34 C 54.225 34, 54 34.225, 54 34.500 M 41 36.563 C 36.875 37.284, 30.125 37.915, 26 37.964 C 18.860 38.050, 18.319 38.223, 14.718 41.570 C 12.617 43.523, 11.241 45.580, 11.622 46.198 C 12.022 46.844, 11.857 47.029, 11.227 46.640 C 9.672 45.679, 9.205 47.964, 8.086 62 C 6.380 83.421, 5.898 104.199, 6.962 110.495 C 8.050 116.934, 10.796 121.584, 13.380 121.363 C 14.259 121.288, 14.754 121.589, 14.480 122.032 C 13.785 123.157, 19.370 124.793, 26.531 125.561 C 34.210 126.386, 53.640 124.355, 61.602 121.896 C 72.478 118.537, 76.131 113.951, 76.116 103.679 C 76.111 100.280, 75.391 94.350, 74.517 90.500 C 69.176 66.988, 64.687 50.075, 63.915 50.553 C 63.424 50.856, 63.279 50.437, 63.592 49.622 C 64.860 46.317, 57.440 36.227, 55.308 38.358 C 54.962 38.704, 54.051 38.090, 53.283 36.994 C 51.713 34.753, 51.414 34.742, 41 36.563 M 49 36.500 C 49 36.775, 49.225 37, 49.500 37 C 49.775 37, 50 36.775, 50 36.500 C 50 36.225, 49.775 36, 49.500 36 C 49.225 36, 49 36.225, 49 36.500 M 58 36.500 C 58 36.775, 58.225 37, 58.500 37 C 58.775 37, 59 36.775, 59 36.500 C 59 36.225, 58.775 36, 58.500 36 C 58.225 36, 58 36.225, 58 36.500 M 61.500 39 C 62.495 40.100, 63.535 41, 63.810 41 C 64.085 41, 63.495 40.100, 62.500 39 C 61.505 37.900, 60.465 37, 60.190 37 C 59.915 37, 60.505 37.900, 61.500 39 M 12.405 40.155 C 11.962 40.870, 12.130 41.038, 12.845 40.595 C 13.480 40.203, 14 39.684, 14 39.441 C 14 38.607, 13.117 39.002, 12.405 40.155 M 18 39.500 C 18 39.775, 18.225 40, 18.500 40 C 18.775 40, 19 39.775, 19 39.500 C 19 39.225, 18.775 39, 18.500 39 C 18.225 39, 18 39.225, 18 39.500 M 64 42.500 C 64 42.775, 64.225 43, 64.500 43 C 64.775 43, 65 42.775, 65 42.500 C 65 42.225, 64.775 42, 64.500 42 C 64.225 42, 64 42.225, 64 42.500 M 65 44.500 C 65 44.775, 65.225 45, 65.500 45 C 65.775 45, 66 44.775, 66 44.500 C 66 44.225, 65.775 44, 65.500 44 C 65.225 44, 65 44.225, 65 44.500 M 7 46.500 C 7 46.775, 7.225 47, 7.500 47 C 7.775 47, 8 46.775, 8 46.500 C 8 46.225, 7.775 46, 7.500 46 C 7.225 46, 7 46.225, 7 46.500 M 66 47.500 C 66 47.775, 66.225 48, 66.500 48 C 66.775 48, 67 47.775, 67 47.500 C 67 47.225, 66.775 47, 66.500 47 C 66.225 47, 66 47.225, 66 47.500 M 6.079 51.583 C 6.127 52.748, 6.364 52.985, 6.683 52.188 C 6.972 51.466, 6.936 50.603, 6.604 50.271 C 6.272 49.939, 6.036 50.529, 6.079 51.583 M 67 51 C 67 51.733, 67.300 52.033, 67.667 51.667 C 68.033 51.300, 68.033 50.700, 67.667 50.333 C 67.300 49.967, 67 50.267, 67 51 M 35.500 52.689 C 27.687 53.701, 16.286 56.312, 14.381 57.526 C 12.521 58.709, 12.107 60.482, 11.002 71.981 C 9.295 89.738, 10.009 110.513, 12.468 114.677 C 15.108 119.146, 20.162 121.228, 29.698 121.775 C 44.132 122.603, 61.041 119.194, 67.108 114.233 C 71.367 110.750, 71.529 110.230, 71.368 100.500 C 71.270 94.512, 70.012 87.728, 66.368 73.527 C 62.047 56.686, 61.219 54.412, 59 53.292 C 56.641 52.101, 42.779 51.745, 35.500 52.689 M 31.771 55.369 L 25.042 56.500 29.271 58.233 C 32.341 59.492, 32.978 59.568, 31.597 58.511 C 28.900 56.449, 30.416 56.051, 44.607 55.092 L 56.500 54.289 47.500 54.263 C 42.550 54.249, 35.472 54.746, 31.771 55.369 M 68 54.500 C 68 54.775, 68.225 55, 68.500 55 C 68.775 55, 69 54.775, 69 54.500 C 69 54.225, 68.775 54, 68.500 54 C 68.225 54, 68 54.225, 68 54.500 M 56 56 C 55.099 56.582, 54.975 56.975, 55.691 56.985 C 56.346 56.993, 57.160 56.550, 57.500 56 C 58.267 54.758, 57.921 54.758, 56 56 M 38.250 56.723 C 36.462 56.945, 35 57.505, 35 57.968 C 35 58.431, 36.742 58.576, 38.870 58.291 C 41.411 57.950, 43.011 58.208, 43.526 59.042 C 44.129 60.018, 43.529 60.156, 40.937 59.637 C 38.441 59.138, 37.855 59.255, 38.685 60.085 C 39.415 60.815, 41.332 60.950, 44.154 60.471 C 47.806 59.852, 48.157 59.607, 46.352 58.937 C 45.171 58.499, 43.907 57.659, 43.543 57.070 C 43.180 56.482, 42.571 56.072, 42.191 56.160 C 41.811 56.248, 40.038 56.502, 38.250 56.723 M 45 56.500 C 45 56.775, 45.225 57, 45.500 57 C 45.775 57, 46 56.775, 46 56.500 C 46 56.225, 45.775 56, 45.500 56 C 45.225 56, 45 56.225, 45 56.500 M 48.229 57.188 C 48.447 57.841, 49.171 58.482, 49.837 58.612 C 50.504 58.743, 50.586 58.620, 50.019 58.340 C 49.452 58.059, 49.242 57.418, 49.553 56.915 C 49.864 56.412, 49.604 56, 48.976 56 C 48.347 56, 48.011 56.534, 48.229 57.188 M 18.250 58.033 C 15.117 59.290, 15.413 60.174, 18.565 58.975 C 22.448 57.499, 23.917 57.964, 20.500 59.588 C 17.568 60.981, 17.614 60.999, 22.500 60.379 C 29.648 59.471, 30.088 58.685, 24 57.698 C 22.075 57.386, 19.488 57.537, 18.250 58.033 M 53 57.500 C 53 57.775, 53.225 58, 53.500 58 C 53.775 58, 54 57.775, 54 57.500 C 54 57.225, 53.775 57, 53.500 57 C 53.225 57, 53 57.225, 53 57.500 M 56 58.814 C 54.075 59.741, 52.358 60.812, 52.185 61.194 C 52.012 61.575, 51.337 61.762, 50.685 61.608 C 50.033 61.454, 49.874 61.529, 50.330 61.774 C 50.787 62.019, 49.662 63.540, 47.830 65.154 L 44.500 68.088 48.730 65.544 C 51.057 64.145, 53.532 62.993, 54.230 62.985 C 55.220 62.973, 55.209 62.785, 54.183 62.134 C 53.226 61.527, 53.711 60.948, 55.954 60.019 C 57.653 59.315, 59.285 58.348, 59.580 57.870 C 60.259 56.773, 60.212 56.785, 56 58.814 M 69 58.500 C 69 58.775, 69.225 59, 69.500 59 C 69.775 59, 70 58.775, 70 58.500 C 70 58.225, 69.775 58, 69.500 58 C 69.225 58, 69 58.225, 69 58.500 M 5.079 60.583 C 5.127 61.748, 5.364 61.985, 5.683 61.188 C 5.972 60.466, 5.936 59.603, 5.604 59.271 C 5.272 58.939, 5.036 59.529, 5.079 60.583 M 60.625 63 C 60.974 64.925, 61.653 67.400, 62.135 68.500 C 62.735 69.873, 62.811 69.403, 62.375 67 C 62.026 65.075, 61.347 62.600, 60.865 61.500 C 60.265 60.127, 60.189 60.597, 60.625 63 M 14.079 62.583 C 14.127 63.748, 14.364 63.985, 14.683 63.188 C 14.972 62.466, 14.936 61.603, 14.604 61.271 C 14.272 60.939, 14.036 61.529, 14.079 62.583 M 25.728 61.722 C 27.503 61.943, 30.653 61.946, 32.728 61.730 C 34.802 61.513, 33.350 61.333, 29.500 61.328 C 25.650 61.324, 23.952 61.501, 25.728 61.722 M 70 62 C 70 62.733, 70.300 63.033, 70.667 62.667 C 71.033 62.300, 71.033 61.700, 70.667 61.333 C 70.300 60.967, 70 61.267, 70 62 M 16.500 63 C 16.840 63.550, 17.316 64, 17.559 64 C 17.802 64, 18 63.550, 18 63 C 18 62.450, 17.523 62, 16.941 62 C 16.359 62, 16.160 62.450, 16.500 63 M 44.750 62.662 C 45.438 62.940, 46.563 62.940, 47.250 62.662 C 47.938 62.385, 47.375 62.158, 46 62.158 C 44.625 62.158, 44.063 62.385, 44.750 62.662 M 21.500 64.236 C 23.150 64.829, 26.300 66.434, 28.500 67.802 C 31.988 69.972, 32.264 70.025, 30.659 68.216 C 28.451 65.728, 22.915 62.969, 20.349 63.079 C 19.159 63.130, 19.570 63.542, 21.500 64.236 M 38.269 63.693 C 39.242 63.947, 40.592 63.930, 41.269 63.656 C 41.946 63.382, 41.150 63.175, 39.500 63.195 C 37.850 63.215, 37.296 63.439, 38.269 63.693 M 30.250 64.689 C 31.212 64.941, 32.788 64.941, 33.750 64.689 C 34.712 64.438, 33.925 64.232, 32 64.232 C 30.075 64.232, 29.288 64.438, 30.250 64.689 M 52.175 66.590 C 50.963 67.439, 48.740 68.776, 47.236 69.561 C 45.283 70.579, 45.011 70.989, 46.285 70.994 C 47.740 70.999, 47.879 71.358, 47.035 72.934 C 45.406 75.978, 45.811 78.530, 48.250 80.595 L 50.500 82.500 48.627 80.285 C 47.302 78.718, 46.941 77.255, 47.395 75.285 C 47.747 73.753, 48.174 71.889, 48.342 71.142 C 48.511 70.395, 49.966 69.045, 51.575 68.142 C 53.184 67.239, 54.688 66.388, 54.917 66.250 C 55.146 66.112, 55.119 65.785, 54.856 65.523 C 54.594 65.261, 53.388 65.741, 52.175 66.590 M 71 66 C 71 66.733, 71.300 67.033, 71.667 66.667 C 72.033 66.300, 72.033 65.700, 71.667 65.333 C 71.300 64.967, 71 65.267, 71 66 M 13.310 71.500 C 13.315 74.800, 13.502 76.029, 13.725 74.232 C 13.947 72.435, 13.943 69.735, 13.715 68.232 C 13.486 66.729, 13.304 68.200, 13.310 71.500 M 22 67.785 C 22 68.325, 22.788 69.012, 23.750 69.311 C 24.712 69.610, 26.962 70.832, 28.750 72.025 C 30.538 73.219, 32 73.755, 32 73.215 C 32 72.675, 31.212 71.988, 30.250 71.689 C 29.288 71.390, 27.038 70.168, 25.250 68.975 C 23.462 67.781, 22 67.245, 22 67.785 M 54 70 C 54 70.550, 54.477 71, 55.059 71 C 55.641 71, 55.840 70.550, 55.500 70 C 55.160 69.450, 54.684 69, 54.441 69 C 54.198 69, 54 69.450, 54 70 M 72.079 70.583 C 72.127 71.748, 72.364 71.985, 72.683 71.188 C 72.972 70.466, 72.936 69.603, 72.604 69.271 C 72.272 68.939, 72.036 69.529, 72.079 70.583 M 50 70.500 C 50 70.775, 50.225 71, 50.500 71 C 50.775 71, 51 70.775, 51 70.500 C 51 70.225, 50.775 70, 50.500 70 C 50.225 70, 50 70.225, 50 70.500 M 63 72 C 63 72.733, 63.300 73.033, 63.667 72.667 C 64.033 72.300, 64.033 71.700, 63.667 71.333 C 63.300 70.967, 63 71.267, 63 72 M 4.272 76 C 4.272 78.475, 4.467 79.487, 4.706 78.250 C 4.944 77.013, 4.944 74.987, 4.706 73.750 C 4.467 72.513, 4.272 73.525, 4.272 76 M 17.500 73 C 17.840 73.550, 18.343 74, 18.618 74 C 18.893 74, 18.840 73.550, 18.500 73 C 18.160 72.450, 17.657 72, 17.382 72 C 17.107 72, 17.160 72.450, 17.500 73 M 26.441 73.445 C 28.363 74.984, 28.363 75.001, 26.441 75.079 C 25.191 75.130, 24.985 75.351, 25.863 75.700 C 27.014 76.158, 27.014 76.377, 25.863 77.106 C 24.796 77.782, 24.880 77.973, 26.250 77.985 C 27.212 77.993, 28 77.298, 28 76.441 C 28 75.517, 28.470 75.173, 29.155 75.595 C 29.868 76.036, 30.038 75.870, 29.599 75.160 C 29.208 74.528, 27.901 73.534, 26.694 72.950 C 24.577 71.927, 24.568 71.944, 26.441 73.445 M 52.079 73.750 C 52.134 74.970, 52.322 75.087, 52.700 74.137 C 53.150 73.006, 53.383 73.001, 54.067 74.108 C 54.520 74.842, 55.186 75.148, 55.546 74.788 C 56.501 73.832, 55.117 72, 53.441 72 C 52.648 72, 52.036 72.787, 52.079 73.750 M 20.507 73.989 C 20.157 74.555, 20.558 74.723, 21.448 74.382 C 23.180 73.717, 23.497 73, 22.059 73 C 21.541 73, 20.843 73.445, 20.507 73.989 M 57.592 74.799 C 57.921 76.118, 57.491 78.127, 56.583 79.514 C 55.712 80.842, 55.008 82.508, 55.017 83.215 C 55.026 83.922, 55.877 83.150, 56.908 81.500 C 59.250 77.753, 60.613 73.503, 59.193 74.381 C 58.631 74.728, 57.912 74.447, 57.595 73.756 C 57.278 73.065, 57.277 73.535, 57.592 74.799 M 73 74.500 C 73 74.775, 73.225 75, 73.500 75 C 73.775 75, 74 74.775, 74 74.500 C 74 74.225, 73.775 74, 73.500 74 C 73.225 74, 73 74.225, 73 74.500 M 17 75.500 C 17 75.775, 17.225 76, 17.500 76 C 17.775 76, 18 75.775, 18 75.500 C 18 75.225, 17.775 75, 17.500 75 C 17.225 75, 17 75.225, 17 75.500 M 64 76 C 64 76.733, 64.300 77.033, 64.667 76.667 C 65.033 76.300, 65.033 75.700, 64.667 75.333 C 64.300 74.967, 64 75.267, 64 76 M 19 77 C 19 77.733, 19.300 78.033, 19.667 77.667 C 20.033 77.300, 20.033 76.700, 19.667 76.333 C 19.300 75.967, 19 76.267, 19 77 M 30 78 C 30 78.550, 30.477 79, 31.059 79 C 31.641 79, 31.840 78.550, 31.500 78 C 31.160 77.450, 30.684 77, 30.441 77 C 30.198 77, 30 77.450, 30 78 M 74 79 C 74 79.733, 74.300 80.033, 74.667 79.667 C 75.033 79.300, 75.033 78.700, 74.667 78.333 C 74.300 77.967, 74 78.267, 74 79 M 12.397 93 C 12.397 100.975, 12.553 104.237, 12.743 100.250 C 12.932 96.263, 12.932 89.737, 12.743 85.750 C 12.553 81.763, 12.397 85.025, 12.397 93 M 65.079 80.583 C 65.127 81.748, 65.364 81.985, 65.683 81.188 C 65.972 80.466, 65.936 79.603, 65.604 79.271 C 65.272 78.939, 65.036 79.529, 65.079 80.583 M 19 81 C 19 81.733, 19.300 82.033, 19.667 81.667 C 20.033 81.300, 20.033 80.700, 19.667 80.333 C 19.300 79.967, 19 80.267, 19 81 M 30 81 C 30 81.733, 30.300 82.033, 30.667 81.667 C 31.033 81.300, 31.033 80.700, 30.667 80.333 C 30.300 79.967, 30 80.267, 30 81 M 40.603 81.833 C 40.320 82.292, 40.723 82.667, 41.500 82.667 C 42.277 82.667, 42.680 82.292, 42.397 81.833 C 42.114 81.375, 41.710 81, 41.500 81 C 41.290 81, 40.886 81.375, 40.603 81.833 M 44 81.500 C 44 81.775, 44.225 82, 44.500 82 C 44.775 82, 45 81.775, 45 81.500 C 45 81.225, 44.775 81, 44.500 81 C 44.225 81, 44 81.225, 44 81.500 M 51.500 83 C 51.840 83.550, 52.541 84, 53.059 84 C 53.577 84, 54 83.550, 54 83 C 54 82.450, 53.298 82, 52.441 82 C 51.584 82, 51.160 82.450, 51.500 83 M 75 83 C 75 83.733, 75.300 84.033, 75.667 83.667 C 76.033 83.300, 76.033 82.700, 75.667 82.333 C 75.300 81.967, 75 82.267, 75 83 M 27.678 84.121 C 26.675 84.704, 24.650 84.909, 23.178 84.576 C 21.162 84.122, 20.898 84.216, 22.109 84.957 C 24.299 86.297, 29.664 85.795, 29.666 84.250 C 29.666 83.563, 29.629 83.014, 29.583 83.030 C 29.538 83.047, 28.680 83.538, 27.678 84.121 M 66.141 84.500 C 66.141 85.600, 66.527 87.400, 67 88.500 L 67.859 90.500 67.859 88.500 C 67.859 87.400, 67.473 85.600, 67 84.500 L 66.141 82.500 66.141 84.500 M 39 84.534 C 39 84.675, 40.834 85.698, 43.075 86.807 C 46.738 88.619, 46.985 88.641, 45.515 87.017 C 44.189 85.551, 39 83.574, 39 84.534 M 33.009 86.489 C 32.329 87.308, 31.329 87.704, 30.787 87.368 C 30.244 87.033, 30.311 87.713, 30.935 88.879 C 32.104 91.063, 34.452 91.695, 35.442 90.093 C 35.751 89.595, 35.102 89.422, 34.001 89.710 C 30.721 90.568, 31.705 88.032, 35.250 86.491 C 37.803 85.381, 38.044 85.070, 36.372 85.039 C 35.202 85.018, 33.689 85.670, 33.009 86.489 M 49.405 87.155 C 48.962 87.870, 49.130 88.038, 49.845 87.595 C 50.480 87.203, 51 86.684, 51 86.441 C 51 85.607, 50.117 86.002, 49.405 87.155 M 76 88 C 76 88.733, 76.300 89.033, 76.667 88.667 C 77.033 88.300, 77.033 87.700, 76.667 87.333 C 76.300 86.967, 76 87.267, 76 88 M 39.032 88.941 C 40.424 89.364, 42.554 90.329, 43.765 91.086 C 45.698 92.292, 46.184 92.235, 47.734 90.619 C 49.433 88.847, 49.419 88.825, 47.389 90.042 C 45.630 91.097, 44.884 91.032, 42.916 89.654 C 41.618 88.744, 39.643 88.039, 38.527 88.086 C 36.858 88.157, 36.947 88.308, 39.032 88.941 M 64 91.500 C 64 91.775, 64.225 92, 64.500 92 C 64.775 92, 65 91.775, 65 91.500 C 65 91.225, 64.775 91, 64.500 91 C 64.225 91, 64 91.225, 64 91.500 M 68 93 C 68 93.733, 68.300 94.033, 68.667 93.667 C 69.033 93.300, 69.033 92.700, 68.667 92.333 C 68.300 91.967, 68 92.267, 68 93 M 77 92.500 C 77 92.775, 77.225 93, 77.500 93 C 77.775 93, 78 92.775, 78 92.500 C 78 92.225, 77.775 92, 77.500 92 C 77.225 92, 77 92.225, 77 92.500 M 19 93.500 C 19 93.775, 19.225 94, 19.500 94 C 19.775 94, 20 93.775, 20 93.500 C 20 93.225, 19.775 93, 19.500 93 C 19.225 93, 19 93.225, 19 93.500 M 39 94.500 C 39 94.775, 39.225 95, 39.500 95 C 39.775 95, 40 94.775, 40 94.500 C 40 94.225, 39.775 94, 39.500 94 C 39.225 94, 39 94.225, 39 94.500 M 3.300 101 C 3.300 104.025, 3.487 105.263, 3.716 103.750 C 3.945 102.237, 3.945 99.763, 3.716 98.250 C 3.487 96.737, 3.300 97.975, 3.300 101 M 78 97 C 78 97.733, 78.300 98.033, 78.667 97.667 C 79.033 97.300, 79.033 96.700, 78.667 96.333 C 78.300 95.967, 78 96.267, 78 97 M 69.079 98.583 C 69.127 99.748, 69.364 99.985, 69.683 99.188 C 69.972 98.466, 69.936 97.603, 69.604 97.271 C 69.272 96.939, 69.036 97.529, 69.079 98.583 M 69.158 105 C 69.158 106.375, 69.385 106.938, 69.662 106.250 C 69.940 105.563, 69.940 104.438, 69.662 103.750 C 69.385 103.063, 69.158 103.625, 69.158 105 M 67 104.500 C 67 104.775, 67.225 105, 67.500 105 C 67.775 105, 68 104.775, 68 104.500 C 68 104.225, 67.775 104, 67.500 104 C 67.225 104, 67 104.225, 67 104.500 M 68 108.500 C 68 108.775, 68.225 109, 68.500 109 C 68.775 109, 69 108.775, 69 108.500 C 69 108.225, 68.775 108, 68.500 108 C 68.225 108, 68 108.225, 68 108.500 M 13.086 110 C 13.055 110.825, 13.467 112.175, 14 113 C 15.181 114.828, 15.181 113.249, 14 110.500 C 13.433 109.181, 13.122 109.011, 13.086 110 M 78 109.500 C 78 109.775, 78.225 110, 78.500 110 C 78.775 110, 79 109.775, 79 109.500 C 79 109.225, 78.775 109, 78.500 109 C 78.225 109, 78 109.225, 78 109.500 M 66.089 111.392 C 65.454 112.158, 63.584 113.344, 61.935 114.027 C 60.285 114.710, 59.133 115.467, 59.375 115.708 C 60.018 116.352, 65.432 113.389, 66.945 111.566 C 67.660 110.705, 68.020 110, 67.745 110 C 67.470 110, 66.725 110.627, 66.089 111.392 M 4 112.500 C 4 112.775, 4.225 113, 4.500 113 C 4.775 113, 5 112.775, 5 112.500 C 5 112.225, 4.775 112, 4.500 112 C 4.225 112, 4 112.225, 4 112.500 M 77 112.500 C 77 112.775, 77.225 113, 77.500 113 C 77.775 113, 78 112.775, 78 112.500 C 78 112.225, 77.775 112, 77.500 112 C 77.225 112, 77 112.225, 77 112.500 M 23 113.500 C 23 113.775, 23.225 114, 23.500 114 C 23.775 114, 24 113.775, 24 113.500 C 24 113.225, 23.775 113, 23.500 113 C 23.225 113, 23 113.225, 23 113.500 M 59 113.500 C 59 113.775, 59.225 114, 59.500 114 C 59.775 114, 60 113.775, 60 113.500 C 60 113.225, 59.775 113, 59.500 113 C 59.225 113, 59 113.225, 59 113.500 M 56 114.500 C 56 114.775, 56.225 115, 56.500 115 C 56.775 115, 57 114.775, 57 114.500 C 57 114.225, 56.775 114, 56.500 114 C 56.225 114, 56 114.225, 56 114.500 M 76 114.500 C 76 114.775, 76.225 115, 76.500 115 C 76.775 115, 77 114.775, 77 114.500 C 77 114.225, 76.775 114, 76.500 114 C 76.225 114, 76 114.225, 76 114.500 M 16.469 116.472 C 19.683 119.033, 25.495 120.102, 34.257 119.744 L 42.500 119.407 33.250 119.204 C 28.090 119.090, 24 118.572, 24 118.031 C 24 117.499, 23.366 117.306, 22.590 117.604 C 21.815 117.901, 19.677 117.415, 17.840 116.524 C 14.933 115.113, 14.755 115.107, 16.469 116.472 M 56.333 116.667 C 56.700 117.033, 57.300 117.033, 57.667 116.667 C 58.033 116.300, 57.733 116, 57 116 C 56.267 116, 55.967 116.300, 56.333 116.667 M 74.405 117.155 C 73.962 117.870, 74.130 118.038, 74.845 117.595 C 75.998 116.883, 76.393 116, 75.559 116 C 75.316 116, 74.797 116.520, 74.405 117.155 M 46 118 L 42.500 118.737 46 118.769 C 47.925 118.786, 50.625 118.440, 52 118 L 54.500 117.199 52 117.231 C 50.625 117.249, 47.925 117.595, 46 118 M 6 118.500 C 6 118.775, 6.225 119, 6.500 119 C 6.775 119, 7 118.775, 7 118.500 C 7 118.225, 6.775 118, 6.500 118 C 6.225 118, 6 118.225, 6 118.500 M 7 120.500 C 7 120.775, 7.225 121, 7.500 121 C 7.775 121, 8 120.775, 8 120.500 C 8 120.225, 7.775 120, 7.500 120 C 7.225 120, 7 120.225, 7 120.500 M 70.405 121.155 C 69.962 121.870, 70.130 122.038, 70.845 121.595 C 71.480 121.203, 72 120.684, 72 120.441 C 72 119.607, 71.117 120.002, 70.405 121.155 M 68 122.500 C 68 122.775, 68.225 123, 68.500 123 C 68.775 123, 69 122.775, 69 122.500 C 69 122.225, 68.775 122, 68.500 122 C 68.225 122, 68 122.225, 68 122.500 M 10.500 124 C 10.840 124.550, 11.343 125, 11.618 125 C 11.893 125, 11.840 124.550, 11.500 124 C 11.160 123.450, 10.657 123, 10.382 123 C 10.107 123, 10.160 123.450, 10.500 124 M 65 123.500 C 65 123.775, 65.225 124, 65.500 124 C 65.775 124, 66 123.775, 66 123.500 C 66 123.225, 65.775 123, 65.500 123 C 65.225 123, 65 123.225, 65 123.500 M 62 124.500 C 62 124.775, 62.225 125, 62.500 125 C 62.775 125, 63 124.775, 63 124.500 C 63 124.225, 62.775 124, 62.500 124 C 62.225 124, 62 124.225, 62 124.500 M 58 125.500 C 58 125.775, 58.225 126, 58.500 126 C 58.775 126, 59 125.775, 59 125.500 C 59 125.225, 58.775 125, 58.500 125 C 58.225 125, 58 125.225, 58 125.500 M 16 126.500 C 16 126.775, 16.225 127, 16.500 127 C 16.775 127, 17 126.775, 17 126.500 C 17 126.225, 16.775 126, 16.500 126 C 16.225 126, 16 126.225, 16 126.500 M 52.333 126.667 C 52.700 127.033, 53.300 127.033, 53.667 126.667 C 54.033 126.300, 53.733 126, 53 126 C 52.267 126, 51.967 126.300, 52.333 126.667 M 19.333 127.667 C 19.700 128.033, 20.300 128.033, 20.667 127.667 C 21.033 127.300, 20.733 127, 20 127 C 19.267 127, 18.967 127.300, 19.333 127.667 M 45.813 127.683 C 46.534 127.972, 47.397 127.936, 47.729 127.604 C 48.061 127.272, 47.471 127.036, 46.417 127.079 C 45.252 127.127, 45.015 127.364, 45.813 127.683 M 31.250 128.689 C 32.212 128.941, 33.788 128.941, 34.750 128.689 C 35.712 128.438, 34.925 128.232, 33 128.232 C 31.075 128.232, 30.288 128.438, 31.250 128.689" stroke="none" fill="#d9e4e7" fill-rule="evenodd"/></svg>