<svg xmlns="http://www.w3.org/2000/svg" width="132" height="106" viewBox="0 0 132 106" version="1.1"><path d="M 69.762 48.707 C 71.006 48.946, 72.806 48.937, 73.762 48.687 C 74.718 48.437, 73.700 48.241, 71.500 48.252 C 69.300 48.263, 68.518 48.468, 69.762 48.707 M 64.158 55 C 64.158 56.375, 64.385 56.938, 64.662 56.250 C 64.940 55.563, 64.940 54.438, 64.662 53.750 C 64.385 53.063, 64.158 53.625, 64.158 55 M 65.004 59.750 C 65.014 61.793, 69.198 67, 70.830 67 C 72.569 67, 76.812 63.377, 75.911 62.662 C 72.926 60.296, 70.047 59, 67.777 59 C 66.250 59, 65.002 59.337, 65.004 59.750 M 76.333 60.667 C 76.700 61.033, 77.300 61.033, 77.667 60.667 C 78.033 60.300, 77.733 60, 77 60 C 76.267 60, 75.967 60.300, 76.333 60.667" stroke="none" fill="#d43426" fill-rule="evenodd"/><path d="M 64.563 49.897 C 64.258 50.391, 64.288 52.191, 64.629 53.897 C 65.156 56.532, 65.698 57, 68.221 57 C 69.855 57, 72.517 57.783, 74.138 58.741 C 76.719 60.265, 77.202 60.296, 78.027 58.991 C 78.545 58.171, 78.976 55.587, 78.985 53.250 L 79 49 72.059 49 C 68.241 49, 64.868 49.404, 64.563 49.897 M 37 56.066 C 37 58.928, 38.793 62, 40.463 62 C 42.250 62, 46.160 57.069, 45.377 55.801 C 45.050 55.272, 43.706 55.108, 42.391 55.438 C 41.041 55.777, 40 55.594, 40 55.019 C 40 54.459, 39.325 54, 38.500 54 C 37.651 54, 37 54.896, 37 56.066 M 94.658 58.675 C 93.398 59.936, 94.013 62.702, 95.943 64.448 C 97.807 66.136, 97.987 66.104, 100.443 63.648 C 101.849 62.242, 103 60.647, 103 60.104 C 103 58.392, 100.970 57.780, 99.456 59.036 C 98.380 59.929, 97.649 59.954, 96.658 59.131 C 95.920 58.519, 95.020 58.313, 94.658 58.675" stroke="none" fill="#f87f72" fill-rule="evenodd"/><path d="M 25.311 27.159 C 19.503 32.180, 18.074 33.960, 18.032 36.226 C 18.014 37.175, 17.052 39.425, 15.894 41.226 C 14.735 43.027, 14.055 43.689, 14.382 42.698 C 14.747 41.592, 14.577 41.143, 13.942 41.536 C 13.373 41.887, 13.130 43.588, 13.402 45.316 C 13.693 47.156, 13.352 49.086, 12.578 49.978 C 11.229 51.535, 6.649 64.947, 5.501 70.701 C 4.222 77.114, 9.599 84.677, 20.287 91.499 C 22.703 93.042, 40.013 97.320, 40.771 96.562 C 41.905 95.429, 38.772 92.945, 32.210 89.776 C 23.347 85.494, 15.810 80.165, 13.387 76.467 C 11.877 74.164, 11.839 73.039, 13.007 65.204 C 13.721 60.417, 14.430 54.475, 14.583 52 C 14.878 47.234, 18.462 38, 20.016 38 C 20.524 38, 23.216 34.625, 26 30.500 C 28.784 26.375, 30.850 23, 30.591 23 C 30.333 23, 27.957 24.871, 25.311 27.159 M 102 27.685 C 102 28.703, 103.055 31.103, 104.344 33.018 C 108.504 39.200, 114.962 51.952, 117.008 58.024 C 119.359 65.003, 119.873 82.342, 117.768 83.644 C 117.090 84.062, 112.048 86.053, 106.563 88.066 C 93.866 92.727, 92.998 94.333, 103.650 93.454 C 114.477 92.561, 118.549 91.376, 122.289 88.029 L 125.500 85.155 125.421 75.328 C 125.363 68.145, 124.894 64.693, 123.677 62.500 C 122.761 60.850, 122.004 58.150, 121.993 56.500 C 121.969 52.859, 115.806 41.832, 108.857 33 C 103.245 25.867, 102 24.901, 102 27.685 M 99.632 34.786 C 99.365 35.218, 99.981 35.571, 101 35.571 C 102.019 35.571, 102.635 35.218, 102.368 34.786 C 102.100 34.354, 101.485 34, 101 34 C 100.515 34, 99.900 34.354, 99.632 34.786 M 45.333 35.667 C 45.700 36.033, 46.300 36.033, 46.667 35.667 C 47.033 35.300, 46.733 35, 46 35 C 45.267 35, 44.967 35.300, 45.333 35.667 M 40.405 38.250 L 38.500 40.500 40.750 38.595 C 41.987 37.547, 43 36.535, 43 36.345 C 43 35.545, 42.195 36.136, 40.405 38.250 M 92.946 40.750 L 89.500 44.500 93.250 41.054 C 95.313 39.158, 97 37.471, 97 37.304 C 97 36.540, 96.154 37.260, 92.946 40.750 M 99.405 41.155 C 98.962 41.870, 99.130 42.038, 99.845 41.595 C 100.480 41.203, 101 40.684, 101 40.441 C 101 39.607, 100.117 40.002, 99.405 41.155 M 53 42 C 53 42.733, 53.300 43.033, 53.667 42.667 C 54.033 42.300, 54.033 41.700, 53.667 41.333 C 53.300 40.967, 53 41.267, 53 42 M 38.079 43.583 C 38.127 44.748, 38.364 44.985, 38.683 44.188 C 38.972 43.466, 38.936 42.603, 38.604 42.271 C 38.272 41.939, 38.036 42.529, 38.079 43.583 M 53 45 C 53 45.733, 53.300 46.033, 53.667 45.667 C 54.033 45.300, 54.033 44.700, 53.667 44.333 C 53.300 43.967, 53 44.267, 53 45 M 94.405 45.155 C 93.962 45.870, 94.130 46.038, 94.845 45.595 C 95.480 45.203, 96 44.684, 96 44.441 C 96 43.607, 95.117 44.002, 94.405 45.155 M 88.405 46.155 C 87.962 46.870, 88.130 47.038, 88.845 46.595 C 89.480 46.203, 90 45.684, 90 45.441 C 90 44.607, 89.117 45.002, 88.405 46.155 M 69.250 46.716 C 70.763 46.945, 73.237 46.945, 74.750 46.716 C 76.263 46.487, 75.025 46.300, 72 46.300 C 68.975 46.300, 67.737 46.487, 69.250 46.716 M 50.872 48.750 C 49.629 50.336, 49.664 50.371, 51.250 49.128 C 52.212 48.373, 53 47.585, 53 47.378 C 53 46.555, 52.179 47.084, 50.872 48.750 M 40.500 49 C 40.840 49.550, 41.343 50, 41.618 50 C 41.893 50, 41.840 49.550, 41.500 49 C 41.160 48.450, 40.657 48, 40.382 48 C 40.107 48, 40.160 48.450, 40.500 49 M 92.333 50.667 C 92.700 51.033, 93.300 51.033, 93.667 50.667 C 94.033 50.300, 93.733 50, 93 50 C 92.267 50, 91.967 50.300, 92.333 50.667 M 81.195 53.500 C 81.215 55.150, 81.439 55.704, 81.693 54.731 C 81.947 53.758, 81.930 52.408, 81.656 51.731 C 81.382 51.054, 81.175 51.850, 81.195 53.500 M 97.750 51.662 C 98.438 51.940, 99.563 51.940, 100.250 51.662 C 100.938 51.385, 100.375 51.158, 99 51.158 C 97.625 51.158, 97.063 51.385, 97.750 51.662 M 62.079 57.583 C 62.127 58.748, 62.364 58.985, 62.683 58.188 C 62.972 57.466, 62.936 56.603, 62.604 56.271 C 62.272 55.939, 62.036 56.529, 62.079 57.583 M 63 62 C 63 62.733, 63.300 63.033, 63.667 62.667 C 64.033 62.300, 64.033 61.700, 63.667 61.333 C 63.300 60.967, 63 61.267, 63 62 M 77.405 64.155 C 76.962 64.870, 77.130 65.038, 77.845 64.595 C 78.480 64.203, 79 63.684, 79 63.441 C 79 62.607, 78.117 63.002, 77.405 64.155 M 65 66.378 C 65 66.585, 65.787 67.373, 66.750 68.128 C 68.336 69.371, 68.371 69.336, 67.128 67.750 C 65.821 66.084, 65 65.555, 65 66.378 M 69.813 69.683 C 70.534 69.972, 71.397 69.936, 71.729 69.604 C 72.061 69.272, 71.471 69.036, 70.417 69.079 C 69.252 69.127, 69.015 69.364, 69.813 69.683 M 92.333 94.667 C 92.700 95.033, 93.300 95.033, 93.667 94.667 C 94.033 94.300, 93.733 94, 93 94 C 92.267 94, 91.967 94.300, 92.333 94.667" stroke="none" fill="#a6a7a6" fill-rule="evenodd"/><path d="M 49.500 10.178 C 46.200 11.874, 43.275 13.541, 43 13.883 C 42.725 14.226, 39.913 16.196, 36.750 18.263 C 33.587 20.330, 31 22.492, 31 23.069 C 31 23.646, 30.625 23.886, 30.167 23.603 C 29.708 23.320, 29.333 23.657, 29.333 24.353 C 29.333 26.018, 21.205 37.964, 19.963 38.125 C 19.433 38.194, 18.588 38.306, 18.083 38.375 C 17.579 38.444, 16.792 38.910, 16.333 39.410 C 15.840 39.949, 16.074 39.988, 16.908 39.504 C 17.965 38.891, 18.182 39.162, 17.779 40.594 C 17.485 41.642, 17.076 43.175, 16.872 44 C 16.667 44.825, 16.133 45.770, 15.685 46.099 C 15.237 46.429, 14.743 48.904, 14.587 51.599 C 14.432 54.295, 13.721 60.417, 13.007 65.204 C 11.839 73.039, 11.877 74.164, 13.387 76.467 C 15.733 80.048, 23.171 85.358, 32 89.755 C 36.125 91.809, 39.653 93.838, 39.839 94.263 C 41.302 97.594, 51.901 100.157, 54.679 97.852 C 57.694 95.349, 56.100 93.075, 48.750 89.396 C 35.525 82.775, 25.361 74.263, 21.128 66.264 C 18.863 61.984, 18.111 55.014, 19.604 52.151 C 20.365 50.693, 20.990 48.465, 20.994 47.200 C 20.997 45.936, 21.768 43.461, 22.706 41.700 C 23.644 39.940, 24.322 38.171, 24.212 37.769 C 24.102 37.367, 25.247 36.268, 26.756 35.327 C 28.265 34.386, 32.650 30.635, 36.500 26.990 C 40.350 23.346, 46.064 18.486, 49.197 16.190 C 52.330 13.894, 56.022 10.887, 57.401 9.508 C 59.891 7.018, 59.893 7, 57.705 7.048 C 56.492 7.075, 52.800 8.483, 49.500 10.178 M 14.459 42.067 C 14.096 42.653, 14.014 43.348, 14.276 43.610 C 14.538 43.872, 15.019 43.392, 15.345 42.543 C 16.021 40.781, 15.445 40.471, 14.459 42.067 M 110.472 51.500 C 111.035 59.163, 110.809 61.540, 108.954 67.500 C 106.426 75.621, 104.018 80.612, 99.858 86.355 C 98.222 88.613, 97.269 90.590, 97.739 90.746 C 98.210 90.903, 102.618 89.548, 107.534 87.734 C 118.192 83.802, 118.964 82.721, 118.985 71.718 C 119.001 63.294, 116.975 55.764, 112.425 47.340 L 109.812 42.500 110.472 51.500 M 96.333 45.667 C 96.700 46.033, 97.300 46.033, 97.667 45.667 C 98.033 45.300, 97.733 45, 97 45 C 96.267 45, 95.967 45.300, 96.333 45.667 M 12.564 48.707 C 12.022 50.132, 12.136 50.247, 13.124 49.267 C 13.808 48.588, 14.115 47.781, 13.807 47.474 C 13.499 47.166, 12.940 47.721, 12.564 48.707" stroke="none" fill="#b1b3b2" fill-rule="evenodd"/><path d="M 93.811 40.950 C 90.271 44.592, 88.240 47.462, 88.580 48.347 C 88.896 49.171, 91.148 50.074, 93.817 50.447 C 96.393 50.807, 99.985 51.358, 101.800 51.671 C 104.960 52.217, 105.085 52.119, 104.722 49.371 C 104.369 46.698, 103.978 46.465, 99.071 46 L 93.799 45.500 98.280 42.153 C 101.550 39.712, 102.628 38.292, 102.264 36.903 C 101.476 33.886, 99.989 34.598, 93.811 40.950 M 41.174 38.314 C 38.290 41.385, 38.403 45.493, 41.455 48.545 C 44.506 51.597, 47.156 51.658, 50.393 48.750 C 54.010 45.500, 54.250 41.250, 51 38 C 48.302 35.302, 43.871 35.444, 41.174 38.314 M 62.310 48.634 C 61.374 51.074, 63.532 62.637, 65.478 65.606 C 68.932 70.878, 73.801 69.957, 78.080 63.221 C 80.630 59.205, 81.035 57.678, 80.789 53 L 80.500 47.500 71.734 47.211 C 64.215 46.963, 62.874 47.165, 62.310 48.634 M 66.250 48.706 C 64.372 49.067, 64 49.789, 64 53.070 C 64 56.836, 64.135 57, 67.250 57.004 C 69.037 57.006, 72.028 57.939, 73.895 59.077 C 78.034 61.601, 78.962 60.652, 78.985 53.875 C 78.999 49.491, 78.837 49.217, 75.875 48.625 C 72.585 47.967, 69.972 47.989, 66.250 48.706 M 65.004 59.750 C 65.014 61.793, 69.198 67, 70.830 67 C 72.569 67, 76.812 63.377, 75.911 62.662 C 72.926 60.296, 70.047 59, 67.777 59 C 66.250 59, 65.002 59.337, 65.004 59.750" stroke="none" fill="#181817" fill-rule="evenodd"/><path d="M 59 5.276 C 56.135 6.174, 55.890 6.440, 57.648 6.742 C 59.788 7.111, 59.787 7.122, 57.345 9.564 C 55.997 10.912, 52.330 13.894, 49.197 16.190 C 46.064 18.486, 40.350 23.346, 36.500 26.990 C 32.650 30.635, 28.265 34.386, 26.756 35.327 C 25.247 36.268, 24.102 37.367, 24.212 37.769 C 24.322 38.171, 23.644 39.940, 22.706 41.700 C 21.768 43.461, 20.997 45.936, 20.994 47.200 C 20.990 48.465, 20.365 50.693, 19.604 52.151 C 18.111 55.014, 18.863 61.984, 21.128 66.264 C 25.361 74.263, 35.525 82.775, 48.750 89.396 C 56.254 93.152, 57.700 95.344, 54.453 98.039 C 53.217 99.065, 53.166 99.489, 54.203 100.146 C 56.502 101.605, 62.188 101.033, 77 97.855 C 84.975 96.144, 93.300 94.766, 95.500 94.794 C 98.320 94.829, 98.853 94.645, 97.308 94.172 C 95.170 93.517, 95.216 93.351, 99.162 87.500 C 104.570 79.480, 106.367 75.810, 108.954 67.500 C 110.806 61.548, 111.035 59.152, 110.479 51.500 C 109.894 43.436, 109.419 41.806, 105.913 35.825 C 102.036 29.211, 101.080 26, 102.989 26 C 103.534 26, 102.071 23.224, 99.739 19.830 C 94.918 12.813, 88.150 7.716, 80.725 5.511 C 74.902 3.782, 64.144 3.665, 59 5.276 M 40.405 15.155 C 39.962 15.870, 40.130 16.038, 40.845 15.595 C 41.480 15.203, 42 14.684, 42 14.441 C 42 13.607, 41.117 14.002, 40.405 15.155 M 37.405 17.155 C 36.962 17.870, 37.130 18.038, 37.845 17.595 C 38.998 16.883, 39.393 16, 38.559 16 C 38.316 16, 37.797 16.520, 37.405 17.155 M 34.405 19.155 C 33.962 19.870, 34.130 20.038, 34.845 19.595 C 35.998 18.883, 36.393 18, 35.559 18 C 35.316 18, 34.797 18.520, 34.405 19.155 M 30.405 22.155 C 29.962 22.870, 30.130 23.038, 30.845 22.595 C 31.480 22.203, 32 21.684, 32 21.441 C 32 20.607, 31.117 21.002, 30.405 22.155 M 24.405 27.250 L 22.500 29.500 24.750 27.595 C 25.988 26.547, 27 25.535, 27 25.345 C 27 24.545, 26.195 25.136, 24.405 27.250 M 105.500 29 C 105.840 29.550, 106.343 30, 106.618 30 C 106.893 30, 106.840 29.550, 106.500 29 C 106.160 28.450, 105.657 28, 105.382 28 C 105.107 28, 105.160 28.450, 105.500 29 M 18.405 33.155 C 17.962 33.870, 18.130 34.038, 18.845 33.595 C 19.998 32.883, 20.393 32, 19.559 32 C 19.316 32, 18.797 32.520, 18.405 33.155 M 108.500 33 C 108.840 33.550, 109.343 34, 109.618 34 C 109.893 34, 109.840 33.550, 109.500 33 C 109.160 32.450, 108.657 32, 108.382 32 C 108.107 32, 108.160 32.450, 108.500 33 M 94.036 39.728 C 90.716 42.957, 88 46.348, 88 47.264 C 88 49.833, 91.619 51.194, 98.878 51.354 C 105.399 51.498, 105.495 51.462, 105.152 49 C 104.715 45.855, 105.242 46.161, 99.643 45.805 L 94.842 45.500 98.133 42.750 C 99.943 41.237, 101.794 40, 102.246 40 C 103.481 40, 102.523 34.674, 101.210 34.237 C 100.585 34.028, 97.356 36.499, 94.036 39.728 M 43.308 36.010 C 40.075 37.312, 37.660 41.510, 38.415 44.518 C 40.020 50.914, 47.028 53.063, 51.545 48.545 C 55.041 45.050, 54.803 40.854, 50.923 37.589 C 47.631 34.819, 46.729 34.632, 43.308 36.010 M 15.232 39 C 14.545 40.100, 14.329 41, 14.751 41 C 15.173 41, 16.081 40.100, 16.768 39 C 17.455 37.900, 17.671 37, 17.249 37 C 16.827 37, 15.919 37.900, 15.232 39 M 112.500 38 C 112.840 38.550, 113.343 39, 113.618 39 C 113.893 39, 113.840 38.550, 113.500 38 C 113.160 37.450, 112.657 37, 112.382 37 C 112.107 37, 112.160 37.450, 112.500 38 M 12.079 46.668 C 12.036 47.311, 11.741 48.661, 11.424 49.668 C 10.877 51.409, 10.906 51.412, 11.995 49.712 C 12.626 48.729, 12.920 47.379, 12.650 46.712 C 12.295 45.837, 12.136 45.825, 12.079 46.668 M 64.250 46.706 C 62.261 47.089, 62.001 47.740, 62.006 52.320 C 62.013 59.224, 63.644 64.735, 66.537 67.628 C 69.798 70.889, 71.617 70.618, 76.022 66.214 C 80.251 61.984, 82.513 55.549, 81.559 50.461 C 81.069 47.853, 80.365 47.123, 77.852 46.620 C 74.531 45.956, 67.927 45.998, 64.250 46.706 M 121.921 55.751 C 122.399 59.202, 122.468 59.272, 122.798 56.628 C 122.995 55.049, 122.762 53.362, 122.279 52.879 C 121.776 52.376, 121.623 53.601, 121.921 55.751 M 37 56.066 C 37 58.928, 38.793 62, 40.463 62 C 42.250 62, 46.160 57.069, 45.377 55.801 C 45.050 55.272, 43.706 55.108, 42.391 55.438 C 41.041 55.777, 40 55.594, 40 55.019 C 40 54.459, 39.325 54, 38.500 54 C 37.651 54, 37 54.896, 37 56.066 M 8 59 C 8 59.733, 8.300 60.033, 8.667 59.667 C 9.033 59.300, 9.033 58.700, 8.667 58.333 C 8.300 57.967, 8 58.267, 8 59 M 94.658 58.675 C 93.398 59.936, 94.013 62.702, 95.943 64.448 C 97.807 66.136, 97.987 66.104, 100.443 63.648 C 101.849 62.242, 103 60.647, 103 60.104 C 103 58.392, 100.970 57.780, 99.456 59.036 C 98.380 59.929, 97.649 59.954, 96.658 59.131 C 95.920 58.519, 95.020 58.313, 94.658 58.675 M 7 62 C 7 62.733, 7.300 63.033, 7.667 62.667 C 8.033 62.300, 8.033 61.700, 7.667 61.333 C 7.300 60.967, 7 61.267, 7 62 M 6 65 C 6 65.733, 6.300 66.033, 6.667 65.667 C 7.033 65.300, 7.033 64.700, 6.667 64.333 C 6.300 63.967, 6 64.267, 6 65 M 125.079 66.583 C 125.127 67.748, 125.364 67.985, 125.683 67.188 C 125.972 66.466, 125.936 65.603, 125.604 65.271 C 125.272 64.939, 125.036 65.529, 125.079 66.583 M 5 69 C 5 69.733, 5.300 70.033, 5.667 69.667 C 6.033 69.300, 6.033 68.700, 5.667 68.333 C 5.300 67.967, 5 68.267, 5 69 M 126.195 77.500 C 126.215 79.150, 126.439 79.704, 126.693 78.731 C 126.947 77.758, 126.930 76.408, 126.656 75.731 C 126.382 75.054, 126.175 75.850, 126.195 77.500 M 117.731 81.920 C 117.296 83.583, 117.426 83.974, 118.168 83.232 C 118.750 82.650, 119.028 81.585, 118.788 80.863 C 118.538 80.114, 118.085 80.568, 117.731 81.920 M 8.500 83 C 8.840 83.550, 9.343 84, 9.618 84 C 9.893 84, 9.840 83.550, 9.500 83 C 9.160 82.450, 8.657 82, 8.382 82 C 8.107 82, 8.160 82.450, 8.500 83 M 125 84 C 125 84.733, 125.300 85.033, 125.667 84.667 C 126.033 84.300, 126.033 83.700, 125.667 83.333 C 125.300 82.967, 125 83.267, 125 84 M 122.405 88.250 L 120.500 90.500 122.750 88.595 C 123.987 87.547, 125 86.535, 125 86.345 C 125 85.545, 124.195 86.136, 122.405 88.250 M 14.500 88 C 14.840 88.550, 15.343 89, 15.618 89 C 15.893 89, 15.840 88.550, 15.500 88 C 15.160 87.450, 14.657 87, 14.382 87 C 14.107 87, 14.160 87.450, 14.500 88 M 18.500 91 C 18.840 91.550, 19.343 92, 19.618 92 C 19.893 92, 19.840 91.550, 19.500 91 C 19.160 90.450, 18.657 90, 18.382 90 C 18.107 90, 18.160 90.450, 18.500 91 M 114.333 92.667 C 114.700 93.033, 115.300 93.033, 115.667 92.667 C 116.033 92.300, 115.733 92, 115 92 C 114.267 92, 113.967 92.300, 114.333 92.667 M 104.269 93.693 C 105.242 93.947, 106.592 93.930, 107.269 93.656 C 107.946 93.382, 107.150 93.175, 105.500 93.195 C 103.850 93.215, 103.296 93.439, 104.269 93.693 M 26.333 94.667 C 26.700 95.033, 27.300 95.033, 27.667 94.667 C 28.033 94.300, 27.733 94, 27 94 C 26.267 94, 25.967 94.300, 26.333 94.667 M 31.333 95.667 C 31.700 96.033, 32.300 96.033, 32.667 95.667 C 33.033 95.300, 32.733 95, 32 95 C 31.267 95, 30.967 95.300, 31.333 95.667 M 36.333 96.667 C 36.700 97.033, 37.300 97.033, 37.667 96.667 C 38.033 96.300, 37.733 96, 37 96 C 36.267 96, 35.967 96.300, 36.333 96.667 M 41.333 97.667 C 41.700 98.033, 42.300 98.033, 42.667 97.667 C 43.033 97.300, 42.733 97, 42 97 C 41.267 97, 40.967 97.300, 41.333 97.667 M 45.750 98.662 C 46.438 98.940, 47.563 98.940, 48.250 98.662 C 48.938 98.385, 48.375 98.158, 47 98.158 C 45.625 98.158, 45.063 98.385, 45.750 98.662" stroke="none" fill="#bebbbb" fill-rule="evenodd"/></svg>