<svg xmlns="http://www.w3.org/2000/svg" width="800" height="778" viewBox="0 0 800 778" version="1.1"><path d="M 345.619 322.034 C 339.906 323.745, 335 330.260, 335 336.135 C 335 339.685, 338.606 348, 340.146 348 C 340.678 348, 340.413 347, 339.557 345.777 C 336.081 340.815, 338.501 331.344, 343.967 328.517 C 352.148 324.286, 361.710 329.147, 362.689 338.034 C 363.091 341.679, 362.701 343.236, 360.567 346.500 L 357.952 350.500 361.374 346.702 C 365.260 342.388, 366.438 338.016, 365.034 333.120 C 363.517 327.831, 361.180 324.985, 356.672 322.938 C 352.142 320.881, 350.043 320.710, 345.619 322.034 M 439.013 333.275 C 433.177 336.361, 430.757 340.907, 431.276 347.809 C 431.552 351.489, 432.319 353.764, 433.776 355.220 L 435.877 357.321 434.485 353.283 C 431.512 344.652, 437.006 337, 446.177 337 C 450.533 337, 451.641 337.441, 454.521 340.321 C 459.018 344.818, 459.884 349.692, 457.125 354.985 C 454.499 360.023, 455.141 360.158, 458.464 355.268 C 463.755 347.481, 460.986 336.712, 452.729 332.964 C 447.188 330.448, 444.231 330.515, 439.013 333.275 M 341.329 333.584 C 340.613 335.451, 342.390 337.495, 343.913 336.554 C 345.501 335.573, 345.241 333.306, 343.462 332.624 C 342.571 332.282, 341.674 332.686, 341.329 333.584 M 437.110 343.367 C 436.252 344.401, 436.311 345.014, 437.355 345.880 C 438.409 346.754, 439.022 346.678, 439.953 345.556 C 441.162 344.100, 440.637 342, 439.063 342 C 438.613 342, 437.734 342.615, 437.110 343.367 M 453.500 629 C 459.531 635.050, 464.691 640, 464.966 640 C 465.241 640, 460.531 635.050, 454.500 629 C 448.469 622.950, 443.309 618, 443.034 618 C 442.759 618, 447.469 622.950, 453.500 629 M 578.385 640 C 578.385 646.875, 578.545 649.688, 578.740 646.250 C 578.936 642.813, 578.936 637.188, 578.740 633.750 C 578.545 630.313, 578.385 633.125, 578.385 640" stroke="none" fill="#eae5e5" fill-rule="evenodd"/><path d="M 381.718 118.138 C 379.075 119.617, 364.923 141.245, 353.671 161 C 344.366 177.338, 333.174 200.261, 326.889 215.855 C 320.437 231.864, 316.687 241.817, 314.588 248.500 C 313.725 251.250, 312.339 255.653, 311.509 258.285 C 309.688 264.059, 309.596 267.196, 311.200 268.800 C 312.772 270.372, 317.500 270.341, 318.692 268.750 C 319.207 268.063, 321.596 261.425, 324.001 254 C 327.947 241.817, 339.388 211.932, 341.866 207.335 C 342.410 206.326, 346.023 198.975, 349.894 191 C 358.694 172.872, 368.777 155.193, 379.612 138.894 C 388.237 125.919, 390.222 121.204, 387.836 119.349 C 385.569 117.587, 383.452 117.167, 381.718 118.138 M 106 303.084 C 82.988 313.517, 93.476 336.641, 131 358.202 C 136.753 361.508, 157.530 372, 158.322 372 C 158.653 372, 162.203 373.514, 166.212 375.363 C 181.914 382.610, 191.702 386.681, 208.865 393.102 C 220.254 397.363, 223.498 397.409, 224.280 393.317 C 225.186 388.574, 224.130 387.604, 213.680 383.589 C 198.581 377.787, 192.093 375.152, 186.223 372.439 C 183.320 371.098, 180.516 370, 179.992 370 C 178.865 370, 170.642 366.155, 151.642 356.745 C 135.362 348.682, 135.461 348.737, 127.241 343.250 C 123.739 340.913, 120.635 339, 120.342 339 C 118.880 339, 107.563 327.078, 106.371 324.282 C 103.427 317.373, 105.031 314.400, 113 312 C 119.206 310.131, 121.270 308.213, 120.477 305.054 C 120.128 303.660, 119.315 302.185, 118.671 301.775 C 116.518 300.406, 110.546 301.023, 106 303.084 M 668.250 342.534 C 663.855 345.619, 666.515 351.347, 672.808 352.353 C 687.472 354.698, 705 362.948, 705 367.506 C 705 369.193, 699.231 376, 697.801 376 C 697.255 376, 695.614 376.844, 694.154 377.877 C 684.840 384.462, 643.659 398.701, 611.500 406.457 C 584.023 413.083, 576.673 414.434, 550.500 417.666 C 538.950 419.092, 528.938 420.706, 528.250 421.252 C 526.919 422.309, 526.605 425.807, 527.607 428.418 C 530.278 435.378, 624.007 417.643, 663 402.800 C 666.575 401.439, 671.300 399.742, 673.500 399.029 C 683.207 395.881, 702.021 385.673, 707.869 380.380 C 717.579 371.594, 718.379 364.767, 710.633 356.797 C 706.056 352.087, 697.413 348.055, 683.500 344.139 C 672.211 340.961, 670.716 340.804, 668.250 342.534 M 217.391 474.250 C 216.314 475.488, 213.817 478.975, 211.842 482 C 200.197 499.838, 191.078 518.955, 177.976 553 C 173.166 565.497, 169.543 586.187, 170.231 597.221 C 171.525 617.958, 184.712 625.946, 207.885 620.029 C 221.156 616.641, 232.068 611.826, 254.712 599.368 C 262.484 595.092, 264.198 589.778, 258.624 587.239 C 256.637 586.333, 255.105 586.837, 248.394 590.606 C 217.750 607.814, 197.369 614.109, 186.718 609.654 C 180.988 607.258, 178.778 597.475, 181.020 584.434 C 185.049 560.996, 199.780 522.982, 214.321 498.500 C 227.344 476.572, 227.433 476.369, 225.189 473.750 C 223.125 471.341, 219.733 471.558, 217.391 474.250 M 394.245 525.155 C 391.606 527.794, 392.570 530.528, 400.057 541.643 C 408.712 554.492, 413.182 560.837, 414.784 562.548 C 415.839 563.675, 418.415 567.050, 420.508 570.048 C 422.602 573.047, 424.584 575.725, 424.914 576 C 425.644 576.609, 434.940 587.562, 437.589 590.932 C 440.984 595.253, 453.233 608.327, 459.956 614.806 C 463.555 618.275, 469.875 624.366, 474 628.343 C 490.035 643.803, 495.059 646.609, 498.333 641.935 C 500.470 638.885, 499.354 636.473, 493.632 631.774 C 484.526 624.297, 466.625 607.002, 454.454 593.923 C 448.445 587.465, 424.928 559.321, 423.500 556.879 C 422.950 555.938, 419.560 550.968, 415.967 545.834 C 412.374 540.700, 407.629 533.800, 405.423 530.500 C 402.214 525.701, 400.819 524.441, 398.451 524.205 C 396.822 524.043, 394.930 524.470, 394.245 525.155" stroke="none" fill="#a02b21" fill-rule="evenodd"/><path d="M 345.418 327.969 C 341.654 329.492, 338 334.843, 338.004 338.827 C 338.015 350.101, 351.069 355.777, 358.923 347.923 C 368.362 338.485, 357.843 322.943, 345.418 327.969 M 341.207 333.250 C 339.725 335.036, 341.344 337.466, 343.473 336.649 C 345.269 335.959, 345.218 332.905, 343.400 332.300 C 342.795 332.098, 341.808 332.526, 341.207 333.250 M 439.763 338.508 C 433.713 341.918, 432.047 351.526, 436.574 356.905 C 444.292 366.078, 458 360.982, 458 348.939 C 458 341.927, 454.326 337.896, 447.441 337.354 C 444.202 337.099, 441.557 337.497, 439.763 338.508 M 436.364 343.493 C 436.018 344.396, 436.214 345.614, 436.800 346.200 C 438.324 347.724, 441.210 346.331, 440.812 344.265 C 440.369 341.963, 437.165 341.407, 436.364 343.493 M 360 388 C 357.697 390.303, 357.573 391.888, 359.124 399.201 C 361.946 412.513, 371 422.202, 383.711 425.513 C 391.318 427.494, 395.541 427.388, 403.145 425.024 C 413.420 421.828, 421.755 413.614, 425.504 402.988 C 428.296 395.075, 427.105 391, 422 391 C 418.818 391, 417 392.676, 417 395.608 C 417 399.136, 411.951 407.894, 408.068 411.101 C 402.513 415.689, 395.395 417.556, 388.635 416.199 C 377.328 413.928, 370.816 406.874, 368.918 394.843 C 367.574 386.319, 364.240 383.760, 360 388" stroke="none" fill="#181d2d" fill-rule="evenodd"/><path d="M 395.500 81.448 C 383.626 87.350, 371.033 103.571, 352.843 136.397 C 336.652 165.615, 318.936 202.154, 317.823 208.625 C 317.645 209.656, 317.221 210.725, 316.880 211 C 315.363 212.223, 304.961 243.388, 300.692 259.500 L 298.307 268.500 273.904 269.140 C 232.105 270.237, 185.478 275.153, 147.558 282.461 C 131.456 285.565, 107.747 291.920, 106.765 293.396 C 106.361 294.003, 106.024 294.182, 106.015 293.794 C 105.993 292.758, 98.542 295.539, 90.196 299.701 C 67.802 310.867, 65.246 324.232, 82.310 340.943 C 88.672 347.174, 98.468 354.883, 102.961 357.194 C 104.357 357.912, 106.288 359.209, 107.250 360.075 C 108.213 360.941, 113.388 364.008, 118.750 366.891 C 124.113 369.774, 129.175 372.550, 130 373.060 C 141.976 380.463, 186.624 400.393, 222.750 414.463 C 229.487 417.087, 235 419.550, 235 419.937 C 235 420.324, 233.516 422.409, 231.703 424.570 C 222.497 435.543, 208.258 457.303, 198.047 476 C 186.517 497.112, 168.059 539.669, 169.454 541.925 C 169.761 542.422, 169.576 542.980, 169.043 543.165 C 167.594 543.666, 161.405 567.202, 159.459 579.611 C 157.718 590.716, 157.775 608.221, 159.561 611.087 C 160.046 611.864, 160.580 613.385, 160.748 614.466 C 161.569 619.750, 167.839 625.577, 174.945 627.659 C 201.637 635.483, 270.268 602.479, 359.739 538.793 C 375.249 527.753, 378 526.081, 378 527.694 C 378 528.692, 388.923 547.846, 393.574 555.004 C 399.671 564.388, 410.120 578.917, 412.951 581.947 C 414.570 583.680, 415.861 585.349, 415.820 585.654 C 415.629 587.095, 434.121 608.161, 448.499 622.882 C 474.979 649.993, 500.999 670.188, 523.254 680.900 C 554.288 695.839, 570.823 690.335, 576.477 663.185 C 579.510 648.619, 578.185 615.883, 573.413 587.500 C 567.498 552.314, 554.376 499.334, 541.005 456.653 C 539.825 452.888, 539.004 449.664, 539.180 449.490 C 539.356 449.316, 553.225 445.778, 570 441.628 C 667.732 417.448, 723.088 395.640, 738.705 375.165 C 741.411 371.617, 742 369.955, 742 365.873 C 742 359.558, 740.330 356.381, 734.035 350.721 C 713.616 332.363, 661.554 314.284, 549 286.467 C 530.025 281.778, 511.393 277.167, 507.595 276.220 L 500.689 274.500 495.476 254.313 C 492.609 243.211, 489.909 233.311, 489.478 232.313 C 489.046 231.316, 488.515 229.443, 488.299 228.150 C 487.633 224.180, 476.393 188.226, 471.682 175 C 464.917 156.008, 457.904 139, 456.837 139 C 456.312 139, 456.155 138.558, 456.489 138.018 C 457.274 136.748, 446.352 115.329, 439.796 105.281 C 433.782 96.063, 422.117 84.157, 416.500 81.502 C 410.123 78.487, 401.501 78.465, 395.500 81.448 M 381.718 118.138 C 379.075 119.617, 364.923 141.245, 353.671 161 C 344.366 177.338, 333.174 200.261, 326.889 215.855 C 320.437 231.864, 316.687 241.817, 314.588 248.500 C 313.725 251.250, 312.339 255.653, 311.509 258.285 C 309.688 264.059, 309.596 267.196, 311.200 268.800 C 312.772 270.372, 317.500 270.341, 318.692 268.750 C 319.207 268.063, 321.596 261.425, 324.001 254 C 327.947 241.817, 339.388 211.932, 341.866 207.335 C 342.410 206.326, 346.023 198.975, 349.894 191 C 358.694 172.872, 368.777 155.193, 379.612 138.894 C 388.237 125.919, 390.222 121.204, 387.836 119.349 C 385.569 117.587, 383.452 117.167, 381.718 118.138 M 106 303.084 C 82.988 313.517, 93.476 336.641, 131 358.202 C 136.753 361.508, 157.530 372, 158.322 372 C 158.653 372, 162.203 373.514, 166.212 375.363 C 181.914 382.610, 191.702 386.681, 208.865 393.102 C 220.254 397.363, 223.498 397.409, 224.280 393.317 C 225.186 388.574, 224.130 387.604, 213.680 383.589 C 198.581 377.787, 192.093 375.152, 186.223 372.439 C 183.320 371.098, 180.516 370, 179.992 370 C 178.865 370, 170.642 366.155, 151.642 356.745 C 135.362 348.682, 135.461 348.737, 127.241 343.250 C 123.739 340.913, 120.635 339, 120.342 339 C 118.880 339, 107.563 327.078, 106.371 324.282 C 103.427 317.373, 105.031 314.400, 113 312 C 119.206 310.131, 121.270 308.213, 120.477 305.054 C 120.128 303.660, 119.315 302.185, 118.671 301.775 C 116.518 300.406, 110.546 301.023, 106 303.084 M 345.619 322.034 C 339.906 323.745, 335 330.260, 335 336.135 C 335 340.162, 338.692 348, 340.589 348 C 341.365 348, 342 348.378, 342 348.839 C 342 349.301, 343.146 350.201, 344.547 350.839 C 353.735 355.026, 365.385 347.331, 365.385 337.075 C 365.385 330.714, 362.570 326.066, 357.015 323.250 C 352.309 320.865, 350.257 320.646, 345.619 322.034 M 439.013 333.275 C 432.255 336.848, 429.170 345.056, 431.893 352.217 C 433.400 356.183, 441.784 362.007, 445.914 361.957 C 450.281 361.904, 457.553 357.893, 457.363 355.643 C 457.288 354.751, 457.602 354.254, 458.063 354.539 C 459.523 355.441, 461 351.302, 460.996 346.316 C 460.991 339.982, 458.177 335.437, 452.729 332.964 C 447.188 330.448, 444.231 330.515, 439.013 333.275 M 668.250 342.534 C 663.855 345.619, 666.515 351.347, 672.808 352.353 C 687.472 354.698, 705 362.948, 705 367.506 C 705 369.193, 699.231 376, 697.801 376 C 697.255 376, 695.614 376.844, 694.154 377.877 C 684.840 384.462, 643.659 398.701, 611.500 406.457 C 584.023 413.083, 576.673 414.434, 550.500 417.666 C 538.950 419.092, 528.938 420.706, 528.250 421.252 C 526.919 422.309, 526.605 425.807, 527.607 428.418 C 530.278 435.378, 624.007 417.643, 663 402.800 C 666.575 401.439, 671.300 399.742, 673.500 399.029 C 683.207 395.881, 702.021 385.673, 707.869 380.380 C 717.579 371.594, 718.379 364.767, 710.633 356.797 C 706.056 352.087, 697.413 348.055, 683.500 344.139 C 672.211 340.961, 670.716 340.804, 668.250 342.534 M 359.122 387.632 C 357.033 389.993, 358.164 401.640, 361.066 407.643 C 364.075 413.867, 371.150 420.933, 377.395 423.952 C 383.378 426.845, 394.550 427.787, 401.915 426.020 C 413.195 423.314, 423.090 413.380, 426.628 401.207 C 428.478 394.844, 427.524 391.421, 423.627 390.443 C 419.910 389.510, 417.179 391.520, 416.399 395.762 C 416.021 397.818, 415.427 399.725, 415.078 400 C 414.730 400.275, 413.611 402.392, 412.591 404.704 C 410.659 409.088, 406.140 412.751, 400.101 414.830 C 385.338 419.912, 369 408.480, 369 393.068 C 369 388.105, 367.414 385.994, 363.715 386.038 C 361.947 386.059, 359.880 386.776, 359.122 387.632 M 217.391 474.250 C 216.314 475.488, 213.817 478.975, 211.842 482 C 200.197 499.838, 191.078 518.955, 177.976 553 C 173.166 565.497, 169.543 586.187, 170.231 597.221 C 171.525 617.958, 184.712 625.946, 207.885 620.029 C 221.156 616.641, 232.068 611.826, 254.712 599.368 C 262.484 595.092, 264.198 589.778, 258.624 587.239 C 256.637 586.333, 255.105 586.837, 248.394 590.606 C 217.750 607.814, 197.369 614.109, 186.718 609.654 C 180.988 607.258, 178.778 597.475, 181.020 584.434 C 185.049 560.996, 199.780 522.982, 214.321 498.500 C 227.344 476.572, 227.433 476.369, 225.189 473.750 C 223.125 471.341, 219.733 471.558, 217.391 474.250 M 394.245 525.155 C 391.606 527.794, 392.570 530.528, 400.057 541.643 C 408.712 554.492, 413.182 560.837, 414.784 562.548 C 415.839 563.675, 418.415 567.050, 420.508 570.048 C 422.602 573.047, 424.584 575.725, 424.914 576 C 425.644 576.609, 434.940 587.562, 437.589 590.932 C 440.984 595.253, 453.233 608.327, 459.956 614.806 C 463.555 618.275, 469.875 624.366, 474 628.343 C 490.035 643.803, 495.059 646.609, 498.333 641.935 C 500.470 638.885, 499.354 636.473, 493.632 631.774 C 484.526 624.297, 466.625 607.002, 454.454 593.923 C 448.445 587.465, 424.928 559.321, 423.500 556.879 C 422.950 555.938, 419.560 550.968, 415.967 545.834 C 412.374 540.700, 407.629 533.800, 405.423 530.500 C 402.214 525.701, 400.819 524.441, 398.451 524.205 C 396.822 524.043, 394.930 524.470, 394.245 525.155" stroke="none" fill="#e64b3c" fill-rule="evenodd"/></svg>