<svg xmlns="http://www.w3.org/2000/svg" width="225" height="225" viewBox="0 0 225 225" version="1.1"><path d="M 53 33.735 C 50.535 35.097, 50.546 35.107, 53.791 34.469 C 55.813 34.072, 57.645 34.290, 58.541 35.034 C 59.343 35.700, 60 35.812, 60 35.283 C 60 33.276, 55.595 32.302, 53 33.735 M 69.250 32.689 C 70.213 32.941, 71.787 32.941, 72.750 32.689 C 73.713 32.438, 72.925 32.232, 71 32.232 C 69.075 32.232, 68.287 32.438, 69.250 32.689 M 79.250 32.689 C 80.213 32.941, 81.787 32.941, 82.750 32.689 C 83.713 32.438, 82.925 32.232, 81 32.232 C 79.075 32.232, 78.287 32.438, 79.250 32.689 M 86.500 33 C 84.870 33.701, 84.812 33.872, 86.191 33.930 C 87.121 33.968, 88.160 33.550, 88.500 33 C 89.211 31.850, 89.176 31.850, 86.500 33 M 91.694 32.644 C 92.350 32.911, 92.602 33.873, 92.253 34.782 C 91.692 36.244, 91.802 36.265, 93.199 34.967 C 94.775 33.504, 93.852 31.945, 91.500 32.094 C 90.950 32.129, 91.037 32.376, 91.694 32.644 M 101.863 32.803 C 102.972 33.580, 102.981 33.840, 101.914 34.195 C 100.991 34.503, 101.127 34.835, 102.373 35.313 C 103.683 35.815, 104.061 35.559, 103.823 34.329 C 103.645 33.414, 102.825 32.482, 102 32.257 C 100.780 31.924, 100.755 32.026, 101.863 32.803 M 128.388 33.181 C 127.639 34.394, 129.442 34.787, 131.750 33.915 C 132.988 33.447, 134 32.937, 134 32.782 C 134 32.171, 128.783 32.542, 128.388 33.181 M 139.500 33 C 141.150 33.420, 141.863 33.817, 141.083 33.882 C 140.304 33.947, 139.874 34.207, 140.127 34.460 C 140.380 34.714, 141.669 34.638, 142.990 34.292 C 145.225 33.708, 145.257 33.611, 143.446 32.902 C 142.376 32.483, 140.375 32.162, 139 32.189 C 136.732 32.232, 136.778 32.307, 139.500 33 M 148.269 32.693 C 149.242 32.947, 150.592 32.930, 151.269 32.656 C 151.946 32.382, 151.150 32.175, 149.500 32.195 C 147.850 32.215, 147.296 32.439, 148.269 32.693 M 158.250 32.689 C 159.213 32.941, 160.787 32.941, 161.750 32.689 C 162.713 32.438, 161.925 32.232, 160 32.232 C 158.075 32.232, 157.287 32.438, 158.250 32.689 M 165.500 33.166 C 163.668 33.968, 163.689 34.005, 165.750 33.614 C 166.988 33.379, 168 33.547, 168 33.987 C 168 35.373, 171.102 36.044, 172.836 35.032 C 173.751 34.498, 174.272 34.047, 173.993 34.030 C 173.715 34.014, 172.140 33.615, 170.493 33.145 C 168.813 32.666, 166.622 32.675, 165.500 33.166 M 61.475 34.040 C 61.054 34.722, 61.808 34.846, 63.666 34.399 C 67.498 33.479, 67.860 33, 64.726 33 C 63.291 33, 61.829 33.468, 61.475 34.040 M 135 34.383 C 135 34.594, 135.901 35.002, 137.001 35.290 C 138.102 35.578, 138.751 35.405, 138.442 34.907 C 137.904 34.036, 135 33.594, 135 34.383 M 55 35.393 C 55 35.609, 55.698 36.054, 56.552 36.382 C 57.442 36.723, 57.843 36.555, 57.493 35.989 C 56.906 35.038, 55 34.583, 55 35.393 M 94.498 36.003 C 93.965 36.866, 94.082 37.067, 94.845 36.595 C 95.480 36.203, 96 36.307, 96 36.826 C 96 37.345, 97.180 38.543, 98.623 39.489 C 100.066 40.434, 100.939 40.711, 100.564 40.104 C 100.189 39.497, 100.385 39, 101 39 C 101.615 39, 101.810 38.502, 101.434 37.893 C 100.957 37.122, 100.490 37.197, 99.890 38.143 C 99.177 39.270, 99.028 39.259, 99.015 38.083 C 99.007 37.304, 98.707 36.960, 98.349 37.318 C 97.991 37.676, 97.159 37.233, 96.502 36.333 C 95.552 35.034, 95.139 34.966, 94.498 36.003 M 53.272 36.605 C 53.663 36.996, 53.424 37.994, 52.741 38.822 C 51.659 40.134, 51.789 40.174, 53.750 39.129 C 56.452 37.689, 56.510 37.410, 54.280 36.554 C 53.335 36.191, 52.881 36.214, 53.272 36.605 M 133.473 36.956 C 133.798 37.482, 134.725 37.659, 135.532 37.349 C 137.599 36.556, 137.356 36, 134.941 36 C 133.809 36, 133.148 36.430, 133.473 36.956 M 175 36.771 C 175 38.027, 180.669 42, 182.460 42 C 183.307 42, 184 41.576, 184 41.057 C 184 40.539, 183.166 40.275, 182.147 40.472 C 181.128 40.668, 179.103 39.724, 177.647 38.374 C 176.191 37.024, 175 36.303, 175 36.771 M 50 38.059 C 50 38.641, 50.450 38.840, 51 38.500 C 51.550 38.160, 52 37.684, 52 37.441 C 52 37.198, 51.550 37, 51 37 C 50.450 37, 50 37.477, 50 38.059 M 131.504 37.920 C 132.114 38.971, 131.905 39.178, 130.701 38.715 C 129.152 38.121, 125.733 41.318, 124.729 44.300 C 124.427 45.199, 123.911 45.158, 122.674 44.137 C 120.869 42.647, 121.411 40.551, 123.319 41.644 C 123.969 42.016, 124.149 41.935, 123.721 41.465 C 123.293 40.994, 122.372 40.525, 121.675 40.423 C 119.902 40.163, 119.797 43.985, 121.558 44.661 C 123.323 45.338, 123.491 47.057, 121.750 46.633 C 121.063 46.465, 120.856 46.523, 121.292 46.761 C 122.237 47.279, 120.159 50, 118.819 50 C 118.303 50, 118.100 49.646, 118.368 49.214 C 118.635 48.782, 118.018 48.429, 116.998 48.429 C 115.978 48.429, 115.223 48.895, 115.321 49.464 C 115.420 50.034, 114.954 50.393, 114.286 50.262 C 113.537 50.115, 113.315 50.657, 113.706 51.676 C 114.175 52.899, 113.971 53.119, 112.920 52.523 C 112.074 52.044, 112.200 52.460, 113.231 53.555 C 114.897 55.322, 115.291 55.071, 123.615 46.946 C 132.715 38.063, 132.593 38.216, 131.423 37.167 C 131.014 36.800, 131.050 37.139, 131.504 37.920 M 179.500 38 C 179.840 38.550, 180.316 39, 180.559 39 C 180.802 39, 181 38.550, 181 38 C 181 37.450, 180.523 37, 179.941 37 C 179.359 37, 179.160 37.450, 179.500 38 M 40.535 40.798 C 40.280 41.054, 40.581 42.216, 41.204 43.381 C 41.828 44.547, 42.224 45.725, 42.084 46 C 41.244 47.653, 39.658 48.907, 38.956 48.473 C 38.506 48.195, 37.849 48.436, 37.495 49.008 C 37.141 49.581, 37.391 49.926, 38.051 49.775 C 38.710 49.624, 39.477 50.125, 39.755 50.889 C 40.093 51.821, 39.837 52.017, 38.975 51.485 C 38.200 51.006, 37.938 51.090, 38.313 51.698 C 38.656 52.252, 38.290 53.559, 37.500 54.603 C 36.710 55.646, 36.049 56.942, 36.032 57.482 C 36.014 58.022, 37.184 56.672, 38.632 54.482 C 40.079 52.292, 43.566 48.040, 46.382 45.033 C 49.197 42.026, 50.534 40.366, 49.354 41.344 C 47.701 42.713, 47.100 42.820, 46.741 41.811 C 46.484 41.090, 45.888 40.862, 45.416 41.304 C 44.944 41.747, 45.220 42.527, 46.029 43.039 C 47.263 43.819, 47.218 43.972, 45.750 43.985 C 44.227 43.998, 43.601 43.001, 43.826 40.917 C 43.901 40.225, 41.205 40.128, 40.535 40.798 M 102.360 41.454 C 102.574 42.029, 103.290 42.376, 103.949 42.225 C 104.609 42.074, 104.904 42.346, 104.605 42.830 C 103.966 43.864, 108.429 48.299, 110.400 48.588 C 111.278 48.717, 111.580 48.112, 111.256 46.873 C 110.840 45.282, 110.498 45.172, 109.234 46.221 C 107.927 47.306, 107.812 47.168, 108.421 45.248 C 109.015 43.376, 108.835 43.123, 107.315 43.694 C 105.709 44.296, 105.661 44.177, 106.893 42.662 C 108.177 41.085, 108.427 41.077, 110.068 42.561 C 111.712 44.050, 111.829 44.038, 111.589 42.404 C 111.386 41.022, 110.308 40.611, 106.649 40.522 C 103.766 40.451, 102.119 40.809, 102.360 41.454 M 185 40.635 C 185 42.122, 189.875 46.458, 190.663 45.671 C 191.032 45.302, 190.776 45, 190.095 45 C 189.256 45, 189.366 44.491, 190.438 43.419 C 191.307 42.550, 191.775 41.445, 191.477 40.963 C 190.761 39.805, 188.009 40.898, 187.968 42.357 C 187.951 42.986, 187.276 42.626, 186.468 41.559 C 185.661 40.491, 185 40.075, 185 40.635 M 184.921 45.360 C 186.252 46.808, 187.535 47.799, 187.771 47.563 C 188.488 46.845, 187.015 45.076, 184.694 43.870 C 182.602 42.782, 182.613 42.851, 184.921 45.360 M 188.699 48.343 C 188.083 49.948, 190.605 52.729, 191.691 51.643 C 192.044 51.289, 191.782 51, 191.108 51 C 190.434 51, 190.148 50.570, 190.473 50.044 C 190.798 49.518, 191.679 49.323, 192.431 49.612 C 193.183 49.900, 194.138 49.586, 194.553 48.914 C 195.060 48.093, 194.892 47.948, 194.043 48.474 C 193.305 48.930, 192.412 48.681, 191.904 47.878 C 191.181 46.738, 191.025 46.759, 191 48 C 190.975 49.204, 190.802 49.237, 190.124 48.166 C 189.437 47.082, 189.170 47.116, 188.699 48.343 M 197.204 49.955 C 197.875 51.030, 198.564 51.769, 198.736 51.598 C 199.328 51.005, 197.782 48, 196.885 48 C 196.389 48, 196.532 48.880, 197.204 49.955 M 33.464 51.059 C 32.931 51.921, 33.098 52.057, 34.003 51.498 C 34.980 50.894, 35.171 51.237, 34.751 52.844 C 34.163 55.091, 35.383 55.807, 36.559 53.904 C 36.932 53.301, 36.562 52.133, 35.737 51.308 C 34.568 50.139, 34.066 50.084, 33.464 51.059 M 68.750 51.080 C 67.787 51.641, 67 53.170, 67 54.478 C 67 59.882, 73.657 61.979, 76.592 57.500 C 78.109 55.184, 78.109 54.816, 76.592 52.500 C 74.870 49.872, 71.783 49.313, 68.750 51.080 M 116.500 51 C 116.840 51.550, 117.316 52, 117.559 52 C 117.802 52, 118 51.550, 118 51 C 118 50.450, 117.523 50, 116.941 50 C 116.359 50, 116.160 50.450, 116.500 51 M 196.600 53.900 C 197.450 55.605, 198.296 57, 198.480 57 C 199.295 57, 197.649 52.953, 196.418 51.932 C 195.386 51.076, 195.431 51.556, 196.600 53.900 M 193.664 53.609 C 194.313 55.337, 194.215 55.371, 192.527 54 C 190.780 52.582, 190.755 52.623, 192.080 54.750 C 192.851 55.987, 193.849 57, 194.300 57 C 194.750 57, 194.864 56.588, 194.553 56.085 C 194.242 55.582, 194.490 55.003, 195.103 54.799 C 195.804 54.565, 195.611 53.922, 194.587 53.072 C 193.157 51.885, 193.042 51.952, 193.664 53.609 M 52.150 67.427 C 47.584 76.815, 47.296 78.171, 49.487 79.989 C 52.808 82.746, 55.559 80.409, 59.558 71.435 C 63.720 62.095, 63.576 59.775, 58.799 59.198 C 56.564 58.928, 55.859 59.800, 52.150 67.427 M 34 61.892 C 34 62.566, 33.550 62.840, 33 62.500 C 32.450 62.160, 32 62.332, 32 62.882 C 32 63.432, 32.403 64.131, 32.895 64.435 C 33.872 65.039, 35.375 62.042, 34.524 61.190 C 34.236 60.902, 34 61.218, 34 61.892 M 26.150 66.950 C 26.370 67.610, 26.876 68.116, 27.275 68.075 C 28.471 67.951, 28.239 66.580, 26.950 66.150 C 26.290 65.930, 25.930 66.290, 26.150 66.950 M 32 66.973 C 32 67.692, 31.238 68.837, 30.307 69.518 C 28.767 70.643, 28.756 70.899, 30.184 72.327 C 31.612 73.755, 31.809 73.566, 32.347 70.251 C 32.672 68.246, 32.727 66.394, 32.469 66.136 C 32.211 65.878, 32 66.255, 32 66.973 M 199.232 75 C 199.232 76.925, 199.438 77.713, 199.689 76.750 C 199.941 75.787, 199.941 74.213, 199.689 73.250 C 199.438 72.287, 199.232 73.075, 199.232 75 M 27.374 76.467 C 27.065 77.274, 27.004 78.511, 27.240 79.217 C 27.476 79.923, 27.906 79.263, 28.196 77.750 C 28.762 74.797, 28.295 74.068, 27.374 76.467 M 30 77.800 C 30 79.340, 29.441 81.159, 28.758 81.842 C 27.881 82.719, 27.837 83.291, 28.608 83.792 C 29.209 84.181, 29.957 85.175, 30.271 86 C 30.585 86.825, 30.878 84.688, 30.921 81.250 C 30.964 77.813, 30.775 75, 30.500 75 C 30.225 75, 30 76.260, 30 77.800 M 25.500 86 C 25.840 86.550, 26.316 87, 26.559 87 C 26.802 87, 27 86.550, 27 86 C 27 85.450, 26.523 85, 25.941 85 C 25.359 85, 25.160 85.450, 25.500 86 M 199.252 88.500 C 199.263 90.700, 199.468 91.482, 199.707 90.238 C 199.946 88.994, 199.937 87.194, 199.687 86.238 C 199.437 85.282, 199.241 86.300, 199.252 88.500 M 31.158 91 C 31.158 92.375, 31.385 92.938, 31.662 92.250 C 31.940 91.563, 31.940 90.438, 31.662 89.750 C 31.385 89.063, 31.158 89.625, 31.158 91 M 28.787 93 C 28.545 94.650, 28.718 96, 29.173 96 C 29.628 96, 30 94.650, 30 93 C 30 91.350, 29.826 90, 29.613 90 C 29.401 90, 29.029 91.350, 28.787 93 M 197.578 95.546 C 197.226 96.946, 197.204 98.521, 197.528 99.046 C 197.853 99.571, 197.615 100, 197 100 C 196.385 100, 196.179 100.480, 196.541 101.067 C 197.543 102.688, 198.073 101.630, 198.522 97.110 C 198.983 92.474, 198.535 91.732, 197.578 95.546 M 32.070 97.250 C 32.032 98.763, 32.450 100, 33 100 C 34.174 100, 34.174 99.231, 33 96.500 C 32.238 94.728, 32.133 94.813, 32.070 97.250 M 198.144 103.750 C 197.053 106.300, 197.078 106.359, 198.484 104.559 C 199.318 103.491, 200 102.254, 200 101.809 C 200 100.289, 199.322 100.999, 198.144 103.750 M 194.285 104.273 C 193.402 106.212, 193.377 107.115, 194.192 107.619 C 194.839 108.018, 195.031 107.859, 194.648 107.240 C 194.285 106.652, 194.492 106.003, 195.108 105.797 C 195.724 105.592, 196.063 104.567, 195.862 103.521 C 195.547 101.885, 195.325 101.991, 194.285 104.273 M 32 106.059 C 32 106.641, 32.450 106.840, 33 106.500 C 33.550 106.160, 34 105.684, 34 105.441 C 34 105.198, 33.550 105, 33 105 C 32.450 105, 32 105.477, 32 106.059 M 34.618 106.552 C 34.229 107.566, 34.425 107.856, 35.181 107.388 C 35.966 106.903, 36.124 107.235, 35.670 108.418 C 35.301 109.378, 35 110.378, 35 110.641 C 35 110.903, 34.550 110.840, 34 110.500 C 33.450 110.160, 33 110.302, 33 110.816 C 33 111.330, 34.125 111.750, 35.500 111.750 C 36.875 111.750, 38 111.330, 38 110.816 C 38 110.302, 38.441 110.155, 38.980 110.488 C 39.520 110.821, 39.182 109.726, 38.230 108.053 C 36.283 104.632, 35.483 104.299, 34.618 106.552 M 199.136 108.250 C 198.996 111.085, 197.554 111.959, 196.662 109.750 C 196.299 108.849, 196.136 108.832, 196.079 109.691 C 195.966 111.397, 197.995 112.405, 199.172 111.228 C 199.720 110.680, 199.968 109.166, 199.721 107.865 C 199.309 105.694, 199.261 105.726, 199.136 108.250 M 190.407 111.084 C 189.263 112.694, 183.808 118.862, 178.285 124.791 C 171.597 131.969, 168.831 135.571, 170.007 135.571 C 170.978 135.571, 171.578 135.065, 171.341 134.446 C 170.826 133.104, 173.760 130.427, 174.707 131.374 C 175.070 131.737, 174.834 132.566, 174.183 133.217 C 173.532 133.868, 173 134.860, 173 135.423 C 173 135.985, 173.721 135.416, 174.602 134.158 C 175.483 132.900, 175.949 131.616, 175.637 131.304 C 174.548 130.214, 177.141 126.840, 178.629 127.411 C 179.567 127.771, 179.847 127.561, 179.397 126.834 C 178.916 126.055, 179.139 125.970, 180.095 126.567 C 182.343 127.970, 184.485 128.085, 183.131 126.731 C 181.697 125.297, 181.650 123.666, 183.067 124.541 C 183.654 124.904, 184.050 124.593, 183.948 123.850 C 183.548 120.933, 184.050 118.913, 185.025 119.515 C 185.588 119.864, 185.926 119.778, 185.775 119.324 C 185.624 118.871, 185.950 118.500, 186.500 118.500 C 187.050 118.500, 187.376 118.871, 187.225 119.324 C 187.074 119.778, 187.419 119.859, 187.992 119.505 C 188.564 119.151, 188.805 118.494, 188.527 118.044 C 187.918 117.058, 190.406 114.816, 191.350 115.500 C 191.717 115.766, 191.563 115.447, 191.008 114.792 C 189.781 113.341, 189.672 111.680, 190.853 112.409 C 191.322 112.699, 192.487 112.364, 193.443 111.665 C 194.879 110.615, 194.947 110.201, 193.833 109.276 C 192.786 108.408, 192.021 108.812, 190.407 111.084 M 41.500 113.937 C 43.479 116.314, 43.479 116.332, 41.524 115.614 C 39.711 114.949, 39.733 115.087, 41.791 117.278 C 45.032 120.728, 47.499 120.510, 44.996 116.995 C 43.950 115.525, 42.285 113.695, 41.297 112.928 C 39.851 111.807, 39.890 112.003, 41.500 113.937 M 48.333 122.385 C 48.333 123.225, 48.657 123.712, 49.053 123.467 C 49.449 123.222, 50.387 123.776, 51.137 124.698 C 52.325 126.159, 52.279 126.292, 50.782 125.731 C 49.837 125.377, 48.822 125.478, 48.527 125.956 C 48.232 126.434, 49.081 126.705, 50.415 126.559 C 52.135 126.370, 53.489 127.170, 55.072 129.312 C 56.770 131.608, 56.917 132.182, 55.684 131.709 C 54.793 131.367, 53.830 131.467, 53.543 131.930 C 53.257 132.393, 53.888 132.999, 54.947 133.276 C 59.023 134.342, 58.187 130.711, 53.210 125.734 C 50.298 122.822, 48.333 121.473, 48.333 122.385 M 51 129 C 51 129.550, 51.477 130, 52.059 130 C 52.641 130, 52.840 129.550, 52.500 129 C 52.160 128.450, 51.684 128, 51.441 128 C 51.198 128, 51 128.450, 51 129 M 56.734 135.917 C 55.662 137.292, 55.715 137.332, 57.142 136.217 C 58.539 135.126, 59.067 135.321, 60.671 137.523 C 61.708 138.947, 63.444 140.242, 64.528 140.401 C 67.283 140.806, 66.991 142.226, 64.061 142.673 C 62.719 142.878, 61.369 143.326, 61.061 143.670 C 60.752 144.014, 61.432 144.067, 62.571 143.788 C 64.912 143.215, 71.319 145.971, 71.198 147.500 C 71.155 148.050, 72.105 148.906, 73.310 149.402 C 75.255 150.204, 75.298 150.353, 73.695 150.736 C 71.650 151.225, 71.887 153.176, 74.063 153.764 C 75.232 154.080, 75.220 153.954, 74 153.091 C 72.983 152.372, 72.903 152.026, 73.750 152.015 C 74.438 152.007, 75.309 151.988, 75.687 151.973 C 76.065 151.957, 76.482 152.674, 76.612 153.564 C 76.915 155.629, 78 156.761, 78 155.012 C 78 154.084, 78.603 154.236, 80.024 155.521 C 81.595 156.944, 81.763 157.558, 80.774 158.271 C 79.891 158.907, 80.071 159.003, 81.361 158.583 C 82.719 158.141, 83.071 158.373, 82.662 159.438 C 82.285 160.421, 82.579 160.715, 83.560 160.338 C 85.343 159.654, 61.942 134.333, 59.527 134.333 C 58.670 134.333, 57.413 135.046, 56.734 135.917 M 61 136.378 C 61 136.585, 61.788 137.373, 62.750 138.128 C 64.336 139.371, 64.371 139.336, 63.128 137.750 C 61.821 136.084, 61 135.555, 61 136.378 M 153.750 151.012 C 146.738 158.607, 141 165.236, 141 165.743 C 141 166.251, 141.708 166.667, 142.573 166.667 C 143.611 166.667, 143.982 166.038, 143.663 164.818 C 143.332 163.554, 144.020 162.513, 145.840 161.525 C 147.303 160.730, 148.145 160.062, 147.711 160.040 C 147.276 160.018, 147.501 159.375, 148.211 158.611 C 149.150 157.599, 149.715 157.531, 150.292 158.361 C 150.773 159.054, 150.969 158.717, 150.792 157.500 C 150.612 156.265, 151.007 155.605, 151.824 155.775 C 152.553 155.926, 152.883 155.619, 152.558 155.094 C 151.954 154.117, 153.578 152.696, 155.660 152.380 C 156.298 152.283, 157.043 153.058, 157.316 154.102 C 157.899 156.329, 159.667 156.661, 159.667 154.544 C 159.667 153.743, 159.292 153.320, 158.833 153.603 C 157.548 154.397, 157.848 152.564, 159.250 151.053 C 160.250 149.976, 160.250 149.848, 159.250 150.412 C 156.901 151.739, 157.994 149.050, 160.461 147.434 C 161.815 146.547, 163.195 144.961, 163.528 143.911 C 163.862 142.860, 164.892 141.993, 165.817 141.985 C 167.269 141.971, 167.294 141.836, 166 141 C 165.175 140.467, 165.014 140.024, 165.643 140.015 C 166.272 140.007, 167.045 139.325, 167.362 138.500 C 168.563 135.370, 166.124 137.612, 153.750 151.012 M 56.564 141.707 C 56.022 143.132, 56.136 143.247, 57.124 142.267 C 57.808 141.588, 58.115 140.781, 57.807 140.474 C 57.499 140.166, 56.940 140.721, 56.564 141.707 M 66.500 148 C 64.870 148.701, 64.812 148.872, 66.191 148.930 C 67.121 148.968, 68.160 148.550, 68.500 148 C 69.211 146.850, 69.176 146.850, 66.500 148 M 163 148.500 C 163 149.417, 163.484 150.005, 164.075 149.808 C 164.666 149.611, 165.150 149.022, 165.150 148.500 C 165.150 147.978, 164.666 147.389, 164.075 147.192 C 163.484 146.995, 163 147.583, 163 148.500 M 155.565 149.895 C 155.260 150.388, 155.661 151.040, 156.455 151.344 C 157.418 151.714, 157.713 151.416, 157.342 150.449 C 156.697 148.769, 156.331 148.655, 155.565 149.895 M 64.813 151.683 C 65.534 151.972, 66.397 151.936, 66.729 151.604 C 67.061 151.272, 66.471 151.036, 65.417 151.079 C 64.252 151.127, 64.015 151.364, 64.813 151.683 M 75.253 156.218 C 75.602 157.127, 75.373 158.042, 74.744 158.252 C 74.102 158.466, 74.368 158.927, 75.352 159.305 C 76.316 159.675, 76.853 159.571, 76.546 159.074 C 76.239 158.577, 76.396 158.020, 76.895 157.835 C 77.394 157.651, 77.087 156.840, 76.211 156.033 C 74.802 154.734, 74.692 154.755, 75.253 156.218 M 152.813 157.683 C 153.534 157.972, 154.397 157.936, 154.729 157.604 C 155.061 157.272, 154.471 157.036, 153.417 157.079 C 152.252 157.127, 152.015 157.364, 152.813 157.683 M 80.282 164.513 C 80.236 167.536, 80.382 167.913, 80.888 166.074 C 81.255 164.740, 82.105 163.465, 82.778 163.241 C 84.272 162.743, 84.324 163.526, 82.965 166.066 C 82.116 167.651, 82.260 168, 83.765 168 C 84.774 168, 86.159 167.441, 86.842 166.758 C 87.830 165.770, 88.265 165.811, 88.976 166.961 C 89.466 167.755, 89.603 168.833, 89.280 169.357 C 88.956 169.881, 89.211 169.988, 89.845 169.595 C 90.480 169.203, 91 169.385, 91 170 C 91 170.615, 91.450 170.840, 92 170.500 C 92.550 170.160, 93.498 170.190, 94.107 170.566 C 94.882 171.045, 94.817 171.495, 93.890 172.068 C 93.150 172.525, 92.002 172.416, 91.284 171.820 C 90.345 171.042, 89.996 171.124, 89.985 172.128 C 89.973 173.213, 89.747 173.186, 88.909 172 C 88.206 171.007, 87.966 170.947, 88.199 171.825 C 88.392 172.554, 88.989 173.148, 89.525 173.146 C 90.061 173.144, 91.175 173.726, 92 174.438 C 93.581 175.804, 97.241 176.199, 96.450 174.919 C 96.196 174.507, 96.472 174.009, 97.064 173.812 C 97.657 173.614, 95.199 170.627, 91.603 167.174 C 86.020 161.813, 84.779 161.048, 83.113 161.940 C 81.683 162.705, 81.052 162.656, 80.752 161.755 C 80.526 161.079, 80.315 162.320, 80.282 164.513 M 84.356 164.648 C 84.196 167.254, 85.190 167.681, 86.827 165.709 C 87.616 164.757, 87.451 164.139, 86.199 163.357 C 84.789 162.476, 84.475 162.696, 84.356 164.648 M 149 163.622 C 149 164.951, 149.271 165.020, 150.500 164 C 151.325 163.315, 152 162.585, 152 162.378 C 152 162.170, 151.325 162, 150.500 162 C 149.675 162, 149 162.730, 149 163.622 M 145 164 C 145 164.550, 145.450 165, 146 165 C 146.550 165, 147 164.550, 147 164 C 147 163.450, 146.550 163, 146 163 C 145.450 163, 145 163.450, 145 164 M 145.500 167 C 145.840 167.550, 146.541 168, 147.059 168 C 147.577 168, 148 167.550, 148 167 C 148 166.450, 147.298 166, 146.441 166 C 145.584 166, 145.160 166.450, 145.500 167 M 128.703 178.259 C 122.816 184.571, 118 189.967, 118 190.251 C 118 190.534, 119.350 190.711, 121 190.644 C 122.650 190.576, 124 190.179, 124 189.761 C 124 189.342, 124.436 189, 124.969 189 C 125.501 189, 125.684 189.787, 125.374 190.750 C 124.929 192.136, 125.020 192.207, 125.813 191.091 C 126.364 190.316, 126.601 189.124, 126.339 188.442 C 126.078 187.760, 126.344 186.905, 126.932 186.542 C 127.519 186.179, 128.036 184.896, 128.079 183.691 C 128.127 182.353, 128.373 182.042, 128.710 182.892 C 129.069 183.800, 129.736 183.155, 130.626 181.039 C 131.376 179.254, 131.697 177.319, 131.339 176.739 C 130.924 176.068, 131.477 175.892, 132.861 176.253 C 134.102 176.578, 135.641 176.216, 136.446 175.411 C 138.147 173.710, 139.399 173.546, 138.405 175.155 C 137.959 175.876, 138.131 176.037, 138.862 175.585 C 139.506 175.187, 139.774 174.443, 139.457 173.931 C 138.660 172.641, 140.360 172.760, 141.687 174.087 C 142.470 174.870, 142.989 174.827, 143.542 173.933 C 144.036 173.132, 143.899 172.945, 143.155 173.405 C 141.854 174.208, 141.595 172.902, 142.767 171.450 C 143.188 170.928, 143.357 170.593, 143.143 170.707 C 142.928 170.822, 141.999 169.985, 141.079 168.849 C 139.437 166.821, 139.211 166.993, 128.703 178.259 M 138.521 170.976 C 137.538 172.063, 136.394 172.743, 135.980 172.487 C 135.003 171.884, 132.825 174.492, 133.632 175.299 C 133.970 175.637, 135.693 174.810, 137.462 173.462 C 139.230 172.113, 140.998 171.331, 141.391 171.724 C 141.784 172.117, 141.809 171.665, 141.446 170.720 C 140.628 168.588, 140.688 168.583, 138.521 170.976 M 97.630 176.523 C 97.257 177.493, 97.189 178.522, 97.476 178.810 C 97.764 179.098, 98 178.718, 98 177.967 C 98 176.878, 98.253 176.853, 99.242 177.842 C 100.230 178.830, 100.189 179.265, 99.039 179.976 C 98.245 180.466, 97.330 180.704, 97.005 180.503 C 96.681 180.303, 96.350 181.007, 96.270 182.069 C 96.190 183.131, 96.573 184, 97.121 184 C 97.669 184, 97.859 183.581, 97.543 183.069 C 96.403 181.225, 99.167 180.843, 100.581 182.650 C 101.632 183.993, 101.956 184.089, 101.764 183 C 101.619 182.175, 101.050 181.138, 100.500 180.696 C 99.938 180.245, 100.377 180.052, 101.500 180.256 C 102.600 180.455, 103.376 181.188, 103.225 181.884 C 103.074 182.579, 103.381 182.883, 103.906 182.558 C 104.432 182.233, 105.144 182.425, 105.490 182.984 C 105.835 183.543, 105.575 184, 104.911 184 C 104.247 184, 105.207 185.012, 107.043 186.250 C 110.420 188.526, 111.155 190.766, 108.334 190.183 C 107.490 190.009, 107.078 190.318, 107.419 190.869 C 107.760 191.421, 108.899 191.808, 109.950 191.729 C 111.001 191.650, 111.645 191.235, 111.381 190.807 C 111.117 190.380, 112.385 190.242, 114.200 190.502 C 116.613 190.846, 116.868 190.772, 115.149 190.227 C 113.856 189.816, 109.537 186.168, 105.552 182.120 C 99.569 176.043, 98.188 175.067, 97.630 176.523 M 125.131 183.342 C 124.519 184.080, 124.313 184.980, 124.675 185.342 C 125.037 185.704, 124.658 186, 123.833 186 C 123.008 186, 122.333 186.675, 122.333 187.500 C 122.333 188.325, 122.608 189, 122.944 189 C 123.971 189, 126.482 185.560, 126.794 183.728 C 127.147 181.653, 126.632 181.534, 125.131 183.342" stroke="none" fill="#fb9b9c" fill-rule="evenodd"/><path d="M 68.441 50.555 C 66.566 52.057, 66.574 52.074, 68.684 51.055 C 72.100 49.405, 74.749 49.804, 76.443 52.223 C 77.299 53.445, 78 53.965, 78 53.377 C 78 51.689, 74.537 49, 72.362 49 C 71.273 49, 69.509 49.700, 68.441 50.555 M 66.063 55.250 C 65.974 57.717, 69.560 61, 72.345 61 C 74.613 61, 78 58.274, 78 56.449 C 78 55.957, 77.299 56.555, 76.443 57.777 C 73.841 61.493, 68.938 60.544, 67.113 55.972 C 66.417 54.226, 66.108 54.014, 66.063 55.250 M 58.992 58.893 C 60.363 59.274, 62.043 60.692, 62.727 62.043 C 63.590 63.748, 63.975 63.986, 63.985 62.821 C 64.006 60.440, 61.244 57.982, 58.679 58.100 C 56.687 58.191, 56.714 58.259, 58.992 58.893 M 54 62 C 53.411 63.100, 53.155 64, 53.430 64 C 53.705 64, 54.411 63.100, 55 62 C 55.589 60.900, 55.845 60, 55.570 60 C 55.295 60, 54.589 60.900, 54 62 M 61.162 67.543 C 59.487 71.220, 59.807 72.005, 61.618 68.662 C 62.464 67.100, 62.969 65.636, 62.741 65.407 C 62.512 65.179, 61.802 66.140, 61.162 67.543 M 48.459 73.067 C 48.096 73.653, 48.014 74.348, 48.276 74.610 C 48.538 74.872, 49.019 74.392, 49.345 73.543 C 50.021 71.781, 49.445 71.471, 48.459 73.067 M 43.223 89.285 C 44.076 96.857, 48.729 104.388, 59.924 116.317 C 75.004 132.386, 91.963 150.629, 104.557 164.325 L 115.429 176.150 118.188 172.825 C 119.705 170.996, 120.958 169.232, 120.973 168.905 C 120.988 168.578, 119.260 165.653, 117.132 162.405 C 113.684 157.140, 109.462 152.282, 90.646 131.935 C 86.132 127.053, 77.486 117.473, 66 104.625 C 57.709 95.352, 50.666 88.885, 46.846 87.040 L 42.747 85.059 43.223 89.285" stroke="none" fill="#ff454a" fill-rule="evenodd"/><path d="M 69 33.135 C 57.839 34.961, 47.158 42.292, 39.598 53.314 C 29.678 67.778, 28.423 88.553, 36.502 104.538 C 39.371 110.216, 44.618 116.495, 63.661 137.038 C 107.960 184.828, 113.017 190, 115.450 190 C 117.116 190, 122.264 185.125, 134.614 171.856 C 143.901 161.877, 152.175 152.949, 153 152.016 C 153.825 151.083, 162.150 142.116, 171.500 132.089 C 180.850 122.062, 190.172 111.135, 192.215 107.806 C 202.880 90.430, 201.780 67.789, 189.457 51.049 C 179.435 37.435, 164.072 30.664, 148.750 33.108 C 138.800 34.695, 132.694 38.084, 123.348 47.206 L 114.944 55.410 109.006 48.831 C 97.329 35.893, 84.030 30.675, 69 33.135 M 63.500 46.822 C 48.244 54.311, 39.490 72.542, 42.998 89.521 C 44.876 98.607, 47.885 103.530, 58.570 115 C 72.676 130.142, 90.485 149.312, 98 157.446 C 101.575 161.315, 106.982 167.102, 110.016 170.306 L 115.532 176.130 124.639 165.815 C 129.649 160.142, 134.840 154.375, 136.176 153 C 137.512 151.625, 144.863 143.750, 152.512 135.500 C 160.161 127.250, 168.641 118.250, 171.357 115.500 C 184.264 102.430, 188.429 93.280, 187.819 79.336 C 187.349 68.588, 184.128 61.033, 176.958 53.863 C 169.391 46.295, 165.099 44.512, 154.500 44.529 C 142.823 44.547, 140.256 45.954, 127.099 59.543 C 121.531 65.294, 116.198 70, 115.249 70 C 114.300 70, 109.018 65.307, 103.511 59.570 C 91.588 47.149, 87.571 44.831, 77 44.272 C 70.280 43.917, 68.876 44.182, 63.500 46.822" stroke="none" fill="#0b0707" fill-rule="evenodd"/><path d="M 63.500 46.822 C 51.245 52.838, 43.216 65.363, 42.420 79.706 C 42.182 83.993, 42.235 86.988, 42.539 86.363 C 43.982 83.391, 53.958 91.156, 66 104.625 C 77.527 117.518, 86.134 127.054, 90.648 131.935 C 109.340 152.142, 114.534 158.159, 117.769 163.355 L 121.414 169.210 125.367 164.855 C 127.541 162.460, 131.405 158.250, 133.953 155.500 C 157.895 129.657, 167.144 119.766, 171.357 115.500 C 184.264 102.430, 188.429 93.280, 187.819 79.336 C 187.349 68.588, 184.128 61.033, 176.958 53.863 C 169.391 46.295, 165.099 44.512, 154.500 44.529 C 142.823 44.547, 140.256 45.954, 127.099 59.543 C 121.531 65.294, 116.198 70, 115.249 70 C 114.300 70, 109.018 65.307, 103.511 59.570 C 91.588 47.149, 87.571 44.831, 77 44.272 C 70.280 43.917, 68.876 44.182, 63.500 46.822 M 68.746 50.250 C 67.846 50.938, 66.821 52.699, 66.468 54.163 C 65.189 59.475, 72.648 63.257, 76.345 59.171 C 81.147 53.865, 74.394 45.936, 68.746 50.250 M 55.785 59.750 C 53.294 62.610, 48 74.583, 48 77.358 C 48 80.639, 51.139 82.531, 54.024 80.987 C 55.932 79.966, 64 64.874, 64 62.326 C 64 60.553, 61.099 58, 59.084 58 C 58.108 58, 56.624 58.788, 55.785 59.750 M 67 124.378 C 67 124.585, 67.787 125.373, 68.750 126.128 C 70.336 127.371, 70.371 127.336, 69.128 125.750 C 67.821 124.084, 67 123.555, 67 124.378" stroke="none" fill="#f10b0b" fill-rule="evenodd"/></svg>