<svg xmlns="http://www.w3.org/2000/svg" width="79" height="155" viewBox="0 0 79 155" version="1.1"><path d="M 30.344 13.056 C 29.703 13.697, 29.568 15.639, 30.001 18.003 C 30.671 21.667, 30.560 21.913, 28.106 22.197 C 25.047 22.553, 24.328 26.365, 27.270 26.635 C 28.507 26.748, 28.582 26.655, 27.520 26.325 C 26.684 26.066, 26 25.211, 26 24.427 C 26 23.290, 28.132 22.975, 36.500 22.875 C 55.337 22.651, 56 22.703, 56 24.427 C 56 25.211, 55.438 26.042, 54.750 26.273 C 54.031 26.514, 54.138 26.646, 55 26.583 C 55.825 26.522, 56.500 25.579, 56.500 24.486 C 56.500 23.062, 55.721 22.410, 53.748 22.183 C 50.940 21.860, 50.782 20.867, 52.617 15.080 C 52.865 14.299, 52.490 13.293, 51.784 12.845 C 49.883 11.639, 31.582 11.818, 30.344 13.056 M 28 41.500 C 28 41.775, 28.225 42, 28.500 42 C 28.775 42, 29 41.775, 29 41.500 C 29 41.225, 28.775 41, 28.500 41 C 28.225 41, 28 41.225, 28 41.500 M 53.333 41.667 C 53.700 42.033, 54.300 42.033, 54.667 41.667 C 55.033 41.300, 54.733 41, 54 41 C 53.267 41, 52.967 41.300, 53.333 41.667 M 23.333 42.667 C 23.700 43.033, 24.300 43.033, 24.667 42.667 C 25.033 42.300, 24.733 42, 24 42 C 23.267 42, 22.967 42.300, 23.333 42.667 M 57.333 42.667 C 57.700 43.033, 58.300 43.033, 58.667 42.667 C 59.033 42.300, 58.733 42, 58 42 C 57.267 42, 56.967 42.300, 57.333 42.667 M 21 43.500 C 21 43.775, 21.225 44, 21.500 44 C 21.775 44, 22 43.775, 22 43.500 C 22 43.225, 21.775 43, 21.500 43 C 21.225 43, 21 43.225, 21 43.500 M 60 43.393 C 60 43.609, 60.698 44.054, 61.552 44.382 C 62.442 44.723, 62.843 44.555, 62.493 43.989 C 61.906 43.038, 60 42.583, 60 43.393 M 19 44.500 C 19 44.775, 19.225 45, 19.500 45 C 19.775 45, 20 44.775, 20 44.500 C 20 44.225, 19.775 44, 19.500 44 C 19.225 44, 19 44.225, 19 44.500 M 14.924 47.750 L 12.500 50.500 15.250 48.076 C 17.820 45.810, 18.459 45, 17.674 45 C 17.495 45, 16.258 46.237, 14.924 47.750 M 66 47.500 C 67.292 48.875, 68.574 50, 68.849 50 C 69.124 50, 68.292 48.875, 67 47.500 C 65.708 46.125, 64.426 45, 64.151 45 C 63.876 45, 64.708 46.125, 66 47.500 M 12 51.500 C 12 51.775, 12.225 52, 12.500 52 C 12.775 52, 13 51.775, 13 51.500 C 13 51.225, 12.775 51, 12.500 51 C 12.225 51, 12 51.225, 12 51.500 M 70.080 53 C 71.538 56.061, 72 56.628, 72 55.358 C 72 54.821, 71.300 53.509, 70.445 52.441 C 68.978 50.611, 68.958 50.643, 70.080 53 M 11 53.500 C 11 53.775, 11.225 54, 11.500 54 C 11.775 54, 12 53.775, 12 53.500 C 12 53.225, 11.775 53, 11.500 53 C 11.225 53, 11 53.225, 11 53.500 M 10 56 C 10 56.733, 10.300 57.033, 10.667 56.667 C 11.033 56.300, 11.033 55.700, 10.667 55.333 C 10.300 54.967, 10 55.267, 10 56 M 9.461 104 C 9.461 129.025, 9.590 139.263, 9.749 126.750 C 9.908 114.238, 9.908 93.763, 9.749 81.250 C 9.590 68.738, 9.461 78.975, 9.461 104 M 72.461 104.500 C 72.461 129.800, 72.591 140.007, 72.749 127.181 C 72.908 114.356, 72.907 93.656, 72.749 81.181 C 72.590 68.707, 72.461 79.200, 72.461 104.500 M 18 80.500 L 18 100 41 100 L 64 100 64 80.500 L 64 61 41 61 L 18 61 18 80.500 M 24.487 71.685 C 23.655 73.677, 23.222 75.555, 23.525 75.859 C 23.828 76.162, 25.859 76.455, 28.038 76.509 C 32.209 76.614, 33.183 75.226, 30.500 73 C 29.675 72.315, 29 71.183, 29 70.485 C 29 69.786, 28.325 68.955, 27.500 68.638 C 26.462 68.240, 25.535 69.177, 24.487 71.685 M 52.945 71.077 C 51.736 72.774, 51.145 74.510, 51.627 74.948 C 53.182 76.362, 57.855 77.043, 58.529 75.953 C 59.113 75.008, 56.463 68, 55.521 68 C 55.309 68, 54.150 69.385, 52.945 71.077 M 37.345 70.428 C 33.532 72.115, 32.651 74.490, 33.570 80.615 C 34.069 83.945, 34.793 85.395, 36.133 85.745 C 37.160 86.014, 38 86.882, 38 87.676 C 38 88.469, 38.450 88.840, 39 88.500 C 39.550 88.160, 40 88.319, 40 88.852 C 40 89.386, 40.788 89.672, 41.750 89.488 C 42.712 89.304, 44.063 89.119, 44.750 89.077 C 45.438 89.034, 46 88.325, 46 87.500 C 46 86.675, 46.627 86, 47.393 86 C 49.178 86, 49.608 84.683, 49.902 78.319 C 50.108 73.856, 49.819 72.930, 47.820 71.637 C 44.212 69.302, 40.786 68.906, 37.345 70.428 M 36 80.500 C 36 81.628, 36.702 82.039, 38.250 81.820 C 39.487 81.644, 40.500 81.050, 40.500 80.500 C 40.500 79.950, 39.487 79.356, 38.250 79.180 C 36.702 78.961, 36 79.372, 36 80.500 M 43 80.500 C 43 81.333, 43.889 82, 45 82 C 46.111 82, 47 81.333, 47 80.500 C 47 79.667, 46.111 79, 45 79 C 43.889 79, 43 79.667, 43 80.500 M 23.328 84.278 C 22.356 85.851, 25.974 91.947, 27.527 91.351 C 28.337 91.040, 29 90.175, 29 89.428 C 29 88.681, 29.883 87.598, 30.963 87.020 C 34.053 85.366, 32.410 83.455, 27.899 83.455 C 25.665 83.455, 23.608 83.825, 23.328 84.278 M 41 84 C 41 84.550, 41.477 85, 42.059 85 C 42.641 85, 42.840 84.550, 42.500 84 C 42.160 83.450, 41.684 83, 41.441 83 C 41.198 83, 41 83.450, 41 84 M 50.550 84.731 C 50.290 85.408, 51.365 87.371, 52.938 89.094 L 55.799 92.226 57.530 88.577 C 58.483 86.570, 58.946 84.613, 58.561 84.227 C 57.367 83.034, 51.049 83.431, 50.550 84.731 M 10.500 152 C 10.840 152.550, 11.343 153, 11.618 153 C 11.893 153, 11.840 152.550, 11.500 152 C 11.160 151.450, 10.657 151, 10.382 151 C 10.107 151, 10.160 151.450, 10.500 152 M 70.405 152.155 C 69.962 152.870, 70.130 153.038, 70.845 152.595 C 71.480 152.203, 72 151.684, 72 151.441 C 72 150.607, 71.117 151.002, 70.405 152.155 M 27.811 153.748 C 35.681 153.917, 48.281 153.917, 55.811 153.747 C 63.340 153.578, 56.900 153.439, 41.500 153.440 C 26.100 153.440, 19.940 153.579, 27.811 153.748" stroke="none" fill="#f3ebd9" fill-rule="evenodd"/><path d="M 36.750 22.784 C 28.100 23.012, 26 23.354, 26 24.534 C 26 25.340, 26.675 26, 27.500 26 C 28.705 26, 29 27.533, 29 33.793 L 29 41.585 24.619 42.757 C 19.047 44.247, 14.223 48.299, 11.880 53.459 C 10.184 57.192, 10.042 61.051, 10.022 104.050 C 10.005 138.947, 10.300 150.900, 11.200 151.800 C 12.913 153.513, 69.087 153.513, 70.800 151.800 C 71.699 150.901, 72 138.858, 72 103.760 C 72 59.244, 71.903 56.730, 70.044 53.086 C 67.461 48.023, 62.773 44.199, 57.381 42.757 L 53 41.585 53 33.793 C 53 27.533, 53.295 26, 54.500 26 C 57.339 26, 56.121 23.003, 53.250 22.923 C 51.737 22.881, 49.825 22.769, 49 22.673 C 48.175 22.578, 42.663 22.628, 36.750 22.784 M 18 80.500 L 18 100 41 100 L 64 100 64 80.500 L 64 61 41 61 L 18 61 18 80.500 M 24.487 71.685 C 23.655 73.677, 23.222 75.555, 23.525 75.859 C 23.828 76.162, 25.859 76.455, 28.038 76.509 C 32.209 76.614, 33.183 75.226, 30.500 73 C 29.675 72.315, 29 71.183, 29 70.485 C 29 69.786, 28.325 68.955, 27.500 68.638 C 26.462 68.240, 25.535 69.177, 24.487 71.685 M 52.945 71.077 C 51.736 72.774, 51.145 74.510, 51.627 74.948 C 53.182 76.362, 57.855 77.043, 58.529 75.953 C 59.113 75.008, 56.463 68, 55.521 68 C 55.309 68, 54.150 69.385, 52.945 71.077 M 37.345 70.428 C 33.532 72.115, 32.651 74.490, 33.570 80.615 C 34.069 83.945, 34.793 85.395, 36.133 85.745 C 37.160 86.014, 38 86.882, 38 87.676 C 38 88.469, 38.450 88.840, 39 88.500 C 39.550 88.160, 40 88.319, 40 88.852 C 40 89.386, 40.788 89.672, 41.750 89.488 C 42.712 89.304, 44.063 89.119, 44.750 89.077 C 45.438 89.034, 46 88.325, 46 87.500 C 46 86.675, 46.627 86, 47.393 86 C 49.178 86, 49.608 84.683, 49.902 78.319 C 50.108 73.856, 49.819 72.930, 47.820 71.637 C 44.212 69.302, 40.786 68.906, 37.345 70.428 M 36 80.500 C 36 81.628, 36.702 82.039, 38.250 81.820 C 39.487 81.644, 40.500 81.050, 40.500 80.500 C 40.500 79.950, 39.487 79.356, 38.250 79.180 C 36.702 78.961, 36 79.372, 36 80.500 M 43 80.500 C 43 81.333, 43.889 82, 45 82 C 46.111 82, 47 81.333, 47 80.500 C 47 79.667, 46.111 79, 45 79 C 43.889 79, 43 79.667, 43 80.500 M 23.328 84.278 C 22.356 85.851, 25.974 91.947, 27.527 91.351 C 28.337 91.040, 29 90.175, 29 89.428 C 29 88.681, 29.883 87.598, 30.963 87.020 C 34.053 85.366, 32.410 83.455, 27.899 83.455 C 25.665 83.455, 23.608 83.825, 23.328 84.278 M 41 84 C 41 84.550, 41.477 85, 42.059 85 C 42.641 85, 42.840 84.550, 42.500 84 C 42.160 83.450, 41.684 83, 41.441 83 C 41.198 83, 41 83.450, 41 84 M 50.550 84.731 C 50.290 85.408, 51.365 87.371, 52.938 89.094 L 55.799 92.226 57.530 88.577 C 58.483 86.570, 58.946 84.613, 58.561 84.227 C 57.367 83.034, 51.049 83.431, 50.550 84.731" stroke="none" fill="#501507" fill-rule="evenodd"/></svg>