<svg xmlns="http://www.w3.org/2000/svg" width="300" height="402" viewBox="0 0 300 402" version="1.1"><path d="M 159 49.930 C 145.339 52.662, 140.099 64.934, 147.960 75.786 C 151.806 81.095, 155.590 83.629, 164.129 86.613 C 178.405 91.600, 186.398 97.048, 206.908 115.770 C 219.204 126.994, 223.367 129.627, 227.267 128.648 C 230.510 127.834, 231.317 123.802, 229.972 115.127 C 227.424 98.692, 221.515 86.658, 210.157 74.769 C 195.532 59.461, 183.942 52.170, 170.859 50.047 C 163.908 48.919, 164.048 48.920, 159 49.930 M 224 56.500 C 225.292 57.875, 226.574 59, 226.849 59 C 227.124 59, 226.292 57.875, 225 56.500 C 223.708 55.125, 222.426 54, 222.151 54 C 221.876 54, 222.708 55.125, 224 56.500 M 93.250 141.716 C 94.763 141.945, 97.237 141.945, 98.750 141.716 C 100.263 141.487, 99.025 141.300, 96 141.300 C 92.975 141.300, 91.737 141.487, 93.250 141.716 M 83.618 151.112 C 72.694 153.677, 60.512 162.479, 53.325 173 C 41.512 190.292, 30.953 224.025, 26.561 258.500 C 21.677 296.831, 21.903 342.923, 27.050 358.500 C 31.194 371.039, 37.284 377.830, 45.175 378.712 C 54.513 379.755, 57.660 372.255, 52.519 361.212 C 48.869 353.374, 46.250 344.198, 43.787 330.624 C 40.750 313.884, 40.508 272.655, 43.360 258 C 46.823 240.211, 50.086 229.514, 55.256 219 C 59.825 209.706, 61.521 207.409, 70.014 199 C 75.569 193.500, 81.044 186.974, 83.017 183.500 C 86.212 177.875, 94.191 168.998, 100.106 164.488 C 103.643 161.791, 105 158.900, 105 154.066 L 105 150 96.250 150.100 C 91.438 150.156, 85.753 150.611, 83.618 151.112 M 53.946 158.750 L 50.500 162.500 54.250 159.054 C 56.313 157.158, 58 155.471, 58 155.304 C 58 154.540, 57.154 155.260, 53.946 158.750 M 18.195 261.500 C 18.215 263.150, 18.439 263.704, 18.693 262.731 C 18.947 261.758, 18.930 260.408, 18.656 259.731 C 18.382 259.054, 18.175 259.850, 18.195 261.500 M 50.158 261 C 50.158 262.375, 50.385 262.938, 50.662 262.250 C 50.940 261.563, 50.940 260.438, 50.662 259.750 C 50.385 259.063, 50.158 259.625, 50.158 261 M 17.232 271 C 17.232 272.925, 17.438 273.712, 17.689 272.750 C 17.941 271.788, 17.941 270.212, 17.689 269.250 C 17.438 268.288, 17.232 269.075, 17.232 271 M 16.158 278 C 16.158 279.375, 16.385 279.938, 16.662 279.250 C 16.940 278.563, 16.940 277.438, 16.662 276.750 C 16.385 276.063, 16.158 276.625, 16.158 278 M 50.300 300 C 50.300 303.025, 50.487 304.262, 50.716 302.750 C 50.945 301.238, 50.945 298.762, 50.716 297.250 C 50.487 295.738, 50.300 296.975, 50.300 300 M 13.272 309 C 13.272 311.475, 13.467 312.488, 13.706 311.250 C 13.944 310.012, 13.944 307.988, 13.706 306.750 C 13.467 305.512, 13.272 306.525, 13.272 309 M 51.232 315 C 51.232 316.925, 51.438 317.712, 51.689 316.750 C 51.941 315.788, 51.941 314.212, 51.689 313.250 C 51.438 312.288, 51.232 313.075, 51.232 315 M 52.158 326 C 52.158 327.375, 52.385 327.938, 52.662 327.250 C 52.940 326.563, 52.940 325.438, 52.662 324.750 C 52.385 324.063, 52.158 324.625, 52.158 326 M 13.272 334 C 13.272 336.475, 13.467 337.488, 13.706 336.250 C 13.944 335.012, 13.944 332.988, 13.706 331.750 C 13.467 330.512, 13.272 331.525, 13.272 334 M 54.158 340 C 54.158 341.375, 54.385 341.938, 54.662 341.250 C 54.940 340.563, 54.940 339.438, 54.662 338.750 C 54.385 338.063, 54.158 338.625, 54.158 340" stroke="none" fill="#f7d4a4" fill-rule="evenodd"/><path d="M 131.500 21.550 C 128.200 22.379, 121.225 25.127, 116 27.657 C 91.386 39.574, 78.230 64.451, 81.972 92 C 83.916 106.316, 91.596 126.835, 98.420 135.944 C 102.480 141.365, 101.995 141.997, 93.750 142.024 C 84.418 142.056, 79.205 143.294, 70.207 147.615 C 42.466 160.935, 25.357 199.134, 18.525 263 C 17.672 270.975, 16.283 281.775, 15.440 287 C 13.524 298.859, 13.156 337.462, 14.865 347.268 C 18.134 366.031, 25.213 379.300, 34.380 383.848 C 40.099 386.686, 52.797 387.882, 58.215 386.094 C 66.216 383.454, 66.975 379.012, 61.673 365.860 C 55.752 351.173, 53.101 337.536, 50.940 310.649 C 49.263 289.791, 50.235 254.529, 52.832 241.973 C 56.435 224.557, 63.793 209.277, 72.562 201 L 76.270 197.500 75.614 200.981 C 73.066 214.498, 72.785 222.700, 74.414 235.987 C 75.324 243.404, 76.766 252.179, 77.620 255.487 C 81.267 269.614, 93.268 286.472, 105.069 294.044 C 111.688 298.292, 123.611 302.831, 132.735 304.576 C 170.729 311.846, 214.091 292.139, 237.584 256.927 C 262.408 219.719, 272.119 171.334, 263.912 125.754 C 259.239 99.804, 248.592 81.519, 223.547 56.432 C 205.962 38.818, 193.068 30.376, 173.737 23.821 C 165.525 21.036, 163.003 20.653, 151 20.366 C 141.357 20.136, 135.786 20.474, 131.500 21.550 M 159 49.930 C 145.339 52.662, 140.099 64.934, 147.960 75.786 C 151.806 81.095, 155.590 83.629, 164.129 86.613 C 178.405 91.600, 186.398 97.048, 206.908 115.770 C 219.204 126.994, 223.367 129.627, 227.267 128.648 C 230.510 127.834, 231.317 123.802, 229.972 115.127 C 227.424 98.692, 221.515 86.658, 210.157 74.769 C 195.532 59.461, 183.942 52.170, 170.859 50.047 C 163.908 48.919, 164.048 48.920, 159 49.930 M 83.618 151.112 C 72.694 153.677, 60.512 162.479, 53.325 173 C 41.512 190.292, 30.953 224.025, 26.561 258.500 C 21.677 296.831, 21.903 342.923, 27.050 358.500 C 31.194 371.039, 37.284 377.830, 45.175 378.712 C 54.513 379.755, 57.660 372.255, 52.519 361.212 C 48.869 353.374, 46.250 344.198, 43.787 330.624 C 40.750 313.884, 40.508 272.655, 43.360 258 C 46.823 240.211, 50.086 229.514, 55.256 219 C 59.825 209.706, 61.521 207.409, 70.014 199 C 75.569 193.500, 81.044 186.974, 83.017 183.500 C 86.212 177.875, 94.191 168.998, 100.106 164.488 C 103.643 161.791, 105 158.900, 105 154.066 L 105 150 96.250 150.100 C 91.438 150.156, 85.753 150.611, 83.618 151.112" stroke="none" fill="#b1442c" fill-rule="evenodd"/></svg>