<svg xmlns="http://www.w3.org/2000/svg" width="360" height="167" viewBox="0 0 360 167" version="1.1"><path d="M 297.276 25.099 C 295.503 26.234, 291.599 30.664, 288.600 34.943 C 283.336 42.456, 282.989 42.741, 278.488 43.249 C 272.319 43.944, 270.752 45.530, 273.785 48.009 C 275.520 49.427, 275.914 50.493, 275.426 52.438 C 274.908 54.502, 274.172 55.003, 271.642 55.017 C 265.493 55.051, 254.619 57.992, 250.764 60.664 C 246.164 63.851, 242.494 69.737, 240.303 77.439 C 238.528 83.681, 235.140 88, 232.020 88 C 230.879 88, 225.157 86.364, 219.305 84.364 C 209.186 80.906, 208.195 80.754, 199.082 81.273 C 193.812 81.573, 188.287 82.289, 186.805 82.864 C 185.323 83.438, 179.943 87.765, 174.849 92.479 C 169.439 97.486, 163.296 102.134, 160.075 103.658 C 157.043 105.092, 152.123 108.107, 149.142 110.358 C 144.265 114.040, 143.044 114.489, 136.954 114.833 C 130.735 115.184, 130.063 115.024, 128.649 112.858 C 127.803 111.561, 126.614 108.250, 126.007 105.500 C 124.612 99.184, 121.099 93.809, 115.909 90.049 C 112.033 87.241, 102.335 83.332, 101.447 84.219 C 101.215 84.452, 103.543 85.436, 106.622 86.407 C 110.687 87.688, 113.669 89.585, 117.513 93.336 C 121.984 97.698, 123.133 99.606, 124.907 105.620 C 128.503 117.811, 130.838 119.416, 150.058 122.911 C 156.351 124.055, 162.625 125.284, 164 125.643 C 165.375 126.002, 166.209 125.975, 165.853 125.584 C 164.744 124.364, 154.839 121.990, 146.850 121.030 C 142.642 120.524, 137.467 119.328, 135.350 118.372 L 131.500 116.634 138.583 116.015 C 145.041 115.450, 146.186 114.992, 151.583 110.813 C 154.837 108.293, 159.300 105.427, 161.500 104.445 C 166.035 102.421, 171.735 98.073, 180.601 89.873 C 186.289 84.612, 187.195 84.148, 194.016 82.997 C 203.414 81.412, 209.201 82.155, 221.325 86.502 C 226.729 88.439, 231.536 89.787, 232.006 89.496 C 232.477 89.205, 233.144 89.425, 233.490 89.984 C 233.835 90.543, 235.009 91, 236.099 91 C 237.188 91, 239.895 91.926, 242.115 93.058 C 244.334 94.191, 246.610 94.963, 247.173 94.776 C 248.114 94.462, 241.027 90.959, 236.623 89.561 C 234.876 89.007, 234.918 88.805, 237.232 86.661 C 238.599 85.394, 240.726 81.328, 241.958 77.627 C 246.512 63.941, 253.134 58.774, 268.556 56.871 C 280.534 55.394, 290.644 56.233, 297.240 59.252 C 300.133 60.577, 302.828 61.746, 303.228 61.851 C 304.453 62.172, 314.815 73.279, 315.921 75.456 C 317.079 77.736, 319.176 82.961, 319.551 84.500 C 319.685 85.050, 320.760 89.100, 321.941 93.500 C 325.044 105.069, 324.837 113.684, 321.298 120.244 C 316.334 129.444, 311.303 132.210, 292.500 136.077 C 287.550 137.095, 280.351 138.844, 276.503 139.964 C 267.873 142.475, 265.461 142.480, 256 140 C 247.636 137.808, 241.389 137.539, 232.533 138.989 C 225.537 140.134, 223.185 138.907, 228.146 136.701 C 229.991 135.881, 236.122 133.094, 241.770 130.508 C 255.272 124.327, 261.059 123.701, 270.050 127.445 C 279.298 131.297, 281.556 131.895, 283.116 130.907 C 284.201 130.220, 284.105 130.027, 282.668 130.015 C 281.660 130.007, 277.610 128.584, 273.668 126.853 C 264.769 122.947, 256.343 122.625, 248.213 125.882 C 245.305 127.047, 242.656 128, 242.325 128 C 241.995 128, 242.028 125.419, 242.399 122.263 C 243.276 114.799, 241.361 116.376, 240.260 124.025 C 239.528 129.116, 239.203 129.624, 235.591 131.325 C 233.455 132.331, 228.961 133.512, 225.604 133.950 C 222.247 134.388, 220.512 134.803, 221.750 134.873 C 225.144 135.064, 224.455 136.783, 220.287 138.525 C 218.244 139.378, 215.882 140.676, 215.037 141.408 C 214.191 142.141, 209.773 143.966, 205.219 145.463 C 197.068 148.142, 196.555 148.183, 172.735 148.053 C 154.295 147.953, 146.744 147.527, 141.017 146.265 C 129.805 143.794, 112.773 144.437, 103.545 147.678 C 99.670 149.039, 94.700 150.606, 92.500 151.159 C 87.148 152.505, 58.746 151.325, 48.527 149.332 C 34.088 146.516, 25 141.065, 25 135.220 C 25 130.396, 33.492 124.667, 40.642 124.667 C 42.991 124.667, 44.680 124.292, 44.397 123.833 C 42.499 120.763, 29.148 125.454, 25.085 130.620 C 23.923 132.097, 22.720 133.053, 22.412 132.746 C 21.380 131.713, 19.646 119.366, 20.295 117.673 C 20.787 116.393, 22.214 116, 26.380 116 C 31.275 116, 32.093 115.678, 34.515 112.800 C 37.141 109.679, 37.191 109.376, 36.528 100.531 C 35.895 92.094, 36.005 91.264, 38.095 88.606 C 40.667 85.336, 47.215 82.054, 51.231 82.022 C 53.401 82.005, 54.090 82.565, 54.585 84.750 C 56.508 93.240, 56.816 93.721, 56.910 88.385 C 57.012 82.575, 59.234 78.967, 64.338 76.322 C 68.448 74.192, 79.970 74.248, 86 76.427 C 88.475 77.321, 90.897 78.153, 91.383 78.276 C 91.869 78.399, 93.894 79.957, 95.883 81.739 C 98.077 83.703, 99.657 84.512, 99.898 83.794 C 100.561 81.825, 94.212 77.341, 87.595 75.106 C 75.854 71.141, 61.914 73.001, 57.639 79.105 C 56.342 80.956, 55.239 81.370, 52.186 81.149 C 47.142 80.785, 40.612 83.484, 37.453 87.239 C 35.054 90.089, 34.929 90.806, 35.206 100.094 C 35.478 109.189, 35.329 110.103, 33.233 112.205 C 31.582 113.861, 29.406 114.618, 25.233 114.989 L 19.500 115.500 19.191 119.790 C 18.845 124.576, 21.594 135.369, 22.945 134.534 C 23.423 134.239, 23.597 134.824, 23.333 135.834 C 22.641 138.482, 27.393 143.659, 33.235 146.619 C 40.796 150.450, 50.583 151.974, 72 152.655 L 91.500 153.275 100.500 150.185 C 108.549 147.421, 110.927 147.065, 123 146.822 C 132.750 146.625, 138.722 147.019, 144.500 148.240 C 150.545 149.517, 157.738 149.939, 173.936 149.965 C 198.232 150.005, 205.126 148.774, 216.704 142.332 C 221.608 139.603, 223.308 139.094, 224.820 139.904 C 226.133 140.606, 229.557 140.579, 235.741 139.818 C 244.221 138.774, 245.394 138.869, 255.754 141.439 L 266.758 144.169 276.629 141.501 C 282.058 140.034, 291.456 137.809, 297.514 136.557 C 314.424 133.063, 319.050 129.923, 324.098 118.511 C 325.950 114.326, 326.180 112.414, 325.717 105.066 C 325.408 100.156, 324.263 93.939, 323.034 90.500 C 321.173 85.291, 321.050 84.007, 322.102 80.758 C 323.035 77.880, 323.612 77.263, 324.602 78.085 C 326.834 79.937, 330.463 78.759, 330.845 76.059 C 331.034 74.717, 332.248 72.230, 333.542 70.534 C 334.836 68.837, 337.317 64.411, 339.054 60.698 C 341.591 55.277, 342.078 53.227, 341.526 50.287 C 340.019 42.253, 331.188 33.590, 317.383 26.602 C 308.873 22.295, 302.409 21.811, 297.276 25.099 M 277.189 44.687 C 273.548 45.181, 273.327 47.123, 276.815 47.972 C 278.863 48.471, 278.900 48.656, 277.491 51.364 C 276.671 52.940, 276 54.402, 276 54.614 C 276 54.826, 278.951 55, 282.557 55 C 286.164 55, 291.226 55.522, 293.807 56.159 C 299.660 57.605, 309.364 63.601, 308.393 65.173 C 307.983 65.836, 308.134 66.035, 308.757 65.650 C 310.238 64.735, 317.730 73.495, 318.512 77.056 C 319.395 81.075, 320.808 81.639, 321.609 78.291 C 322.622 74.056, 323.250 73.443, 324.132 75.829 C 324.664 77.267, 325.783 78, 327.445 78 C 329.734 78, 329.934 77.657, 329.727 74.102 C 329.602 71.958, 329.163 70.410, 328.750 70.661 C 328.004 71.116, 327.580 69.408, 327.965 67.500 C 328.076 66.950, 327.833 66.834, 327.425 67.241 C 326.587 68.080, 324 66.250, 324 64.819 C 324 64.303, 324.563 64.200, 325.250 64.588 C 326.171 65.108, 326.158 64.926, 325.200 63.897 C 324.485 63.129, 323.360 62.480, 322.700 62.455 C 322.040 62.430, 321.624 61.834, 321.775 61.130 C 321.926 60.427, 321.560 60.154, 320.962 60.524 C 319.570 61.384, 315.841 58.066, 316.678 56.712 C 317.051 56.108, 316.811 55.999, 316.091 56.443 C 314.767 57.262, 310.746 54.220, 311.513 52.979 C 311.769 52.565, 311.196 52.288, 310.239 52.363 C 309.283 52.438, 308.580 52.034, 308.679 51.464 C 308.777 50.895, 308.102 50.363, 307.179 50.283 C 306.255 50.204, 302.350 49.019, 298.500 47.652 C 291.239 45.072, 282.906 43.913, 277.189 44.687 M 286.083 50.416 C 286.402 50.735, 290.077 51.869, 294.250 52.936 C 304.547 55.570, 308.593 57.819, 314.757 64.336 C 317.641 67.386, 320 69.297, 320 68.585 C 320 66.503, 309.388 57.059, 304.735 55.001 C 302.388 53.963, 298.225 52.634, 295.484 52.049 C 292.743 51.464, 289.376 50.727, 288.002 50.411 C 286.628 50.096, 285.765 50.098, 286.083 50.416 M 99.798 102.765 C 99.394 117.173, 99.118 119.090, 96.522 125.500 C 93.241 133.604, 88.838 139.383, 81.936 144.647 C 75.982 149.187, 76.168 150.368, 82.180 146.192 C 90.739 140.247, 96.425 132.280, 99.445 122 C 101.402 115.341, 102.821 88.625, 101.268 87.666 C 100.585 87.243, 100.090 92.326, 99.798 102.765 M 43 92.500 C 41.625 93.286, 40.950 93.929, 41.500 93.929 C 42.050 93.929, 43.625 93.286, 45 92.500 C 46.375 91.714, 47.050 91.071, 46.500 91.071 C 45.950 91.071, 44.375 91.714, 43 92.500 M 64.500 94.769 C 60.650 96.697, 55.572 99.183, 53.216 100.294 C 48.068 102.721, 42.979 108.228, 43.056 111.285 C 43.099 112.943, 43.413 112.630, 44.306 110.044 C 45.016 107.989, 47.275 105.237, 49.878 103.255 C 54.657 99.618, 56.108 99.580, 53.602 103.158 C 51.458 106.219, 51.585 110.808, 53.920 114.637 L 55.833 117.773 52.193 120.137 C 48.345 122.635, 44.042 129.146, 44.020 132.500 C 43.997 136.097, 47.816 140.854, 53.209 143.947 C 56.119 145.616, 58.950 146.966, 59.500 146.946 C 60.050 146.927, 58.790 146.009, 56.701 144.907 C 52.036 142.445, 45 135.556, 45 133.450 C 45 130.948, 47.855 126.148, 50.038 124.979 C 51.148 124.386, 51.749 123.403, 51.373 122.795 C 50.968 122.139, 51.148 121.973, 51.817 122.387 C 52.437 122.770, 54.118 122.314, 55.552 121.374 C 58.023 119.755, 58.330 119.760, 61.331 121.473 C 64.097 123.052, 63.976 122.823, 60.380 119.674 C 58.113 117.690, 55.499 114.465, 54.570 112.507 C 51.487 106.009, 54.146 102.280, 65.975 96.512 C 70.389 94.360, 74 92.240, 74 91.800 C 74 90.434, 71.755 91.136, 64.500 94.769 M 257 94.474 C 257 94.735, 258.371 95.658, 260.048 96.525 C 262.644 97.867, 264.671 97.955, 273.734 97.115 C 282.011 96.348, 285.053 96.417, 287.437 97.427 C 292.635 99.628, 294.216 102.226, 294.142 108.444 C 294.105 111.500, 294.508 114, 295.038 114 C 296.528 114, 296.173 104.234, 294.569 101.133 C 293.782 99.611, 291.373 97.570, 289.216 96.597 C 285.789 95.052, 283.870 94.939, 274.007 95.698 C 265.369 96.363, 262.138 96.266, 260.245 95.283 C 257.556 93.888, 257 93.750, 257 94.474 M 193.609 99.534 C 192.876 100.266, 191.506 103.934, 190.565 107.683 C 189.623 111.432, 187.986 115.903, 186.926 117.618 C 185.867 119.333, 185.029 121.583, 185.063 122.618 C 185.113 124.102, 185.336 123.975, 186.116 122.021 C 186.660 120.657, 187.719 118.857, 188.468 118.021 C 189.218 117.184, 190.583 113.586, 191.502 110.023 C 194.157 99.729, 193.831 100, 203.535 100 C 208.191 100, 211.998 99.662, 211.995 99.250 C 211.986 97.837, 195.045 98.098, 193.609 99.534 M 48.345 110.543 C 48.019 111.392, 47.976 112.310, 48.249 112.583 C 48.523 112.856, 48.986 112.161, 49.279 111.040 C 49.903 108.657, 49.210 108.289, 48.345 110.543 M 115.448 124.605 C 123.129 131.964, 134.939 136.379, 141.737 134.432 C 144.001 133.783, 143.220 133.513, 137.406 132.936 C 128.719 132.074, 122.079 129.250, 116.374 123.991 C 110.354 118.441, 109.563 118.966, 115.448 124.605 M 65.750 123.662 C 66.438 123.940, 67.563 123.940, 68.250 123.662 C 68.938 123.385, 68.375 123.158, 67 123.158 C 65.625 123.158, 65.063 123.385, 65.750 123.662 M 57.762 127.535 C 58.070 129.149, 57.566 130.836, 56.373 132.177 C 54.515 134.266, 54.518 134.272, 56.750 132.901 C 58.340 131.924, 59 130.563, 59 128.259 C 59 126.467, 58.612 125, 58.139 125 C 57.665 125, 57.495 126.141, 57.762 127.535 M 195.217 136.226 C 190.111 137.349, 186.134 138.468, 186.380 138.713 C 186.911 139.244, 203.631 136.117, 206.500 134.949 L 208.500 134.135 206.500 134.160 C 205.400 134.174, 200.323 135.104, 195.217 136.226 M 73.500 150 C 73.160 150.550, 73.332 151, 73.882 151 C 74.432 151, 75.160 150.550, 75.500 150 C 75.840 149.450, 75.668 149, 75.118 149 C 74.568 149, 73.840 149.450, 73.500 150" stroke="none" fill="#515f8a" fill-rule="evenodd"/><path d="M 303.264 22.718 C 304.784 22.947, 307.034 22.941, 308.264 22.704 C 309.494 22.467, 308.250 22.279, 305.500 22.286 C 302.750 22.294, 301.744 22.488, 303.264 22.718 M 312 24 C 312.825 24.533, 313.950 24.969, 314.500 24.969 C 315.050 24.969, 314.825 24.533, 314 24 C 313.175 23.467, 312.050 23.031, 311.500 23.031 C 310.950 23.031, 311.175 23.467, 312 24 M 316 25.449 C 316 25.724, 317.350 26.647, 319 27.500 C 320.650 28.353, 322 28.826, 322 28.551 C 322 28.276, 320.650 27.353, 319 26.500 C 317.350 25.647, 316 25.174, 316 25.449 M 329.500 34 C 330.495 35.100, 331.535 36, 331.810 36 C 332.085 36, 331.495 35.100, 330.500 34 C 329.505 32.900, 328.465 32, 328.190 32 C 327.915 32, 328.505 32.900, 329.500 34 M 283.500 41 C 283.160 41.550, 281.446 42.007, 279.691 42.015 C 276.135 42.031, 271.861 43.883, 271.275 45.661 C 271.065 46.300, 271.829 47.694, 272.973 48.760 C 275.819 51.412, 274.681 53.990, 270.643 54.035 C 261.813 54.134, 250.416 58.296, 246.862 62.720 C 246.113 63.653, 247.534 62.971, 250.020 61.204 C 254.521 58.005, 264.831 55.055, 271.642 55.017 C 274.172 55.003, 274.908 54.502, 275.426 52.438 C 275.914 50.493, 275.520 49.427, 273.785 48.009 C 270.764 45.541, 272.314 43.944, 278.397 43.259 C 280.911 42.975, 283.480 42.126, 284.106 41.372 C 284.733 40.617, 284.991 40, 284.681 40 C 284.372 40, 283.840 40.450, 283.500 41 M 277.189 44.687 C 273.548 45.181, 273.327 47.123, 276.815 47.972 C 278.863 48.471, 278.900 48.656, 277.491 51.364 C 276.671 52.940, 276 54.402, 276 54.614 C 276 54.826, 278.951 55, 282.557 55 C 291.213 55, 297.401 56.622, 303.506 60.490 C 309.803 64.481, 317.649 73.126, 318.503 77.015 C 319.394 81.071, 320.805 81.651, 321.609 78.291 C 322.622 74.056, 323.250 73.443, 324.132 75.829 C 324.664 77.267, 325.783 78, 327.445 78 C 329.734 78, 329.934 77.657, 329.727 74.102 C 329.602 71.958, 329.163 70.410, 328.750 70.661 C 328.004 71.116, 327.580 69.408, 327.965 67.500 C 328.076 66.950, 327.833 66.834, 327.425 67.241 C 326.587 68.080, 324 66.250, 324 64.819 C 324 64.303, 324.563 64.200, 325.250 64.588 C 326.171 65.108, 326.158 64.926, 325.200 63.897 C 324.485 63.129, 323.360 62.480, 322.700 62.455 C 322.040 62.430, 321.624 61.834, 321.775 61.130 C 321.926 60.427, 321.560 60.154, 320.962 60.524 C 319.570 61.384, 315.841 58.066, 316.678 56.712 C 317.051 56.108, 316.811 55.999, 316.091 56.443 C 314.767 57.262, 310.746 54.220, 311.513 52.979 C 311.769 52.565, 311.196 52.288, 310.239 52.363 C 309.283 52.438, 308.580 52.034, 308.679 51.464 C 308.777 50.895, 308.102 50.363, 307.179 50.283 C 306.255 50.204, 302.350 49.019, 298.500 47.652 C 291.239 45.072, 282.906 43.913, 277.189 44.687 M 286.083 50.416 C 286.402 50.735, 290.077 51.869, 294.250 52.936 C 304.547 55.570, 308.593 57.819, 314.757 64.336 C 317.641 67.386, 320 69.297, 320 68.585 C 320 66.503, 309.388 57.059, 304.735 55.001 C 302.388 53.963, 298.225 52.634, 295.484 52.049 C 292.743 51.464, 289.376 50.727, 288.002 50.411 C 286.628 50.096, 285.765 50.098, 286.083 50.416 M 266.736 56.940 C 254.221 58.675, 247.014 63.907, 243.376 73.901 C 240.076 82.965, 238.094 87, 236.941 87 C 236.148 87, 236.262 86.250, 237.295 84.672 C 238.134 83.392, 239.532 79.948, 240.402 77.019 C 241.271 74.090, 242.888 70.161, 243.993 68.287 C 245.099 66.413, 245.546 65.162, 244.987 65.508 C 243.494 66.431, 240.498 72.821, 239.047 78.180 C 238.350 80.754, 236.872 83.834, 235.763 85.024 C 233.279 87.690, 230.771 87.405, 219 83.121 C 212.281 80.675, 208.886 80.024, 202.799 80.013 C 190.637 79.992, 185.780 81.432, 180.257 86.697 C 175.924 90.826, 175.884 90.904, 179.802 87.571 C 185.575 82.660, 187.864 81.912, 199.082 81.273 C 208.226 80.753, 209.162 80.898, 219.546 84.446 C 226.601 86.857, 231.403 87.969, 233.204 87.609 C 234.866 87.277, 235.885 87.468, 235.741 88.085 C 235.608 88.653, 237.075 89.683, 239 90.374 C 243.720 92.069, 248.807 94.910, 247.210 94.960 C 246.501 94.982, 244.156 94.100, 242 93 C 239.844 91.900, 237.188 91, 236.099 91 C 235.009 91, 233.835 90.543, 233.490 89.984 C 233.144 89.425, 232.477 89.205, 232.006 89.496 C 231.536 89.787, 226.729 88.439, 221.325 86.502 C 209.201 82.155, 203.414 81.412, 194.016 82.997 C 187.195 84.148, 186.289 84.612, 180.601 89.873 C 171.735 98.073, 166.035 102.421, 161.500 104.445 C 159.300 105.427, 154.837 108.293, 151.583 110.813 C 146.186 114.992, 145.041 115.450, 138.583 116.015 L 131.500 116.634 135.350 118.372 C 137.467 119.328, 142.642 120.524, 146.850 121.030 C 154.839 121.990, 164.744 124.364, 165.853 125.584 C 166.209 125.975, 165.375 126.002, 164 125.643 C 162.625 125.284, 156.351 124.055, 150.058 122.911 C 130.893 119.426, 128.515 117.804, 124.931 105.769 C 123.486 100.916, 121.706 97.538, 119.070 94.649 C 116.989 92.367, 115.484 89.938, 115.726 89.250 C 115.968 88.563, 115.653 88, 115.024 88 C 114.396 88, 114.160 88.450, 114.500 89 C 115.299 90.292, 113.701 90.301, 112.411 89.011 C 111.867 88.467, 108.964 87.150, 105.961 86.084 C 102.957 85.018, 101.105 84.113, 101.845 84.073 C 103.203 83.999, 96.327 77.781, 92.800 75.893 C 81.556 69.875, 63.154 71.036, 57.421 78.124 C 55.855 80.061, 54.727 80.444, 51.316 80.196 C 46.205 79.824, 40.380 82.571, 36.500 87.182 C 33.855 90.325, 33.768 90.788, 34.241 99.089 C 34.922 111.042, 33.091 114, 25.009 114 C 22.474 114, 19.860 114.540, 19.200 115.200 C 17.083 117.317, 17.889 126.045, 20.908 133.695 C 22.469 137.652, 24.366 141.492, 25.123 142.228 C 30.181 147.144, 42.040 152.102, 48.218 151.884 C 51.656 151.762, 51.245 151.625, 42.237 149.875 C 38.908 149.228, 37.219 148.455, 37.641 147.772 C 38.031 147.140, 37.843 146.979, 37.189 147.383 C 34.057 149.319, 22.357 139.566, 23.333 135.834 C 23.597 134.824, 23.423 134.239, 22.945 134.534 C 21.594 135.369, 18.845 124.576, 19.191 119.790 L 19.500 115.500 25.233 114.989 C 29.406 114.618, 31.582 113.861, 33.233 112.205 C 35.329 110.103, 35.478 109.189, 35.206 100.094 C 34.929 90.806, 35.054 90.089, 37.453 87.239 C 40.612 83.484, 47.142 80.785, 52.186 81.149 C 55.239 81.370, 56.342 80.956, 57.639 79.105 C 61.898 73.025, 76.158 71.098, 87.472 75.075 C 93.504 77.195, 97.500 79.464, 97.500 80.769 C 97.500 81.171, 97.871 81.376, 98.324 81.225 C 98.778 81.074, 98.821 81.481, 98.420 82.130 C 97.963 82.869, 98.122 83.043, 98.845 82.595 C 99.535 82.170, 100 82.528, 100 83.484 C 100 84.726, 99.214 84.458, 96.500 82.293 C 94.575 80.757, 93 79.237, 93 78.917 C 93 78.596, 92.438 78.291, 91.750 78.240 C 91.063 78.189, 88.475 77.394, 86 76.474 C 80.012 74.247, 68.497 74.166, 64.338 76.322 C 59.234 78.967, 57.012 82.575, 56.910 88.385 C 56.816 93.721, 56.508 93.240, 54.585 84.750 C 54.090 82.565, 53.401 82.005, 51.231 82.022 C 47.215 82.054, 40.667 85.336, 38.095 88.606 C 36.005 91.264, 35.895 92.094, 36.528 100.531 C 37.191 109.376, 37.141 109.679, 34.515 112.800 C 32.093 115.678, 31.275 116, 26.380 116 C 22.214 116, 20.787 116.393, 20.295 117.673 C 19.646 119.366, 21.380 131.713, 22.412 132.746 C 22.720 133.053, 23.923 132.097, 25.085 130.620 C 29.148 125.454, 42.499 120.763, 44.397 123.833 C 44.680 124.292, 42.991 124.667, 40.642 124.667 C 33.492 124.667, 25 130.396, 25 135.220 C 25 141.065, 34.088 146.516, 48.527 149.332 C 58.746 151.325, 87.148 152.505, 92.500 151.159 C 94.700 150.606, 99.670 149.039, 103.545 147.678 C 112.773 144.437, 129.805 143.794, 141.017 146.265 C 146.744 147.527, 154.295 147.953, 172.735 148.053 C 196.555 148.183, 197.068 148.142, 205.219 145.463 C 209.773 143.966, 214.191 142.141, 215.037 141.408 C 215.882 140.676, 218.244 139.378, 220.287 138.525 C 224.455 136.783, 225.144 135.064, 221.750 134.873 C 220.512 134.803, 222.247 134.388, 225.604 133.950 C 228.961 133.512, 233.455 132.331, 235.591 131.325 C 239.203 129.624, 239.528 129.116, 240.260 124.025 C 241.361 116.376, 243.276 114.799, 242.399 122.263 C 242.028 125.419, 241.995 128, 242.325 128 C 242.656 128, 245.305 127.047, 248.213 125.882 C 256.343 122.625, 264.769 122.947, 273.668 126.853 C 277.610 128.584, 281.660 130.007, 282.668 130.015 C 284.105 130.027, 284.201 130.220, 283.116 130.907 C 281.556 131.895, 279.298 131.297, 270.050 127.445 C 261.059 123.701, 255.272 124.327, 241.770 130.508 C 236.122 133.094, 229.991 135.881, 228.146 136.701 C 223.185 138.907, 225.537 140.134, 232.533 138.989 C 241.389 137.539, 247.636 137.808, 256 140 C 265.461 142.480, 267.873 142.475, 276.503 139.964 C 280.351 138.844, 287.550 137.095, 292.500 136.077 C 311.303 132.210, 316.334 129.444, 321.298 120.244 C 324.837 113.684, 325.044 105.069, 321.941 93.500 C 320.760 89.100, 319.685 85.050, 319.551 84.500 C 319.178 82.968, 317.081 77.741, 315.931 75.475 C 315.366 74.362, 313.372 71.827, 311.500 69.843 C 309.628 67.860, 308.413 65.886, 308.799 65.458 C 309.184 65.030, 308.968 64.984, 308.318 65.356 C 307.658 65.735, 306.437 65.034, 305.549 63.767 C 304.676 62.520, 303.858 61.639, 303.731 61.809 C 303.604 61.979, 300.826 60.894, 297.558 59.398 C 292.635 57.144, 289.974 56.631, 282.058 56.409 C 276.801 56.261, 269.906 56.500, 266.736 56.940 M 332.218 72.250 C 331.654 72.938, 331.036 74.625, 330.846 76 C 330.464 78.757, 326.862 79.960, 324.602 78.085 C 323.612 77.263, 323.035 77.880, 322.101 80.758 C 321.106 83.827, 321.155 85.219, 322.374 88.500 C 323.191 90.700, 323.891 91.734, 323.930 90.797 C 323.968 89.860, 323.478 87.948, 322.839 86.547 C 322.008 84.723, 321.978 83.344, 322.732 81.688 C 323.609 79.763, 324.381 79.446, 327.348 79.792 C 330.591 80.171, 330.964 79.953, 331.515 77.354 C 331.848 75.784, 332.547 73.713, 333.069 72.750 C 334.171 70.716, 333.704 70.441, 332.218 72.250 M 105 84.709 C 105.825 85.012, 107.963 85.853, 109.750 86.579 C 111.537 87.304, 113 87.707, 113 87.475 C 113 86.626, 107.050 84.002, 105.300 84.079 C 103.905 84.140, 103.837 84.282, 105 84.709 M 99.798 102.765 C 99.394 117.173, 99.118 119.090, 96.522 125.500 C 93.241 133.604, 88.838 139.383, 81.936 144.647 C 75.982 149.187, 76.168 150.368, 82.180 146.192 C 90.739 140.247, 96.425 132.280, 99.445 122 C 101.402 115.341, 102.821 88.625, 101.268 87.666 C 100.585 87.243, 100.090 92.326, 99.798 102.765 M 119.621 92.952 C 123.377 97.465, 124.866 100.394, 126 105.500 C 126.611 108.250, 127.803 111.561, 128.649 112.858 C 130.067 115.031, 130.726 115.185, 137.075 114.826 C 140.864 114.612, 144.534 113.860, 145.232 113.155 C 146.262 112.115, 145.972 112.074, 143.685 112.937 C 142.137 113.522, 138.414 114, 135.413 114 C 129.270 114, 129.382 114.129, 126.497 103.650 C 125.368 99.552, 123.780 96.693, 121.193 94.103 C 119.162 92.069, 118.454 91.551, 119.621 92.952 M 43 92.500 C 41.625 93.286, 40.950 93.929, 41.500 93.929 C 42.050 93.929, 43.625 93.286, 45 92.500 C 46.375 91.714, 47.050 91.071, 46.500 91.071 C 45.950 91.071, 44.375 91.714, 43 92.500 M 64.500 94.769 C 60.650 96.697, 55.572 99.183, 53.216 100.294 C 48.068 102.721, 42.979 108.228, 43.056 111.285 C 43.099 112.943, 43.413 112.630, 44.306 110.044 C 45.016 107.989, 47.275 105.237, 49.878 103.255 C 54.657 99.618, 56.108 99.580, 53.602 103.158 C 51.458 106.219, 51.585 110.808, 53.920 114.637 L 55.833 117.773 52.193 120.137 C 48.345 122.635, 44.042 129.146, 44.020 132.500 C 43.997 136.097, 47.816 140.854, 53.209 143.947 C 56.119 145.616, 58.950 146.966, 59.500 146.946 C 60.050 146.927, 58.790 146.009, 56.701 144.907 C 52.036 142.445, 45 135.556, 45 133.450 C 45 130.948, 47.855 126.148, 50.038 124.979 C 51.148 124.386, 51.749 123.403, 51.373 122.795 C 50.968 122.139, 51.148 121.973, 51.817 122.387 C 52.437 122.770, 54.118 122.314, 55.552 121.374 C 58.023 119.755, 58.330 119.760, 61.331 121.473 C 64.097 123.052, 63.976 122.823, 60.380 119.674 C 58.113 117.690, 55.499 114.465, 54.570 112.507 C 51.487 106.009, 54.146 102.280, 65.975 96.512 C 70.389 94.360, 74 92.240, 74 91.800 C 74 90.434, 71.755 91.136, 64.500 94.769 M 170 95.992 C 167.525 98.155, 162.800 101.249, 159.500 102.867 C 156.200 104.486, 151.925 107.243, 150 108.995 L 146.500 112.181 150.662 109.076 C 152.951 107.369, 156.551 105.259, 158.662 104.387 C 160.773 103.516, 163.907 101.742, 165.627 100.445 C 167.346 99.148, 169.034 98.292, 169.377 98.543 C 169.719 98.794, 169.811 98.736, 169.581 98.414 C 169.350 98.092, 170.587 96.530, 172.331 94.943 C 177.093 90.609, 175.170 91.475, 170 95.992 M 324.529 94.500 C 324.903 95.600, 325.450 100.436, 325.743 105.247 C 326.253 113.594, 326.130 114.293, 323.068 120.513 C 321.143 124.423, 319.425 126.763, 318.775 126.361 C 318.179 125.993, 317.975 126.150, 318.322 126.712 C 319.865 129.209, 311.711 133.491, 300.661 135.988 C 296.172 137.002, 293.594 137.869, 294.932 137.916 C 299.960 138.090, 312.700 133.872, 316.429 130.798 C 324.685 123.993, 328.690 113.081, 326.944 102.152 C 326.374 98.579, 325.444 94.946, 324.878 94.078 C 324.043 92.798, 323.977 92.877, 324.529 94.500 M 257 94.474 C 257 94.735, 258.371 95.658, 260.048 96.525 C 262.644 97.867, 264.671 97.955, 273.734 97.115 C 282.011 96.348, 285.053 96.417, 287.437 97.427 C 292.635 99.628, 294.216 102.226, 294.142 108.444 C 294.105 111.500, 294.508 114, 295.038 114 C 296.528 114, 296.173 104.234, 294.569 101.133 C 293.782 99.611, 291.373 97.570, 289.216 96.597 C 285.789 95.052, 283.870 94.939, 274.007 95.698 C 265.369 96.363, 262.138 96.266, 260.245 95.283 C 257.556 93.888, 257 93.750, 257 94.474 M 193.609 99.534 C 192.876 100.266, 191.506 103.934, 190.565 107.683 C 189.623 111.432, 187.986 115.903, 186.926 117.618 C 185.867 119.333, 185.029 121.583, 185.063 122.618 C 185.113 124.102, 185.336 123.975, 186.116 122.021 C 186.660 120.657, 187.719 118.857, 188.468 118.021 C 189.218 117.184, 190.583 113.586, 191.502 110.023 C 194.157 99.729, 193.831 100, 203.535 100 C 208.191 100, 211.998 99.662, 211.995 99.250 C 211.986 97.837, 195.045 98.098, 193.609 99.534 M 48.345 110.543 C 48.019 111.392, 47.976 112.310, 48.249 112.583 C 48.523 112.856, 48.986 112.161, 49.279 111.040 C 49.903 108.657, 49.210 108.289, 48.345 110.543 M 115.448 124.605 C 123.129 131.964, 134.939 136.379, 141.737 134.432 C 144.001 133.783, 143.220 133.513, 137.406 132.936 C 128.719 132.074, 122.079 129.250, 116.374 123.991 C 110.354 118.441, 109.563 118.966, 115.448 124.605 M 65.750 123.662 C 66.438 123.940, 67.563 123.940, 68.250 123.662 C 68.938 123.385, 68.375 123.158, 67 123.158 C 65.625 123.158, 65.063 123.385, 65.750 123.662 M 57.762 127.535 C 58.070 129.149, 57.566 130.836, 56.373 132.177 C 54.515 134.266, 54.518 134.272, 56.750 132.901 C 58.340 131.924, 59 130.563, 59 128.259 C 59 126.467, 58.612 125, 58.139 125 C 57.665 125, 57.495 126.141, 57.762 127.535 M 195.217 136.226 C 190.111 137.349, 186.134 138.468, 186.380 138.713 C 186.911 139.244, 203.631 136.117, 206.500 134.949 L 208.500 134.135 206.500 134.160 C 205.400 134.174, 200.323 135.104, 195.217 136.226 M 285.500 139 L 283.500 139.859 285.500 139.830 C 286.600 139.814, 288.625 139.440, 290 139 L 292.500 138.199 290 138.170 C 288.625 138.154, 286.600 138.527, 285.500 139 M 217 142.170 C 205.981 148.503, 201.868 149.280, 175.500 150.013 L 151.500 150.680 176 150.489 C 202.986 150.279, 205.607 149.805, 217.557 142.967 C 221.921 140.470, 223.310 140.096, 224.948 140.972 C 226.311 141.702, 228.512 141.750, 231.733 141.120 L 236.500 140.188 231 140.303 C 227.975 140.366, 224.825 140.100, 224 139.713 C 223.098 139.289, 220.309 140.268, 217 142.170 M 240.250 139.716 C 241.762 139.945, 244.238 139.945, 245.750 139.716 C 247.262 139.487, 246.025 139.300, 243 139.300 C 239.975 139.300, 238.738 139.487, 240.250 139.716 M 250.500 141 C 251.600 141.473, 253.400 141.846, 254.500 141.830 C 256.108 141.806, 256.010 141.644, 254 141 C 250.581 139.905, 247.952 139.905, 250.500 141 M 273 142.578 C 268.325 143.891, 266.300 144.717, 268.500 144.414 C 273.123 143.776, 283 141.062, 283 140.429 C 283 139.810, 282.398 139.939, 273 142.578 M 257.114 142.383 C 258.228 143.613, 264 144.910, 264 143.930 C 264 143.419, 263.438 142.994, 262.750 142.986 C 262.063 142.979, 260.375 142.687, 259 142.339 C 257.625 141.990, 256.776 142.010, 257.114 142.383 M 116 147.004 C 110.478 147.477, 112.507 147.628, 123.690 147.574 C 132.044 147.533, 138.119 147.194, 137.190 146.820 C 135.208 146.023, 126.556 146.098, 116 147.004 M 99 150.647 C 92.634 153.145, 92.077 153.189, 72 152.793 C 60.725 152.571, 54.200 152.703, 57.500 153.086 C 60.800 153.469, 70.302 153.832, 78.617 153.891 C 94.136 154.003, 94.610 153.919, 106.500 148.968 C 111.598 146.845, 104.829 148.361, 99 150.647 M 142 148.966 C 144.478 149.793, 151.718 150.336, 150.917 149.635 C 150.688 149.435, 148.025 149.015, 145 148.702 C 141.449 148.334, 140.386 148.428, 142 148.966 M 73.500 150 C 73.160 150.550, 73.332 151, 73.882 151 C 74.432 151, 75.160 150.550, 75.500 150 C 75.840 149.450, 75.668 149, 75.118 149 C 74.568 149, 73.840 149.450, 73.500 150" stroke="none" fill="#c0d3df" fill-rule="evenodd"/></svg>