<svg xmlns="http://www.w3.org/2000/svg" width="512" height="512" viewBox="0 0 512 512" version="1.1"><path d="M 263.500 123.474 C 236.872 127.720, 219.929 136.658, 201.973 155.932 C 163.998 196.695, 138.976 241.067, 131.445 281 C 128.881 294.594, 129.098 314.843, 131.922 325.500 C 139.023 352.297, 159.239 372.825, 185.138 379.536 C 212.072 386.515, 245.343 380.769, 281.152 362.953 C 306.326 350.429, 325.933 336.802, 351.351 314.164 C 365.010 302, 371.878 293.790, 377.424 283 C 393.926 250.893, 393.986 208.836, 377.578 175.500 C 368.117 156.280, 355.679 143.848, 336.500 134.442 C 314.507 123.657, 287.654 119.622, 263.500 123.474 M 270.500 135.115 C 258.936 136.223, 245.698 139.997, 235.156 145.192 C 226.179 149.616, 215.121 159.189, 203.753 172.377 C 198.360 178.635, 197.883 179.560, 198.462 182.649 C 199.008 185.562, 198.565 186.713, 195.334 190.771 C 193.264 193.372, 191.421 195.708, 191.239 195.962 C 191.058 196.216, 190.036 195.879, 188.968 195.212 C 187.901 194.545, 186.818 194, 186.562 194 C 185.702 194, 173.333 212.415, 167.554 222.300 C 146.840 257.730, 137.955 294.002, 143.499 320.500 C 148.315 343.517, 166.315 362.070, 189.609 368.028 C 200.147 370.723, 217.294 370.696, 231.465 367.961 C 267.228 361.059, 307.889 337.851, 346.867 302.093 C 365.715 284.802, 374.325 267.396, 377.089 240.996 C 379.269 220.177, 375.485 199.684, 365.827 180 C 361.335 170.845, 359.511 168.341, 351.588 160.453 C 344.323 153.221, 340.695 150.484, 333.500 146.807 C 314.306 136.998, 292.699 132.988, 270.500 135.115 M 297.909 167.641 C 295.612 168.050, 294.677 169.713, 289.659 182.315 C 286.547 190.132, 284 196.966, 284 197.502 C 284 198.038, 290.798 205.285, 299.107 213.607 L 314.214 228.738 330.357 222.285 C 339.236 218.736, 346.927 215.420, 347.450 214.916 C 348.902 213.516, 346.542 195.408, 344.046 188.798 C 341.041 180.842, 334.582 173.984, 326.800 170.487 C 321.434 168.076, 319.017 167.621, 310.500 167.418 C 305 167.287, 299.334 167.387, 297.909 167.641 M 265.500 169.626 C 264.400 169.842, 261.025 170.501, 258 171.089 C 249.305 172.780, 235.351 180.035, 228.523 186.415 L 222.546 191.999 230.421 199.920 L 238.295 207.841 246.397 204.877 C 250.854 203.247, 258.325 200.512, 263 198.799 C 267.675 197.086, 271.998 195.193, 272.608 194.592 C 273.563 193.650, 283 170.860, 283 169.495 C 283 168.926, 268.503 169.034, 265.500 169.626 M 207.750 205.732 C 190.038 221.046, 180.985 239.390, 181.011 259.910 C 181.024 269.877, 181.861 276, 183.210 276 C 183.732 276, 191.773 271.439, 201.079 265.865 L 218 255.730 223.030 239.906 C 225.796 231.202, 228.680 222.324, 229.438 220.177 L 230.815 216.272 222.618 208.118 L 214.421 199.963 207.750 205.732 M 257.403 212.185 L 241.306 218.154 235.143 237.327 C 231.753 247.872, 228.984 256.957, 228.990 257.515 C 229.006 259.120, 253.365 283, 254.986 283 C 255.788 283, 264.882 280.200, 275.196 276.778 L 293.949 270.556 298.349 258.528 C 300.769 251.913, 303.586 244.137, 304.610 241.248 L 306.471 235.996 291.498 220.998 C 283.263 212.749, 275.844 206.049, 275.013 206.108 C 274.181 206.168, 266.256 208.903, 257.403 212.185 M 331.640 233.335 L 316.780 239.500 310.516 256.500 L 304.252 273.500 312.798 282.193 C 319.713 289.226, 321.675 290.709, 323.074 289.960 C 324.025 289.451, 327.755 286.039, 331.363 282.378 C 339.004 274.623, 345.199 263.577, 347.521 253.567 C 349.225 246.218, 349.211 227.837, 347.500 227.417 C 346.950 227.281, 339.813 229.945, 331.640 233.335 M 202.714 277.427 C 192.382 283.648, 183.718 288.949, 183.460 289.206 C 183.203 289.464, 182.561 293.074, 182.034 297.229 C 181 305.390, 182.052 315.266, 184.450 319.904 C 186.464 323.799, 191.026 328.075, 195 329.794 C 199.306 331.656, 211.611 331.815, 218.500 330.098 L 223.500 328.852 234.793 309.724 L 246.086 290.596 233.793 278.356 L 221.500 266.116 202.714 277.427 M 276 287.639 L 256.500 294.070 246.285 311.285 L 236.070 328.500 246.785 328.788 C 270.331 329.421, 291.601 321.184, 308.266 304.978 L 314.436 298.978 305.489 289.989 C 300.568 285.045, 296.307 281.047, 296.021 281.104 C 295.734 281.161, 286.725 284.102, 276 287.639" stroke="none" fill="#ef8039" fill-rule="evenodd"/><path d="M 280.250 134.689 C 281.212 134.941, 282.788 134.941, 283.750 134.689 C 284.712 134.438, 283.925 134.232, 282 134.232 C 280.075 134.232, 279.288 134.438, 280.250 134.689 M 260.965 146.942 C 243.134 150.705, 230.717 157.974, 217.782 172.221 L 210.127 180.653 224.309 194.577 C 232.108 202.234, 234.903 204.787, 230.518 200.250 L 222.546 191.999 228.523 186.415 C 235.143 180.229, 248.784 173.057, 258 170.914 C 261.025 170.211, 268 169.605, 273.500 169.568 L 283.500 169.500 287.740 159.069 C 290.072 153.331, 292.240 147.819, 292.558 146.819 C 293.094 145.128, 292.303 145.005, 281.317 145.070 C 274.025 145.114, 266.232 145.830, 260.965 146.942 M 301.246 152.250 C 300.128 155.137, 298.317 159.750, 297.220 162.500 L 295.226 167.500 307.863 167.500 C 319.706 167.500, 320.896 167.683, 326.800 170.409 C 334.569 173.996, 341.079 180.924, 343.988 188.696 C 346.307 194.896, 348.443 208.526, 347.792 212.967 L 347.372 215.824 352.436 213.800 C 355.221 212.687, 359.075 211.219, 361 210.539 C 362.925 209.858, 364.639 208.592, 364.809 207.724 C 365.360 204.913, 359.009 187.689, 354.770 180.500 C 349.506 171.573, 340.427 162.494, 331.500 157.230 C 325.081 153.445, 308.223 147, 304.741 147 C 303.900 147, 302.413 149.233, 301.246 152.250 M 199 185.082 C 199 186.290, 192.006 195.284, 190.601 195.883 C 190.106 196.094, 190.768 197.071, 192.073 198.055 L 194.444 199.843 188.371 208.672 C 174.626 228.651, 165.431 246.555, 158.929 266 C 155.558 276.081, 151.561 293.895, 152.467 294.801 C 152.644 294.977, 159.800 290.952, 168.369 285.855 C 177.441 280.458, 183.471 276.291, 182.803 275.878 C 180.759 274.615, 180.518 254.263, 182.445 245.603 C 185.658 231.160, 194.624 217.019, 207.726 205.732 L 214.421 199.963 222.961 208.227 C 227.657 212.771, 224.305 209.180, 215.512 200.245 C 206.718 191.310, 199.406 184, 199.262 184 C 199.118 184, 199 184.487, 199 185.082 M 283 197.607 C 283 198.124, 286.712 202.136, 291.250 206.523 L 299.500 214.500 291.500 206.029 C 287.100 201.370, 283.387 197.358, 283.250 197.113 C 283.113 196.867, 283 197.090, 283 197.607 M 357.500 222.772 L 348.500 226.317 348.832 236.409 C 349.514 257.135, 341.862 274.300, 326.082 287.443 L 321.663 291.123 312.582 282.315 C 307.587 277.471, 309.765 279.889, 317.422 287.689 L 331.345 301.871 338.818 295.186 C 357.927 278.092, 365.614 261.511, 366.723 235 C 367.010 228.125, 367.078 221.764, 366.873 220.864 C 366.550 219.449, 365.282 219.707, 357.500 222.772 M 377.336 230 C 377.336 234.125, 377.513 235.813, 377.728 233.750 C 377.944 231.688, 377.944 228.313, 377.728 226.250 C 377.513 224.188, 377.336 225.875, 377.336 230 M 233.500 278 C 240.083 284.600, 245.694 290, 245.969 290 C 246.244 290, 241.083 284.600, 234.500 278 C 227.917 271.400, 222.306 266, 222.031 266 C 221.756 266, 226.917 271.400, 233.500 278 M 167.500 298.077 C 159.250 302.952, 152.367 307.561, 152.205 308.321 C 151.551 311.388, 155.183 324.927, 158.423 331.500 C 165.489 345.835, 180.549 356.557, 197.269 359.157 C 201.509 359.816, 205.117 360.163, 205.287 359.928 C 207.516 356.846, 223.078 329.744, 222.786 329.452 C 222.567 329.233, 220.613 329.552, 218.444 330.161 C 212.569 331.808, 199.141 331.603, 195 329.802 C 191.022 328.072, 186.461 323.793, 184.450 319.904 C 182.051 315.264, 181 305.390, 182.035 297.223 C 182.562 293.063, 182.883 289.560, 182.747 289.437 C 182.611 289.314, 175.750 293.202, 167.500 298.077 M 352.462 296.250 L 347.500 301.500 352.750 296.538 C 355.637 293.808, 358 291.446, 358 291.288 C 358 290.541, 357.074 291.372, 352.462 296.250 M 307.745 305.186 C 292.453 320.760, 271.361 329, 246.789 329 L 235.495 329 226.709 343.634 C 221.877 351.683, 218.053 358.584, 218.211 358.969 C 218.370 359.355, 222.100 359.070, 226.500 358.336 C 251.735 354.130, 285.155 337.958, 314.016 315.988 C 318.342 312.695, 322.186 309.508, 322.558 308.907 C 323.186 307.891, 315.242 298.802, 314.042 299.163 C 313.744 299.252, 310.910 301.963, 307.745 305.186 M 353.437 312.250 L 350.500 315.500 353.750 312.563 C 356.779 309.825, 357.460 309, 356.687 309 C 356.515 309, 355.052 310.462, 353.437 312.250 M 150.500 360 C 152.648 362.200, 154.631 364, 154.906 364 C 155.181 364, 153.648 362.200, 151.500 360 C 149.352 357.800, 147.369 356, 147.094 356 C 146.819 356, 148.352 357.800, 150.500 360 M 200.250 382.689 C 201.213 382.941, 202.787 382.941, 203.750 382.689 C 204.713 382.438, 203.925 382.232, 202 382.232 C 200.075 382.232, 199.287 382.438, 200.250 382.689" stroke="none" fill="#e36415" fill-rule="evenodd"/><path d="M 142.500 10.602 C 132.247 11.387, 108.041 14.162, 105.484 14.846 L 102.834 15.555 107.290 21.527 C 113.695 30.112, 126.094 41.025, 129.400 40.988 C 130.005 40.981, 132.515 37.156, 134.978 32.488 C 137.440 27.819, 139.821 24, 140.267 24 C 140.714 24, 142.885 24.921, 145.092 26.047 L 149.105 28.094 147.190 31.297 C 143.388 37.657, 139.685 45.019, 140.088 45.416 C 140.753 46.072, 155.690 49, 158.370 49 C 160.343 49, 162.344 46.892, 168.574 38.250 C 172.836 32.337, 176.683 27.090, 177.124 26.588 C 178.235 25.322, 186.153 30.940, 185.278 32.374 C 184.901 32.993, 181.984 37.067, 178.796 41.427 C 175.608 45.787, 173 49.725, 173 50.177 C 173 50.630, 174.688 51.008, 176.750 51.017 C 182.463 51.044, 193.281 53.593, 198.088 56.045 L 202.388 58.238 206.377 53.869 C 208.571 51.466, 212.330 47.360, 214.729 44.744 L 219.092 39.988 222.546 42.744 C 224.446 44.260, 226 45.891, 226 46.369 C 226 46.846, 222.377 51.205, 217.949 56.056 L 209.899 64.874 213.915 70.758 C 221.634 82.066, 229.453 100.647, 232.052 113.858 C 232.716 117.236, 233.474 120, 233.735 120 C 233.997 120, 237.876 118.890, 242.355 117.533 C 248.584 115.646, 265.899 112, 268.631 112 C 269.572 112, 268.840 96.572, 267.515 88.500 C 263.644 64.910, 255.253 46.589, 241.867 32.496 C 231.473 21.555, 219.941 16.222, 198.500 12.443 C 189.783 10.907, 153.925 9.728, 142.500 10.602 M 388.510 70.110 C 372.924 73.285, 358.232 86.573, 348.276 106.500 C 344.579 113.900, 341.650 122.647, 342.302 124.344 C 342.569 125.042, 345.785 127.365, 349.446 129.506 C 363.173 137.534, 378.214 153.154, 384.320 165.722 C 386.680 170.579, 387.483 170.758, 395.116 168.132 C 413.437 161.829, 431.708 147.556, 437.923 134.692 C 447.375 115.130, 441.972 87.801, 426.596 77.398 C 417.043 70.935, 400.244 67.720, 388.510 70.110 M 385.500 81.667 C 381.650 83.630, 378.356 85.364, 378.180 85.521 C 377.604 86.035, 382.019 94, 382.879 94 C 383.341 94, 387.147 92.416, 391.337 90.480 L 398.955 86.960 396.778 82.480 C 395.581 80.016, 394.129 78.022, 393.551 78.049 C 392.973 78.076, 389.350 79.704, 385.500 81.667 M 421.558 121.140 C 419.530 125.575, 418.013 129.328, 418.186 129.479 C 418.358 129.630, 420.433 130.729, 422.795 131.920 L 427.090 134.087 430.932 125.793 C 435.113 116.768, 435.210 117.239, 428.613 114.483 L 425.244 113.075 421.558 121.140 M 94 226.487 C 85.619 228.369, 77.147 231.432, 69 235.526 C 55.093 242.516, 34.351 257.535, 19.013 271.723 C 11.565 278.613, 11.610 279.016, 20.319 283.280 C 29.619 287.833, 41.823 288.592, 54.516 285.407 C 56.929 284.801, 57.991 280.453, 58.009 271.110 C 58.013 268.575, 58.301 264.137, 58.648 261.250 L 59.279 256 63.671 256 C 66.264 256, 68.257 256.512, 68.538 257.250 C 68.799 257.938, 68.662 263.571, 68.234 269.770 C 67.709 277.346, 67.789 280.923, 68.477 280.685 C 69.040 280.489, 74.787 278.387, 81.250 276.013 L 93 271.696 93 263.487 C 93 258.973, 93.286 253.191, 93.636 250.640 L 94.272 246 99.208 246 L 104.144 246 103.429 257.613 L 102.714 269.227 107.607 268.579 C 110.649 268.176, 114.487 268.456, 117.751 269.319 L 123.002 270.707 124.056 266.604 C 125.771 259.925, 129.131 249.970, 132.117 242.723 L 134.909 235.946 130.849 233.006 C 121.533 226.257, 106.707 223.635, 94 226.487 M 399.600 245.250 C 399.360 246.488, 398.445 251.435, 397.568 256.245 C 396.692 261.055, 394.471 269.197, 392.633 274.339 L 389.292 283.687 395.874 285.261 C 403.076 286.985, 404 286.834, 404 283.941 C 404 281.393, 405.446 281.488, 414.190 284.609 C 423.579 287.961, 436.165 294.247, 442.356 298.675 C 447.926 302.659, 445.993 303.444, 458.287 292.205 C 462.019 288.792, 465.484 286, 465.986 286 C 466.488 286, 468.140 287.628, 469.658 289.619 L 472.418 293.237 468.959 296.295 C 454.659 308.935, 453.710 309.946, 454.862 311.334 C 456.770 313.632, 459.793 323.466, 460.500 329.667 C 461.658 339.840, 461.232 339.649, 469.586 333.755 C 473.683 330.865, 477.897 327.902, 478.951 327.172 C 480.683 325.972, 481.134 326.245, 483.618 329.999 C 485.313 332.560, 485.976 334.413, 485.346 334.827 C 478.327 339.448, 463.691 350.642, 463.285 351.701 C 462.598 353.490, 465.633 370.033, 466.877 371.277 C 467.482 371.882, 470.780 370.659, 475.898 367.932 C 480.336 365.567, 484.142 363.828, 484.358 364.066 C 484.573 364.305, 485.656 366.291, 486.765 368.481 L 488.780 372.462 479.859 377.289 L 470.937 382.116 473.118 385.996 C 478.299 395.215, 495.434 410.817, 497.067 407.802 C 498.588 404.994, 501.200 376.457, 501.723 356.918 C 502.784 317.381, 497.560 291.102, 485.622 275.917 C 477.065 265.032, 456.889 252.691, 440 248.010 C 430.105 245.267, 415.136 243.013, 406.769 243.006 C 400.583 243, 400.003 243.182, 399.600 245.250 M 264 381.670 C 257.675 384.038, 249.981 386.667, 246.903 387.514 L 241.307 389.053 242.688 394.276 C 243.546 397.524, 243.823 401.357, 243.419 404.409 L 242.769 409.318 254.384 408.655 L 266 407.991 266 412.871 C 266 417.536, 265.863 417.777, 262.875 418.375 C 261.156 418.719, 255.387 419, 250.055 419 L 240.360 419 235.604 431.590 C 232.988 438.515, 230.994 444.289, 231.174 444.421 C 231.353 444.553, 236.450 444.294, 242.500 443.844 C 248.550 443.394, 254.063 443.231, 254.750 443.482 C 255.494 443.753, 256 445.733, 256 448.370 L 256 452.804 250.250 453.367 C 247.088 453.676, 240.602 454.207, 235.838 454.547 C 225.972 455.251, 226.802 454.297, 224.999 467.006 C 223.746 475.844, 224.996 484.076, 228.760 491.763 C 232.984 500.389, 233.409 500.434, 240.240 492.990 C 273.279 456.989, 290.035 422.602, 286.112 398.850 C 284.906 391.544, 280.542 381.615, 277.359 378.933 C 275.647 377.490, 274.591 377.707, 264 381.670" stroke="none" fill="#b3d34c" fill-rule="evenodd"/><path d="M 127.202 1.495 C 119.889 2.248, 108.949 3.628, 102.891 4.561 C 93.491 6.009, 91.655 6.597, 90.356 8.580 C 89.449 9.963, 89.106 11.758, 89.506 13.018 C 91.032 17.828, 102.482 33.259, 109.006 39.299 C 122.775 52.047, 138.271 57.677, 167.142 60.422 C 187.903 62.395, 192.825 63.821, 199.082 69.674 C 205.174 75.372, 209.215 81.654, 214.149 93.101 C 217.848 101.680, 223 119.120, 223 123.061 C 223 124.254, 220.447 126.537, 215.750 129.543 C 196.917 141.597, 160.959 185.384, 144.097 216.797 C 141.675 221.309, 139.304 225, 138.827 225 C 138.350 225, 136.282 223.945, 134.230 222.656 C 121.927 214.926, 104.730 212.981, 87.663 217.389 C 64.405 223.395, 36.358 240.953, 9.250 266.478 C -1.470 276.572, -2.230 278.788, 3.250 283.976 C 15.406 295.485, 32.110 300.003, 50.023 296.627 C 58.280 295.071, 65.912 292.660, 89.969 284.008 C 102.626 279.456, 112.197 278.010, 116.866 279.945 L 119.824 281.170 119.283 296.335 C 118.660 313.799, 119.707 322.347, 124.061 335.342 C 128.081 347.340, 133.801 356.767, 142.735 366.118 C 155.345 379.317, 170.037 387.294, 188.995 391.236 C 196.983 392.897, 201.081 393.133, 214.672 392.712 L 230.845 392.211 232.063 395.151 C 234.225 400.371, 232.544 409.597, 226.413 426.159 C 218.617 447.221, 216.052 456.020, 214.728 466.255 C 212.713 481.824, 216.876 496.084, 226.592 506.891 C 233.510 514.586, 234.735 514.264, 246.402 501.682 C 264.906 481.728, 277.472 464.149, 286.565 445.500 C 294.307 429.622, 296.436 421.241, 296.471 406.500 C 296.503 393.068, 294.561 385.371, 289.041 377.051 L 286.088 372.602 295.209 367.784 C 315.574 357.027, 339.017 339.948, 361.034 319.827 C 373.588 308.355, 382.027 298.047, 386.952 288.171 C 391.199 279.656, 396.632 263.086, 397.994 254.500 C 399.992 241.898, 399.151 242.999, 406.769 243.006 C 415.136 243.013, 430.105 245.267, 440 248.010 C 456.889 252.691, 477.065 265.032, 485.622 275.917 C 497.560 291.102, 502.784 317.381, 501.723 356.918 C 501.200 376.457, 498.588 404.994, 497.067 407.802 C 495.434 410.817, 478.299 395.215, 473.118 385.996 L 470.937 382.116 479.859 377.289 L 488.780 372.462 486.765 368.481 C 485.656 366.291, 484.573 364.305, 484.358 364.066 C 484.142 363.828, 480.336 365.567, 475.898 367.932 C 470.780 370.659, 467.482 371.882, 466.877 371.277 C 465.633 370.033, 462.598 353.490, 463.285 351.701 C 463.691 350.642, 478.327 339.448, 485.346 334.827 C 485.976 334.413, 485.313 332.560, 483.618 329.999 C 481.134 326.245, 480.683 325.972, 478.951 327.172 C 477.897 327.902, 473.683 330.865, 469.586 333.755 C 461.232 339.649, 461.658 339.840, 460.500 329.667 C 459.793 323.466, 456.770 313.632, 454.862 311.334 C 453.710 309.946, 454.659 308.935, 468.959 296.295 L 472.418 293.237 469.658 289.619 C 468.140 287.628, 466.488 286, 465.986 286 C 465.484 286, 462.019 288.792, 458.287 292.205 C 445.993 303.444, 447.926 302.659, 442.356 298.675 C 434.017 292.710, 410.448 282, 405.659 282 C 404.543 282, 401.262 290.709, 402.127 291.374 C 402.332 291.531, 406.100 292.915, 410.500 294.448 C 421.061 298.128, 430.098 302.749, 437.721 308.368 C 446.402 314.767, 448.735 319.668, 450.569 335.366 C 451.348 342.040, 452.459 351.550, 453.038 356.500 C 454.486 368.899, 456.472 376.134, 460.996 385.500 C 467.689 399.356, 477.901 410.006, 493.372 419.262 C 499.871 423.150, 500.387 423.293, 502.872 421.906 C 505.211 420.600, 505.686 419.345, 507.196 410.470 C 511.849 383.111, 513.433 339.559, 510.560 317.978 C 505.465 279.711, 492.597 260.685, 461.469 245.393 C 447.827 238.690, 431.592 234.399, 414.075 232.864 C 407.159 232.257, 401.413 231.691, 401.308 231.605 C 401.202 231.519, 400.619 225.692, 400.013 218.656 C 399.085 207.869, 395.070 188.121, 392.532 181.853 C 392.002 180.545, 392.961 179.851, 397.182 178.487 C 417.856 171.804, 439.250 155.090, 446.823 139.708 C 457.337 118.351, 453.611 88.935, 438.480 73.838 C 429.415 64.794, 413.957 59, 398.889 59 C 388.601 59, 382.087 60.444, 373 64.738 C 358.203 71.732, 341.878 91.620, 334.882 111.177 C 333.147 116.030, 331.633 120, 331.520 120 C 331.406 120, 328.715 119.106, 325.539 118.013 C 317.567 115.271, 301.392 112.308, 289.835 111.473 L 280.170 110.775 279.488 101.137 C 277.650 75.165, 270.657 53.975, 257.744 35.244 C 245.102 16.906, 228.997 7.606, 201 2.474 C 188.196 0.127, 145.915 -0.434, 127.202 1.495 M 142.500 10.602 C 132.247 11.387, 108.041 14.162, 105.484 14.846 L 102.834 15.555 107.290 21.527 C 113.695 30.112, 126.094 41.025, 129.400 40.988 C 130.005 40.981, 132.515 37.156, 134.978 32.488 C 137.440 27.819, 139.821 24, 140.267 24 C 140.714 24, 142.885 24.921, 145.092 26.047 L 149.105 28.094 147.190 31.297 C 143.388 37.657, 139.685 45.019, 140.088 45.416 C 140.753 46.072, 155.690 49, 158.370 49 C 160.343 49, 162.344 46.892, 168.574 38.250 C 172.836 32.337, 176.683 27.090, 177.124 26.588 C 178.235 25.322, 186.153 30.940, 185.278 32.374 C 184.901 32.993, 181.984 37.067, 178.796 41.427 C 175.608 45.787, 173 49.725, 173 50.177 C 173 50.630, 174.688 51.008, 176.750 51.017 C 182.463 51.044, 193.281 53.593, 198.088 56.045 L 202.388 58.238 206.377 53.869 C 208.571 51.466, 212.330 47.360, 214.729 44.744 L 219.092 39.988 222.546 42.744 C 224.446 44.260, 226 45.891, 226 46.369 C 226 46.846, 222.377 51.205, 217.949 56.056 L 209.899 64.874 213.915 70.758 C 221.634 82.066, 229.453 100.647, 232.052 113.858 C 232.716 117.236, 233.474 120, 233.735 120 C 233.997 120, 237.876 118.890, 242.355 117.533 C 248.584 115.646, 265.899 112, 268.631 112 C 269.572 112, 268.840 96.572, 267.515 88.500 C 263.644 64.910, 255.253 46.589, 241.867 32.496 C 231.473 21.555, 219.941 16.222, 198.500 12.443 C 189.783 10.907, 153.925 9.728, 142.500 10.602 M 388.510 70.110 C 372.924 73.285, 358.232 86.573, 348.276 106.500 C 344.579 113.900, 341.650 122.647, 342.302 124.344 C 342.569 125.042, 345.785 127.365, 349.446 129.506 C 363.173 137.534, 378.214 153.154, 384.320 165.722 C 386.680 170.579, 387.483 170.758, 395.116 168.132 C 413.437 161.829, 431.708 147.556, 437.923 134.692 C 447.375 115.130, 441.972 87.801, 426.596 77.398 C 417.043 70.935, 400.244 67.720, 388.510 70.110 M 385.851 81.621 L 378.202 85.238 379.694 88.869 C 380.514 90.866, 381.594 92.928, 382.093 93.450 C 382.659 94.043, 385.977 92.949, 390.911 90.543 L 398.822 86.686 396.712 82.343 C 395.551 79.954, 394.354 78.001, 394.051 78.001 C 393.748 78.002, 390.058 79.631, 385.851 81.621 M 421.522 121.659 C 419.576 125.871, 418.100 129.415, 418.242 129.536 C 418.384 129.656, 420.398 130.711, 422.718 131.881 L 426.936 134.008 430.468 126.363 C 432.411 122.158, 434 118.338, 434 117.873 C 434 117.053, 427.621 114, 425.908 114 C 425.442 114, 423.468 117.446, 421.522 121.659 M 261 123.417 C 249.226 125.509, 239.669 128.713, 228.666 134.255 C 219.295 138.975, 217.443 140.436, 204.980 152.938 C 166.945 191.092, 140.542 236.306, 131.366 279 C 128.676 291.517, 128.903 315.659, 131.811 326.296 C 139.143 353.119, 158.854 372.821, 185.751 380.212 C 196.872 383.267, 220.343 383.246, 234.417 380.166 C 263.423 373.820, 296.549 357.728, 325.872 335.736 C 337.475 327.035, 356.381 310.531, 364.169 302.306 C 379.928 285.662, 388.610 262.949, 389.706 235.500 C 392.020 177.544, 363.197 136.985, 311.064 124.836 C 299.958 122.248, 272.033 121.456, 261 123.417 M 262.334 136.481 C 247.277 139.213, 233.329 145.198, 222.871 153.416 C 215.899 158.895, 198 178.572, 198 180.758 C 198 181.643, 205.463 189.876, 214.584 199.055 L 231.168 215.743 224.995 235.122 C 221.600 245.780, 218.074 255.231, 217.161 256.125 C 215.145 258.097, 152.964 295.297, 152.485 294.818 C 151.564 293.897, 155.527 276.173, 158.929 266 C 165.431 246.555, 174.626 228.651, 188.371 208.672 L 194.444 199.843 191.972 197.893 C 186.478 193.559, 186.702 193.465, 180.309 202.790 C 161.866 229.688, 149.539 256.474, 144.314 281 C 141.866 292.493, 141.896 313.917, 144.374 322.915 C 150.587 345.478, 166.585 361.516, 189.072 367.725 C 199.323 370.556, 221.330 370.103, 235.500 366.771 C 250.289 363.293, 261.929 358.939, 277.500 351.060 C 309.258 334.990, 350.658 302.195, 363.055 283.287 C 373.159 267.876, 377.529 249.380, 376.707 225.500 C 375.746 197.587, 367.668 176.706, 351.529 160.416 C 335.338 144.073, 309.726 134.867, 281.074 135.090 C 274.708 135.140, 266.275 135.766, 262.334 136.481 M 260.965 146.942 C 243.134 150.705, 230.717 157.974, 217.782 172.221 L 210.127 180.653 223.991 194.491 L 237.855 208.329 255.535 201.891 L 273.214 195.454 282.617 171.977 C 287.789 159.065, 292.271 147.713, 292.578 146.750 C 293.088 145.148, 292.135 145.006, 281.317 145.070 C 274.025 145.114, 266.232 145.830, 260.965 146.942 M 293.532 171.750 C 288.150 185.363, 283.559 196.991, 283.328 197.591 C 283.097 198.190, 290.055 205.485, 298.791 213.801 L 314.673 228.921 339.587 218.992 C 354.512 213.043, 364.624 208.478, 364.809 207.605 C 365.376 204.934, 358.953 187.594, 354.770 180.500 C 349.506 171.573, 340.427 162.494, 331.500 157.230 C 325.098 153.455, 308.226 147, 304.760 147 C 303.803 147, 300.013 155.354, 293.532 171.750 M 258.500 211.515 L 241.500 217.749 239.358 223.655 C 238.180 226.904, 235.202 235.914, 232.741 243.677 L 228.266 257.793 241.383 270.874 L 254.500 283.956 274.454 277.228 L 294.408 270.500 297.295 262.500 C 298.883 258.100, 301.673 250.402, 303.496 245.393 L 306.810 236.287 291.155 220.784 L 275.500 205.281 258.500 211.515 M 341.500 229.137 L 316.500 239.032 310.158 256.670 L 303.816 274.307 317.736 288.227 L 331.656 302.148 342.626 291.324 C 351.999 282.076, 354.205 279.262, 357.777 272 C 363.670 260.020, 366.096 249.985, 366.723 235 C 367.010 228.125, 367.078 221.767, 366.873 220.872 C 366.564 219.523, 362.205 220.943, 341.500 229.137 M 94 226.487 C 85.619 228.369, 77.147 231.432, 69 235.526 C 55.093 242.516, 34.351 257.535, 19.013 271.723 C 11.565 278.613, 11.610 279.016, 20.319 283.280 C 29.619 287.833, 41.823 288.592, 54.516 285.407 C 56.929 284.801, 57.991 280.453, 58.009 271.110 C 58.013 268.575, 58.301 264.137, 58.648 261.250 L 59.279 256 63.671 256 C 66.264 256, 68.257 256.512, 68.538 257.250 C 68.799 257.938, 68.662 263.571, 68.234 269.770 C 67.709 277.346, 67.789 280.923, 68.477 280.685 C 69.040 280.489, 74.787 278.387, 81.250 276.013 L 93 271.696 93 263.487 C 93 258.973, 93.286 253.191, 93.636 250.640 L 94.272 246 99.208 246 L 104.144 246 103.429 257.613 L 102.714 269.227 107.607 268.579 C 110.649 268.176, 114.487 268.456, 117.751 269.319 L 123.002 270.707 124.056 266.604 C 125.771 259.925, 129.131 249.970, 132.117 242.723 L 134.909 235.946 130.849 233.006 C 121.533 226.257, 106.707 223.635, 94 226.487 M 186.500 286.617 C 167.800 297.850, 152.367 307.640, 152.205 308.371 C 151.543 311.363, 155.196 324.955, 158.423 331.500 C 165.489 345.835, 180.549 356.557, 197.269 359.157 C 201.509 359.816, 205.123 360.163, 205.301 359.928 C 206.507 358.328, 245.174 292.710, 245.666 291.427 C 246.106 290.283, 242.843 286.364, 234.408 277.908 C 227.876 271.358, 222.074 266.043, 221.516 266.096 C 220.957 266.149, 205.200 275.383, 186.500 286.617 M 275.500 287.439 L 256.500 293.668 237.219 325.992 C 226.615 343.770, 218.065 358.620, 218.219 358.993 C 218.374 359.365, 222.100 359.070, 226.500 358.336 C 251.735 354.130, 285.155 337.958, 314.016 315.988 C 318.342 312.695, 322.191 309.501, 322.568 308.890 C 323.306 307.696, 297.242 280.926, 295.514 281.105 C 294.956 281.162, 285.950 284.013, 275.500 287.439 M 264 381.670 C 257.675 384.038, 249.981 386.667, 246.903 387.514 L 241.307 389.053 242.688 394.276 C 243.546 397.524, 243.823 401.357, 243.419 404.409 L 242.769 409.318 254.384 408.655 L 266 407.991 266 412.871 C 266 417.536, 265.863 417.777, 262.875 418.375 C 261.156 418.719, 255.387 419, 250.055 419 L 240.360 419 235.604 431.590 C 232.988 438.515, 230.994 444.289, 231.174 444.421 C 231.353 444.553, 236.450 444.294, 242.500 443.844 C 248.550 443.394, 254.063 443.231, 254.750 443.482 C 255.494 443.753, 256 445.733, 256 448.370 L 256 452.804 250.250 453.367 C 247.088 453.676, 240.602 454.207, 235.838 454.547 C 225.972 455.251, 226.802 454.297, 224.999 467.006 C 223.746 475.844, 224.996 484.076, 228.760 491.763 C 232.984 500.389, 233.409 500.434, 240.240 492.990 C 273.279 456.989, 290.035 422.602, 286.112 398.850 C 284.906 391.544, 280.542 381.615, 277.359 378.933 C 275.647 377.490, 274.591 377.707, 264 381.670" stroke="none" fill="#263563" fill-rule="evenodd"/></svg>