<svg xmlns="http://www.w3.org/2000/svg" width="500" height="500" viewBox="0 0 500 500" version="1.1"><path d="M 189 29.098 C 137.128 31.972, 96.239 38.947, 88.250 46.282 C 86.569 47.826, 86.029 49.380, 86.116 52.424 C 86.180 54.666, 86.432 55.744, 86.676 54.819 C 87.084 53.273, 87.377 53.290, 90.331 55.033 C 108.931 66.007, 173.515 72.472, 258.140 71.831 L 301.780 71.500 302.979 74.816 C 303.638 76.640, 305.375 79.567, 306.839 81.319 C 308.302 83.072, 309.950 85.269, 310.500 86.202 C 311.050 87.134, 312.797 89.718, 314.382 91.943 L 317.264 95.988 313.382 99.513 C 291.757 119.145, 290 120.926, 290 123.210 C 290 124.806, 294.377 128.343, 300.631 131.801 C 301.925 132.516, 303.467 134.004, 304.057 135.107 C 304.648 136.210, 305.904 137.425, 306.849 137.806 C 307.794 138.188, 310.485 140.597, 312.829 143.161 L 317.090 147.821 314.209 148.454 C 312.624 148.802, 307.899 151.938, 303.708 155.422 C 295.573 162.185, 295.735 162.121, 271.204 168.296 C 266.091 169.583, 261.816 171.055, 261.704 171.568 C 261.414 172.893, 266.925 173.348, 269.412 172.204 C 272.311 170.871, 289.960 166.626, 290.473 167.139 C 291.220 167.886, 289.596 169.613, 284.546 173.440 C 277.224 178.989, 269 187.683, 269 189.874 C 269 191.080, 270.854 192.981, 273.997 194.998 C 276.746 196.762, 280.092 199.509, 281.433 201.103 C 282.774 202.696, 284.350 204, 284.935 204 C 285.521 204, 286 204.450, 286 205 C 286 205.550, 286.933 206, 288.073 206 C 290.928 206, 290.215 202.914, 286.991 201.314 C 285.621 200.634, 283.812 199.233, 282.971 198.201 C 282.130 197.169, 279.363 194.737, 276.822 192.798 C 272.358 189.391, 272.267 189.216, 274.113 187.636 C 275.163 186.736, 276.468 186, 277.011 186 C 277.555 186, 278 185.550, 278 185 C 278 183.290, 289.100 173, 290.944 173 C 291.451 173, 292.134 172.154, 292.462 171.120 C 293.027 169.340, 300.155 162.360, 308.616 155.300 C 310.725 153.540, 314.149 151.813, 316.225 151.462 C 322.462 150.408, 321.458 147.429, 311.514 137.486 C 306.847 132.819, 302.460 128.982, 301.764 128.959 C 301.069 128.937, 298.978 127.617, 297.117 126.026 C 293.348 122.802, 293.433 121.073, 297.496 118.411 C 298.927 117.473, 302.749 114.072, 305.988 110.853 C 309.227 107.634, 312.095 105, 312.362 105 C 312.628 105, 314.196 103.650, 315.846 102 C 317.496 100.350, 319.556 99, 320.423 99 C 321.290 99, 321.980 98.662, 321.957 98.250 C 321.880 96.925, 315.625 87.367, 307.462 76.102 C 304.249 71.667, 304.352 71.001, 308.250 70.996 C 314.170 70.989, 339.290 68.987, 353 67.431 C 380.149 64.349, 400.804 59.940, 408.696 55.540 C 412.417 53.466, 412.942 53.388, 413.330 54.851 C 413.571 55.758, 413.820 54.610, 413.884 52.301 C 413.984 48.663, 413.565 47.778, 410.750 45.677 C 400.649 38.142, 362.579 31.965, 308 29.005 C 286.709 27.850, 210.441 27.909, 189 29.098 M 206.500 31.666 C 148.252 33.953, 106.089 39.654, 95.341 46.696 C 90.343 49.971, 94.617 54.667, 104.841 57.135 C 119.625 60.703, 122.283 61.053, 123.901 59.647 C 127.746 56.305, 145.266 52.415, 171.500 49.077 C 201.679 45.238, 214.217 44.728, 263.500 45.332 C 327.638 46.119, 368.954 49.525, 393.047 56.013 C 396.514 56.946, 397.628 56.781, 401.761 54.720 C 421.308 44.972, 379.564 35.606, 300.500 32.001 C 281.751 31.147, 224.904 30.944, 206.500 31.666 M 93 94.918 C 93 96.924, 94.304 99.126, 94.911 98.144 C 95.332 97.463, 99.379 97.734, 107.022 98.955 C 123.642 101.609, 141.999 104.003, 145.731 104.001 C 149.717 104, 149.765 104.172, 150.753 121.972 L 151.500 135.444 157.527 138.472 C 170.059 144.768, 174.588 146.394, 180.750 146.810 C 184.459 147.061, 187.016 147.694, 187.039 148.366 C 187.060 148.990, 188.639 151.975, 190.547 155 C 192.455 158.025, 195.352 163.279, 196.985 166.677 C 198.617 170.074, 200.442 173.155, 201.038 173.524 C 201.635 173.893, 202.534 175.276, 203.037 176.597 C 203.539 177.919, 204.412 179, 204.975 179 C 206.763 179, 206.083 174.925, 203.750 171.654 C 202.512 169.919, 200.457 166.251, 199.182 163.503 C 197.907 160.755, 196.264 157.830, 195.532 157.003 C 194.800 156.176, 192.876 153.025, 191.255 150 L 188.310 144.500 181.876 143.938 C 175.484 143.379, 172.347 142.278, 160.617 136.473 L 154.500 133.447 154.207 126.847 C 153.861 119.040, 153.804 119.084, 165.285 118.265 C 170.331 117.905, 172.934 117.321, 172.683 116.605 C 172.429 115.880, 168.978 115.577, 162.648 115.723 L 153 115.946 153 111.038 C 153 103.191, 151.749 100.999, 147.275 101.007 C 143.147 101.015, 127.515 98.999, 108 95.944 C 93.753 93.713, 93 93.661, 93 94.918 M 211.562 102.900 C 210.866 104.025, 216.007 110, 217.670 110 C 218.440 110, 219.008 111.922, 219.198 115.171 C 219.638 122.704, 222 122.889, 222 115.391 C 222 109.922, 221.784 109.414, 217.916 105.808 C 213.713 101.888, 212.523 101.344, 211.562 102.900 M 105.232 168 C 105.232 169.925, 105.438 170.713, 105.689 169.750 C 105.941 168.787, 105.941 167.213, 105.689 166.250 C 105.438 165.287, 105.232 166.075, 105.232 168 M 100.437 174.250 L 97.500 177.500 100.750 174.563 C 103.779 171.825, 104.460 171, 103.687 171 C 103.515 171, 102.052 172.463, 100.437 174.250 M 99.972 178.052 C 99.368 179.181, 99.014 180.785, 99.187 181.616 C 99.359 182.447, 99.995 181.523, 100.601 179.563 C 101.838 175.558, 101.606 175, 99.972 178.052 M 109.234 191.308 C 110.188 192.072, 110.638 193.063, 110.234 193.509 C 109.831 193.955, 110.029 194.018, 110.675 193.648 C 111.952 192.916, 117.173 194.910, 116.565 195.896 C 116.360 196.228, 117.303 196.567, 118.661 196.648 C 121.758 196.834, 121.809 196.873, 114 193.077 C 110.425 191.340, 108.281 190.543, 109.234 191.308 M 393.223 192.557 C 391.976 193.430, 391.051 195.076, 391.116 196.307 C 391.223 198.330, 391.269 198.345, 391.706 196.500 C 391.966 195.400, 393.152 193.723, 394.340 192.772 C 397.037 190.615, 396.220 190.457, 393.223 192.557 M 130.963 195.864 C 132.052 196.622, 131.033 196.984, 126.963 197.286 L 121.500 197.691 126.763 197.595 C 131.567 197.508, 134.038 196.050, 130.825 195.199 C 129.909 194.956, 129.952 195.162, 130.963 195.864 M 246.250 219.728 C 248.313 219.944, 251.688 219.944, 253.750 219.728 C 255.813 219.513, 254.125 219.336, 250 219.336 C 245.875 219.336, 244.188 219.513, 246.250 219.728 M 112 230.500 C 112 231.440, 112.949 232, 114.544 232 C 115.943 232, 118.255 233.083, 119.683 234.407 C 121.110 235.730, 124.225 237.616, 126.604 238.597 C 129.969 239.985, 130.688 240.671, 129.842 241.690 C 129.244 242.411, 127.962 243, 126.992 243 C 126.022 243, 123.940 243.672, 122.364 244.494 C 118.511 246.503, 115.251 246.400, 114.689 244.250 C 114.438 243.287, 114.180 244.120, 114.116 246.101 L 114 249.701 119.243 248.873 C 122.126 248.417, 124.639 247.584, 124.826 247.022 C 125.013 246.460, 126.254 246, 127.582 246 C 129.047 246, 131.621 244.425, 134.119 242 C 136.386 239.800, 138.574 238, 138.981 238 C 140.014 238, 147.745 257.801, 148.238 261.712 C 148.667 265.116, 147.704 266, 143.572 266 C 140.561 266, 134.829 268.914, 135.549 270.078 C 136.318 271.324, 141 271.257, 141 270 C 141 269.450, 142.069 269, 143.375 269 C 144.681 269, 147.190 268.712, 148.950 268.360 L 152.149 267.720 151.478 262.610 C 151.108 259.800, 149.798 254.964, 148.566 251.865 L 146.325 246.230 154.163 245.546 C 158.473 245.170, 162 244.443, 162 243.931 C 162 243.419, 163.131 243, 164.514 243 C 165.896 243, 167.809 242.610, 168.764 242.134 C 171.177 240.931, 176.863 238.982, 180.829 238 C 184.803 237.015, 185.687 236.287, 184.432 235.032 C 183.347 233.947, 178.974 234.886, 171.014 237.914 C 167.997 239.061, 164.599 240, 163.464 240 C 162.329 240, 160.972 240.417, 160.450 240.927 C 159.927 241.436, 156.307 242.163, 152.404 242.541 L 145.308 243.228 143.662 239.114 C 141.877 234.652, 140.715 234.250, 135.281 236.215 C 132.643 237.169, 131.501 237.169, 129.973 236.215 C 128.903 235.547, 127.523 235, 126.907 235 C 126.292 235, 124.083 233.650, 122 232 C 117.844 228.708, 112 227.832, 112 230.500 M 295.500 238 C 298.209 240.750, 300.650 243, 300.925 243 C 301.200 243, 299.209 240.750, 296.500 238 C 293.791 235.250, 291.350 233, 291.075 233 C 290.800 233, 292.791 235.250, 295.500 238 M 202.453 238.250 L 198.500 242.500 202.750 238.547 C 205.088 236.373, 207 234.460, 207 234.297 C 207 233.540, 206.129 234.298, 202.453 238.250 M 386.232 246 C 386.232 247.925, 386.438 248.713, 386.689 247.750 C 386.941 246.787, 386.941 245.213, 386.689 244.250 C 386.438 243.287, 386.232 244.075, 386.232 246 M 115.252 257.500 C 115.263 259.700, 115.468 260.482, 115.707 259.238 C 115.946 257.994, 115.937 256.194, 115.687 255.238 C 115.437 254.282, 115.241 255.300, 115.252 257.500 M 385.252 257.500 C 385.263 259.700, 385.468 260.482, 385.707 259.238 C 385.946 257.994, 385.937 256.194, 385.687 255.238 C 385.437 254.282, 385.241 255.300, 385.252 257.500 M 116.272 270 C 116.272 272.475, 116.467 273.488, 116.706 272.250 C 116.944 271.012, 116.944 268.988, 116.706 267.750 C 116.467 266.512, 116.272 267.525, 116.272 270 M 384.252 271.500 C 384.263 273.700, 384.468 274.482, 384.707 273.238 C 384.946 271.994, 384.937 270.194, 384.687 269.238 C 384.437 268.282, 384.241 269.300, 384.252 271.500 M 187.272 274 C 187.272 276.475, 187.467 277.488, 187.706 276.250 C 187.944 275.012, 187.944 272.988, 187.706 271.750 C 187.467 270.512, 187.272 271.525, 187.272 274 M 117.286 284.500 C 117.294 287.250, 117.488 288.256, 117.718 286.736 C 117.947 285.216, 117.941 282.966, 117.704 281.736 C 117.467 280.506, 117.279 281.750, 117.286 284.500 M 383.272 286 C 383.272 288.475, 383.467 289.488, 383.706 288.250 C 383.944 287.012, 383.944 284.988, 383.706 283.750 C 383.467 282.512, 383.272 283.525, 383.272 286 M 112.812 294.750 C 111.403 296.262, 110.464 298.086, 110.726 298.803 C 111.080 299.771, 111.562 299.642, 112.601 298.303 C 113.944 296.573, 114.060 296.578, 115.500 298.441 C 116.325 299.509, 117 299.850, 117 299.200 C 117 298.549, 116.118 297.466, 115.040 296.793 C 113.227 295.661, 113.201 295.435, 114.695 293.784 C 115.583 292.803, 116.099 292, 115.842 292 C 115.585 292, 114.221 293.238, 112.812 294.750 M 108.272 305 C 108.272 307.475, 108.467 308.488, 108.706 307.250 C 108.944 306.012, 108.944 303.988, 108.706 302.750 C 108.467 301.512, 108.272 302.525, 108.272 305 M 202.958 311.250 C 205.410 313.863, 207.548 316, 207.708 316 C 208.459 316, 207.665 315.102, 203.250 310.958 L 198.500 306.500 202.958 311.250 M 114 312.366 C 115.925 314.460, 118.850 317.108, 120.500 318.249 C 124.022 320.684, 123.390 320.010, 116 313.445 C 111.606 309.541, 111.204 309.324, 114 312.366 M 122 314.500 C 124.987 317.525, 127.657 320, 127.932 320 C 128.207 320, 125.987 317.525, 123 314.500 C 120.013 311.475, 117.343 309, 117.068 309 C 116.793 309, 119.013 311.475, 122 314.500 M 118.921 323.751 C 119.399 327.202, 119.468 327.272, 119.798 324.628 C 119.995 323.049, 119.762 321.362, 119.279 320.879 C 118.776 320.376, 118.623 321.601, 118.921 323.751 M 126 321.911 C 128.387 323.863, 129.449 324.302, 130.457 323.750 C 130.708 323.613, 131.571 324.399, 132.375 325.498 C 133.179 326.598, 134.204 327.129, 134.653 326.680 C 135.801 325.533, 130.942 322.085, 129.148 322.774 C 128.089 323.180, 127.905 322.938, 128.496 321.920 C 128.950 321.139, 128.964 320.822, 128.529 321.215 C 128.093 321.608, 126.784 321.465, 125.619 320.898 C 123.918 320.069, 123.993 320.269, 126 321.911 M 381.272 325 C 381.272 327.475, 381.467 328.488, 381.706 327.250 C 381.944 326.012, 381.944 323.988, 381.706 322.750 C 381.467 321.512, 381.272 322.525, 381.272 325 M 248.264 330.718 C 249.784 330.947, 252.034 330.941, 253.264 330.704 C 254.494 330.467, 253.250 330.279, 250.500 330.286 C 247.750 330.294, 246.744 330.488, 248.264 330.718 M 120.392 353 C 120.392 360.425, 120.549 363.462, 120.742 359.750 C 120.934 356.038, 120.934 349.962, 120.742 346.250 C 120.549 342.538, 120.392 345.575, 120.392 353 M 380.382 356.500 C 380.384 363.100, 380.546 365.670, 380.741 362.211 C 380.937 358.752, 380.936 353.352, 380.738 350.211 C 380.540 347.070, 380.380 349.900, 380.382 356.500 M 192.457 360.251 C 191.927 361.632, 193.852 370.043, 195.904 375.315 C 196.507 376.863, 197 380.239, 197 382.816 L 197 387.501 185.750 389.280 C 171.580 391.520, 169.747 391.483, 167.416 388.907 C 163.807 384.920, 162.048 384.583, 159.148 387.327 C 155.931 390.371, 147.363 395, 144.946 395 C 143.980 395, 141.265 396.607, 138.914 398.572 C 134.374 402.365, 128.334 405.757, 123.810 407.054 L 121.064 407.842 120.746 396.671 L 120.428 385.500 120.214 397.532 L 120 409.564 122.725 409.789 C 126.141 410.072, 130.746 407.946, 138.782 402.376 C 142.237 399.981, 146.287 397.717, 147.782 397.344 C 151.030 396.535, 158.759 392.528, 161.020 390.482 C 162.463 389.176, 163.200 389.609, 167.975 394.567 C 170.912 397.617, 174.559 400.755, 176.079 401.541 C 177.599 402.327, 179.831 404.358, 181.039 406.054 C 182.247 407.751, 184.315 409.550, 185.635 410.052 C 186.956 410.553, 188.457 412.073, 188.973 413.428 C 190.147 416.518, 195.859 417.864, 199.827 415.986 C 202.466 414.737, 206.208 413.754, 215 412.001 C 217.475 411.508, 220.930 410.672, 222.678 410.143 C 225.711 409.225, 226.076 409.430, 230.678 414.638 C 233.330 417.640, 235.743 421.087, 236.041 422.298 C 236.773 425.276, 240.380 425.633, 243.661 423.052 C 245.121 421.904, 248.832 420.259, 251.908 419.398 C 263.558 416.134, 270 413.689, 270 412.532 C 270 410.625, 268.916 410.046, 267.142 411.006 C 264.390 412.495, 254.719 415.692, 250.851 416.392 C 248.843 416.756, 245.561 418.166, 243.556 419.526 C 239.444 422.317, 239 422.451, 239 420.896 C 239 419.552, 229.363 407.845, 227.256 406.630 C 226.346 406.104, 224.112 406.266, 221.624 407.037 C 219.356 407.739, 215.700 408.669, 213.500 409.102 C 204.602 410.856, 201.392 411.708, 199.157 412.910 C 196.150 414.527, 192.314 413.564, 191.496 410.987 C 191.145 409.882, 189.544 408.299, 187.939 407.468 C 186.333 406.638, 184.273 404.820, 183.361 403.428 C 182.449 402.036, 180.307 400.192, 178.602 399.328 C 176.896 398.465, 174.673 397.032, 173.662 396.145 C 171.937 394.630, 172.309 394.453, 179.662 393.288 C 183.973 392.604, 190.313 391.749, 193.750 391.386 L 200 390.726 200 384.398 C 200 380.918, 199.381 376.142, 198.624 373.785 C 197.867 371.428, 196.680 367.351, 195.987 364.724 C 194.649 359.658, 193.327 357.983, 192.457 360.251 M 275.242 367.695 C 273.162 372.810, 269.455 378, 267.881 378 C 264.617 378, 260.604 380.004, 261.691 381.091 C 263.189 382.589, 273 381.097, 273 379.371 C 273 378.617, 273.450 378, 274 378 C 274.550 378, 275 377.155, 275 376.122 C 275 375.090, 275.675 373.685, 276.500 373 C 278.200 371.589, 278.514 367.436, 276.992 366.495 C 276.437 366.152, 275.649 366.692, 275.242 367.695 M 120.252 371.500 C 120.263 373.700, 120.468 374.482, 120.707 373.238 C 120.946 371.994, 120.937 370.194, 120.687 369.238 C 120.437 368.282, 120.241 369.300, 120.252 371.500 M 380.385 422 C 380.385 428.875, 380.545 431.688, 380.740 428.250 C 380.936 424.813, 380.936 419.188, 380.740 415.750 C 380.545 412.313, 380.385 415.125, 380.385 422 M 119.328 427.500 C 119.333 431.350, 119.513 432.802, 119.730 430.728 C 119.946 428.653, 119.943 425.503, 119.722 423.728 C 119.501 421.952, 119.324 423.650, 119.328 427.500 M 223.250 471.689 C 224.213 471.941, 225.787 471.941, 226.750 471.689 C 227.713 471.438, 226.925 471.232, 225 471.232 C 223.075 471.232, 222.287 471.438, 223.250 471.689 M 274.250 471.689 C 275.212 471.941, 276.788 471.941, 277.750 471.689 C 278.712 471.438, 277.925 471.232, 276 471.232 C 274.075 471.232, 273.288 471.438, 274.250 471.689 M 246.750 472.723 C 248.537 472.945, 251.463 472.945, 253.250 472.723 C 255.037 472.502, 253.575 472.320, 250 472.320 C 246.425 472.320, 244.963 472.502, 246.750 472.723" stroke="none" fill="#7d7d7d" fill-rule="evenodd"/><path d="M 209.250 31.732 L 205 32.115 205 37.557 C 205 42.050, 205.305 43.011, 206.750 43.063 C 208.178 43.115, 208.114 43.283, 206.407 43.973 C 205.256 44.439, 198.506 45.107, 191.407 45.459 C 158.145 47.108, 131.563 50.118, 109.500 54.734 C 100.667 56.582, 100.203 56.180, 114.901 59.410 C 121.233 60.801, 122.534 60.835, 123.901 59.647 C 129.208 55.034, 164.157 48.882, 202 45.899 C 221.034 44.398, 303.683 45.373, 329.500 47.402 C 359.526 49.762, 381.733 52.769, 392.991 55.997 C 396.584 57.028, 400 56.526, 400 54.968 C 400 54.474, 401.012 53.580, 402.250 52.980 C 404.411 51.933, 404.423 51.951, 402.559 53.445 C 399.828 55.633, 401.987 55.350, 404.855 53.144 C 406.215 52.098, 407.061 50.553, 406.855 49.488 C 406.421 47.236, 398.241 43, 393.766 42.711 C 391.970 42.595, 390.253 42.170, 389.952 41.768 C 388.898 40.359, 365.533 36.911, 360.500 37.422 C 356.713 37.806, 356.107 37.704, 358 36.999 C 360.122 36.209, 359.858 36.105, 356.259 36.310 C 353.926 36.443, 351.901 36.213, 351.759 35.800 C 351.616 35.386, 346.325 34.925, 340 34.774 C 333.675 34.623, 328.275 34.211, 328 33.857 C 326.522 31.957, 226.608 30.169, 209.250 31.732 M 190.750 32.723 C 192.537 32.945, 195.463 32.945, 197.250 32.723 C 199.037 32.502, 197.575 32.320, 194 32.320 C 190.425 32.320, 188.963 32.502, 190.750 32.723 M 173.768 33.725 C 175.565 33.947, 178.265 33.943, 179.768 33.715 C 181.271 33.486, 179.800 33.304, 176.500 33.310 C 173.200 33.315, 171.971 33.502, 173.768 33.725 M 159.750 34.706 C 160.988 34.944, 163.012 34.944, 164.250 34.706 C 165.488 34.467, 164.475 34.272, 162 34.272 C 159.525 34.272, 158.512 34.467, 159.750 34.706 M 93.667 47.667 C 91.605 49.728, 95.138 55.090, 98.473 54.960 C 99.038 54.938, 98.217 54.225, 96.650 53.375 C 94.437 52.176, 93.902 51.291, 94.261 49.415 C 94.757 46.820, 94.695 46.638, 93.667 47.667 M 87.353 55.726 C 87.227 57.749, 87.426 57.896, 88.795 56.787 C 90.044 55.775, 90.221 55.771, 89.623 56.766 C 88.356 58.875, 87.925 62.836, 88.898 63.437 C 89.401 63.748, 89.559 64.972, 89.249 66.157 C 88.893 67.517, 89.071 68.074, 89.730 67.667 C 90.340 67.290, 90.956 68.244, 91.207 69.957 C 91.444 71.573, 91.270 72.667, 90.819 72.388 C 90.369 72.110, 90 72.332, 90 72.882 C 90 73.432, 90.468 74.171, 91.041 74.525 C 91.613 74.879, 91.820 75.993, 91.500 77 C 91.180 78.007, 91.327 79.084, 91.825 79.392 C 92.324 79.700, 92.515 81.088, 92.249 82.476 C 91.963 83.976, 92.227 85, 92.902 85 C 93.614 85, 93.804 85.933, 93.411 87.500 C 92.997 89.148, 93.201 90, 94.008 90 C 94.741 90, 95.023 90.804, 94.710 92 C 94.423 93.100, 94.483 93.997, 94.844 93.993 C 95.205 93.989, 101.125 94.867, 108 95.944 C 127.515 98.999, 143.147 101.015, 147.275 101.007 C 151.749 100.999, 153 103.191, 153 111.038 L 153 115.946 162.648 115.723 C 168.978 115.577, 172.429 115.880, 172.683 116.605 C 172.934 117.321, 170.331 117.905, 165.285 118.265 C 153.804 119.084, 153.861 119.040, 154.207 126.847 L 154.500 133.447 160.617 136.473 C 172.347 142.278, 175.484 143.379, 181.876 143.938 L 188.310 144.500 191.255 150 C 192.876 153.025, 194.800 156.176, 195.532 157.003 C 196.264 157.830, 197.907 160.755, 199.182 163.503 C 200.457 166.251, 202.512 169.919, 203.750 171.654 C 206.083 174.925, 206.763 179, 204.975 179 C 204.412 179, 203.539 177.919, 203.037 176.597 C 202.534 175.276, 201.635 173.893, 201.038 173.524 C 200.442 173.155, 198.617 170.074, 196.985 166.677 C 195.352 163.279, 192.455 158.025, 190.547 155 C 188.639 151.975, 187.060 148.990, 187.039 148.366 C 187.016 147.694, 184.459 147.061, 180.750 146.810 C 174.588 146.394, 170.059 144.768, 157.527 138.472 L 151.500 135.444 150.753 121.972 C 149.757 104.021, 149.751 104, 145.511 104 C 143.613 104, 137.209 103.322, 131.280 102.492 C 111.598 99.740, 99.526 97.914, 97.250 97.345 C 95.466 96.900, 95 97.207, 95 98.833 C 95 99.960, 95.452 101.161, 96.004 101.502 C 96.556 101.843, 96.732 103.220, 96.395 104.561 C 96.004 106.121, 96.211 107, 96.971 107 C 97.762 107, 97.946 107.971, 97.521 109.905 C 97.164 111.531, 97.334 113.089, 97.909 113.444 C 98.473 113.792, 98.668 115.410, 98.342 117.039 C 98.006 118.719, 98.177 120, 98.736 120 C 99.279 120, 99.508 121.125, 99.245 122.500 C 98.957 124.006, 99.229 125, 99.929 125 C 100.715 125, 100.878 126.131, 100.434 128.500 C 99.982 130.908, 100.149 132, 100.968 132 C 101.771 132, 101.944 132.977, 101.500 135 C 101.073 136.946, 101.236 138, 101.966 138 C 102.702 138, 102.871 139.168, 102.456 141.385 C 102.058 143.502, 102.251 145.037, 102.969 145.481 C 103.666 145.912, 103.867 147.331, 103.479 149.095 C 103.061 150.998, 103.241 152, 104 152 C 104.767 152, 104.936 153.013, 104.500 155 C 104.056 157.023, 104.229 158, 105.032 158 C 105.851 158, 106.018 159.092, 105.566 161.500 C 105.156 163.687, 105.302 165, 105.955 165 C 108.427 165, 106.663 169.206, 102.588 173.025 C 100.162 175.299, 97.902 178.253, 97.567 179.588 C 96.664 183.185, 99.516 187.785, 104.536 190.830 C 106.956 192.299, 108.951 194.261, 108.968 195.191 C 108.986 196.121, 109.520 197.203, 110.155 197.595 C 110.866 198.035, 111.038 197.870, 110.603 197.166 C 110.138 196.414, 110.455 196.238, 111.532 196.651 C 112.558 197.044, 112.769 197.525, 112.099 197.939 C 111.511 198.302, 110.728 200.110, 110.359 201.955 C 109.835 204.574, 109.974 205.134, 110.993 204.504 C 112.033 203.862, 112.159 204.745, 111.614 208.849 C 111.152 212.332, 111.286 214, 112.027 214 C 112.754 214, 112.902 215.472, 112.465 218.382 C 112.048 221.163, 112.209 223.011, 112.904 223.441 C 113.507 223.813, 114 225.216, 114 226.559 C 114 228.374, 114.540 229, 116.106 229 C 117.264 229, 119.917 230.350, 122 232 C 124.083 233.650, 126.292 235, 126.907 235 C 127.523 235, 128.903 235.547, 129.973 236.215 C 131.501 237.169, 132.643 237.169, 135.281 236.215 C 140.715 234.250, 141.877 234.652, 143.662 239.114 L 145.308 243.228 152.404 242.541 C 156.307 242.163, 159.928 241.436, 160.450 240.927 C 160.973 240.417, 162.329 240, 163.464 240 C 164.599 240, 167.997 239.061, 171.014 237.914 C 178.974 234.886, 183.347 233.947, 184.432 235.032 C 185.687 236.287, 184.803 237.015, 180.829 238 C 176.863 238.982, 171.177 240.931, 168.764 242.134 C 167.809 242.610, 165.896 243, 164.514 243 C 163.131 243, 162 243.419, 162 243.931 C 162 244.443, 158.473 245.170, 154.163 245.546 L 146.325 246.230 148.566 251.865 C 149.798 254.964, 151.108 259.800, 151.478 262.610 L 152.149 267.720 148.950 268.360 C 147.190 268.712, 144.681 269, 143.375 269 C 142.069 269, 141 269.450, 141 270 C 141 271.257, 136.318 271.324, 135.549 270.078 C 134.829 268.914, 140.561 266, 143.572 266 C 147.704 266, 148.667 265.116, 148.238 261.712 C 147.745 257.801, 140.014 238, 138.981 238 C 138.574 238, 136.386 239.800, 134.119 242 C 131.621 244.425, 129.047 246, 127.582 246 C 126.254 246, 125.002 246.494, 124.801 247.098 C 124.599 247.702, 122.312 248.436, 119.717 248.728 C 115.608 249.192, 115 249.558, 115 251.571 C 115 252.842, 115.440 254.154, 115.979 254.487 C 116.541 254.835, 116.710 257.357, 116.376 260.423 C 115.999 263.880, 116.189 265.999, 116.918 266.449 C 117.675 266.917, 117.827 269.235, 117.382 273.572 C 116.976 277.535, 117.098 280, 117.700 280 C 118.237 280, 118.736 281.597, 118.809 283.549 C 118.883 285.501, 119.250 287.596, 119.626 288.204 C 120.068 288.918, 119.845 289.022, 118.997 288.498 C 118.020 287.894, 117.829 288.237, 118.249 289.844 C 118.611 291.229, 118.352 292, 117.523 292 C 116.813 292, 114.605 293.801, 112.616 296.003 C 109.559 299.388, 109 300.721, 109 304.635 C 109 310.038, 111.157 314.017, 116.858 319.136 L 120.806 322.680 120.272 330.829 C 119.953 335.695, 120.147 339.487, 120.754 340.239 C 121.403 341.044, 121.722 353.469, 121.635 374.608 L 121.500 407.716 124.028 406.992 C 128.344 405.754, 134.453 402.299, 138.914 398.572 C 141.265 396.607, 143.980 395, 144.946 395 C 147.363 395, 155.931 390.371, 159.148 387.327 C 162.048 384.583, 163.807 384.920, 167.416 388.907 C 169.747 391.483, 171.580 391.520, 185.750 389.280 L 197 387.501 197 382.816 C 197 380.239, 196.507 376.863, 195.904 375.315 C 193.852 370.043, 191.927 361.632, 192.457 360.251 C 193.327 357.983, 194.649 359.658, 195.987 364.724 C 196.680 367.351, 197.867 371.428, 198.624 373.785 C 199.381 376.142, 200 380.918, 200 384.398 L 200 390.726 193.750 391.386 C 190.313 391.749, 183.973 392.604, 179.662 393.288 C 172.309 394.453, 171.937 394.630, 173.662 396.145 C 174.673 397.032, 176.896 398.465, 178.602 399.328 C 180.307 400.192, 182.449 402.036, 183.361 403.428 C 184.273 404.820, 186.333 406.638, 187.939 407.468 C 189.544 408.299, 191.145 409.882, 191.496 410.987 C 192.314 413.564, 196.150 414.527, 199.157 412.910 C 201.392 411.708, 204.602 410.856, 213.500 409.102 C 215.700 408.669, 219.356 407.739, 221.624 407.037 C 224.112 406.266, 226.346 406.104, 227.256 406.630 C 229.363 407.845, 239 419.552, 239 420.896 C 239 422.451, 239.444 422.317, 243.556 419.526 C 245.561 418.166, 248.843 416.756, 250.851 416.392 C 254.719 415.692, 264.390 412.495, 267.142 411.006 C 268.916 410.046, 270 410.625, 270 412.532 C 270 413.689, 263.558 416.134, 251.908 419.398 C 248.832 420.259, 245.121 421.904, 243.661 423.052 C 240.380 425.633, 236.773 425.276, 236.041 422.298 C 235.743 421.087, 233.330 417.640, 230.678 414.638 C 226.076 409.430, 225.711 409.225, 222.678 410.143 C 220.930 410.672, 217.475 411.508, 215 412.001 C 206.208 413.754, 202.466 414.737, 199.827 415.986 C 195.859 417.864, 190.147 416.518, 188.973 413.428 C 188.457 412.073, 186.956 410.553, 185.635 410.052 C 184.315 409.550, 182.247 407.751, 181.039 406.054 C 179.831 404.358, 177.599 402.327, 176.079 401.541 C 174.559 400.755, 170.912 397.617, 167.975 394.567 C 163.200 389.609, 162.463 389.176, 161.020 390.482 C 158.759 392.528, 151.030 396.535, 147.782 397.344 C 146.287 397.717, 142.237 399.981, 138.782 402.376 C 130.828 407.889, 125.792 410.241, 122.829 409.826 L 120.500 409.500 120.500 422 C 120.500 428.875, 120.848 434.758, 121.273 435.073 C 121.699 435.389, 122.247 436.688, 122.492 437.960 C 123.060 440.909, 125.955 444.146, 127.288 443.322 C 127.893 442.948, 128.001 443.189, 127.554 443.913 C 127.073 444.690, 127.563 445.334, 128.899 445.684 C 130.055 445.986, 131 446.657, 131 447.176 C 131 447.694, 131.453 447.838, 132.007 447.496 C 132.561 447.153, 133.283 447.574, 133.612 448.431 C 133.941 449.288, 134.616 449.738, 135.112 449.431 C 135.608 449.124, 136.283 449.574, 136.612 450.431 C 136.941 451.288, 137.612 451.740, 138.105 451.435 C 138.597 451.131, 139 451.344, 139 451.910 C 139 452.475, 139.603 452.706, 140.340 452.423 C 141.077 452.140, 142.253 452.600, 142.953 453.443 C 143.654 454.287, 144.626 454.731, 145.113 454.430 C 145.601 454.129, 146 454.385, 146 455 C 146 455.615, 146.450 455.840, 147 455.500 C 147.550 455.160, 148 455.344, 148 455.910 C 148 456.475, 148.675 456.678, 149.500 456.362 C 150.325 456.045, 151 456.270, 151 456.862 C 151 457.453, 151.675 457.678, 152.500 457.362 C 153.325 457.045, 154 457.270, 154 457.862 C 154 458.453, 154.675 458.678, 155.500 458.362 C 156.325 458.045, 157 458.270, 157 458.862 C 157 459.453, 157.675 459.678, 158.500 459.362 C 159.325 459.045, 160 459.270, 160 459.862 C 160 460.453, 160.675 460.678, 161.500 460.362 C 162.326 460.045, 163 460.332, 163 461 C 163 461.668, 163.661 461.960, 164.468 461.651 C 165.275 461.341, 166.213 461.536, 166.552 462.084 C 166.891 462.633, 168.030 462.808, 169.084 462.473 C 170.204 462.118, 171 462.337, 171 463 C 171 463.680, 171.802 463.880, 173 463.500 C 174.198 463.120, 175 463.320, 175 464 C 175 464.680, 175.802 464.880, 177 464.500 C 178.226 464.111, 179 464.320, 179 465.041 C 179 465.788, 179.889 465.994, 181.439 465.605 C 182.790 465.266, 184.178 465.479, 184.552 466.083 C 184.922 466.683, 186.074 466.952, 187.112 466.681 C 188.149 466.410, 189.278 466.641, 189.620 467.195 C 189.963 467.748, 191.485 467.953, 193.003 467.649 C 194.522 467.346, 196.081 467.413, 196.468 467.799 C 197.215 468.544, 201.980 469.034, 208.411 469.026 C 210.562 469.024, 212.859 469.468, 213.515 470.012 C 214.171 470.557, 216.911 471.010, 219.604 471.018 C 254.771 471.129, 259.647 470.844, 274.500 467.800 C 280 466.673, 285.470 465.695, 286.655 465.626 C 287.839 465.557, 288.646 465.236, 288.446 464.912 C 288.246 464.589, 290.366 463.797, 293.156 463.153 C 298.677 461.879, 312.488 455.655, 314.698 453.445 C 315.454 452.689, 317.294 451.321, 318.786 450.404 C 323.504 447.508, 332.161 436.762, 335.627 429.500 C 338.267 423.969, 339.203 420.324, 340.089 412.131 C 340.892 404.704, 340.905 401.157, 340.134 399.631 C 339.542 398.459, 338.597 391.650, 338.035 384.500 C 337.473 377.350, 336.304 365.200, 335.438 357.500 C 334.572 349.800, 333.781 342.420, 333.681 341.099 C 333.512 338.859, 334.135 338.551, 343 336.486 C 363.901 331.617, 376.972 326.005, 383.611 319.049 C 386 316.547, 387.964 313.938, 387.977 313.250 C 387.990 312.563, 388.429 312, 388.953 312 C 390.659 312, 391.906 305.245, 390.884 301.541 C 389.898 297.972, 384.425 291.619, 383.062 292.462 C 382.638 292.724, 382.217 295.989, 382.124 299.719 C 382.007 304.491, 381.418 307.241, 380.136 309 C 376.929 313.401, 370.376 317.681, 361.824 320.960 C 350.602 325.263, 333.221 329.632, 332.078 328.437 C 329.209 325.440, 327.218 268.253, 328.928 238 C 329.597 226.175, 330.180 215.037, 330.224 213.250 C 330.268 211.463, 330.461 210, 330.652 210 C 332.153 210, 351.350 206.515, 359 204.853 C 371.808 202.072, 388.617 196.427, 392.173 193.713 C 399.916 187.805, 401.906 185.703, 402.555 182.750 C 403.002 180.713, 402.847 179.449, 402.119 179.206 C 401.497 178.999, 401.224 178.447, 401.512 177.980 C 402.014 177.169, 395.016 169.651, 394.365 170.302 C 394.192 170.475, 393.778 172.390, 393.446 174.558 C 393.113 176.726, 392.205 179.492, 391.428 180.704 C 387.901 186.203, 374.284 191.147, 349.433 195.950 C 340.754 197.628, 333.043 199, 332.297 199 C 330.855 199, 330.873 198.319, 332.952 174.500 C 333.480 168.450, 334.144 161.475, 334.427 159 C 334.710 156.525, 335.412 149.325, 335.988 143 C 336.563 136.675, 337.476 128.454, 338.017 124.731 C 338.557 121.009, 339 115.743, 339 113.031 C 339 110.318, 339.432 105.939, 339.960 103.299 C 340.488 100.660, 341.143 95.350, 341.415 91.500 C 341.687 87.650, 342.390 81.382, 342.976 77.571 C 343.644 73.233, 343.690 70.290, 343.100 69.700 C 342.510 69.110, 336.239 69.178, 326.329 69.882 C 317.623 70.500, 309.262 71.005, 307.750 71.003 C 304.368 70.999, 304.324 71.772, 307.462 76.102 C 315.625 87.367, 321.880 96.925, 321.957 98.250 C 321.980 98.662, 321.290 99, 320.423 99 C 319.556 99, 317.496 100.350, 315.846 102 C 314.196 103.650, 312.628 105, 312.362 105 C 312.095 105, 309.227 107.634, 305.988 110.853 C 302.749 114.072, 298.927 117.473, 297.496 118.411 C 293.433 121.073, 293.348 122.802, 297.117 126.026 C 298.978 127.617, 301.069 128.937, 301.764 128.959 C 302.460 128.982, 306.847 132.819, 311.514 137.486 C 321.458 147.429, 322.462 150.408, 316.225 151.462 C 314.149 151.813, 310.725 153.540, 308.616 155.300 C 300.155 162.360, 293.027 169.340, 292.462 171.120 C 292.134 172.154, 291.451 173, 290.944 173 C 289.100 173, 278 183.290, 278 185 C 278 185.550, 277.555 186, 277.011 186 C 276.468 186, 275.163 186.736, 274.113 187.636 C 272.267 189.216, 272.358 189.391, 276.822 192.798 C 279.363 194.737, 282.130 197.169, 282.971 198.201 C 283.812 199.233, 285.621 200.634, 286.991 201.314 C 290.215 202.914, 290.928 206, 288.073 206 C 286.933 206, 286 205.550, 286 205 C 286 204.450, 285.521 204, 284.935 204 C 284.350 204, 282.774 202.696, 281.433 201.103 C 280.092 199.509, 276.746 196.762, 273.997 194.998 C 270.854 192.981, 269 191.080, 269 189.874 C 269 187.683, 277.224 178.989, 284.546 173.440 C 289.596 169.613, 291.220 167.886, 290.473 167.139 C 289.960 166.626, 272.311 170.871, 269.412 172.204 C 266.925 173.348, 261.414 172.893, 261.704 171.568 C 261.816 171.055, 266.091 169.583, 271.204 168.296 C 295.735 162.121, 295.573 162.185, 303.708 155.422 C 307.899 151.938, 312.624 148.802, 314.209 148.454 L 317.090 147.821 312.829 143.161 C 310.485 140.597, 307.794 138.188, 306.849 137.806 C 305.904 137.425, 304.648 136.210, 304.057 135.107 C 303.467 134.004, 301.925 132.516, 300.631 131.801 C 294.377 128.343, 290 124.806, 290 123.210 C 290 120.926, 291.757 119.145, 313.382 99.513 L 317.264 95.988 314.382 91.943 C 312.797 89.718, 311.050 87.134, 310.500 86.202 C 309.950 85.269, 308.302 83.072, 306.839 81.319 C 305.375 79.567, 303.638 76.640, 302.978 74.816 L 301.780 71.500 251.640 71.500 C 199.899 71.500, 168.024 70.909, 168.009 69.951 C 168.004 69.648, 162.037 68.858, 154.750 68.195 C 139.233 66.782, 123.417 64.562, 113.299 62.376 C 109.339 61.521, 105.626 61.113, 105.049 61.470 C 104.472 61.826, 104 61.589, 104 60.942 C 104 60.259, 103.162 59.986, 101.999 60.290 C 100.898 60.578, 100.220 60.453, 100.492 60.013 C 101.148 58.952, 96.217 57.748, 94.800 58.624 C 94.078 59.070, 93.977 58.846, 94.510 57.985 C 95.109 57.015, 94.868 56.836, 93.612 57.319 C 92.668 57.681, 92.109 57.633, 92.369 57.212 C 92.629 56.791, 91.640 55.756, 90.171 54.913 C 87.605 53.440, 87.493 53.472, 87.353 55.726 M 408.500 55.578 C 406.300 56.892, 404.950 57.973, 405.500 57.980 C 406.702 57.995, 413 54.246, 413 53.515 C 413 52.861, 413.207 52.766, 408.500 55.578 M 353.250 67.689 C 354.212 67.941, 355.788 67.941, 356.750 67.689 C 357.712 67.438, 356.925 67.232, 355 67.232 C 353.075 67.232, 352.288 67.438, 353.250 67.689 M 211.562 102.900 C 210.866 104.025, 216.007 110, 217.670 110 C 218.440 110, 219.008 111.922, 219.198 115.171 C 219.638 122.704, 222 122.889, 222 115.391 C 222 109.922, 221.784 109.414, 217.916 105.808 C 213.713 101.888, 212.523 101.344, 211.562 102.900 M 99.935 178.343 C 98.131 182.168, 99.991 185.466, 106.277 189.590 C 108.868 191.289, 110.653 193.049, 110.244 193.500 C 109.835 193.951, 110.029 194.018, 110.675 193.648 C 111.952 192.916, 117.173 194.910, 116.565 195.896 C 116.106 196.639, 119.882 197.199, 126.500 197.370 C 132.904 197.536, 133.758 195.952, 128.141 194.326 C 125.743 193.632, 123.268 192.650, 122.641 192.145 C 122.013 191.640, 118.063 189.805, 113.863 188.067 C 105.596 184.647, 103.323 182.774, 102.080 178.357 L 101.276 175.500 99.935 178.343 M 243 219.128 C 243 219.887, 241.668 220.043, 238.926 219.604 C 235.899 219.120, 235.042 219.259, 235.590 220.146 C 236.104 220.977, 235.783 221.131, 234.537 220.653 C 233.552 220.275, 232.042 220.536, 231.181 221.233 C 229.985 222.201, 229.791 222.208, 230.360 221.261 C 230.865 220.420, 230.606 220.214, 229.552 220.618 C 228.698 220.946, 228 221.632, 228 222.142 C 228 222.669, 227.145 222.613, 226.023 222.012 C 224.360 221.122, 224.148 221.222, 224.692 222.641 C 225.130 223.780, 224.960 224.093, 224.170 223.605 C 223.526 223.207, 223 223.385, 223 224 C 223 224.615, 222.550 224.840, 222 224.500 C 221.450 224.160, 221 224.344, 221 224.910 C 221 225.475, 220.325 225.678, 219.500 225.362 C 218.675 225.045, 218 225.311, 218 225.952 C 218 226.593, 217.547 226.838, 216.993 226.496 C 216.439 226.153, 215.717 226.574, 215.388 227.431 C 215.059 228.288, 214.375 228.732, 213.868 228.418 C 213.360 228.104, 211.674 229.208, 210.120 230.872 C 207.888 233.261, 207.024 233.644, 206.001 232.698 C 204.978 231.751, 204.876 231.797, 205.517 232.920 C 206.106 233.952, 205.904 234.177, 204.777 233.745 C 203.625 233.302, 203.356 233.644, 203.730 235.075 C 204.007 236.134, 203.748 237, 203.156 237 C 202.563 237, 201.195 237.948, 200.116 239.106 C 198.993 240.312, 197.586 240.922, 196.827 240.532 C 196.097 240.158, 196.374 240.560, 197.441 241.426 C 199.175 242.832, 198.918 243.461, 196.750 243.118 C 196.338 243.053, 196 243.477, 196 244.059 C 196 244.641, 195.438 244.780, 194.750 244.367 C 194.021 243.929, 194.126 244.402, 195 245.500 C 195.874 246.598, 195.979 247.071, 195.250 246.633 C 194.563 246.220, 193.966 246.246, 193.923 246.691 C 193.659 249.487, 192.984 251.159, 191.534 252.609 C 190.627 253.516, 190.131 254.898, 190.431 255.681 C 190.763 256.545, 190.547 256.838, 189.881 256.427 C 189.133 255.964, 189.024 256.500, 189.537 258.117 C 190.213 260.247, 190.120 260.345, 188.612 259.093 C 187.084 257.824, 187.027 257.941, 187.968 260.416 C 189.278 263.862, 189.263 264.281, 187.862 263.414 C 187.044 262.909, 186.921 263.766, 187.425 266.454 C 187.903 269.001, 187.788 269.987, 187.064 269.539 C 186.352 269.100, 186.023 270.972, 186.070 275.191 C 186.123 279.919, 186.376 280.999, 187.081 279.500 C 187.781 278.012, 187.879 278.460, 187.465 281.250 C 187.132 283.496, 187.318 285, 187.930 285 C 188.509 285, 188.713 286.187, 188.400 287.750 C 188.012 289.688, 188.585 291.583, 190.340 294.169 C 191.709 296.186, 192.578 298.088, 192.272 298.395 C 191.965 298.702, 192.451 299.236, 193.351 299.581 C 194.252 299.927, 194.740 300.612, 194.435 301.105 C 194.131 301.597, 194.385 302, 195 302 C 195.615 302, 195.854 302.427, 195.531 302.950 C 195.208 303.472, 195.886 304.404, 197.037 305.020 C 198.703 305.912, 198.889 306.428, 197.951 307.559 C 197.303 308.339, 196.305 308.688, 195.732 308.334 C 195.113 307.952, 194.992 308.178, 195.435 308.894 C 195.978 309.774, 196.533 309.803, 197.499 309.001 C 198.500 308.170, 199.194 308.439, 200.368 310.115 C 201.220 311.331, 201.638 312.815, 201.298 313.413 C 200.958 314.011, 201.048 314.166, 201.498 313.759 C 201.948 313.351, 203.032 313.568, 203.908 314.241 C 204.855 314.969, 204.690 314.459, 203.500 312.983 L 201.500 310.500 203.710 312.369 C 204.926 313.397, 205.826 314.747, 205.710 315.369 C 205.595 315.991, 206.316 316.504, 207.313 316.508 C 208.310 316.512, 210.037 317.637, 211.150 319.008 C 212.263 320.379, 212.840 320.868, 212.432 320.095 C 211.939 319.161, 212.083 318.933, 212.862 319.415 C 213.506 319.813, 213.804 320.508, 213.525 320.960 C 213.246 321.412, 214.125 322.507, 215.478 323.394 C 217.597 324.782, 217.859 324.796, 217.359 323.492 C 216.951 322.430, 217.236 322.153, 218.311 322.566 C 219.155 322.890, 220.109 323.842, 220.431 324.681 C 220.759 325.535, 221.674 325.955, 222.508 325.635 C 223.329 325.320, 224 325.485, 224 326 C 224 326.515, 224.749 326.650, 225.664 326.299 C 226.847 325.845, 227.100 326.029, 226.539 326.937 C 225.947 327.894, 226.314 328.035, 228 327.500 C 229.676 326.968, 230.051 327.108, 229.469 328.050 C 228.900 328.971, 229.273 329.162, 230.843 328.751 C 232.028 328.441, 233.261 328.614, 233.583 329.135 C 233.905 329.655, 235.030 329.808, 236.084 329.473 C 237.164 329.131, 238 329.336, 238 329.944 C 238 330.640, 239.509 330.813, 242.250 330.431 C 244.614 330.101, 245.985 330.209, 245.340 330.673 C 244.672 331.153, 247.215 331.575, 251.340 331.667 C 256.261 331.777, 257.875 331.548, 256.500 330.933 C 255.178 330.342, 256.159 330.247, 259.392 330.654 C 263.226 331.137, 264.113 330.992, 263.493 329.989 C 262.893 329.018, 263.343 328.869, 265.351 329.373 C 267.042 329.798, 268 329.631, 268 328.912 C 268 328.293, 268.675 328.045, 269.500 328.362 C 270.325 328.678, 271 328.493, 271 327.950 C 271 327.405, 272.082 327.234, 273.413 327.568 C 275.058 327.980, 276.432 327.568, 277.726 326.274 C 278.770 325.230, 280.159 324.553, 280.812 324.771 C 281.465 324.988, 282.271 324.456, 282.604 323.589 C 282.937 322.721, 283.612 322.260, 284.105 322.565 C 284.597 322.869, 285.007 322.529, 285.015 321.809 C 285.026 320.858, 285.296 320.910, 286 322 C 286.533 322.825, 286.976 323.024, 286.985 322.441 C 286.993 321.859, 287.708 320.509, 288.574 319.441 C 289.440 318.374, 289.804 318.175, 289.382 319 C 288.749 320.240, 288.882 320.284, 290.150 319.259 C 290.994 318.576, 292.052 318.351, 292.501 318.759 C 292.951 319.166, 293.056 318.764, 292.735 317.865 C 292.190 316.339, 296.546 311.034, 298.657 310.652 C 299.120 310.569, 299.412 310.236, 299.304 309.913 C 299.197 309.591, 300.534 307.791, 302.275 305.913 C 304.016 304.036, 305.342 302.163, 305.221 301.750 C 305.099 301.337, 305.477 301, 306.059 301 C 306.641 301, 306.840 300.550, 306.500 300 C 306.160 299.450, 306.636 299, 307.558 299 C 308.741 299, 309.080 298.412, 308.710 297 C 308.423 295.900, 308.643 295, 309.201 295 C 309.758 295, 309.955 294.325, 309.638 293.500 C 309.322 292.675, 309.547 292, 310.138 292 C 310.730 292, 310.955 291.325, 310.638 290.500 C 310.322 289.675, 310.529 289, 311.099 289 C 311.680 289, 311.856 288.121, 311.500 287 C 311.141 285.868, 311.320 285, 311.913 285 C 312.581 285, 312.737 283.364, 312.345 280.500 C 311.998 277.971, 312.132 276, 312.651 276 C 313.159 276, 313.642 275.100, 313.725 274 C 313.808 272.900, 313.433 272, 312.893 272 C 312.303 272, 312.183 270.540, 312.593 268.355 C 313.125 265.523, 312.991 264.888, 311.993 265.505 C 311.017 266.107, 310.868 265.661, 311.373 263.649 C 311.784 262.011, 311.627 261, 310.960 261 C 310.367 261, 310.163 260.546, 310.506 259.991 C 311.320 258.674, 310.093 254.825, 309.062 255.462 C 308.625 255.732, 308.422 254.631, 308.610 253.017 C 308.862 250.850, 308.592 250.219, 307.577 250.609 C 306.821 250.899, 305.862 250.586, 305.447 249.914 C 304.933 249.082, 305.140 248.924, 306.095 249.420 C 306.868 249.820, 306.712 249.503, 305.750 248.714 C 304.788 247.925, 304 246.815, 304 246.247 C 304 245.679, 303.325 244.955, 302.500 244.638 C 301.675 244.322, 301 243.486, 301 242.781 C 301 242.077, 299.394 240.218, 297.431 238.652 C 295.322 236.970, 294.081 235.230, 294.399 234.402 C 294.702 233.613, 294.295 232.945, 293.469 232.875 C 292.661 232.806, 291.514 232.694, 290.919 232.625 C 290.325 232.556, 289.268 231.719, 288.571 230.766 C 287.873 229.812, 286.938 229.362, 286.492 229.766 C 286.046 230.169, 285.988 229.649, 286.364 228.609 C 286.969 226.929, 286.854 226.873, 285.331 228.109 C 284.195 229.031, 283.869 229.078, 284.367 228.250 C 285.600 226.197, 284.051 224.716, 282.224 226.201 C 280.866 227.305, 280.719 227.251, 281.245 225.846 C 281.728 224.554, 281.330 224.250, 279.432 224.458 C 278.094 224.605, 277 224.289, 277 223.755 C 277 223.222, 276.302 223.054, 275.448 223.382 C 274.442 223.768, 274.145 223.574, 274.604 222.831 C 275.086 222.052, 274.623 221.865, 273.156 222.249 C 271.970 222.559, 271 222.357, 271 221.799 C 271 221.242, 270.325 221.045, 269.500 221.362 C 267.995 221.939, 267.343 220.534, 268.750 219.747 C 269.729 219.200, 267.469 219.811, 265.326 220.674 C 264.064 221.182, 263.807 220.946, 264.279 219.717 C 264.808 218.338, 264.516 218.234, 262.387 219.043 C 261.003 219.569, 259.112 219.993, 258.185 219.985 C 256.732 219.971, 256.706 219.836, 258 219 C 259.036 218.331, 256.946 218.026, 251.250 218.015 C 245.784 218.005, 243 218.381, 243 219.128 M 114.081 233.597 C 114.623 234.250, 114.766 236.611, 114.402 238.888 C 113.958 241.662, 114.111 243, 114.872 243 C 115.492 243, 116 243.675, 116 244.500 C 116 246.411, 118.693 246.408, 122.364 244.494 C 123.940 243.672, 126.022 243, 126.992 243 C 127.962 243, 129.244 242.411, 129.842 241.690 C 130.688 240.671, 129.969 239.985, 126.604 238.597 C 124.225 237.616, 121.137 235.755, 119.741 234.461 C 117.146 232.054, 112.170 231.295, 114.081 233.597 M 248.778 235.556 C 248.426 235.908, 248.378 236.823, 248.673 237.589 C 248.967 238.356, 248.488 239.259, 247.609 239.596 C 246.731 239.934, 246.260 240.612, 246.565 241.105 C 246.869 241.597, 246.656 242, 246.090 242 C 245.525 242, 245.322 242.675, 245.638 243.500 C 246.008 244.463, 245.618 245, 244.548 245 C 243.632 245, 243.160 245.450, 243.500 246 C 243.840 246.550, 243.615 247, 243 247 C 242.385 247, 242.160 247.450, 242.500 248 C 242.840 248.550, 242.615 249, 242 249 C 241.385 249, 241.160 249.450, 241.500 250 C 241.840 250.550, 241.586 251, 240.937 251 C 240.103 251, 240.159 251.499, 241.128 252.692 C 241.882 253.623, 241.989 254.078, 241.364 253.703 C 240.701 253.306, 239.999 253.894, 239.681 255.112 C 239.380 256.261, 238.701 256.934, 238.172 256.606 C 237.643 256.279, 236.943 256.707, 236.616 257.558 C 236.280 258.433, 236.447 258.842, 237 258.500 C 237.553 258.158, 237.720 258.567, 237.384 259.442 C 237.057 260.293, 236.275 260.680, 235.645 260.302 C 234.983 259.906, 235.048 260.292, 235.799 261.219 C 236.799 262.455, 236.821 262.992, 235.894 263.565 C 235.081 264.068, 234.953 263.885, 235.500 263 C 236.024 262.152, 235.918 261.933, 235.198 262.378 C 234.587 262.755, 234.369 263.798, 234.714 264.696 C 235.129 265.780, 234.951 266.087, 234.181 265.612 C 233.401 265.130, 233.238 265.456, 233.681 266.612 C 234.125 267.769, 233.962 268.095, 233.181 267.612 C 232.425 267.144, 232.229 267.434, 232.618 268.448 C 232.947 269.304, 232.691 270, 232.048 270 C 231.407 270, 231.141 270.419, 231.457 270.931 C 231.774 271.443, 231.592 272.134, 231.055 272.466 C 230.418 272.860, 230.424 273.984, 231.070 275.684 C 231.981 278.080, 231.920 278.181, 230.345 276.899 C 228.819 275.658, 228.703 275.707, 229.316 277.340 C 229.696 278.352, 229.684 279.702, 229.289 280.340 C 228.895 280.978, 228.502 284.131, 228.417 287.347 C 228.323 290.907, 228.596 292.667, 229.116 291.847 C 229.749 290.848, 229.973 291.030, 229.985 292.550 C 229.993 293.678, 230.563 295.231, 231.250 296.002 C 232.313 297.194, 232.239 297.206, 230.750 296.079 C 229.677 295.268, 229 295.167, 229 295.819 C 229 296.403, 229.457 297.165, 230.016 297.510 C 230.575 297.856, 230.731 298.627, 230.362 299.224 C 229.985 299.833, 230.152 300.024, 230.741 299.660 C 231.929 298.926, 233.305 301.697, 232.444 303.090 C 232.135 303.591, 232.359 304.056, 232.941 304.125 C 233.523 304.194, 234.563 304.316, 235.250 304.397 C 235.938 304.479, 236.354 305.383, 236.175 306.408 C 235.955 307.672, 236.303 308.098, 237.258 307.731 C 238.044 307.430, 238.667 307.792, 238.667 308.551 C 238.667 309.300, 238.179 309.629, 237.583 309.284 C 236.988 308.939, 237.348 309.623, 238.384 310.805 C 239.420 311.986, 240.725 312.670, 241.285 312.324 C 241.845 311.978, 242.910 312.524, 243.652 313.538 C 244.393 314.553, 245.007 314.959, 245.015 314.441 C 245.024 313.924, 245.467 314.175, 246 315 C 246.542 315.839, 246.976 315.990, 246.985 315.344 C 246.993 314.684, 247.854 314.411, 248.989 314.707 C 250.083 314.993, 250.764 315.573, 250.502 315.996 C 249.937 316.911, 255.752 316.581, 256.687 315.646 C 257.043 315.291, 257.821 315.007, 258.417 315.015 C 259.012 315.024, 258.825 315.467, 258 316 C 256.718 316.828, 256.754 316.972, 258.250 316.985 C 259.212 316.993, 260 316.502, 260 315.893 C 260 315.284, 260.698 315.054, 261.552 315.382 C 262.566 315.771, 262.856 315.575, 262.388 314.819 C 261.905 314.038, 262.231 313.875, 263.388 314.319 C 264.407 314.710, 264.856 314.576, 264.493 313.989 C 264.157 313.445, 264.359 313, 264.941 313 C 267.095 313, 267.537 312.824, 269.226 311.295 C 271.260 309.455, 270.498 307.342, 268.422 309.065 C 267.652 309.704, 267.312 310.695, 267.666 311.268 C 268.051 311.892, 267.821 312.007, 267.089 311.555 C 266.171 310.987, 266.285 310.342, 267.554 308.940 C 268.480 307.917, 269.522 307.115, 269.869 307.158 C 270.216 307.201, 271.175 307.177, 272 307.103 C 273.333 306.984, 273.333 306.862, 272 306 C 270.728 305.178, 270.775 305.028, 272.309 305.015 C 273.304 305.007, 273.840 304.550, 273.500 304 C 273.160 303.450, 273.344 303, 273.910 303 C 274.475 303, 274.678 302.325, 274.362 301.500 C 274.045 300.675, 274.273 300, 274.868 300 C 275.537 300, 275.721 298.855, 275.350 297 C 274.968 295.089, 275.158 294, 275.875 294 C 276.544 294, 277 292.151, 277 289.441 C 277 286.287, 276.649 285.099, 275.862 285.586 C 275.048 286.088, 274.899 285.177, 275.338 282.395 C 275.805 279.435, 275.714 278.980, 274.958 280.500 C 274.186 282.053, 274.073 281.606, 274.453 278.500 C 274.723 276.300, 274.619 275.013, 274.222 275.639 C 273.700 276.464, 273.143 276.394, 272.211 275.389 C 271.022 274.108, 271.381 273.587, 273.250 273.882 C 273.663 273.947, 274 273.550, 274 273 C 274 272.450, 273.564 272, 273.031 272 C 272.499 272, 272.358 271.212, 272.719 270.250 C 273.313 268.664, 273.201 268.641, 271.524 270 C 269.787 271.407, 269.747 271.361, 270.871 269.250 C 271.605 267.874, 271.680 267, 271.067 267 C 270.514 267, 270.350 266.251, 270.701 265.336 C 271.168 264.120, 270.979 263.895, 270 264.500 C 269.021 265.105, 268.832 264.880, 269.299 263.664 C 269.650 262.749, 269.475 262, 268.910 262 C 268.344 262, 268.160 261.550, 268.500 261 C 268.840 260.450, 268.615 260, 268 260 C 267.385 260, 267.203 259.480, 267.595 258.845 C 268.070 258.077, 267.866 257.965, 266.985 258.510 C 266.023 259.104, 265.835 258.872, 266.299 257.664 C 266.650 256.749, 266.475 256, 265.910 256 C 265.344 256, 265.206 255.438, 265.601 254.750 C 265.997 254.063, 265.952 253.834, 265.502 254.241 C 265.052 254.649, 264.070 254.473, 263.319 253.850 C 262.240 252.955, 262.086 253.061, 262.584 254.359 C 262.931 255.261, 263.642 256, 264.166 256 C 264.690 256, 264.859 256.419, 264.543 256.931 C 264.226 257.443, 264.432 258.149, 265 258.500 C 265.568 258.851, 265.774 259.557, 265.457 260.069 C 265.141 260.581, 265.344 261, 265.910 261 C 266.475 261, 266.678 261.675, 266.362 262.500 C 266.045 263.325, 266.172 263.999, 266.643 263.998 C 267.114 263.997, 267.500 266.360, 267.500 269.248 C 267.500 273.261, 267.835 274.428, 268.919 274.194 C 270.093 273.940, 270.115 274.157, 269.047 275.444 C 267.611 277.174, 266.535 277.561, 267.500 276 C 267.840 275.450, 267.679 275, 267.142 275 C 266.606 275, 265.990 275.531, 265.773 276.180 C 265.547 276.859, 264.635 277.074, 263.627 276.687 C 262.662 276.317, 262.153 275.561, 262.496 275.007 C 262.838 274.453, 262.615 274, 262 274 C 261.385 274, 261.160 273.550, 261.500 273 C 261.840 272.450, 261.615 272, 261 272 C 260.385 272, 260.160 271.550, 260.500 271 C 260.840 270.450, 260.593 270, 259.952 270 C 259.309 270, 259.053 269.304, 259.382 268.448 C 259.755 267.475, 259.568 267.149, 258.881 267.573 C 258.141 268.031, 258.017 267.521, 258.500 266 C 259.035 264.314, 258.894 263.947, 257.937 264.539 C 257.029 265.100, 256.845 264.847, 257.299 263.664 C 257.650 262.749, 257.515 262, 257 262 C 256.485 262, 256.300 261.383, 256.589 260.629 C 256.878 259.875, 256.367 258.971, 255.454 258.621 C 254.540 258.270, 254.023 257.382, 254.305 256.647 C 254.587 255.912, 253.976 254.704, 252.947 253.962 C 251.551 252.956, 251.351 252.281, 252.160 251.307 C 252.958 250.345, 252.902 250, 251.948 250 C 251.162 250, 251.606 248.929, 253.076 247.280 C 254.917 245.214, 255.019 244.901, 253.500 245.975 C 251.561 247.347, 251.555 247.331, 253.286 245.445 C 254.453 244.175, 255.320 243.872, 255.786 244.573 C 256.179 245.163, 257.288 245.936, 258.250 246.292 C 259.212 246.647, 259.993 247.514, 259.985 248.219 C 259.974 249.115, 259.678 249.049, 259 248 C 258.378 247.037, 258.025 246.940, 258.015 247.727 C 257.997 249.218, 262.807 252.526, 263.698 251.635 C 264.047 251.286, 263.782 251, 263.108 251 C 262.434 251, 262.160 250.550, 262.500 250 C 262.840 249.450, 262.641 249, 262.059 249 C 261.477 249, 261 248.380, 261 247.622 C 261 246.864, 259.988 245.493, 258.750 244.576 C 257.512 243.658, 257.132 243.223, 257.905 243.608 C 258.821 244.066, 259.061 243.908, 258.595 243.155 C 258.203 242.520, 257.282 242, 256.548 242 C 255.139 242, 253.653 239.516, 253.557 237 C 253.499 235.470, 249.939 234.395, 248.778 235.556 M 112 297.501 C 111.315 298.326, 110.531 300.978, 110.259 303.395 C 109.800 307.465, 110.074 308.125, 113.976 312.358 C 117.505 316.187, 132.622 327, 134.445 327 C 135.928 327, 134.701 324.999, 132.205 323.348 C 130.668 322.332, 126.339 318.198, 122.585 314.162 C 115.952 307.030, 115.774 306.701, 116.249 302.481 C 116.888 296.811, 114.700 294.246, 112 297.501 M 380.310 339.500 C 380.315 342.800, 380.502 344.029, 380.725 342.232 C 380.947 340.435, 380.943 337.735, 380.715 336.232 C 380.486 334.729, 380.304 336.200, 380.310 339.500 M 275.242 367.695 C 273.162 372.810, 269.455 378, 267.881 378 C 264.617 378, 260.604 380.004, 261.691 381.091 C 263.189 382.589, 273 381.097, 273 379.371 C 273 378.617, 273.450 378, 274 378 C 274.550 378, 275 377.155, 275 376.122 C 275 375.090, 275.675 373.685, 276.500 373 C 278.200 371.589, 278.514 367.436, 276.992 366.495 C 276.437 366.152, 275.649 366.692, 275.242 367.695 M 379.382 391.500 C 379.384 398.100, 379.546 400.670, 379.741 397.211 C 379.937 393.752, 379.936 388.352, 379.738 385.211 C 379.540 382.070, 379.380 384.900, 379.382 391.500 M 124.333 439.624 C 124.333 440.333, 124.837 441.107, 125.452 441.343 C 126.068 441.580, 126.571 440.999, 126.571 440.053 C 126.571 439.107, 126.068 438.333, 125.452 438.333 C 124.837 438.333, 124.333 438.914, 124.333 439.624 M 266.750 471.706 C 267.988 471.944, 270.012 471.944, 271.250 471.706 C 272.488 471.467, 271.475 471.272, 269 471.272 C 266.525 471.272, 265.512 471.467, 266.750 471.706" stroke="none" fill="#333333" fill-rule="evenodd"/><path d="M 179.500 33.573 C 137.305 36.228, 108.509 40.639, 97.837 46.083 C 92.647 48.731, 92.755 51.324, 98.171 54.087 C 102.226 56.156, 102.553 56.171, 109.921 54.638 C 131.696 50.105, 158.431 47.094, 191.407 45.459 C 198.506 45.107, 205.256 44.439, 206.407 43.973 C 208.114 43.283, 208.178 43.115, 206.750 43.063 C 205.303 43.011, 205 42.047, 205 37.500 C 205 32.426, 204.826 32.010, 202.750 32.126 C 201.512 32.196, 191.050 32.847, 179.500 33.573 M 408.292 56.593 C 405.977 57.779, 404.402 59.103, 404.792 59.535 C 405.181 59.967, 404.932 59.993, 404.237 59.593 C 403.542 59.193, 400.617 59.543, 397.737 60.371 C 387.833 63.218, 351.974 69, 344.221 69 C 343.484 69, 343.137 69.413, 343.449 69.917 C 343.760 70.421, 343.542 73.909, 342.963 77.667 C 342.384 81.425, 341.687 87.650, 341.415 91.500 C 341.143 95.350, 340.488 100.660, 339.960 103.299 C 339.432 105.939, 339 110.318, 339 113.031 C 339 115.743, 338.557 121.009, 338.017 124.731 C 337.476 128.454, 336.563 136.675, 335.988 143 C 335.412 149.325, 334.710 156.525, 334.427 159 C 334.144 161.475, 333.480 168.450, 332.952 174.500 C 330.873 198.319, 330.855 199, 332.297 199 C 333.043 199, 340.754 197.628, 349.433 195.950 C 374.277 191.148, 387.883 186.210, 391.437 180.704 C 392.219 179.492, 393.102 176.700, 393.398 174.500 C 396.139 154.153, 397.404 145.223, 399.556 131.040 C 400.929 121.988, 401.830 114, 401.558 113.290 C 401.286 112.581, 401.426 112, 401.870 112 C 402.315 112, 403.232 108.287, 403.908 103.750 C 404.585 99.213, 406.859 86.275, 408.961 75 C 411.064 63.725, 412.720 54.485, 412.642 54.468 C 412.564 54.450, 410.606 55.406, 408.292 56.593 M 90 69.441 C 90 70.784, 90.369 72.110, 90.819 72.388 C 91.270 72.667, 91.443 71.568, 91.206 69.947 C 90.681 66.373, 90 66.087, 90 69.441 M 380 198.965 C 369.541 202.564, 356.159 205.758, 340 208.514 C 335.325 209.311, 331.231 209.971, 330.902 209.982 C 330.573 209.992, 330.268 211.463, 330.224 213.250 C 330.180 215.037, 329.597 226.175, 328.928 238 C 327.218 268.253, 329.209 325.440, 332.078 328.437 C 333.221 329.632, 350.602 325.263, 361.824 320.960 C 370.421 317.664, 377.007 313.349, 380.081 309 C 381.411 307.118, 381.998 303.656, 382.455 295 C 383.540 274.459, 386.111 242.013, 388.515 218.517 C 389.808 205.876, 390.784 195.493, 390.683 195.443 C 390.583 195.394, 385.775 196.979, 380 198.965 M 110.283 198.862 C 110.209 200.313, 110.408 200.825, 110.724 200 C 111.041 199.175, 111.720 198.225, 112.234 197.889 C 112.747 197.553, 112.549 197.041, 111.793 196.751 C 110.857 196.391, 110.375 197.065, 110.283 198.862 M 111.232 207 C 111.232 208.925, 111.438 209.713, 111.689 208.750 C 111.941 207.787, 111.941 206.213, 111.689 205.250 C 111.438 204.287, 111.232 205.075, 111.232 207 M 246.750 218.732 C 249.088 218.943, 252.912 218.943, 255.250 218.732 C 257.587 218.522, 255.675 218.349, 251 218.349 C 246.325 218.349, 244.412 218.522, 246.750 218.732 M 282.625 225.798 C 282.250 226.404, 282.829 227.373, 283.911 227.953 C 285.359 228.727, 286.069 228.675, 286.600 227.753 C 286.996 227.064, 286.955 226.831, 286.509 227.234 C 286.063 227.638, 285.159 227.233, 284.502 226.333 C 283.698 225.234, 283.082 225.058, 282.625 225.798 M 290.895 232.226 C 292.213 233.718, 293.766 234.645, 294.346 234.286 C 295.012 233.875, 294.866 233.469, 293.951 233.186 C 293.153 232.940, 291.600 232.013, 290.500 231.127 C 289.110 230.006, 289.230 230.341, 290.895 232.226 M 205.708 233.337 C 206.074 233.928, 205.666 234.086, 204.715 233.721 C 203.567 233.280, 203.267 233.532, 203.674 234.594 C 204.169 235.884, 204.502 235.856, 206.124 234.388 C 208.378 232.348, 208.381 232.333, 206.544 232.333 C 205.743 232.333, 205.367 232.785, 205.708 233.337 M 247.891 238.417 C 246.978 240.316, 247.014 240.347, 248.294 238.766 C 249.066 237.812, 249.946 237.279, 250.249 237.582 C 250.552 237.885, 251.050 237.728, 251.356 237.233 C 251.662 236.738, 251.233 236.333, 250.402 236.333 C 249.571 236.333, 248.441 237.271, 247.891 238.417 M 200.116 239.106 C 198.921 240.389, 197.634 240.918, 196.827 240.460 C 195.753 239.850, 195.741 239.966, 196.764 241.067 C 197.818 242.202, 198.477 241.977, 200.741 239.714 C 202.233 238.221, 203.145 237, 202.766 237 C 202.388 237, 201.195 237.948, 200.116 239.106 M 253.032 237.639 C 253.077 238.860, 255.893 242.441, 256.404 241.927 C 256.637 241.692, 255.967 240.438, 254.914 239.139 C 253.861 237.841, 253.014 237.166, 253.032 237.639 M 196 244.059 C 196 244.641, 195.438 244.794, 194.750 244.399 C 194.063 244.003, 193.822 244.036, 194.215 244.471 C 194.608 244.907, 194.465 246.216, 193.898 247.381 C 193.069 249.082, 193.269 249.007, 194.911 247 C 196.897 244.572, 197.521 243, 196.500 243 C 196.225 243, 196 243.477, 196 244.059 M 261.583 250.866 C 261.288 251.343, 261.926 252.528, 263 253.500 C 264.074 254.472, 264.669 255.727, 264.322 256.288 C 263.960 256.874, 264.184 257.004, 264.848 256.594 C 266.194 255.762, 264.604 252, 262.906 252 C 262.343 252, 262.160 251.550, 262.500 251 C 262.840 250.450, 262.893 250, 262.618 250 C 262.343 250, 261.877 250.390, 261.583 250.866 M 307.563 250.899 C 307.257 251.393, 307.896 253.756, 308.982 256.149 C 310.068 258.542, 310.950 259.825, 310.943 259 C 310.935 258.175, 310.319 256.398, 309.573 255.050 C 308.826 253.703, 308.441 252.016, 308.715 251.300 C 309.280 249.829, 308.411 249.526, 307.563 250.899 M 190.162 254.543 C 188.487 258.220, 188.807 259.005, 190.618 255.662 C 191.464 254.100, 191.969 252.636, 191.741 252.407 C 191.512 252.179, 190.802 253.140, 190.162 254.543 M 238.954 254.086 C 238.340 255.233, 238.117 256.451, 238.459 256.792 C 238.800 257.133, 239.338 256.425, 239.653 255.218 C 239.969 254.010, 240.696 253.312, 241.268 253.666 C 241.872 254.039, 242.010 253.825, 241.595 253.155 C 240.609 251.558, 240.237 251.688, 238.954 254.086 M 236 260 C 235.411 261.100, 235.164 262, 235.450 262 C 235.736 262, 235.079 263.462, 233.989 265.250 C 232.899 267.038, 232.026 268.950, 232.048 269.500 C 232.090 270.530, 235.975 263.618, 236.118 262.260 C 236.161 261.842, 236.619 260.712, 237.134 259.750 C 237.649 258.788, 237.845 258, 237.570 258 C 237.295 258, 236.589 258.900, 236 260 M 186.320 275 C 186.320 278.575, 186.502 280.038, 186.723 278.250 C 186.945 276.462, 186.945 273.538, 186.723 271.750 C 186.502 269.962, 186.320 271.425, 186.320 275 M 271.687 273.646 C 271.362 273.972, 271.694 274.837, 272.427 275.570 C 273.159 276.302, 274.071 278.989, 274.454 281.542 C 274.837 284.095, 275.381 285.953, 275.662 285.671 C 276.366 284.967, 274.056 274.153, 273.072 273.545 C 272.636 273.275, 272.013 273.321, 271.687 273.646 M 118 285.441 C 118 286.784, 118.369 288.110, 118.819 288.388 C 119.270 288.667, 119.443 287.568, 119.206 285.947 C 118.681 282.373, 118 282.087, 118 285.441 M 188.086 288.300 C 187.998 290.141, 190.642 296, 191.561 296 C 191.841 296, 191.543 295.014, 190.897 293.808 C 190.252 292.603, 189.375 290.466, 188.948 289.058 C 188.432 287.357, 188.143 287.103, 188.086 288.300 M 229.116 292.628 C 229.052 293.798, 229.787 295.373, 230.750 296.128 C 232.272 297.321, 232.351 297.305, 231.358 296 C 230.729 295.175, 229.994 293.600, 229.724 292.500 C 229.257 290.600, 229.226 290.607, 229.116 292.628 M 234.599 306.510 C 236.393 309.248, 238.667 310.361, 238.667 308.500 C 238.667 307.780, 238.033 307.434, 237.258 307.731 C 236.317 308.092, 235.958 307.683, 236.175 306.499 C 236.370 305.434, 235.817 304.620, 234.789 304.458 C 233.225 304.212, 233.208 304.388, 234.599 306.510 M 197.600 307.838 C 197.194 308.495, 196.373 308.731, 195.776 308.362 C 195.113 307.952, 194.980 308.159, 195.435 308.894 C 195.978 309.774, 196.533 309.803, 197.499 309.001 C 198.500 308.170, 199.194 308.439, 200.368 310.115 C 201.220 311.331, 201.677 312.714, 201.384 313.188 C 201.091 313.662, 201.231 313.926, 201.695 313.775 C 202.159 313.624, 203.744 314.446, 205.217 315.603 C 207.351 317.278, 207.652 317.979, 206.697 319.054 C 205.809 320.056, 205.978 320.040, 207.356 318.992 C 209.133 317.639, 209.102 317.493, 206.606 315.503 C 205.173 314.360, 202.727 311.900, 201.170 310.034 C 199.244 307.727, 198.103 307.025, 197.600 307.838 M 267.254 309.272 C 266.289 310.338, 265.725 311.430, 266 311.700 C 266.275 311.970, 264.925 313.028, 263 314.053 C 261.075 315.078, 259.950 315.933, 260.500 315.954 C 262.269 316.022, 268.118 311.999, 267.561 311.098 C 267.017 310.219, 269.940 307.215, 270.737 307.833 C 270.973 308.017, 271.354 307.979, 271.583 307.750 C 271.813 307.521, 271.327 307.333, 270.504 307.333 C 269.681 307.333, 268.219 308.206, 267.254 309.272 M 211.483 319.973 C 212.526 321.659, 218.002 325.168, 217.477 323.813 C 217.197 323.091, 215.605 321.721, 213.937 320.770 C 212.270 319.818, 211.166 319.459, 211.483 319.973 M 379.854 322.711 C 379.372 323.849, 363.736 330.884, 357.524 332.757 C 354.761 333.591, 348.225 335.269, 343 336.486 C 334.135 338.551, 333.512 338.859, 333.681 341.099 C 333.781 342.420, 334.572 349.800, 335.438 357.500 C 336.304 365.200, 337.473 377.350, 338.035 384.500 C 338.597 391.650, 339.542 398.459, 340.134 399.631 C 340.905 401.157, 340.892 404.704, 340.089 412.131 C 339.203 420.324, 338.267 423.969, 335.627 429.500 C 332.161 436.762, 323.504 447.508, 318.786 450.404 C 317.294 451.321, 315.454 452.689, 314.698 453.445 C 312.488 455.655, 298.677 461.879, 293.156 463.153 C 290.366 463.797, 288.246 464.589, 288.446 464.912 C 288.646 465.236, 287.839 465.557, 286.655 465.626 C 285.470 465.695, 280 466.710, 274.500 467.880 C 268.978 469.055, 258.455 470.290, 251 470.639 C 243.575 470.986, 237.275 471.497, 237 471.774 C 235.993 472.787, 279.896 470.950, 293 469.430 C 314.890 466.891, 339.498 461.615, 338.322 459.712 C 337.921 459.063, 338.298 458.900, 339.305 459.287 C 341.886 460.277, 362.479 452.584, 361.497 450.996 C 361.236 450.572, 361.804 450.288, 362.761 450.363 C 363.723 450.439, 364.377 449.908, 364.225 449.176 C 364.074 448.447, 364.431 448.149, 365.019 448.512 C 365.607 448.875, 367.231 448.423, 368.628 447.508 C 371.118 445.877, 371.132 445.800, 369.334 443.672 L 367.500 441.500 369.698 443.358 C 371.860 445.186, 371.935 445.173, 374.356 442.560 C 380.017 436.453, 380.157 435.452, 379.728 404.220 C 379.511 388.424, 379.663 363.575, 380.067 349 C 380.470 334.425, 380.667 322.359, 380.504 322.188 C 380.342 322.016, 380.049 322.251, 379.854 322.711 M 275.500 326.536 C 273.850 327.292, 273.201 327.930, 274.059 327.955 C 274.916 327.980, 276.491 327.339, 277.559 326.532 C 279.929 324.739, 279.423 324.740, 275.500 326.536 M 252.762 331.707 C 254.006 331.946, 255.806 331.937, 256.762 331.687 C 257.718 331.437, 256.700 331.241, 254.500 331.252 C 252.300 331.263, 251.518 331.468, 252.762 331.707 M 121.370 355 C 121.370 360.775, 121.535 363.137, 121.737 360.250 C 121.939 357.363, 121.939 352.637, 121.737 349.750 C 121.535 346.863, 121.370 349.225, 121.370 355 M 121.252 371.500 C 121.263 373.700, 121.468 374.482, 121.707 373.238 C 121.946 371.994, 121.937 370.194, 121.687 369.238 C 121.437 368.282, 121.241 369.300, 121.252 371.500 M 121.272 380 C 121.272 382.475, 121.467 383.488, 121.706 382.250 C 121.944 381.012, 121.944 378.988, 121.706 377.750 C 121.467 376.512, 121.272 377.525, 121.272 380 M 121.370 397 C 121.370 402.775, 121.535 405.137, 121.737 402.250 C 121.939 399.363, 121.939 394.637, 121.737 391.750 C 121.535 388.863, 121.370 391.225, 121.370 397 M 120.320 428 C 120.320 431.575, 120.502 433.038, 120.723 431.250 C 120.945 429.462, 120.945 426.538, 120.723 424.750 C 120.502 422.962, 120.320 424.425, 120.320 428 M 124.333 439.624 C 124.333 440.333, 124.837 441.107, 125.452 441.343 C 126.068 441.580, 126.571 440.999, 126.571 440.053 C 126.571 439.107, 126.068 438.333, 125.452 438.333 C 124.837 438.333, 124.333 438.914, 124.333 439.624 M 206.500 468.953 C 208.420 469.823, 213.776 470.390, 212.917 469.633 C 212.688 469.431, 210.700 468.991, 208.500 468.656 C 205.712 468.232, 205.106 468.322, 206.500 468.953" stroke="none" fill="#2f2929" fill-rule="evenodd"/><path d="M 233.250 27.748 C 242.463 27.913, 257.538 27.913, 266.750 27.748 C 275.962 27.583, 268.425 27.448, 250 27.448 C 231.575 27.448, 224.037 27.583, 233.250 27.748 M 196.264 28.718 C 197.784 28.947, 200.034 28.941, 201.264 28.704 C 202.494 28.467, 201.250 28.279, 198.500 28.286 C 195.750 28.294, 194.744 28.488, 196.264 28.718 M 298.750 28.706 C 299.988 28.944, 302.012 28.944, 303.250 28.706 C 304.488 28.467, 303.475 28.272, 301 28.272 C 298.525 28.272, 297.512 28.467, 298.750 28.706 M 176.264 29.718 C 177.784 29.947, 180.034 29.941, 181.264 29.704 C 182.494 29.467, 181.250 29.279, 178.500 29.286 C 175.750 29.294, 174.744 29.488, 176.264 29.718 M 318.750 29.706 C 319.988 29.944, 322.012 29.944, 323.250 29.706 C 324.488 29.467, 323.475 29.272, 321 29.272 C 318.525 29.272, 317.512 29.467, 318.750 29.706 M 163.250 30.689 C 164.213 30.941, 165.787 30.941, 166.750 30.689 C 167.713 30.438, 166.925 30.232, 165 30.232 C 163.075 30.232, 162.287 30.438, 163.250 30.689 M 151.762 31.707 C 153.006 31.946, 154.806 31.937, 155.762 31.687 C 156.718 31.437, 155.700 31.241, 153.500 31.252 C 151.300 31.263, 150.518 31.468, 151.762 31.707 M 344.762 31.707 C 346.006 31.946, 347.806 31.937, 348.762 31.687 C 349.718 31.437, 348.700 31.241, 346.500 31.252 C 344.300 31.263, 343.518 31.468, 344.762 31.707 M 232.216 222.019 C 221.019 224.952, 211.539 230.376, 203.481 238.459 C 193.067 248.906, 188.036 260.476, 188.012 274.040 C 187.986 288.349, 193.038 300.038, 204.083 311.227 C 216.328 323.631, 232.020 329.965, 250.500 329.965 C 284.629 329.965, 312 305.352, 312 274.661 C 312 250.985, 291.765 227.634, 265.985 221.558 C 256.936 219.425, 241.300 219.638, 232.216 222.019 M 249.254 234.250 C 247.251 236.776, 235.112 259.682, 232.693 265.500 C 227.837 277.182, 226.533 287.839, 228.890 296.591 C 232.555 310.202, 246.595 319.658, 259.032 316.891 C 269.731 314.511, 276.045 305.942, 276.807 292.766 C 277.716 277.079, 271.070 259.870, 256.140 239.250 C 251.357 232.644, 250.830 232.262, 249.254 234.250 M 253 248.167 C 253 248.886, 255.350 255.231, 258.223 262.267 C 262.001 271.519, 263.869 274.981, 264.973 274.772 C 268.910 274.028, 266.212 260.436, 260.470 252.085 C 257.435 247.672, 253 245.346, 253 248.167 M 125.964 319.682 C 127.124 321.156, 129.069 323.040, 130.287 323.868 C 131.504 324.696, 130.700 323.490, 128.500 321.188 C 123.917 316.392, 122.902 315.789, 125.964 319.682 M 119.232 330 C 119.232 331.925, 119.438 332.712, 119.689 331.750 C 119.941 330.788, 119.941 329.212, 119.689 328.250 C 119.438 327.288, 119.232 328.075, 119.232 330 M 380.420 390.500 C 380.419 401.500, 380.565 406.136, 380.745 400.803 C 380.924 395.470, 380.925 386.470, 380.746 380.803 C 380.568 375.136, 380.421 379.500, 380.420 390.500 M 120.272 379 C 120.272 381.475, 120.467 382.488, 120.706 381.250 C 120.944 380.012, 120.944 377.988, 120.706 376.750 C 120.467 375.512, 120.272 376.525, 120.272 379 M 119.232 418 C 119.232 419.925, 119.438 420.712, 119.689 419.750 C 119.941 418.788, 119.941 417.212, 119.689 416.250 C 119.438 415.288, 119.232 416.075, 119.232 418" stroke="none" fill="#f8ea28" fill-rule="evenodd"/></svg>