<svg xmlns="http://www.w3.org/2000/svg" width="154" height="232" viewBox="0 0 154 232" version="1.1"><path d="M 94 10 L 94 11.333 94.667 10.667 L 95.333 10 94.667 9.333 L 94 8.667 94 10 M 93.158 15 L 93.158 17.500 93.662 16.250 C 93.940 15.563, 93.940 14.438, 93.662 13.750 L 93.158 12.500 93.158 15 M 92.063 19.643 L 92 21.786 93.643 22.417 C 94.547 22.763, 95.522 22.811, 95.810 22.524 C 96.098 22.236, 95.794 22, 95.134 22 L 93.936 22 93.031 19.750 L 92.127 17.500 92.063 19.643 M 97.500 24 C 97.840 24.550, 98.343 25, 98.618 25 C 98.893 25, 98.840 24.550, 98.500 24 C 98.160 23.450, 97.657 23, 97.382 23 C 97.107 23, 97.160 23.450, 97.500 24 M 90 60 C 90.825 60.533, 91.950 60.969, 92.500 60.969 L 93.500 60.969 92 60 C 91.175 59.467, 90.050 59.031, 89.500 59.031 L 88.500 59.031 90 60 M 100 65.313 C 100 65.485, 101.463 66.948, 103.250 68.563 L 106.500 71.500 103.563 68.250 C 100.825 65.221, 100 64.540, 100 65.313 M 47.910 99.832 C 48.450 100.840, 49.676 102.302, 50.637 103.082 L 52.382 104.500 50.003 101.250 C 47.377 97.662, 46.392 96.995, 47.910 99.832" stroke="none" fill="#e2eee2" fill-rule="evenodd"/><path d="M 53 3.460 L 53 6.007 54.964 9.672 C 56.044 11.687, 57.432 15.764, 58.048 18.732 L 59.168 24.129 54.271 29.314 L 49.373 34.500 46.616 40.337 L 43.859 46.174 42.447 52.837 L 41.035 59.500 41.024 67.500 L 41.014 75.500 42.952 83.581 C 45.089 92.497, 46.463 96.116, 49.285 100.273 L 51.168 103.045 54.908 104.953 L 58.647 106.861 64.655 107.540 L 70.662 108.220 73.398 102.441 L 76.134 96.662 76.678 92.074 L 77.221 87.485 75.111 77.300 C 73.950 71.699, 73 65.050, 73 62.526 L 73 57.936 74.345 54.718 C 75.085 52.948, 76.378 50.930, 77.218 50.233 L 78.747 48.965 80.316 49.568 L 81.886 50.170 82.193 53.335 L 82.500 56.500 92.500 57.262 C 98 57.681, 104.075 58.131, 106 58.262 L 109.500 58.500 109.462 51.500 L 109.423 44.500 107.717 38.864 L 106.010 33.228 101.257 27.864 C 98.643 24.914, 97.271 23.101, 98.208 23.836 L 99.912 25.172 100.817 24.613 L 101.722 24.054 102.355 17.777 C 102.702 14.325, 103.272 9.138, 103.621 6.250 L 104.254 1 101.211 1 L 98.167 1 97.662 2.250 L 97.158 3.500 97.079 2.250 L 97 1 89.608 1 L 82.217 1 81.568 3.584 L 80.920 6.168 81.570 11.917 L 82.221 17.666 79.128 18.947 L 76.036 20.228 74.518 19.645 L 73 19.063 73 17.231 C 73 16.224, 72.563 14.963, 72.029 14.429 C 71.495 13.895, 70.241 10.768, 69.242 7.479 L 67.424 1.500 60.212 1.206 L 53 0.912 53 3.460 M 94 10 L 94 11.333 94.667 10.667 L 95.333 10 94.667 9.333 L 94 8.667 94 10 M 93.158 15 L 93.158 17.500 93.662 16.250 C 93.940 15.563, 93.940 14.438, 93.662 13.750 L 93.158 12.500 93.158 15 M 92.063 19.643 L 92 21.786 93.643 22.417 C 94.547 22.763, 95.522 22.811, 95.810 22.524 C 96.098 22.236, 95.794 22, 95.134 22 L 93.936 22 93.031 19.750 L 92.127 17.500 92.063 19.643 M 34.291 46.509 L 32.137 48.018 30.671 53.259 C 29.865 56.141, 28.920 60.156, 28.571 62.180 L 27.936 65.861 22.718 67.507 C 19.848 68.412, 15.122 70.077, 12.216 71.207 L 6.931 73.260 5.899 75.189 L 4.867 77.117 5.503 80.013 L 6.139 82.909 7.908 83.471 L 9.678 84.033 13.307 82.516 L 16.936 81 20.409 81 L 23.882 81 24.409 81.853 C 24.699 82.322, 23.832 86.259, 22.483 90.603 C 21.134 94.946, 20.023 98.626, 20.015 98.780 C 20.007 98.934, 21.238 98.188, 22.750 97.123 L 25.500 95.187 30.827 93.975 L 36.155 92.763 39.577 93.319 L 43 93.874 42.989 92.687 C 42.983 92.034, 42.297 89.255, 41.465 86.511 L 39.952 81.522 39.374 71.511 L 38.796 61.500 40.386 54.051 L 41.975 46.603 40.738 45.817 C 38.843 44.613, 36.663 44.847, 34.291 46.509 M 118.946 54.585 C 117.051 56.557, 114.229 58.836, 112.677 59.649 L 109.853 61.127 100.750 59.564 C 95.744 58.704, 90.939 58.016, 90.074 58.035 L 88.500 58.071 91 59.500 C 94.210 61.335, 93.188 61.389, 88.872 59.612 C 87.017 58.848, 83.649 57.919, 81.386 57.547 L 77.273 56.870 75.556 58.587 L 73.839 60.304 74.538 66.402 C 74.923 69.756, 76.136 75.421, 77.233 78.991 L 79.229 85.482 79.176 89.346 L 79.122 93.210 75.571 100.688 L 72.019 108.167 73.001 110.001 L 73.982 111.836 80.939 113.418 L 87.895 115 94.398 115 C 97.975 115, 103.281 114.490, 106.188 113.866 L 111.475 112.732 112.706 111.116 L 113.937 109.500 113.389 104.500 C 112.449 95.929, 109.779 81.677, 108.348 77.594 C 107.045 73.878, 107.261 70.911, 108.583 74.357 L 109.214 76 111.857 76.021 C 113.311 76.033, 117.650 77.164, 121.500 78.534 L 128.500 81.026 130.750 78.457 L 133 75.888 133 73.896 L 133 71.905 130.328 69.428 C 128.858 68.066, 126.608 66.689, 125.328 66.367 C 123.180 65.828, 121.988 64, 123.784 64 C 124.979 64, 128 58.447, 128 56.251 L 128 54.310 126.171 52.655 C 123.601 50.329, 122.843 50.531, 118.946 54.585 M 100 65.313 C 100 65.485, 101.463 66.948, 103.250 68.563 L 106.500 71.500 103.563 68.250 C 100.825 65.221, 100 64.540, 100 65.313 M 114.269 100.441 L 114.847 110.117 116.355 112.418 L 117.862 114.720 126.181 120.317 C 130.757 123.395, 135.677 126.192, 137.114 126.531 L 139.729 127.149 140.344 125.545 L 140.960 123.941 139.306 119.720 C 135.952 111.159, 123.027 95.761, 116.070 92.037 L 113.692 90.765 114.269 100.441 M 32 94.935 C 30.625 95.355, 27.689 96.624, 25.475 97.755 L 21.451 99.811 16.905 104.670 C 14.406 107.343, 11.112 111.660, 9.586 114.263 L 6.812 118.997 4.285 127.749 L 1.758 136.500 1.719 148 L 1.680 159.500 4.296 167.779 L 6.912 176.058 11.642 183.107 L 16.371 190.157 20.827 194.078 C 23.277 196.235, 25.721 198, 26.257 198 L 27.233 198 26.525 195.750 C 22.503 182.973, 22.170 178.606, 24.528 169.552 L 26.057 163.684 29.765 156.592 L 33.473 149.500 39.034 144 C 42.092 140.975, 47.448 136.050, 50.936 133.056 C 54.423 130.061, 59.689 124.686, 62.638 121.111 L 68 114.611 68 112.352 L 68 110.094 64.250 109.053 C 62.188 108.480, 59.385 108.009, 58.022 108.006 L 55.544 108 49.970 102.050 L 44.396 96.101 41.633 95.050 C 38.501 93.860, 35.635 93.825, 32 94.935 M 69.302 114.843 C 64.538 122.646, 61.986 125.714, 55.593 131.330 C 37.875 146.893, 34.680 150.499, 29.539 160.736 L 27.123 165.546 25.918 174.023 L 24.713 182.500 25.927 188.250 L 27.142 194 31.084 198.987 C 37.438 207.026, 51.141 216.809, 58.500 218.561 C 60.150 218.954, 61.977 219.648, 62.559 220.102 C 63.142 220.557, 71.017 223.419, 80.059 226.462 L 96.500 231.995 119.635 231.998 L 142.770 232 144.231 229.750 C 149.178 222.129, 152.531 207.141, 153.571 188 L 154.196 176.500 152.623 166.240 L 151.050 155.980 148.399 148.240 C 146.941 143.983, 144.483 137.688, 142.937 134.250 L 140.125 128 138.222 128 C 137.176 128, 133.569 126.626, 130.208 124.946 L 124.096 121.892 119.102 117.402 L 114.109 112.912 108.304 114.652 L 102.500 116.392 93 116.296 L 83.500 116.201 77.212 114.193 L 70.924 112.186 69.302 114.843" stroke="none" fill="#7c1c24" fill-rule="evenodd"/></svg>