<svg xmlns="http://www.w3.org/2000/svg" width="634" height="178" viewBox="0 0 634 178" version="1.1"><path d="M 482.500 0.659 C 480.850 0.857, 475.274 1.743, 470.108 2.628 L 460.716 4.236 452.608 3.735 C 448.149 3.460, 438.307 2.641, 430.738 1.916 L 416.977 0.597 410.238 1.775 L 403.500 2.953 395.500 6.419 L 387.500 9.886 369 14.481 C 358.825 17.008, 347.575 20.024, 344 21.182 L 337.500 23.287 318.500 33.034 L 299.500 42.780 293.648 43.982 L 287.796 45.184 284.507 44.567 L 281.219 43.950 276.859 40.484 L 272.500 37.018 267.500 35.321 L 262.500 33.625 245.500 33.818 C 236.150 33.924, 221.975 34.485, 214 35.063 L 199.500 36.116 185.413 38.500 C 177.666 39.811, 160.116 43.548, 146.413 46.804 C 132.711 50.061, 115.200 54.195, 107.500 55.991 C 84.478 61.363, 70.646 66.878, 58.387 75.571 L 52.273 79.906 44.749 88.203 C 40.611 92.766, 34.003 100.775, 30.064 106 L 22.904 115.500 18.960 123.500 L 15.016 131.500 10.679 145.500 C 8.293 153.200, 5.635 161.075, 4.772 163 C 3.909 164.925, 2.397 168.852, 1.412 171.727 L -0.379 176.955 0.267 177.601 C 0.623 177.956, 1.555 178.001, 2.339 177.700 L 3.765 177.153 6.121 170.326 L 8.477 163.500 21.991 150 C 38.224 133.783, 51.208 122.785, 64 114.417 L 73.500 108.203 97 96.267 L 120.500 84.331 131.500 80.745 L 142.500 77.159 150 76.123 L 157.500 75.087 185.500 74.463 L 213.500 73.840 230 74.882 L 246.500 75.923 263.500 78.956 C 272.850 80.624, 282.840 82.507, 285.699 83.142 L 290.898 84.295 297.199 82.993 C 306.700 81.030, 318.169 76.773, 335.074 68.933 C 354.628 59.865, 359.774 57.963, 375 54.178 C 411.310 45.150, 450.085 41.037, 499 41.023 L 520.500 41.017 532 42.016 C 538.325 42.565, 548 43.906, 553.500 44.994 C 559 46.083, 567.775 47.439, 573 48.007 C 585.153 49.330, 591.123 51.076, 603.594 56.955 C 620.664 65.002, 629.278 71.833, 630.149 78.013 L 630.500 80.500 632 80.500 L 633.500 80.500 633.808 77.832 L 634.117 75.164 631.443 69.832 L 628.769 64.500 619.974 55.859 C 602.207 38.403, 579.073 21.114, 564.595 14.471 C 543.503 4.795, 503.764 -1.891, 482.500 0.659 M 482.500 4.401 C 481.950 4.608, 476.252 5.584, 469.837 6.570 L 458.175 8.362 439.755 6.539 L 421.334 4.716 413.917 5.200 L 406.500 5.684 398 9.441 L 389.500 13.197 366.235 19.058 L 342.970 24.918 334.735 28.939 C 330.206 31.151, 320.911 35.881, 314.081 39.450 L 301.662 45.939 294.457 47.542 L 287.251 49.145 282.891 47.971 L 278.531 46.797 274.854 43.884 C 272.831 42.282, 269.449 40.202, 267.338 39.260 L 263.500 37.549 244.500 37.773 C 207.290 38.212, 186.801 40.918, 145.317 50.871 C 131.668 54.146, 116 57.813, 110.500 59.020 C 87.830 63.996, 70.727 70.806, 59.500 79.327 C 49.985 86.548, 32.518 107.127, 25.046 119.921 L 21.145 126.600 17.049 138.480 C 14.796 145.013, 13.076 150.711, 13.226 151.141 C 13.377 151.571, 20.250 145.819, 28.500 138.357 C 45.740 122.764, 51.052 118.521, 63.412 110.469 L 72.325 104.662 96.412 92.500 L 120.500 80.337 130.066 77.206 C 135.327 75.484, 143.627 73.378, 148.511 72.526 L 157.391 70.978 196.945 70.942 L 236.500 70.907 244 71.965 C 248.125 72.547, 257.575 74.111, 265 75.441 C 272.425 76.770, 281.650 78.325, 285.500 78.897 L 292.500 79.935 299 78.561 C 307.801 76.700, 318.572 72.592, 336.738 64.168 L 351.975 57.102 361.238 54.146 C 378.207 48.731, 405.862 43.262, 430 40.547 C 459.112 37.272, 504.915 36.121, 530 38.035 L 543.500 39.064 553 40.997 C 558.225 42.060, 566.775 43.396, 572 43.965 C 587.949 45.703, 592.479 47.137, 610.250 56.076 L 618 59.974 618 59.143 C 618 57.740, 591.438 35.519, 582.187 29.183 C 577.389 25.896, 569.797 21.359, 565.317 19.099 L 557.170 14.992 544.835 11.613 C 538.051 9.755, 528.225 7.465, 523 6.525 L 513.500 4.815 498.500 4.420 C 490.250 4.203, 483.050 4.194, 482.500 4.401" stroke="none" fill="#fffcfc" fill-rule="evenodd"/></svg>