<svg xmlns="http://www.w3.org/2000/svg" width="624" height="153" viewBox="0 0 624 153" version="1.1"><path d="M 186.301 0.995 C 159.949 3.775, 119.534 16.253, 91.500 30.265 C 77.020 37.503, 67.248 43.880, 52 56.044 C 45.675 61.089, 36 68.265, 30.500 71.989 C 19.733 79.281, 11.829 86.497, 9.343 91.304 C 8.488 92.956, 6.530 96.047, 4.990 98.173 L 2.191 102.037 0.990 107.040 L -0.210 112.042 1.028 113.534 L 2.265 115.025 3.633 113.890 L 5 112.755 5 110.338 C 5 106.710, 8.621 100.320, 13.843 94.732 L 18.500 89.749 28.718 82.997 L 38.937 76.246 48.218 72.183 C 59.972 67.039, 72.367 63.439, 87 60.920 L 98.500 58.940 128.500 57.872 L 158.500 56.805 167.500 57.419 C 179.031 58.205, 187.644 60.255, 195.912 64.181 L 202.500 67.309 210.052 74.905 L 217.605 82.500 221.908 90.856 C 224.275 95.451, 227.064 100.064, 228.106 101.106 L 230 103 232.960 103 C 234.588 103, 246.721 100.318, 259.923 97.040 C 273.125 93.761, 291.322 89.489, 300.361 87.545 L 316.795 84.010 332.648 82.025 C 355.708 79.137, 385.059 77.066, 413 76.356 L 437.500 75.733 457 76.916 C 526.848 81.152, 571.018 94.338, 595.839 118.364 C 605.954 128.155, 613.932 141.154, 614.335 148.500 L 614.500 151.500 617 151.500 L 619.500 151.500 619.598 148.500 C 619.651 146.850, 620.221 142.754, 620.865 139.399 C 621.508 136.043, 622.651 127.953, 623.406 121.421 L 624.778 109.544 622.945 97.022 L 621.112 84.500 619.108 78.746 C 618.007 75.582, 615.412 69.770, 613.343 65.832 L 609.580 58.672 603.040 52.052 L 596.500 45.433 590.261 41.650 C 578.731 34.661, 558.441 28.557, 536.500 25.477 L 525.500 23.933 506 23.003 L 486.500 22.073 426.500 23.015 C 393.500 23.533, 347.412 24.423, 324.083 24.992 L 281.667 26.028 278.083 25.377 C 272.052 24.281, 265.463 21.308, 255.051 14.982 C 241.979 7.041, 236.059 4.406, 226.991 2.495 L 219.500 0.916 207 0.523 L 194.500 0.130 186.301 0.995 M 179 6.511 C 148.174 10.744, 100.350 28.291, 75.313 44.555 C 66.052 50.570, 41.435 69.757, 44.500 68.571 C 55.590 64.277, 60.034 62.742, 67.646 60.573 C 72.516 59.185, 80.550 57.331, 85.500 56.451 L 94.500 54.852 126.926 53.543 L 159.351 52.233 169.509 53.046 L 179.666 53.859 186.003 55.501 C 193.991 57.571, 202.111 61.649, 208.848 66.974 L 214.092 71.119 218.655 77.310 C 221.164 80.714, 224.706 86.451, 226.524 90.058 C 228.343 93.664, 230.512 97.180, 231.344 97.870 L 232.856 99.125 265.678 91.113 C 283.730 86.707, 303.225 82.207, 309 81.114 C 333.629 76.454, 367.658 73.236, 403.903 72.141 L 427.306 71.434 448.403 72.157 L 469.500 72.879 483.500 74.451 C 531.509 79.841, 562.764 88.953, 585.696 104.244 L 593.500 109.447 600.569 116.494 L 607.638 123.542 612.042 130.954 L 616.445 138.366 617.261 134.933 C 617.709 133.045, 618.330 124.300, 618.641 115.500 L 619.205 99.500 617.149 89.587 L 615.093 79.674 611.159 71.475 L 607.224 63.275 600.710 56.388 L 594.195 49.500 588.662 46.167 C 572.206 36.254, 548.033 30.321, 514.301 27.916 L 497.500 26.717 442.500 27.317 C 412.250 27.646, 370.625 28.421, 350 29.038 L 312.500 30.160 292.500 29.830 L 272.500 29.500 266.796 26.826 C 263.658 25.356, 256.573 21.376, 251.050 17.982 C 239.307 10.765, 233.282 8.283, 223 6.425 L 215.500 5.070 202 5.138 L 188.500 5.206 179 6.511" stroke="none" fill="#f4f5f6" fill-rule="evenodd"/></svg>