<svg xmlns="http://www.w3.org/2000/svg" width="192" height="371" viewBox="0 0 192 371" version="1.1"><path d="M 171.329 1.482 L 169.212 2.965 168.476 18.665 L 167.741 34.365 168.953 55.933 L 170.166 77.500 169.109 87.600 C 168.528 93.155, 167.750 98.555, 167.379 99.600 L 166.706 101.500 167.790 100.500 L 168.875 99.500 170.052 88.502 L 171.230 77.503 170 56.604 L 168.770 35.704 169.492 19.345 L 170.214 2.986 171.323 2.301 C 171.933 1.923, 174.022 1.303, 175.966 0.922 L 179.500 0.230 176.473 0.115 L 173.445 0 171.329 1.482 M 184.083 0.358 C 184.313 0.556, 186.198 0.979, 188.272 1.299 L 192.045 1.882 191.463 0.941 L 190.882 0 187.274 0 C 185.290 0, 183.854 0.161, 184.083 0.358 M 113.269 50.693 C 114.242 50.947, 115.592 50.930, 116.269 50.656 L 117.500 50.158 114.500 50.195 L 111.500 50.232 113.269 50.693 M 121.269 50.693 C 122.242 50.947, 123.592 50.930, 124.269 50.656 L 125.500 50.158 122.500 50.195 L 119.500 50.232 121.269 50.693 M 128 52.279 C 128 52.443, 130.062 54.300, 132.583 56.407 L 137.166 60.238 135.977 58.335 C 134.962 56.709, 128 51.424, 128 52.279 M 103.352 53.993 C 101.250 54.841, 99.455 56.794, 100.150 57.477 C 100.342 57.666, 101.850 56.738, 103.500 55.415 C 106.718 52.835, 106.698 52.643, 103.352 53.993 M 91.412 63.546 L 85.500 69.093 87.608 68.087 C 88.768 67.534, 90.466 65.938, 91.381 64.541 L 93.046 62 94.488 62 L 95.930 62 97 60 C 97.589 58.900, 97.902 58, 97.697 58 C 97.492 58, 94.663 60.496, 91.412 63.546 M 138.098 62.578 C 138.977 63.635, 139.975 65.287, 140.317 66.250 C 140.658 67.213, 141.432 68, 142.037 68 L 143.136 68 141.022 65.030 C 139.858 63.397, 138.365 61.745, 137.703 61.358 L 136.500 60.656 138.098 62.578 M 81.240 74.356 C 79.032 76.751, 76.700 79.789, 76.058 81.106 L 74.890 83.500 77.195 80.692 C 78.463 79.148, 80.963 76.320, 82.750 74.409 C 85.775 71.174, 86.541 70, 85.627 70 C 85.422 70, 83.448 71.960, 81.240 74.356 M 146.080 75.410 C 147.244 77.385, 148.356 79, 148.551 79 C 149.389 79, 146.091 72.530, 145.080 72.193 L 143.962 71.821 146.080 75.410 M 150.045 82.750 C 150.108 83.792, 154.899 92.656, 154.955 91.833 C 155.030 90.722, 151.110 82, 150.536 82 C 150.241 82, 150.020 82.338, 150.045 82.750 M 71.133 87.500 C 69.997 89.425, 69.224 91, 69.415 91 C 69.606 91, 70.964 89.425, 72.432 87.500 L 75.102 84 74.150 84 C 73.626 84, 72.268 85.575, 71.133 87.500 M 66.232 94.750 C 65.185 96.263, 64.003 98.063, 63.605 98.750 L 62.882 100 63.755 100 C 64.236 100, 65.590 98.200, 66.764 96 C 69.235 91.371, 68.982 90.778, 66.232 94.750 M 157.908 101.466 C 158.838 104.473, 159.875 107.208, 160.212 107.545 C 160.986 108.319, 159.593 102.398, 158.143 98.750 C 156.276 94.055, 156.132 95.726, 157.908 101.466 M 58.664 106.750 L 56.957 110.500 58.552 108.500 C 59.429 107.400, 60.579 105.713, 61.108 104.750 L 62.070 103 61.220 103 C 60.753 103, 59.602 104.688, 58.664 106.750 M 164 111 C 164 112.100, 164.173 113, 164.383 113 C 164.594 113, 165.002 112.100, 165.290 111 L 165.813 109 164.906 109 L 164 109 164 111 M 54.318 114.250 C 53.037 115.978, 50.941 121, 51.501 121 C 51.753 121, 52.878 119.200, 54 117 C 56.002 113.076, 56.152 111.777, 54.318 114.250 M 162.550 115.047 C 162.998 116.396, 163.879 120.200, 164.508 123.500 L 165.651 129.500 166.159 126.206 L 166.667 122.912 165.901 122.439 C 165.479 122.178, 165.172 120.658, 165.217 119.061 L 165.300 116.157 163.518 114.375 L 161.736 112.593 162.550 115.047 M 49.405 123.155 L 48.691 124.309 49.845 123.595 C 50.480 123.203, 51 122.684, 51 122.441 C 51 121.607, 50.117 122.002, 49.405 123.155 M 47.589 125.856 C 47.298 126.327, 46.598 127.927, 46.033 129.413 L 45.006 132.114 45.905 131.559 C 46.399 131.254, 47.274 129.653, 47.850 128.002 C 48.849 125.135, 48.715 124.034, 47.589 125.856 M 167.787 132 L 167.346 135 168.173 135 L 169 135 169 132 C 169 130.350, 168.826 129, 168.613 129 C 168.401 129, 168.029 130.350, 167.787 132 M 190.657 131.750 C 189.824 133.104, 187.716 145.049, 188.221 145.554 C 188.492 145.826, 189.388 142.662, 190.211 138.524 C 191.629 131.397, 191.720 130.021, 190.657 131.750 M 42.036 136.933 C 41.467 137.996, 40.523 140.133, 39.938 141.683 L 38.874 144.500 39.844 143.500 C 40.959 142.351, 44.107 135, 43.484 135 C 43.257 135, 42.605 135.870, 42.036 136.933 M 176.250 141.662 C 175.563 141.940, 175 142.570, 175 143.062 L 175 143.957 177.574 142.784 L 180.148 141.611 182.061 142.806 C 184.671 144.436, 185.498 144.306, 184 142.500 L 182.755 141 180.128 141.079 C 178.682 141.122, 176.938 141.385, 176.250 141.662 M 169.606 143.829 C 169.324 144.285, 169.550 151.597, 170.107 160.079 L 171.120 175.500 170.526 188.500 C 170.200 195.650, 169.740 203.750, 169.505 206.500 L 169.077 211.500 169.986 208 L 170.895 204.500 171.197 186 C 171.464 169.707, 170.927 143, 170.333 143 C 170.215 143, 169.888 143.373, 169.606 143.829 M 35.480 150.033 C 35.129 150.600, 34.435 152.483, 33.938 154.215 L 33.035 157.365 33.881 156.433 C 34.346 155.920, 35.215 154.037, 35.811 152.250 C 36.881 149.046, 36.726 148.016, 35.480 150.033 M 28.673 166.446 C 27.820 168.951, 27.435 171, 27.817 171 C 28.645 171, 31.279 162.946, 30.656 162.323 C 30.419 162.086, 29.527 163.941, 28.673 166.446 M 23.906 178.747 C 23.331 180.259, 22.257 184.086, 21.518 187.252 L 20.175 193.010 21.088 192.446 C 21.589 192.136, 22.003 191.121, 22.008 190.191 C 22.012 189.261, 22.871 185.688, 23.916 182.250 C 25.837 175.932, 25.831 173.685, 23.906 178.747 M 21.385 197.465 C 23.328 200.430, 23.360 200.760, 21.750 201.177 L 20.500 201.500 24 205.021 C 25.925 206.958, 27.006 207.858, 26.402 207.021 C 25.798 206.185, 24.937 204.861, 24.488 204.080 L 23.672 202.660 25.266 203.272 L 26.861 203.884 24.430 200.302 C 23.094 198.333, 22 196.334, 22 195.860 C 22 195.387, 21.498 195, 20.885 195 L 19.770 195 21.385 197.465 M 23 202 L 23 203.333 23.667 202.667 L 24.333 202 23.667 201.333 L 23 200.667 23 202 M 14.825 204.326 L 14.248 207.152 15.218 206.182 L 16.188 205.212 15.794 203.356 L 15.401 201.500 14.825 204.326 M 17.496 206.500 C 17.729 209.250, 18.205 215.887, 18.553 221.249 C 18.902 226.610, 19.502 231.192, 19.888 231.431 L 20.591 231.865 19.880 226.182 C 19.489 223.057, 19.086 217.350, 18.985 213.500 C 18.883 209.650, 18.411 205.375, 17.936 204 L 17.071 201.500 17.496 206.500 M 28.007 206.500 C 28.824 207.600, 32.165 211.079, 35.431 214.232 L 41.369 219.964 40.734 220.600 L 40.098 221.235 34.049 215.465 C 30.722 212.292, 28 209.983, 28 210.335 C 28 211.220, 37.796 220.990, 38.737 221.043 C 39.157 221.066, 41.509 222.849, 43.964 225.005 L 48.429 228.924 49.129 227.791 L 49.829 226.658 52.415 228.352 L 55 230.046 55 229.036 C 55 228.481, 53.478 227.391, 51.618 226.614 L 48.236 225.201 37.379 214.850 C 31.407 209.158, 27.190 205.400, 28.007 206.500 M 21.716 219.601 C 22.468 225.460, 23.508 231.884, 24.027 233.877 L 24.969 237.500 24.484 233.500 C 24.217 231.300, 23.484 225.225, 22.856 220 C 22.227 214.775, 21.406 210.151, 21.031 209.724 C 20.655 209.297, 20.964 213.742, 21.716 219.601 M 11.566 214.893 C 10.731 216.244, 8.129 229.205, 8.834 228.500 C 9.491 227.842, 12.909 214, 12.414 214 C 12.251 214, 11.870 214.402, 11.566 214.893 M 43.962 224.041 C 45.866 225.668, 47.891 226.982, 48.462 226.959 C 49.033 226.937, 47.942 225.587, 46.038 223.959 C 44.134 222.332, 42.109 221.018, 41.538 221.041 C 40.967 221.063, 42.058 222.413, 43.962 224.041 M 163.427 226.479 C 162.367 227.280, 160.713 227.951, 159.750 227.968 L 158 228 158 229.013 L 158 230.027 161.699 228.481 C 165.818 226.760, 166.561 226.228, 165.844 225.510 C 165.574 225.241, 164.487 225.677, 163.427 226.479 M 52 230.496 C 52 231.451, 56.679 233.361, 59.500 233.558 C 61.150 233.673, 64.024 234.256, 65.886 234.853 C 70.602 236.365, 68.850 234.932, 63.499 232.901 L 59.091 231.228 58.708 232.364 L 58.325 233.500 56.913 232.405 C 55.271 231.133, 52 229.862, 52 230.496 M 157.517 231.667 L 153.534 233.101 153.234 232.202 L 152.934 231.303 148.047 232.902 C 141.561 235.023, 140.287 236.423, 146.580 234.514 C 149.286 233.693, 151.864 233.017, 152.309 233.011 L 153.118 233 152.532 233.949 L 151.946 234.897 156.472 233.355 C 158.961 232.507, 161.250 231.405, 161.558 230.906 C 161.866 230.408, 161.979 230.052, 161.809 230.117 C 161.639 230.181, 159.708 230.878, 157.517 231.667 M 64.500 236.719 C 65.860 238.002, 74.055 240.278, 74.764 239.569 C 75.077 239.256, 74.782 239, 74.108 239 C 73.434 239, 73.091 238.662, 73.345 238.250 L 73.809 237.500 71.155 237.465 C 69.695 237.446, 67.375 237.058, 66 236.603 L 63.500 235.775 64.500 236.719 M 142 237.136 C 140.625 237.691, 137.025 238.276, 134 238.437 C 124.554 238.937, 114.564 240.226, 113 241.145 L 111.500 242.027 114 241.572 C 115.375 241.322, 119.343 240.840, 122.818 240.501 C 126.292 240.162, 129.853 239.610, 130.732 239.273 L 132.328 238.660 131.692 239.690 L 131.055 240.719 137.240 239.291 C 140.641 238.505, 144.116 237.457, 144.962 236.961 C 147.012 235.761, 145.132 235.872, 142 237.136 M 21.528 238.651 C 21.744 239.668, 22.667 244.550, 23.581 249.500 C 24.494 254.450, 25.564 258.855, 25.959 259.288 C 26.354 259.722, 25.725 255.135, 24.561 249.094 C 23.397 243.053, 22.150 237.817, 21.790 237.457 L 21.136 236.802 21.528 238.651 M 4.050 245.750 C 3.371 250.012, 2.609 254.161, 2.355 254.970 L 1.894 256.439 2.685 255.648 C 3.121 255.213, 4.192 251.064, 5.068 246.428 L 6.659 238 5.971 238 C 5.592 238, 4.728 241.488, 4.050 245.750 M 77.812 238.968 C 79.083 239.525, 83.220 240.351, 87.005 240.803 L 93.886 241.625 93.474 240.958 C 93.247 240.591, 90.337 240.007, 87.006 239.658 C 83.675 239.310, 79.723 238.784, 78.225 238.490 L 75.500 237.954 77.812 238.968 M 89.345 243.235 L 90.500 243.969 103.191 243.985 L 115.882 244 116.345 243.250 L 116.809 242.500 102.500 242.500 L 88.191 242.500 89.345 243.235 M 28.590 254.057 C 30.021 260.188, 31 262.648, 31 260.109 C 31 257.924, 28.751 249.525, 27.919 248.605 L 27.110 247.710 28.590 254.057 M 29.512 272.045 C 30.274 274.934, 31.340 277.740, 31.882 278.282 L 32.866 279.266 31.133 273.667 C 28.888 266.410, 27.716 265.238, 29.512 272.045 M 0.463 317 C 0.463 344.225, 0.592 355.363, 0.749 341.750 C 0.906 328.137, 0.906 305.863, 0.749 292.250 C 0.592 278.637, 0.463 289.775, 0.463 317 M 33.285 269.187 C 33.617 270.116, 34.376 272.684, 34.972 274.895 C 35.567 277.106, 36.442 279.155, 36.916 279.448 L 37.778 279.981 36.089 274.524 C 35.161 271.523, 34.014 268.715, 33.541 268.284 L 32.681 267.500 33.285 269.187 M 165.560 274.250 C 165.352 274.938, 164.503 278.366, 163.673 281.868 L 162.164 288.236 163.048 287.352 C 163.973 286.427, 167.059 273, 166.347 273 C 166.121 273, 165.767 273.563, 165.560 274.250 M 35.582 287.288 C 36.465 289.878, 37.540 292.216, 37.971 292.482 C 38.989 293.111, 36.152 284.799, 34.919 283.539 L 33.977 282.577 35.582 287.288 M 40.459 287.500 C 41.364 289.700, 42.573 291.950, 43.145 292.500 L 44.186 293.500 42.541 289.500 C 41.636 287.300, 40.427 285.050, 39.855 284.500 L 38.814 283.500 40.459 287.500 M 40 296.632 C 40 297.502, 44.059 304, 44.602 304 C 44.843 304, 44.122 302.200, 43 300 C 41.122 296.319, 40 295.059, 40 296.632 M 46.150 299.002 C 47.091 301.698, 49 304.049, 49 302.509 C 49 301.597, 46.013 296, 45.526 296 C 45.294 296, 45.575 297.351, 46.150 299.002 M 159.591 296.853 C 158.769 298.183, 156.795 311.885, 157.235 313.206 C 157.452 313.855, 158.291 310.249, 159.100 305.193 C 160.559 296.080, 160.610 295.204, 159.591 296.853 M 49.500 305 C 49.840 305.550, 50.343 306, 50.618 306 C 50.893 306, 50.840 305.550, 50.500 305 C 50.160 304.450, 49.657 304, 49.382 304 C 49.107 304, 49.160 304.450, 49.500 305 M 47.671 309.500 C 48.650 311.150, 50.025 312.860, 50.726 313.300 C 51.427 313.740, 52.687 315.427, 53.526 317.050 C 54.365 318.672, 55.520 320, 56.094 320 L 57.136 320 55.108 317.250 C 53.992 315.738, 51.461 312.700, 49.484 310.500 L 45.889 306.500 47.671 309.500 M 52.797 309.984 C 53.733 311.626, 55.080 313.193, 55.788 313.468 L 57.076 313.966 54.419 310.483 C 51.161 306.211, 50.533 306.018, 52.797 309.984 M 57.808 316.641 C 58.362 317.676, 59.842 319.417, 61.096 320.511 L 63.378 322.500 61.143 319.280 C 59.913 317.509, 58.433 315.768, 57.854 315.410 L 56.800 314.759 57.808 316.641 M 58.924 323.364 C 60.258 324.814, 61.775 326, 62.297 326 L 63.245 326 61.955 324.445 C 61.245 323.590, 59.727 322.404, 58.582 321.810 L 56.500 320.729 58.924 323.364 M 63.471 323.953 C 63.795 324.478, 65.509 325.905, 67.280 327.124 L 70.500 329.341 67.563 326.170 C 65.948 324.427, 64.233 323, 63.754 323 L 62.882 323 63.471 323.953 M 63.829 328.262 C 64.560 329.161, 66.810 330.869, 68.829 332.058 L 72.500 334.221 70.817 332.360 C 69.891 331.337, 67.641 329.629, 65.817 328.564 L 62.500 326.627 63.829 328.262 M 71.221 330.164 C 71.435 330.805, 72.710 332.022, 74.055 332.869 L 76.500 334.409 74.076 331.704 C 71.459 328.785, 70.609 328.327, 71.221 330.164 M 73 334.859 C 73 335.406, 74.350 336.527, 76 337.350 C 77.650 338.173, 79 338.687, 79 338.491 C 79 338.296, 77.650 337.175, 76 336 L 73 333.864 73 334.859 M 77.523 335.038 C 77.782 335.456, 79.570 336.729, 81.497 337.866 L 85 339.933 85 339.071 C 85 338.597, 83.212 337.324, 81.027 336.243 C 78.841 335.162, 77.265 334.620, 77.523 335.038 M 151 342.251 L 147.500 346.467 150.182 344.483 C 152.287 342.926, 155.798 337.934, 154.729 338.018 C 154.603 338.028, 152.925 339.933, 151 342.251 M 82.500 340.814 C 83.050 341.364, 85.204 342.515, 87.287 343.372 L 91.074 344.929 90.381 343.807 L 89.687 342.685 91.594 343.262 C 92.642 343.579, 95.045 344.317, 96.933 344.902 L 100.365 345.965 99.433 345.115 C 98.920 344.648, 96.362 343.558, 93.750 342.694 L 89 341.121 89 342.010 L 89 342.898 85.250 341.356 L 81.500 339.814 82.500 340.814 M 95.500 346.705 C 96.736 347.941, 105.867 350.466, 106.567 349.766 C 106.847 349.486, 105.092 348.757, 102.667 348.146 C 100.242 347.536, 97.412 346.737, 96.379 346.371 L 94.500 345.706 95.500 346.705 M 108.960 348.360 L 110.074 349.474 124.287 349.821 L 138.500 350.168 140.819 349.286 L 143.139 348.405 130.819 348.804 L 118.500 349.203 113.172 348.224 L 107.845 347.245 108.960 348.360 M 107.500 355.246 C 99.208 356.217, 96.434 356.793, 97.107 357.404 C 97.662 357.908, 119.135 355.198, 119.792 354.541 C 120.452 353.882, 117.908 354.027, 107.500 355.246 M 33.750 361.303 C 31.688 361.880, 30 362.679, 30 363.078 L 30 363.804 34.265 362.521 C 36.610 361.815, 39.423 361.011, 40.515 360.735 L 42.500 360.232 40 360.242 C 38.625 360.248, 35.813 360.725, 33.750 361.303 M 20.250 366.839 C 17.913 367.719, 16 368.796, 16 369.233 L 16 370.027 19.750 368.461 C 21.813 367.600, 23.927 366.469, 24.450 365.948 C 25.577 364.824, 25.650 364.808, 20.250 366.839 M 1 367.378 C 1 367.585, 1.788 368.373, 2.750 369.128 L 4.500 370.500 3.128 368.750 C 1.821 367.084, 1 366.555, 1 367.378" stroke="none" fill="#24761c" fill-rule="evenodd"/><path d="M 172.696 1.317 L 173.201 2.134 171.585 1.817 L 169.969 1.500 169.423 24 C 169.123 36.375, 168.685 47.086, 168.450 47.802 L 168.023 49.104 169.085 48.447 L 170.147 47.791 169.824 56.803 L 169.500 65.816 170.250 65.349 L 171 64.882 171 71.790 C 171 80.977, 169.864 94.034, 169.106 93.564 C 168.773 93.358, 168.500 94.834, 168.500 96.844 L 168.500 100.500 167.125 100.208 L 165.751 99.917 166.231 102.428 L 166.711 104.939 165.861 104.414 L 165.010 103.888 165.169 107.947 C 165.382 113.383, 164.442 113.993, 162.610 109.608 C 161.780 107.624, 160.828 106, 160.492 106 C 160.156 106, 160.200 106.562, 160.588 107.250 L 161.293 108.500 160.085 107.389 L 158.877 106.277 158.689 102.740 C 158.585 100.794, 158.214 99.377, 157.864 99.590 C 157.514 99.803, 156.993 99.082, 156.707 97.987 L 156.187 95.997 157.053 96.533 L 157.920 97.068 156.863 94.035 L 155.805 91.002 155.007 91.495 L 154.210 91.989 153.602 90.404 L 152.994 88.820 153.651 87.755 L 154.309 86.691 153.301 87.314 L 152.292 87.937 151.173 85.480 C 150.557 84.129, 150.277 82.443, 150.549 81.733 L 151.044 80.443 149.448 78.471 C 148.570 77.387, 148.180 77.132, 148.580 77.905 L 149.309 79.309 148.086 78.553 L 146.864 77.798 147.420 76.347 L 147.977 74.896 147.093 75.442 L 146.210 75.989 145.446 74.244 C 145.026 73.285, 144.769 72.116, 144.876 71.646 C 144.982 71.177, 144.815 69.992, 144.504 69.013 L 143.939 67.232 142.219 67.366 L 140.500 67.500 140.468 65.366 L 140.435 63.232 137.968 60.310 C 136.610 58.704, 135.942 58.089, 136.483 58.944 L 137.466 60.500 135.272 58.631 C 134.066 57.603, 133.174 56.253, 133.290 55.631 L 133.500 54.500 131.883 54.763 L 130.267 55.026 128.883 53.263 L 127.500 51.500 129.047 52.500 L 130.594 53.500 128.770 51.817 L 126.945 50.135 123.317 50.723 L 119.689 51.312 120.404 50.156 L 121.118 49 118.500 49 L 115.882 49 116.596 50.156 L 117.311 51.312 113.633 50.715 L 109.955 50.118 110.479 50.966 L 111.003 51.813 109.251 51.359 L 107.500 50.904 105.500 52.526 L 103.500 54.148 105 53.500 C 105.825 53.143, 105.181 53.882, 103.569 55.141 L 100.638 57.431 98.574 57.465 L 96.511 57.500 96.505 59.500 L 96.500 61.500 94.499 61.537 C 93.398 61.558, 91.955 61.910, 91.292 62.319 L 90.087 63.064 90.589 64.372 L 91.091 65.680 89.589 66.926 L 88.088 68.172 87.094 67.558 L 86.100 66.944 84.950 69.093 L 83.800 71.241 85 70.500 L 86.200 69.759 85.023 71.957 L 83.847 74.155 82.455 73.621 L 81.064 73.087 80.329 74.276 C 79.925 74.930, 79.534 76.287, 79.460 77.292 C 79.386 78.297, 78.290 80.105, 77.025 81.309 L 74.725 83.500 75.517 82.095 L 76.309 80.691 75.086 81.447 L 73.864 82.202 74.372 83.528 L 74.881 84.854 73.599 85.918 L 72.316 86.983 71.605 86.272 L 70.894 85.561 71.493 87.120 L 72.091 88.680 70.296 90.090 L 68.500 91.500 69.500 89.953 C 70.050 89.102, 69.514 89.526, 68.310 90.895 L 66.119 93.384 66.677 94.287 L 67.236 95.191 65.930 97.630 L 64.625 100.070 63.312 99.566 C 61.948 99.043, 61.893 99.138, 61.515 102.614 C 61.389 103.777, 60.966 105.247, 60.574 105.880 L 59.862 107.033 58.942 106.464 L 58.023 105.896 58.580 107.347 L 59.136 108.798 57.914 109.553 L 56.691 110.309 57.405 109.155 C 57.797 108.520, 57.878 108, 57.585 108 C 57.291 108, 56.328 109.400, 55.443 111.110 L 53.835 114.220 54.991 113.506 L 56.147 112.791 54.053 116.895 C 52.902 119.153, 51.717 121, 51.421 121 C 51.124 121, 51.160 120.550, 51.500 120 C 51.840 119.450, 51.918 119, 51.674 119 C 50.554 119, 47.762 124.554, 47.583 127.139 L 47.384 130.016 46.045 131.258 L 44.707 132.500 45.412 131.250 C 45.800 130.563, 45.878 130, 45.585 130 C 45.291 130, 44.328 131.400, 43.443 133.110 L 41.835 136.220 42.906 135.558 L 43.977 134.896 43.384 136.442 L 42.790 137.989 41.988 137.493 L 41.187 136.997 41.641 138.749 L 42.096 140.500 40.474 142.500 C 39.582 143.600, 39.137 143.938, 39.485 143.250 C 39.833 142.563, 39.878 142, 39.585 142 C 38.486 142, 35.816 148.362, 35.503 151.727 L 35.178 155.222 33.943 156.361 L 32.707 157.500 33.412 156.250 C 33.800 155.563, 33.878 155, 33.585 155 C 33.291 155, 32.346 156.363, 31.485 158.029 L 29.918 161.059 30.524 162.038 C 30.857 162.577, 30.843 163.920, 30.493 165.023 L 29.856 167.029 29.072 166.545 L 28.289 166.061 28.792 168.694 L 29.296 171.327 27.529 170.649 L 25.761 169.971 26.236 172.455 L 26.711 174.939 25.856 174.411 L 25 173.882 24.885 175.191 C 24.822 175.911, 24.858 177.337, 24.966 178.359 L 25.163 180.219 23.927 179.455 L 22.691 178.691 23.420 179.870 L 24.148 181.049 23.493 184.033 L 22.837 187.017 22.100 186.562 L 21.362 186.106 21.777 188.934 L 22.192 191.763 20.942 192.536 L 19.691 193.309 20.500 192 L 21.309 190.691 20.155 191.405 C 19.520 191.797, 19 192.977, 19 194.028 L 19 195.937 20.371 195.411 L 21.742 194.885 22.374 196.533 L 23.006 198.180 22.349 199.245 L 21.691 200.309 22.595 199.758 L 23.500 199.206 25.251 201.543 L 27.003 203.880 25.936 204.539 L 24.870 205.199 26.627 207.349 C 27.593 208.532, 26.385 207.475, 23.942 205 L 19.500 200.500 19.186 204.886 L 18.872 209.272 20.083 210.386 L 21.293 211.500 20.500 210 L 19.707 208.500 20.967 209.663 L 22.227 210.827 21.845 214.829 L 21.463 218.832 22.342 218.288 L 23.222 217.745 22.861 222.277 L 22.500 226.809 23.375 226.268 L 24.251 225.727 23.834 229.293 L 23.418 232.860 24.365 232.274 L 25.312 231.689 24.715 235.367 L 24.118 239.045 24.878 238.575 L 25.638 238.106 25.206 241.053 L 24.773 244 25.748 244 L 26.723 244 26.267 246.383 L 25.812 248.766 27.060 249.537 L 28.309 250.309 27.508 248.905 L 26.707 247.500 27.717 248.500 C 28.273 249.050, 29.256 251.679, 29.902 254.343 L 31.076 259.186 30.431 261.218 L 29.786 263.250 30.800 262.624 L 31.813 261.997 31.249 264.155 L 30.685 266.313 31.749 265.655 L 32.813 264.997 32.279 267.041 L 31.744 269.085 33.122 268.793 L 34.500 268.500 34.466 271.175 L 34.433 273.851 35.135 273.417 C 35.999 272.882, 37.468 278.809, 37.103 281.359 L 36.837 283.219 37.907 282.557 L 38.977 281.896 38.420 283.347 L 37.864 284.798 39.086 285.553 L 40.309 286.309 39.508 284.905 L 38.707 283.500 39.801 284.500 C 40.403 285.050, 41.617 287.228, 42.499 289.341 L 44.103 293.181 42.969 292.481 L 41.835 291.780 43.443 294.890 C 44.328 296.600, 45.291 298, 45.585 298 C 45.878 298, 45.840 297.550, 45.500 297 C 45.160 296.450, 45.122 296, 45.415 296 C 45.709 296, 46.632 297.321, 47.467 298.937 L 48.986 301.873 48.425 303.336 L 47.864 304.798 49.086 305.553 L 50.309 306.309 49.500 305 L 48.691 303.691 49.802 304.378 L 50.913 305.064 50.411 306.372 L 49.909 307.680 51.704 309.090 L 53.500 310.500 52 308.500 L 50.500 306.500 52.296 307.910 L 54.091 309.320 53.557 310.712 L 53.023 312.104 53.898 311.563 L 54.773 311.022 56.137 312.703 L 57.500 314.384 56.150 313.571 L 54.800 312.759 55.935 314.879 C 56.560 316.046, 57.306 317, 57.594 317 C 57.882 317, 57.789 316.438, 57.387 315.750 L 56.656 314.500 58.835 316.411 C 60.033 317.462, 60.940 318.812, 60.849 319.411 C 60.759 320.010, 61.018 321.259, 61.425 322.187 L 62.166 323.874 63.371 323.411 L 64.577 322.949 67.538 326.186 L 70.500 329.424 68.500 327.962 L 66.500 326.500 67.910 328.296 L 69.320 330.091 70.554 329.618 L 71.787 329.144 73.863 331.354 L 75.938 333.563 73.476 333.456 C 72.122 333.396, 70.674 332.972, 70.257 332.514 L 69.500 331.679 70.905 332.494 L 72.309 333.309 71.622 332.198 L 70.936 331.087 69.593 331.603 L 68.249 332.118 65.375 329.479 C 63.794 328.027, 63.057 327.123, 63.739 327.471 L 64.977 328.104 64.406 326.615 L 63.834 325.126 62.619 325.593 L 61.404 326.059 58.952 323.368 C 57.603 321.888, 57.057 320.998, 57.739 321.391 L 58.977 322.104 58.406 320.615 L 57.834 319.126 56.494 319.641 L 55.153 320.155 53.996 317.992 C 53.359 316.802, 53.096 315.571, 53.410 315.256 C 53.725 314.942, 53.504 314.107, 52.918 313.401 L 51.854 312.119 50.556 312.617 L 49.258 313.115 48.626 311.467 C 48.278 310.561, 48.227 309.441, 48.513 308.979 C 48.799 308.516, 48.506 307.813, 47.862 307.415 L 46.691 306.691 47.500 308 L 48.309 309.309 47.198 308.622 L 46.087 307.936 46.714 306.304 L 47.340 304.672 46.181 305.388 L 45.023 306.104 45.580 304.653 L 46.136 303.202 44.914 302.447 L 43.691 301.691 44.500 303 L 45.309 304.309 44.086 303.553 L 42.864 302.798 43.420 301.347 L 43.977 299.896 43.039 300.476 L 42.100 301.056 41.054 299.100 L 40.007 297.145 40.526 295.794 L 41.044 294.443 39.448 292.471 C 38.570 291.387, 38.180 291.132, 38.580 291.905 L 39.309 293.309 38.248 292.653 C 37.665 292.293, 36.493 289.961, 35.645 287.472 L 34.103 282.946 35.040 283.525 L 35.977 284.104 35.384 282.558 L 34.790 281.011 33.988 281.507 L 33.187 282.003 33.680 280.114 L 34.174 278.226 32.933 277.458 L 31.691 276.691 32.420 278.095 C 32.820 278.868, 32.414 278.600, 31.516 277.500 L 29.883 275.500 30.297 273.280 L 30.711 271.061 29.856 271.589 L 29 272.118 28.889 269.809 C 28.828 268.539, 28.867 266.437, 28.976 265.138 L 29.173 262.775 28.231 263.357 L 27.289 263.939 27.739 261.587 L 28.188 259.234 26.940 258.463 L 25.691 257.691 26.500 259 L 27.309 260.309 26.058 259.536 L 24.808 258.763 25.223 255.934 L 25.638 253.106 24.883 253.572 L 24.128 254.039 23.461 249.590 L 22.794 245.142 23.552 243.916 L 24.309 242.691 23.155 243.405 L 22 244.118 21.899 240.809 C 21.843 238.989, 21.874 236.083, 21.967 234.351 L 22.136 231.202 20.913 230.446 L 19.691 229.691 20.492 231.095 L 21.293 232.500 20.039 231.342 L 18.784 230.184 19.142 225.687 L 19.500 221.191 18.750 221.654 L 18 222.118 17.798 214.309 C 17.687 210.014, 17.579 205.262, 17.558 203.750 L 17.519 201 16.398 201 L 15.277 201 15.733 203.383 L 16.188 205.766 14.940 206.537 L 13.691 207.309 14.500 206 L 15.309 204.691 14.067 205.458 L 12.826 206.226 13.320 208.114 L 13.813 210.003 12.907 209.442 L 12 208.882 11.901 211.691 C 11.847 213.236, 11.705 215.400, 11.586 216.500 C 11.467 217.600, 11.286 219.539, 11.185 220.809 L 11 223.118 10.181 222.612 L 9.362 222.106 9.777 224.934 L 10.192 227.763 8.942 228.536 L 7.691 229.309 8.500 228 L 9.309 226.691 8.060 227.463 L 6.812 228.234 7.261 230.587 L 7.711 232.939 6.810 232.383 L 5.909 231.826 6.113 235.663 C 6.371 240.511, 4.021 254.173, 2.701 255.500 L 1.707 256.500 2.508 255.095 L 3.309 253.691 2.059 254.464 L 0.809 255.236 1.195 258.548 C 1.408 260.369, 1.339 261.709, 1.041 261.525 C 0.743 261.341, 0.617 285.294, 0.759 314.754 L 1.018 368.317 2.031 369.538 L 3.044 370.758 9.956 370.790 L 16.869 370.822 16.375 369.534 L 15.881 368.247 18.486 367.593 L 21.092 366.939 22.200 367.624 L 23.309 368.309 22.660 367.259 L 22.011 366.210 23.558 365.616 L 25.104 365.023 24.500 366 L 23.896 366.977 25.442 366.384 C 26.293 366.057, 26.780 365.453, 26.525 365.040 L 26.061 364.289 28.545 364.764 L 31.029 365.239 30.351 363.471 L 29.673 361.704 32.306 362.208 L 34.939 362.711 34.461 361.937 L 33.983 361.163 36.969 360.507 L 39.955 359.851 42.103 360.533 L 44.250 361.214 43.709 360.339 L 43.168 359.463 47.216 359.849 L 51.263 360.235 50.726 359.368 L 50.189 358.500 74.106 358.785 L 98.023 359.069 97.762 357.785 L 97.500 356.500 103.157 356.500 C 106.269 356.500, 108.642 356.223, 108.431 355.885 C 108.221 355.546, 110.543 354.976, 113.593 354.618 L 119.137 353.966 120.164 354.602 L 121.192 355.237 120.821 353.368 L 120.450 351.500 117.318 351.504 L 114.186 351.508 114.729 350.629 L 115.273 349.749 111.750 350.161 L 108.227 350.572 108.759 349.187 L 109.290 347.802 107.375 348.998 L 105.459 350.194 100.480 348.704 L 95.500 347.213 95.793 345.979 L 96.085 344.744 94.117 345.259 L 92.150 345.774 92.722 344.137 L 93.294 342.500 92.042 343.655 L 90.790 344.810 87.145 343.312 C 85.140 342.489, 83.185 341.519, 82.800 341.157 L 82.100 340.500 84.955 340.500 L 87.809 340.500 87.388 341.181 C 87.157 341.555, 87.425 342.144, 87.984 342.490 L 89 343.118 89 342.120 L 89 341.121 93.750 342.694 C 96.362 343.558, 98.950 344.722, 99.500 345.280 L 100.500 346.293 99 345.455 L 97.500 344.616 98.855 346.287 L 100.210 347.958 102.226 346.879 L 104.241 345.800 103.539 346.937 L 102.836 348.074 106.168 348.098 C 108.001 348.111, 117.372 348.274, 126.992 348.461 L 144.485 348.801 147.065 347.466 C 148.485 346.732, 150.280 345.315, 151.056 344.316 L 152.466 342.500 149.983 344.493 L 147.500 346.486 149.895 343.774 L 152.291 341.062 153.300 341.685 L 154.309 342.309 153.502 341.003 L 152.694 339.697 154.463 338.403 L 156.232 337.110 155.825 333.625 L 155.418 330.140 156.292 330.680 L 157.166 331.220 156.833 323.702 L 156.500 316.184 157.357 316.717 L 158.214 317.250 157.562 314.284 L 156.911 311.318 158.011 304.409 L 159.112 297.500 160.203 296.500 L 161.293 295.500 160.492 296.905 L 159.691 298.309 160.942 297.536 L 162.192 296.763 161.777 293.934 L 161.362 291.106 162.181 291.612 L 163 292.118 163.099 289.809 C 163.153 288.539, 163.295 286.600, 163.414 285.500 C 163.533 284.400, 163.714 282.461, 163.815 281.191 L 164 278.882 164.819 279.388 L 165.638 279.894 165.223 277.066 L 164.808 274.237 166.058 273.464 L 167.309 272.691 166.500 274 L 165.691 275.309 166.942 274.536 L 168.192 273.763 167.777 270.934 L 167.362 268.106 168.267 268.665 L 169.173 269.225 168.836 262.110 L 168.500 254.995 169.250 254.998 C 169.662 254.999, 170 253.848, 170 252.441 L 170 249.882 169.250 250.349 L 168.500 250.816 168.833 243.298 L 169.166 235.780 168.297 236.316 L 167.429 236.853 167.429 235 L 167.429 233.147 168.214 233.632 L 169 234.118 169 232.993 C 169 232.375, 168.534 230.998, 167.965 229.934 L 166.930 228 165.406 228 L 163.882 228 164.633 229.250 L 165.384 230.500 163.825 229.238 L 162.265 227.975 160.883 229.680 L 159.500 231.384 160.905 230.537 L 162.309 229.691 161.653 230.752 C 161.293 231.335, 158.981 232.500, 156.517 233.340 L 152.036 234.866 151.449 233.917 L 150.862 232.967 149.915 233.553 C 149.394 233.875, 149.186 234.492, 149.453 234.925 L 149.939 235.711 147.321 235.211 L 144.703 234.710 145.361 235.774 L 146.018 236.839 142.759 237.848 C 137.084 239.605, 132.619 240.322, 128.663 240.112 L 124.826 239.909 125.319 240.704 L 125.812 241.500 120.873 241.151 L 115.934 240.803 116.217 242.151 L 116.500 243.500 104.500 243.790 C 97.900 243.949, 91.469 243.823, 90.209 243.510 L 87.918 242.941 88.591 241.853 L 89.263 240.765 85.216 241.151 L 81.168 241.537 81.573 240.882 C 81.795 240.522, 81.121 240.003, 80.073 239.729 L 78.169 239.231 77.251 240.149 L 76.333 241.067 76.333 239.467 L 76.333 237.867 78.641 238.446 C 79.911 238.765, 83.701 239.313, 87.064 239.665 L 93.179 240.304 93.697 241.652 L 94.214 243 103.666 243 L 113.118 243 112.518 242.029 L 111.918 241.059 114.209 240.618 C 120.773 239.356, 132.291 238.062, 133.010 238.506 C 133.463 238.786, 136.120 238.524, 138.916 237.925 L 144 236.834 144 235.858 L 144 234.882 142.845 235.595 L 141.691 236.309 142.328 235.278 C 143.157 233.937, 151.816 231.627, 154.862 231.934 L 157.225 232.173 156.420 230.836 L 155.616 229.500 157.452 230.992 L 159.288 232.484 158.577 230.242 L 157.865 228 159.683 227.968 C 160.682 227.951, 162.331 227.307, 163.347 226.537 L 165.194 225.137 166.758 225.737 L 168.321 226.337 167.754 224.167 L 167.187 221.997 168.198 222.622 L 169.210 223.248 168.855 218.218 L 168.500 213.188 169.274 213.668 L 170.047 214.147 169.371 209.920 L 168.695 205.694 169.598 206.255 L 170.500 206.815 170.179 197.305 L 169.858 187.794 170.679 188.302 L 171.500 188.809 171.500 178 L 171.500 167.191 170.679 167.698 L 169.858 168.206 170.179 158.695 L 170.500 149.185 169.750 149.651 L 169 150.118 169 147.118 L 169 144.118 170.158 143.403 L 171.315 142.687 170.751 144.844 L 170.187 147 171.971 147 C 172.952 147, 174.256 146.396, 174.869 145.658 L 175.983 144.316 175.270 143.604 L 174.558 142.891 176.029 141.961 C 176.838 141.449, 178.711 141.024, 180.191 141.015 L 182.882 141 183.665 142.250 C 184.095 142.938, 184.459 144.175, 184.474 145 L 184.500 146.500 186.861 146.834 L 189.222 147.168 188.510 146.017 L 187.799 144.866 189.011 138.443 L 190.223 132.020 191.084 132.552 L 191.944 133.084 191.986 67.613 L 192.027 2.143 189.763 1.416 C 188.519 1.016, 184.055 0.646, 179.845 0.594 L 172.191 0.500 172.696 1.317 M 137 61.378 C 137 61.585, 137.787 62.373, 138.750 63.128 L 140.500 64.500 139.128 62.750 C 137.821 61.084, 137 60.555, 137 61.378 M 91.405 63.155 L 90.691 64.309 91.845 63.595 C 92.480 63.203, 93 62.684, 93 62.441 C 93 61.607, 92.117 62.002, 91.405 63.155 M 80.405 75.155 L 79.691 76.309 80.845 75.595 C 81.480 75.203, 82 74.684, 82 74.441 C 82 73.607, 81.117 74.002, 80.405 75.155 M 67.405 93.155 L 66.691 94.309 67.845 93.595 C 68.998 92.883, 69.393 92, 68.559 92 C 68.316 92, 67.797 92.520, 67.405 93.155 M 162.550 115.047 C 162.998 116.396, 163.879 120.200, 164.508 123.500 L 165.651 129.500 166.159 126.206 L 166.667 122.912 165.901 122.439 C 165.479 122.178, 165.172 120.658, 165.217 119.061 L 165.300 116.157 163.518 114.375 L 161.736 112.593 162.550 115.047 M 49.405 123.155 L 48.691 124.309 49.845 123.595 C 50.480 123.203, 51 122.684, 51 122.441 C 51 121.607, 50.117 122.002, 49.405 123.155 M 167.787 132 L 167.346 135 168.173 135 L 169 135 169 132 C 169 130.350, 168.826 129, 168.613 129 C 168.401 129, 168.029 130.350, 167.787 132 M 23 201.902 C 23 202.940, 24.902 204.443, 25.466 203.850 C 25.649 203.658, 25.169 202.920, 24.399 202.211 L 23 200.921 23 201.902 M 27.873 206.237 L 29.224 207.975 28.687 209.372 L 28.151 210.770 29.679 212.952 L 31.208 215.134 32.531 214.627 L 33.854 214.119 35.069 215.584 C 35.738 216.389, 36.522 216.811, 36.811 216.522 C 37.482 215.851, 41 218.995, 41 220.266 C 41 220.791, 40.115 220.159, 39.033 218.861 C 37.952 217.562, 37.052 216.907, 37.033 217.405 L 37 218.310 34.830 216.405 L 32.661 214.500 35.018 217.750 C 36.315 219.537, 37.854 221.019, 38.438 221.043 C 39.022 221.066, 41.504 222.845, 43.954 224.996 L 48.408 228.906 49.891 227.703 L 51.374 226.500 50.815 228 L 50.255 229.500 52.628 229.644 L 55 229.788 55 228.908 C 55 228.423, 53.478 227.391, 51.618 226.614 L 48.236 225.201 37.379 214.850 C 31.407 209.158, 27.129 205.282, 27.873 206.237 M 31 210.378 C 31 210.585, 31.788 211.373, 32.750 212.128 L 34.500 213.500 33.128 211.750 C 31.821 210.084, 31 209.555, 31 210.378 M 42.479 222.976 C 43.462 224.063, 44.610 224.741, 45.029 224.482 C 45.448 224.223, 46.048 224.684, 46.364 225.506 C 46.679 226.328, 47.471 227, 48.124 227 L 49.310 227 47.521 225.024 C 46.538 223.937, 45.390 223.259, 44.971 223.518 C 44.552 223.777, 43.952 223.316, 43.636 222.494 C 43.321 221.672, 42.529 221, 41.876 221 L 40.690 221 42.479 222.976 M 52 230.715 C 52 231.561, 57.049 233.398, 59.500 233.444 L 62.500 233.500 62.262 234.714 L 62.024 235.928 63.553 235.341 L 65.082 234.755 64.791 235.984 L 64.500 237.213 69.356 238.668 C 72.026 239.468, 74.464 239.870, 74.772 239.561 C 75.081 239.252, 74.782 239, 74.108 239 L 72.882 239 73.411 238.144 L 73.939 237.289 71.659 237.725 L 69.378 238.161 67.939 236.388 L 66.500 234.616 68 235.468 L 69.500 236.321 68.704 235.448 C 68.266 234.968, 65.937 233.827, 63.529 232.912 L 59.150 231.250 57.928 232.375 L 56.706 233.500 57.226 232 L 57.745 230.500 54.873 230.500 C 53.293 230.500, 52 230.597, 52 230.715 M 51.500 314 C 51.840 314.550, 52.343 315, 52.618 315 C 52.893 315, 52.840 314.550, 52.500 314 C 52.160 313.450, 51.657 313, 51.382 313 C 51.107 313, 51.160 313.450, 51.500 314 M 61.500 321 C 61.840 321.550, 62.343 322, 62.618 322 C 62.893 322, 62.840 321.550, 62.500 321 C 62.160 320.450, 61.657 320, 61.382 320 C 61.107 320, 61.160 320.450, 61.500 321 M 73 334.995 C 73 335.467, 74.313 336.509, 75.918 337.309 L 78.835 338.765 80.065 337.632 L 81.294 336.500 80.775 338 L 80.255 339.500 82.628 339.644 L 85 339.788 85 338.908 C 85 337.867, 78.471 334.876, 75.250 334.440 L 73 334.136 73 334.995 M 77 335.882 C 77 336.432, 77.450 337.160, 78 337.500 L 79 338.118 79 337.118 C 79 336.568, 78.550 335.840, 78 335.500 L 77 334.882 77 335.882 M 1 367.378 C 1 367.585, 1.788 368.373, 2.750 369.128 L 4.500 370.500 3.128 368.750 C 1.821 367.084, 1 366.555, 1 367.378" stroke="none" fill="#1c7c1c" fill-rule="evenodd"/></svg>