<svg xmlns="http://www.w3.org/2000/svg" width="192" height="371" viewBox="0 0 192 371" version="1.1"><path d="M 172.228 1.211 L 169.957 2.325 169.389 4.585 C 168.632 7.601, 168.436 42.209, 169.022 69.500 L 169.494 91.500 167.694 99.500 C 166.705 103.900, 165.425 108.453, 164.849 109.618 L 163.803 111.736 165.476 119.118 C 166.397 123.178, 167.566 127.281, 168.075 128.236 C 168.584 129.191, 169.045 132.341, 169.100 135.236 C 169.155 138.131, 169.512 141.623, 169.894 142.995 L 170.588 145.489 172.294 145.818 L 174 146.147 174 145.099 C 174 144.523, 175.354 143.351, 177.009 142.495 L 180.018 140.939 181.966 141.982 C 183.038 142.555, 184.328 143.764, 184.833 144.667 L 185.752 146.309 187.199 145.754 L 188.646 145.199 190.363 136.849 L 192.081 128.500 191.791 64.500 L 191.500 0.500 183 0.298 L 174.500 0.097 172.228 1.211 M 108.611 52.003 C 105.922 53.053, 102.743 54.832, 101.547 55.956 C 100.350 57.080, 99.063 58, 98.686 58 C 97.534 58, 95.095 60.313, 82.984 72.888 C 79.121 76.899, 67.958 92.478, 61.767 102.500 C 44.605 130.278, 29.268 162.620, 22.315 185.691 L 19.847 193.883 22.596 198.691 L 25.345 203.500 35.922 214.049 L 46.500 224.597 53.500 228.544 C 62.586 233.666, 69.754 236.626, 78.907 239.034 L 86.314 240.984 96.907 241.601 L 107.500 242.218 117.500 241.091 C 123 240.471, 129.525 239.357, 132 238.615 C 134.475 237.873, 139.200 236.485, 142.500 235.530 C 148.732 233.728, 150.677 232.973, 160.194 228.660 L 165.887 226.079 166.944 224.105 C 167.525 223.020, 168 220.780, 168 219.128 C 168 217.476, 168.635 213.284, 169.411 209.812 L 170.821 203.500 171.392 188.500 L 171.963 173.500 171.094 162 C 170.183 149.955, 167.473 131.917, 166.061 128.500 C 165.606 127.400, 164.463 122.900, 163.521 118.500 C 159.690 100.611, 151.044 80.775, 139.663 63.765 L 135.825 58.030 132.057 55.045 C 127.145 51.155, 123.911 49.990, 118.185 50.047 L 113.500 50.094 108.611 52.003 M 20.439 202.307 L 19.742 204.114 21.424 216.807 C 22.349 223.788, 23.944 233.100, 24.969 237.500 C 25.994 241.900, 27.147 247.075, 27.531 249 C 27.916 250.925, 29.991 258.125, 32.142 265 L 36.055 277.500 42.908 291.500 L 49.760 305.500 56.744 314.533 L 63.728 323.567 69.614 328.658 C 72.851 331.459, 78.875 335.740, 83 338.173 L 90.500 342.597 98 344.842 C 102.125 346.076, 106.850 347.572, 108.500 348.165 L 111.500 349.243 124.146 349.736 L 136.791 350.230 141.839 348.553 C 147.791 346.577, 151.498 343.871, 153.464 340.070 L 154.888 337.316 155.465 329.408 C 156.433 316.162, 159.705 299.168, 164.978 280 L 167.041 272.500 167.981 261.590 C 168.497 255.589, 168.747 250.400, 168.536 250.058 C 168.324 249.716, 168.064 245.625, 167.958 240.968 C 167.662 227.949, 167.565 227.802, 161.151 230.583 C 159.143 231.454, 155.991 232.819, 154.146 233.617 C 151.036 234.961, 136.821 238.943, 127.500 241.082 C 125.300 241.586, 116.952 242.289, 108.949 242.644 L 94.398 243.288 86.431 242.123 C 71.604 239.955, 55.157 233.148, 44.510 224.772 C 35.017 217.304, 30.022 212.700, 28.482 210 C 27.697 208.625, 25.724 205.925, 24.095 204 L 21.135 200.500 20.439 202.307 M 15.634 202.783 C 14.382 204.808, 7.061 232.676, 7.025 235.550 C 7.011 236.677, 6.597 238.027, 6.105 238.550 C 5.612 239.072, 4.174 244.900, 2.909 251.500 L 0.609 263.500 0.247 315.357 L -0.116 367.215 1.597 369.107 L 3.310 371 8.221 371 L 13.131 371 20.816 367.447 C 25.042 365.493, 32.550 362.720, 37.500 361.284 L 46.500 358.673 75.500 357.919 L 104.500 357.165 111.365 356.070 C 118.559 354.923, 120 354.420, 120 353.055 L 120 352.227 115.250 351.541 C 112.638 351.164, 106.675 349.718, 102 348.329 L 93.500 345.802 84.500 341.097 C 70.823 333.947, 63.446 327.869, 52.071 314.381 C 49.225 311.007, 41.218 298.040, 38.868 293 C 30.107 274.213, 28.229 267.941, 20.902 233 C 20.383 230.525, 19.570 222.950, 19.096 216.166 L 18.233 203.833 17.229 202.829 L 16.226 201.826 15.634 202.783" stroke="none" fill="#801c24" fill-rule="evenodd"/><path d="" stroke="none" fill="#7c1c24" fill-rule="evenodd"/></svg>