<svg xmlns="http://www.w3.org/2000/svg" width="394" height="549" viewBox="0 0 394 549" version="1.1"><path d="M 141.750 0.668 L 133 1.078 133 2.539 L 133 4 130.117 4 L 127.233 4 126.710 6 L 126.187 8 121.701 8 L 117.214 8 116.638 9.500 L 116.063 11 113.031 11 L 110 11 110 12.500 L 110 14 106.969 14 L 103.937 14 103.362 15.500 L 102.786 17 99.893 17 L 97 17 97 18.109 C 97 18.719, 95.987 20.286, 94.750 21.592 L 92.500 23.965 89.750 23.983 L 87 24 87 25.500 L 87 27 85.617 27 L 84.233 27 83.710 29 L 83.187 31 81.594 31 L 80 31 80 32.500 L 80 34 77 34 L 74 34 74 35.500 L 74 37 72.500 37 L 71 37 71 40.094 L 71 43.187 69 43.710 L 67 44.233 67 45.617 L 67 47 65.500 47 L 64 47 64 49.777 L 64 52.555 61.053 55.140 L 58.107 57.726 57.463 60.290 L 56.820 62.855 55.410 63.396 L 54 63.937 54 66.969 L 54 70 52.500 70 L 51 70 51 71.500 L 51 73 49.500 73 L 48 73 48 78 L 48 83 46 83 L 44 83 44 86.500 L 44 90 42.500 90 L 41 90 41 99.531 L 41 109.063 39.500 109.638 L 38 110.214 38 126.607 L 38 143 39.500 143 L 41 143 41 149.500 L 41 156 42.500 156 L 44 156 44 162.383 L 44 168.767 46 169.290 L 48 169.813 48 172.906 L 48 176 49.500 176 L 51 176 51 179 L 51 182 52.500 182 L 54 182 54 183.531 L 54 185.063 55.500 185.638 L 57 186.214 57 188.363 L 57 190.511 60.500 193.429 L 64 196.348 64 197.674 L 64 199 65.500 199 L 67 199 67 200.500 L 67 202 68.109 202 C 69.645 202, 73.962 206.226, 73.983 207.750 L 74 209 75.500 209 L 77 209 77 210.500 L 77 212 78.393 212 L 79.786 212 80.362 213.500 L 80.937 215 83.969 215 L 87 215 87 216.500 L 87 218 90.094 218 L 93.187 218 93.710 220 L 94.233 222 97.117 222 L 100 222 100 223.500 L 100 225 105 225 L 110 225 110 226.500 L 110 228 121.500 228 L 133 228 133 229.500 L 133 231 136.500 231 L 140 231 140 229.500 L 140 228 141.500 228 L 143 228 143 229.140 C 143 229.767, 143.787 230.892, 144.750 231.640 L 146.500 233.001 144.750 234.050 L 143 235.099 143 239.550 L 143 244 141.500 244 L 140 244 140 255.383 L 140 266.767 138 267.290 L 136 267.813 136 272.290 L 136 276.767 138 277.290 L 140 277.813 140 290.906 L 140 304 141.500 304 L 143 304 143 309 L 143 314 144.500 314 L 146 314 146 318.594 L 146 323.187 148.054 323.724 L 150.108 324.261 149.804 326.881 L 149.500 329.500 146.250 329.813 L 143 330.127 143 331.563 L 143 333 139.969 333 L 136.937 333 136.362 334.500 L 135.786 336 134.393 336 L 133 336 133 337.109 C 133 337.719, 131.987 339.286, 130.750 340.592 L 128.500 342.965 125.750 342.983 L 123 343 123 344.500 L 123 346 121.500 346 L 120 346 120 347.531 L 120 349.063 118.500 349.638 L 117 350.214 117 351.607 L 117 353 115.500 353 L 114 353 114 350 L 114 347 115.500 347 L 117 347 117 345.891 C 117 345.281, 118.013 343.714, 119.250 342.408 L 121.500 340.035 124.250 340.017 L 127 340 127 338.500 L 127 337 128.500 337 L 130 337 130 333.500 L 130 330 126.969 330 L 123.937 330 123.362 328.500 L 122.786 327 118.510 327 L 114.233 327 113.710 325 L 113.187 323 108.594 323 L 104 323 104 321.500 L 104 320 99 320 L 94 320 94 318.500 L 94 317 87.617 317 L 81.233 317 80.699 314.956 L 80.164 312.913 72.332 313.206 L 64.500 313.500 64.187 316.750 L 63.873 320 62.437 320 L 61 320 61 324.465 L 61 328.930 59 330 L 57 331.070 57 335.535 L 57 340 55.500 340 L 54 340 54 349.531 L 54 359.063 52.500 359.638 L 51 360.214 51 384.607 L 51 409 52.500 409 L 54 409 54 424 L 54 439 55.500 439 L 57 439 57 451.465 L 57 463.930 59 465 L 61 466.070 61 480.535 L 61 495 62.500 495 L 64 495 64 513 L 64 531 65.500 531 L 67 531 67 539 L 67 547 82 547 L 97 547 97 537 L 97 527 95.500 527 L 94 527 94 512.500 L 94 498 92.500 498 L 91 498 91 445.500 L 91 393 92.500 393 L 94 393 94 386.500 L 94 380 95.500 380 L 97 380 97 375.117 L 97 370.233 99 369.710 L 101 369.187 101 367.594 L 101 366 102.500 366 L 104 366 104 363 L 104 360 105.500 360 L 107 360 107 358.500 L 107 357 108.383 357 L 109.767 357 110.290 355 L 110.813 353 111.906 353 L 113 353 113 355.893 L 113 358.786 111.500 359.362 L 110 359.937 110 362.500 L 110 365.063 108.500 365.638 L 107 366.214 107 369.201 L 107 372.187 105 372.710 L 103 373.233 103 376.010 L 103 378.786 101.500 379.362 L 100 379.937 100 386 L 100 392.063 98.500 392.638 L 97 393.214 97 412.607 L 97 432 98.500 432 L 100 432 100 438.500 L 100 445 101.500 445 L 103 445 103 451.594 L 103 458.187 105 458.710 L 107 459.233 107 462.010 L 107 464.786 108.500 465.362 L 110 465.937 110 470.469 L 110 475 111.500 475 L 113 475 113 477.883 L 113 480.767 115 481.290 L 117 481.813 117 483.406 L 117 485 118.500 485 L 120 485 120 488 L 120 491 121.500 491 L 123 491 123 494.500 L 123 498 124.250 498.017 C 125.774 498.038, 130 502.355, 130 503.891 L 130 505 131.500 505 L 133 505 133 506.500 L 133 508 134.500 508 L 136 508 136 511 L 136 514 137.594 514 L 139.187 514 139.710 516 L 140.233 518 141.617 518 L 143 518 143 519.500 L 143 521 145.609 521 L 148.218 521 150.592 523.250 C 151.897 524.488, 152.973 526.063, 152.983 526.750 L 153 528 154.500 528 L 156 528 156 529.500 L 156 531 158.797 531 L 161.594 531 164.047 533.958 L 166.500 536.915 169.344 536.958 L 172.187 537 172.710 539 L 173.233 541 176.117 541 L 179 541 179 542.500 L 179 544 184 544 L 189 544 189 545.388 L 189 546.777 202.049 547.503 L 215.097 548.228 234.985 547.501 L 254.873 546.773 255.405 545.386 L 255.937 544 260.469 544 L 265 544 265 542.500 L 265 541 270 541 L 275 541 275 539 L 275 537 277.893 537 L 280.786 537 281.362 535.500 L 281.937 534 284.862 534 L 287.786 534 288.362 532.500 L 288.937 531 291.969 531 L 295 531 295 529.500 L 295 528 296.383 528 L 297.767 528 298.290 526 L 298.813 524 301.906 524 L 305 524 305 522.500 L 305 521 306.500 521 L 308 521 308 519.500 L 308 518 309.383 518 L 310.767 518 311.290 516 L 311.813 514 314.906 514 L 318 514 318 512.500 L 318 511 319.500 511 L 321 511 321 509.500 L 321 508 322.500 508 L 324 508 324 506.617 L 324 505.233 326 504.710 L 328 504.187 328 502.594 L 328 501 329.500 501 L 331 501 331 499.500 L 331 498 332.500 498 L 334 498 334 496.500 L 334 495 335.500 495 L 337 495 337 491.906 L 337 488.813 339 488.290 L 341 487.767 341 486.383 L 341 485 342.500 485 L 344 485 344 482.174 L 344 479.348 347.500 476.429 L 351 473.511 351 470.756 L 351 468 352.500 468 L 354 468 354 465 L 354 462 355.500 462 L 357 462 357 460.500 L 357 459 358.500 459 L 360 459 360 455.617 L 360 452.233 362 451.710 L 364 451.187 364 446.594 L 364 442 365.500 442 L 367 442 367 439 L 367 436 368.500 436 L 370 436 370 431.117 L 370 426.233 372 425.710 L 374 425.187 374 420.594 L 374 416 375.500 416 L 377 416 377 411 L 377 406 378.500 406 L 380 406 380 399.500 L 380 393 381.500 393 L 383 393 383 386.406 L 383 379.813 385 379.290 L 387 378.767 387 369.383 L 387 360 388.500 360 L 390 360 390 348.500 L 390 337 391.377 337 L 392.754 337 393.491 304.550 L 394.229 272.100 393.492 246.550 L 392.755 221 391.377 221 L 390 221 390 213 L 390 205 388.500 205 L 387 205 387 198.617 L 387 192.233 385 191.710 L 383 191.187 383 186.701 L 383 182.214 381.500 181.638 L 380 181.063 380 178.031 L 380 175 378.500 175 L 377 175 377 170.469 L 377 165.937 375.500 165.362 L 374 164.786 374 162.010 L 374 159.233 372 158.710 L 370 158.187 370 155.094 L 370 152 368.500 152 L 367 152 367 149 L 367 146 365.500 146 L 364 146 364 142.617 L 364 139.233 362 138.710 L 360 138.187 360 135.701 L 360 133.214 358.500 132.638 L 357 132.063 357 130.531 L 357 129 355.500 129 L 354 129 354 126 L 354 123 352.500 123 L 351 123 351 119.906 L 351 116.813 349 116.290 C 347.900 116.002, 347 115.354, 347 114.850 C 347 114.345, 345.650 112.613, 344 111 L 341 108.067 341 105.534 L 341 103 339.750 102.983 C 338.226 102.962, 334 98.645, 334 97.109 L 334 96 332.500 96 L 331 96 331 93 L 331 90 329.500 90 L 328 90 328 88.406 L 328 86.813 326 86.290 L 324 85.767 324 84.383 L 324 83 322.500 83 L 321 83 321 81.500 L 321 80 319.500 80 L 318 80 318 78.617 L 318 77.233 316 76.710 L 314 76.187 314 74.594 L 314 73 312.500 73 L 311 73 311 71.500 L 311 70 309.500 70 L 308 70 308 68.500 L 308 67 306.500 67 L 305 67 305 65.406 L 305 63.813 303 63.290 L 301 62.767 301 61.383 L 301 60 299.500 60 L 298 60 298 58.500 L 298 57 296.500 57 L 295 57 295 55.617 L 295 54.233 293 53.710 L 291 53.187 291 51.594 L 291 50 289.500 50 L 288 50 288 48.500 L 288 47 286.500 47 L 285 47 285 45.500 L 285 44 281.906 44 L 278.813 44 278.290 42 L 277.767 40 276.383 40 L 275 40 275 38.500 L 275 37 273.500 37 L 272 37 272 35.500 L 272 34 268.969 34 L 265.937 34 265.362 32.500 C 265.045 31.675, 264.212 31, 263.510 31 L 262.233 31 261.710 29 L 261.187 27 258.094 27 L 255 27 255 25.500 L 255 24 252 24 L 249 24 249 22.500 L 249 21 247.406 21 L 245.813 21 245.290 19 L 244.767 17 241.883 17 L 239 17 239 15.500 L 239 14 235.969 14 L 232.937 14 232.362 12.500 L 231.786 11 227.362 11 L 222.937 11 222.362 9.500 L 221.786 8 217.299 8 L 212.813 8 212.290 6 L 211.767 4 207.744 4 L 203.720 4 202.596 2.462 L 201.471 0.923 175.985 0.591 C 161.968 0.408, 146.563 0.443, 141.750 0.668 M 104 232.426 L 104 233.852 89.428 234.176 L 74.856 234.500 73.878 236.250 L 72.901 238 47.567 238 L 22.233 238 21.710 236 L 21.187 234 16.500 234 L 11.813 234 11.290 236 L 10.767 238 9.383 238 L 8 238 8 239.500 L 8 241 6.500 241 L 5 241 5 244.031 L 5 247.063 3.500 247.638 L 2 248.214 2 261.107 L 2 274 10 274 L 18 274 18 271.117 L 18 268.233 20 267.710 L 22 267.187 22 265.594 L 22 264 23.500 264 L 25 264 25 262.500 L 25 261 26.500 261 L 28 261 28 259.500 L 28 258 29.500 258 L 31 258 31 256.500 L 31 255 37.500 255 L 44 255 44 256.500 L 44 258 52.031 258 L 60.063 258 60.638 259.500 L 61.214 261 67.138 261 L 73.063 261 73.638 262.500 L 74.214 264 100.201 264 L 126.187 264 126.710 266 L 127.233 268 130.117 268 L 133 268 133 258.406 L 133 248.813 135.043 248.279 L 137.086 247.744 136.793 241.122 L 136.500 234.500 123.250 234.221 L 110 233.942 110 232.471 L 110 231 107 231 L 104 231 104 232.426 M 34 259.500 L 34 261 33 261 C 31.703 261, 28 264.703, 28 266 L 28 267 26.500 267 L 25 267 25 270.094 L 25 273.187 22.972 273.718 L 20.944 274.248 21.222 287.374 L 21.500 300.500 24.750 300.813 L 28 301.127 28 302.563 L 28 304 41 304 L 54 304 54 305.500 L 54 307 65.383 307 L 76.767 307 77.290 309 L 77.813 311 85.906 311 L 94 311 94 312.500 L 94 314 98.531 314 L 103.063 314 103.638 315.500 L 104.214 317 108.607 317 L 113 317 113 318.500 L 113 320 118 320 L 123 320 123 322 L 123 324 126.500 324 L 130 324 130 325.500 L 130 327 131.500 327 L 133 327 133 328.500 L 133 330 136.500 330 L 140 330 140 328.500 L 140 327 141.500 327 L 143 327 143 323.500 L 143 320 141.500 320 L 140 320 140 315 L 140 310 138.500 310 L 137 310 137 303.617 L 137 297.233 135 296.710 L 133 296.187 133 285.594 L 133 275 131 273 L 129 271 105 271 L 81 271 81 269.617 L 81 268.233 78.750 267.630 C 77.513 267.299, 73.688 267.021, 70.250 267.014 L 64 267 64 265.500 L 64 264 57.969 264 L 51.937 264 51.362 262.500 L 50.786 261 46.362 261 L 41.937 261 41.362 259.500 L 40.786 258 37.393 258 L 34 258 34 259.500" stroke="none" fill="#801c24" fill-rule="evenodd"/><path d="" stroke="none" fill="#7c1c24" fill-rule="evenodd"/></svg>