<svg xmlns="http://www.w3.org/2000/svg" width="980" height="980" viewBox="0 0 980 980" version="1.1"><path d="M 369.007 794.750 C 369.011 805.612, 368.551 820.125, 367.984 827 C 365.757 854.032, 365.306 862.496, 365.961 864.947 L 366.644 867.500 383.072 867.598 C 408.231 867.748, 433.391 869.123, 434.235 870.393 C 434.715 871.116, 434.980 870.980, 435 870 C 435.027 868.667, 435.138 868.667, 436 870 C 436.862 871.333, 436.973 871.333, 437 870 C 437.027 868.667, 437.138 868.667, 438 870 C 438.862 871.333, 438.973 871.333, 439 870 C 439.027 868.667, 439.138 868.667, 440 870 C 440.862 871.333, 440.973 871.333, 441 870 C 441.027 868.667, 441.138 868.667, 442 870 C 442.862 871.333, 442.973 871.333, 443 870 C 443.027 868.667, 443.138 868.667, 444 870 C 444.862 871.333, 444.973 871.333, 445 870 C 445.027 868.667, 445.138 868.667, 446 870 C 446.533 870.825, 446.976 871.043, 446.985 870.485 C 447.005 869.125, 463.995 869.125, 464.015 870.485 C 464.024 871.043, 464.467 870.825, 465 870 C 465.862 868.667, 465.973 868.667, 466 870 C 466.027 871.333, 466.138 871.333, 467 870 C 467.862 868.667, 467.973 868.667, 468 870 C 468.027 871.333, 468.138 871.333, 469 870 C 469.862 868.667, 469.973 868.667, 470 870 C 470.027 871.333, 470.138 871.333, 471 870 C 471.862 868.667, 471.973 868.667, 472 870 C 472.027 871.333, 472.138 871.333, 473 870 C 473.862 868.667, 473.973 868.667, 474 870 C 474.027 871.333, 474.138 871.333, 475 870 C 475.862 868.667, 475.973 868.667, 476 870 C 476.027 871.333, 476.138 871.333, 477 870 C 477.862 868.667, 477.973 868.667, 478 870 C 478.025 871.221, 478.190 871.248, 478.889 870.146 C 479.586 869.045, 482.956 868.929, 496.873 869.524 C 506.293 869.926, 514 870.572, 514 870.959 C 514 871.346, 512.972 872.212, 511.715 872.885 C 510.082 873.759, 505.164 873.971, 494.465 873.627 C 456.204 872.399, 416 872.590, 416 874 C 416 874.655, 435.333 875, 472 875 C 521.111 875, 528 874.815, 528 873.500 C 528 872.292, 529.556 872, 536 872 C 542.444 872, 544 872.292, 544 873.500 C 544 874.749, 545.983 875, 555.843 875 C 562.357 875, 573.117 875.292, 579.754 875.649 L 591.822 876.298 592.161 873.899 C 592.481 871.633, 592.929 871.484, 600.250 871.208 C 608.656 870.891, 608.746 870.963, 608.130 877.479 C 607.836 880.586, 609.607 878.139, 611.914 872.250 C 613.529 868.128, 613.676 867, 612.597 867 C 611.841 867, 611.243 866.438, 611.269 865.750 C 611.384 862.646, 610.917 861, 609.921 861 C 609.238 861, 609.076 862.195, 609.481 864.250 C 609.838 866.061, 609.754 866.976, 609.292 866.315 C 608.520 865.213, 592.240 864.337, 567.750 864.081 C 560.172 864.002, 560 863.945, 560 861.500 C 560 859.042, 559.867 859, 552 859 C 544.722 859, 544 858.823, 544 857.040 C 544 855.296, 544.852 855.038, 551.750 854.694 C 556.013 854.481, 552.525 854.575, 544 854.903 C 523.752 855.683, 496.755 855.151, 495.550 853.948 C 494.951 853.350, 497.816 853, 503.300 853 C 508.433 853, 512 853.410, 512 854 C 512 854.584, 515.353 855, 520.059 855 C 525.177 855, 527.892 854.635, 527.500 854 C 527.097 853.348, 533.942 852.949, 547.191 852.854 C 558.361 852.773, 577.943 852.628, 590.707 852.532 L 613.914 852.357 614.264 858.428 C 614.575 863.811, 614.637 863.564, 614.807 856.250 C 614.913 851.712, 614.615 848, 614.145 848 C 613.675 848, 613.029 844.891, 612.711 841.092 C 611.996 832.566, 610.689 830.323, 606.064 829.680 C 604.104 829.408, 589.675 829.178, 574 829.170 C 444.813 829.100, 400 828.784, 400 827.944 C 400 827.378, 409.610 827, 424 827 C 439.333 827, 448 826.639, 448 826 C 448 825.361, 439.364 825, 424.093 825 L 400.187 825 399.467 815.406 C 398.958 808.607, 399.228 801.979, 400.396 792.656 C 402.851 773.048, 404.522 775, 385.287 775 L 369 775 369.007 794.750 M 408 822.500 C 408 823.583, 409.111 824, 412 824 C 414.889 824, 416 823.583, 416 822.500 C 416 821.417, 414.889 821, 412 821 C 409.111 821, 408 821.417, 408 822.500 M 548.500 864.965 L 552.500 865.700 548 865.929 C 545.525 866.055, 543.950 866.340, 544.500 866.562 C 545.050 866.785, 550.675 866.588, 557 866.126 C 565.110 865.533, 566.701 865.244, 562.397 865.143 C 559.040 865.064, 553.640 864.827, 550.397 864.615 C 545.697 864.308, 545.312 864.379, 548.500 864.965 M 491.750 865.732 C 494.087 865.943, 497.913 865.943, 500.250 865.732 C 502.587 865.522, 500.675 865.349, 496 865.349 C 491.325 865.349, 489.413 865.522, 491.750 865.732 M 583.750 866.744 C 588.288 866.929, 595.712 866.929, 600.250 866.744 C 604.788 866.559, 601.075 866.407, 592 866.407 C 582.925 866.407, 579.212 866.559, 583.750 866.744" stroke="none" fill="#a42222" fill-rule="evenodd"/><path d="M 400 376.631 C 400 377.162, 398.439 379.150, 396.532 381.048 C 394.624 382.947, 393.049 385.063, 393.032 385.750 C 393.014 386.438, 392.590 387, 392.089 387 C 390.668 387, 374.323 407.925, 371.514 413.340 C 369.034 418.119, 369 418.508, 369 442.092 L 369 466 386.500 466 C 399.967 466, 403.942 465.712, 403.750 464.750 C 403.612 464.063, 404.036 463.604, 404.691 463.730 C 405.574 463.901, 405.538 463.127, 404.550 460.730 C 403.259 457.597, 402.483 440.581, 401.513 394.159 C 401.314 384.621, 400.892 376.559, 400.576 376.242 C 400.259 375.926, 400 376.101, 400 376.631" stroke="none" fill="#dd4b24" fill-rule="evenodd"/><path d="M 439.638 307.500 C 439.322 308.325, 438.572 309, 437.972 309 C 437.373 309, 437.206 308.438, 437.601 307.750 C 437.997 307.063, 437.935 306.851, 437.465 307.279 C 436.994 307.707, 436.509 308.738, 436.387 309.570 C 436.226 310.668, 436.725 310.905, 438.208 310.434 C 439.474 310.032, 440.012 310.171, 439.624 310.800 C 439.245 311.413, 439.802 311.603, 441.035 311.281 C 442.929 310.785, 442.986 310.950, 441.843 313.624 C 441.166 315.206, 440.057 317.175, 439.377 318 C 438.281 319.330, 443.737 319.472, 487.615 319.255 C 530.320 319.043, 537.593 319.221, 540.780 320.553 C 545.432 322.496, 549 325.804, 549 328.174 C 549 329.178, 549.620 330, 550.378 330 C 551.146 330, 552.748 332.652, 553.997 335.991 C 555.229 339.287, 557.430 343.899, 558.888 346.241 C 560.345 348.584, 562.089 351.625, 562.762 353 C 564.235 356.010, 566.279 359.314, 567.093 360 C 567.419 360.275, 570.865 364.775, 574.750 370 C 578.636 375.225, 583.319 381.107, 585.157 383.071 C 586.996 385.035, 589.525 387.960, 590.777 389.571 L 593.055 392.500 570.027 392.768 L 547 393.037 547 429.518 L 547 466 483.250 466.002 C 448.188 466.003, 407.794 466.298, 393.487 466.657 L 367.473 467.309 367.832 477.405 C 368.029 482.957, 368.277 487.592, 368.384 487.705 C 368.545 487.876, 398.398 488.184, 401.500 488.046 C 402.112 488.019, 402.395 484.411, 402.229 478.751 C 402.081 473.663, 402.306 468.989, 402.729 468.364 C 403.294 467.531, 431.459 467.130, 508 466.864 C 565.475 466.664, 610.139 466.364, 607.252 466.198 L 602.005 465.896 602.052 443.698 C 602.078 431.489, 602.353 417.814, 602.663 413.308 L 603.227 405.116 605.613 407.952 C 606.926 409.512, 608 411.286, 608 411.894 C 608 412.502, 608.450 413, 609 413 C 609.550 413, 610 414.548, 610 416.441 C 610 418.334, 610.450 420.160, 611 420.500 C 612.536 421.449, 612.214 413.241, 610.449 406.460 C 608.976 400.800, 603.407 391.385, 597.460 384.500 C 591.320 377.392, 587.786 373.598, 588.520 374.905 C 589.047 375.843, 588.926 376.072, 588.155 375.595 C 587.520 375.203, 587 374.207, 587 373.382 C 587 372.522, 586.518 372.180, 585.870 372.580 C 585.194 372.998, 584.920 372.740, 585.187 371.938 C 585.668 370.496, 580.309 364.344, 578.914 364.738 C 578.451 364.869, 578.293 364.401, 578.562 363.698 C 578.832 362.995, 577.804 360.979, 576.276 359.218 C 574.749 357.457, 572.375 354.411, 571 352.449 C 569.625 350.486, 568.010 348.337, 567.411 347.672 C 566.812 347.008, 566.137 346.022, 565.911 345.482 C 564.081 341.107, 557.435 331.231, 556.648 331.718 C 556.066 332.077, 555.925 331.638, 556.305 330.647 C 556.663 329.714, 556.121 327.603, 555.086 325.901 C 553.848 323.865, 553.043 323.283, 552.690 324.168 C 552.391 324.917, 552.123 324.541, 552.079 323.309 C 552.036 322.104, 551.502 320.810, 550.893 320.434 C 550.114 319.952, 550.168 319.514, 551.077 318.952 C 552.069 318.339, 551.743 317.211, 549.670 314.077 C 548.186 311.835, 546.416 310.007, 545.736 310.015 C 544.918 310.025, 544.998 310.345, 545.971 310.961 C 548.352 312.466, 546.728 312.785, 544 311.347 C 542.625 310.622, 542.063 310.023, 542.750 310.015 C 543.438 310.007, 544 309.582, 544 309.071 C 544 306.693, 531.735 306.053, 489.801 306.240 C 465.767 306.348, 446.283 306.616, 446.503 306.837 C 447.363 307.697, 444.025 310, 441.918 310 L 439.694 310 442 308 C 444.226 306.070, 444.235 306, 442.260 306 C 441.135 306, 439.955 306.675, 439.638 307.500 M 430.131 313.342 C 429.519 314.080, 429.313 314.980, 429.675 315.342 C 430.037 315.704, 429.782 316, 429.108 316 C 428.434 316, 428.165 316.457, 428.510 317.016 C 429.453 318.543, 430.984 317.177, 431.116 314.691 C 431.206 312.999, 431.336 312.899, 431.689 314.250 C 432.239 316.355, 433.582 316.532, 434.324 314.598 C 435.349 311.928, 432.110 310.958, 430.131 313.342 M 422.998 329 C 422.869 329.825, 422.846 331.108, 422.948 331.850 C 423.050 332.593, 422.676 332.918, 422.117 332.572 C 421.558 332.227, 420.652 332.782, 420.104 333.805 C 419.361 335.193, 419.451 335.667, 420.459 335.667 C 421.247 335.667, 421.570 335.044, 421.235 334.169 C 420.860 333.192, 421.069 332.924, 421.837 333.399 C 423.252 334.274, 424.358 331.846, 423.701 329.308 C 423.356 327.979, 423.170 327.898, 422.998 329 M 421.385 340.752 C 420.348 342.540, 418.938 343.792, 418.250 343.533 C 417.563 343.274, 417 343.525, 417 344.090 C 417 344.656, 416.592 344.866, 416.093 344.558 C 415.595 344.249, 415.394 344.789, 415.647 345.757 C 415.925 346.820, 414.701 349.096, 412.554 351.508 C 410.600 353.704, 409.001 355.893, 409.001 356.372 C 409 356.852, 408.365 356.718, 407.589 356.074 C 406.509 355.177, 406.004 355.185, 405.435 356.106 C 404.962 356.871, 405.114 357.048, 405.853 356.591 C 408.008 355.259, 408.460 359.209, 406.349 360.919 C 404.127 362.718, 401.697 370.695, 403.105 371.565 C 403.597 371.869, 404 371.726, 404 371.248 C 404 370.769, 404.807 369.505, 405.794 368.439 C 410.209 363.667, 416.154 354.660, 421.205 345.091 C 424.307 339.215, 424.463 335.442, 421.385 340.752 M 413.215 345.471 C 414.272 346.642, 412.084 350.170, 410.795 349.373 C 410.168 348.986, 409.971 349.145, 410.340 349.741 C 410.697 350.318, 410.316 351.048, 409.494 351.364 C 408.672 351.679, 408 352.422, 408 353.015 C 408 354.619, 412.703 350.845, 413.894 348.286 C 414.644 346.675, 414.594 345.882, 413.712 345.375 C 413.046 344.993, 412.822 345.036, 413.215 345.471 M 596.041 394.258 C 596.063 394.941, 597.413 397.058, 599.041 398.962 L 602 402.424 602.167 399.712 C 602.258 398.221, 602.371 396.264, 602.417 395.364 C 602.474 394.235, 601.493 393.618, 599.250 393.373 C 597.123 393.140, 596.014 393.446, 596.041 394.258 M 367.808 761.250 C 367.212 775.333, 365.470 774.090, 385.373 773.773 L 402.500 773.500 402.718 770.500 C 402.837 768.850, 402.678 764.013, 402.364 759.750 L 401.792 752 384.995 752 L 368.199 752 367.808 761.250 M 376.768 770.725 C 378.565 770.947, 381.265 770.943, 382.768 770.715 C 384.271 770.486, 382.800 770.304, 379.500 770.310 C 376.200 770.315, 374.971 770.502, 376.768 770.725 M 377.296 772.744 C 381.583 772.932, 388.333 772.931, 392.296 772.742 C 396.258 772.552, 392.750 772.399, 384.500 772.400 C 376.250 772.401, 373.008 772.556, 377.296 772.744 M 561.250 774.748 C 568.813 774.917, 581.188 774.917, 588.750 774.748 C 596.313 774.578, 590.125 774.439, 575 774.439 C 559.875 774.439, 553.688 774.578, 561.250 774.748" stroke="none" fill="#f27f3c" fill-rule="evenodd"/><path d="M 438.467 68 L 438.500 86.500 488 86.514 L 537.500 86.529 488.272 86.255 L 439.044 85.981 438.739 67.741 L 438.434 49.500 438.467 68 M 541.415 68 C 541.415 78.175, 541.564 82.337, 541.745 77.250 C 541.927 72.162, 541.927 63.837, 541.745 58.750 C 541.564 53.662, 541.415 57.825, 541.415 68 M 371.742 400.214 C 369.439 405.195, 368.616 408.355, 369.816 407.614 C 370.383 407.264, 371.158 405.520, 371.539 403.739 C 371.919 401.957, 372.693 399.927, 373.258 399.226 C 373.823 398.525, 374.055 397.721, 373.773 397.440 C 373.492 397.159, 372.578 398.407, 371.742 400.214 M 368.441 438 C 368.441 453.675, 368.579 460.087, 368.748 452.250 C 368.917 444.412, 368.917 431.587, 368.748 423.750 C 368.579 415.912, 368.441 422.325, 368.441 438 M 610.999 443 C 610.725 455.375, 610.612 465.688, 610.750 465.917 C 611.775 467.625, 612.005 462.433, 611.769 442.897 L 611.498 420.500 610.999 443 M 417.784 465.738 C 420.689 465.941, 425.189 465.939, 427.784 465.734 C 430.378 465.528, 428 465.363, 422.500 465.365 C 417 465.368, 414.878 465.536, 417.784 465.738 M 474.750 774.684 L 547 775.013 547 800.007 L 547 825 574.500 825 L 602 825 602.223 816.250 C 602.346 811.438, 602.471 804.125, 602.500 800 C 602.529 795.875, 602.654 788.592, 602.777 783.816 C 603 775.150, 603.005 775.132, 605.750 774.816 C 607.263 774.642, 562.150 774.468, 505.500 774.428 C 442.507 774.384, 430.563 774.483, 474.750 774.684 M 613.100 833.309 C 613.037 836.950, 613.373 838.887, 614 838.500 C 615.158 837.785, 615.158 833.615, 614 830 C 613.391 828.098, 613.176 828.890, 613.100 833.309 M 364.392 853 C 364.392 860.425, 364.549 863.462, 364.742 859.750 C 364.934 856.038, 364.934 849.962, 364.742 846.250 C 364.549 842.538, 364.392 845.575, 364.392 853 M 615.385 852 C 615.385 858.875, 615.545 861.688, 615.740 858.250 C 615.936 854.813, 615.936 849.188, 615.740 845.750 C 615.545 842.313, 615.385 845.125, 615.385 852" stroke="none" fill="#c55837" fill-rule="evenodd"/><path d="M 483.750 306.732 C 486.087 306.943, 489.913 306.943, 492.250 306.732 C 494.587 306.522, 492.675 306.349, 488 306.349 C 483.325 306.349, 481.413 306.522, 483.750 306.732 M 539.750 307.166 C 543.650 308.039, 545.693 309.980, 542.750 310.015 C 542.063 310.023, 542.625 310.610, 544 311.319 C 545.375 312.028, 546.651 312.243, 546.835 311.798 C 547.020 311.352, 547.652 311.285, 548.240 311.648 C 548.857 312.030, 549.019 311.839, 548.622 311.198 C 548.245 310.587, 547.257 310.348, 546.427 310.666 C 545.506 311.020, 545.032 310.742, 545.209 309.954 C 545.581 308.304, 541.251 306.002, 538 306.122 C 536.347 306.183, 536.939 306.537, 539.750 307.166 M 551.143 318.907 C 550.198 319.494, 550.122 319.957, 550.893 320.434 C 551.502 320.810, 552.007 322.104, 552.015 323.309 C 552.028 325.090, 552.212 325.219, 553 324 C 553.533 323.175, 553.976 322.976, 553.985 323.559 C 553.993 324.141, 554.695 325.491, 555.545 326.559 C 556.599 327.884, 556.485 327.231, 555.184 324.500 C 554.135 322.300, 553.103 319.952, 552.889 319.282 C 552.648 318.528, 551.984 318.385, 551.143 318.907 M 577.946 361.206 C 578.620 362.145, 578.839 363.452, 578.432 364.111 C 577.996 364.815, 578.114 365.048, 578.717 364.675 C 579.282 364.326, 580.921 365.462, 582.360 367.199 C 583.799 368.936, 585.164 370.164, 585.393 369.928 C 585.622 369.693, 583.764 367.250, 581.264 364.500 C 578.765 361.750, 577.271 360.268, 577.946 361.206 M 585 372.059 C 585 372.641, 585.399 372.872, 585.886 372.570 C 586.374 372.269, 587.018 372.963, 587.319 374.112 C 587.620 375.261, 588.299 375.934, 588.828 375.606 C 589.357 375.279, 590.073 375.748, 590.419 376.649 C 590.764 377.549, 591.341 377.992, 591.701 377.633 C 592.408 376.925, 587.149 371, 585.813 371 C 585.366 371, 585 371.477, 585 372.059 M 596.041 394.258 C 596.063 394.941, 597.413 397.058, 599.041 398.962 L 602 402.424 602.167 399.712 C 602.258 398.221, 602.371 396.264, 602.417 395.364 C 602.474 394.235, 601.493 393.618, 599.250 393.373 C 597.123 393.140, 596.014 393.446, 596.041 394.258 M 363.717 466.730 L 359.934 467.125 360.217 477.812 L 360.500 488.500 364.250 488.810 L 368 489.121 368 620.560 L 368 752 364 752 L 360 752 360 762.895 L 360 773.790 364.016 774.173 C 367.937 774.547, 368.027 774.485, 367.836 771.528 C 367.728 769.863, 367.721 764.788, 367.820 760.250 L 368 752 384.896 752 L 401.792 752 402.396 759.750 C 402.728 764.013, 402.861 768.962, 402.692 770.750 L 402.385 774 507.443 774.106 C 565.224 774.164, 613.850 774.138, 615.500 774.047 C 622.087 773.686, 622 773.843, 622 762.344 L 622 751.823 610.750 752.433 C 594.969 753.289, 601.002 753.288, 496.750 752.457 L 402 751.702 402 620.351 L 402 489 404.250 489.036 C 405.488 489.056, 454.875 488.898, 514 488.685 L 621.500 488.299 621.754 478.899 C 621.894 473.730, 621.572 468.825, 621.040 468 C 620.187 466.678, 607.197 466.541, 511.786 466.845 C 431.330 467.101, 403.303 467.486, 402.730 468.345 C 402.306 468.980, 402.081 473.663, 402.229 478.751 C 402.395 484.411, 402.112 488.019, 401.500 488.046 C 398.219 488.192, 368.538 487.871, 368.355 487.688 C 368.233 487.566, 368.003 482.636, 367.844 476.733 C 367.685 470.830, 367.543 466.076, 367.528 466.168 C 367.512 466.261, 365.798 466.514, 363.717 466.730" stroke="none" fill="#f59a50" fill-rule="evenodd"/><path d="M 385 774.889 C 400.359 775.458, 401.524 775.636, 401.842 777.462 C 402.031 778.541, 401.412 785.361, 400.466 792.618 C 399.224 802.155, 398.947 808.471, 399.467 815.406 L 400.187 825 424.093 825 C 439.364 825, 448 825.361, 448 826 C 448 826.639, 439.333 827, 424 827 C 409.610 827, 400 827.378, 400 827.944 C 400 828.527, 427.662 828.928, 472.250 828.992 C 608.040 829.186, 608.966 829.203, 610.321 831.500 C 610.969 832.600, 611.784 834.625, 612.132 836 C 612.527 837.566, 612.808 836.165, 612.882 832.250 C 612.947 828.813, 612.605 826, 612.122 826 C 611.637 826, 611.301 814.651, 611.372 800.674 L 611.500 775.349 607.250 775.128 L 603 774.908 602.777 783.704 C 602.654 788.542, 602.529 795.875, 602.500 800 C 602.471 804.125, 602.346 811.438, 602.223 816.250 L 602 825 574.500 825 L 547 825 547 800 L 547 775 483.162 775 C 448.051 775, 407.889 774.838, 393.912 774.639 C 376.253 774.389, 373.534 774.465, 385 774.889 M 408 822.500 C 408 823.583, 409.111 824, 412 824 C 414.889 824, 416 823.583, 416 822.500 C 416 821.417, 414.889 821, 412 821 C 409.111 821, 408 821.417, 408 822.500 M 547.704 852.770 C 534.451 852.943, 527.127 853.396, 527.513 854.020 C 527.889 854.629, 525.065 855, 520.059 855 C 515.353 855, 512 854.584, 512 854 C 512 853.410, 508.433 853, 503.300 853 C 497.816 853, 494.951 853.350, 495.550 853.948 C 496.755 855.151, 523.752 855.683, 544 854.903 C 552.525 854.575, 556.013 854.481, 551.750 854.694 C 544.852 855.038, 544 855.296, 544 857.040 C 544 858.823, 544.722 859, 552 859 C 559.867 859, 560 859.042, 560 861.500 C 560 863.945, 560.172 864.002, 567.750 864.081 C 592.240 864.337, 608.520 865.213, 609.292 866.315 C 609.754 866.976, 609.838 866.061, 609.481 864.250 C 609.076 862.195, 609.238 861, 609.921 861 C 610.917 861, 611.384 862.646, 611.269 865.750 C 611.243 866.438, 611.847 867, 612.611 867 C 613.670 867, 614 865.261, 614 859.688 L 614 852.375 591.250 852.438 C 578.737 852.472, 559.142 852.622, 547.704 852.770 M 548.500 864.965 L 552.500 865.700 548 865.929 C 545.525 866.055, 543.950 866.340, 544.500 866.562 C 545.050 866.785, 550.675 866.588, 557 866.126 C 565.110 865.533, 566.701 865.244, 562.397 865.143 C 559.040 865.064, 553.640 864.827, 550.397 864.615 C 545.697 864.308, 545.312 864.379, 548.500 864.965 M 491.750 865.732 C 494.087 865.943, 497.913 865.943, 500.250 865.732 C 502.587 865.522, 500.675 865.349, 496 865.349 C 491.325 865.349, 489.413 865.522, 491.750 865.732 M 583.750 866.744 C 588.288 866.929, 595.712 866.929, 600.250 866.744 C 604.788 866.559, 601.075 866.407, 592 866.407 C 582.925 866.407, 579.212 866.559, 583.750 866.744" stroke="none" fill="#b53326" fill-rule="evenodd"/><path d="M 442.801 307.342 C 440.199 309.944, 435.243 312.035, 436.500 310 C 437.326 308.663, 436.393 308.738, 434.061 310.194 C 432.461 311.193, 432.378 311.561, 433.556 312.444 C 434.543 313.185, 434.670 313.948, 433.981 315 C 433.109 316.333, 432.891 316.333, 432.015 315 C 431.265 313.856, 431.027 313.820, 431.015 314.846 C 431.007 315.586, 430.069 317.498, 428.932 319.096 C 427.480 321.135, 427.256 322.009, 428.182 322.032 C 429.073 322.053, 428.939 322.490, 427.766 323.381 C 426.812 324.105, 426.314 324.980, 426.659 325.325 C 427.004 325.671, 426.547 326.237, 425.643 326.583 C 424.654 326.963, 424 328.342, 424 330.048 C 424 331.607, 423.480 333.203, 422.845 333.595 C 422.072 334.074, 421.955 333.846, 422.492 332.905 C 423.141 331.767, 423.037 331.738, 421.943 332.754 C 421.200 333.443, 420.517 335.243, 420.425 336.754 C 420.129 341.606, 420.018 342, 418.941 342 C 418.359 342, 418.196 341.492, 418.580 340.870 C 419.004 340.185, 418.732 339.921, 417.889 340.199 C 417.125 340.451, 416.356 341.634, 416.180 342.828 C 416.005 344.023, 415.367 345, 414.764 345 C 414.160 345, 413.951 345.284, 414.298 345.631 C 415.210 346.544, 413.065 350.161, 410.341 352.304 C 409.054 353.316, 408 354.787, 408 355.573 C 408 356.358, 407.325 357, 406.500 357 C 405.675 357, 405 357.471, 405 358.048 C 405 358.624, 403.963 360.087, 402.696 361.298 C 401.429 362.509, 399.334 365.075, 398.041 367 C 396.748 368.925, 395.087 370.998, 394.349 371.607 C 391.566 373.905, 387.052 380.274, 387.589 381.144 C 387.897 381.642, 387.778 381.929, 387.324 381.783 C 386.871 381.636, 385.428 382.271, 384.119 383.194 C 382.461 384.362, 381.945 385.415, 382.421 386.656 C 382.798 387.637, 382.815 388.148, 382.459 387.792 C 380.828 386.162, 372.791 398.091, 371.494 404.068 C 371.084 405.955, 370.326 407.770, 369.809 408.099 C 369.293 408.429, 369.012 410.679, 369.185 413.099 L 369.500 417.500 371.737 413 C 374.226 407.993, 390.658 387, 392.089 387 C 392.590 387, 393 386.347, 393 385.550 C 393 384.752, 393.570 383.740, 394.267 383.300 C 394.964 382.860, 396.764 381.003, 398.267 379.173 L 401 375.847 401.140 379.673 C 401.217 381.778, 401.387 389.307, 401.518 396.405 C 402.243 435.823, 403.278 457.671, 404.568 460.787 C 405.316 462.595, 405.526 463.825, 405.034 463.521 C 404.541 463.216, 403.900 463.354, 403.608 463.826 C 402.810 465.116, 440.497 465.995, 496.750 465.998 L 547 466 547 429.518 L 547 393.037 570.027 392.768 L 593.055 392.500 590.777 389.571 C 589.525 387.960, 586.996 385.035, 585.157 383.071 C 583.319 381.107, 578.636 375.225, 574.750 370 C 570.865 364.775, 567.419 360.275, 567.093 360 C 566.279 359.314, 564.235 356.010, 562.762 353 C 562.089 351.625, 560.345 348.584, 558.888 346.241 C 557.430 343.899, 555.229 339.287, 553.997 335.991 C 552.748 332.652, 551.146 330, 550.378 330 C 549.620 330, 549 329.178, 549 328.174 C 549 325.804, 545.432 322.496, 540.780 320.553 C 537.593 319.221, 530.320 319.043, 487.615 319.255 C 443.737 319.472, 438.281 319.330, 439.377 318 C 440.057 317.175, 441.166 315.206, 441.843 313.624 C 442.986 310.950, 442.929 310.785, 441.035 311.281 C 439.914 311.574, 439.249 311.405, 439.558 310.907 C 439.866 310.408, 441.024 310, 442.130 310 C 444.335 310, 447.275 307.608, 446.286 306.619 C 445.325 305.659, 444.264 305.879, 442.801 307.342 M 421.385 340.752 C 420.348 342.540, 418.972 343.805, 418.327 343.562 C 417.681 343.320, 416.719 344.367, 416.189 345.888 C 415.658 347.410, 413.989 349.970, 412.480 351.577 C 410.970 353.185, 409.124 355.938, 408.377 357.695 C 407.630 359.452, 406.413 361.252, 405.672 361.695 C 403.983 362.704, 401.876 370.805, 403.105 371.565 C 403.597 371.869, 404 371.726, 404 371.248 C 404 370.769, 404.807 369.505, 405.794 368.439 C 410.209 363.667, 416.154 354.660, 421.205 345.091 C 424.307 339.215, 424.463 335.442, 421.385 340.752 M 602.663 413.308 C 602.353 417.814, 602.078 431.531, 602.051 443.790 L 602.003 466.081 606.032 465.843 C 609.297 465.650, 610.170 465.171, 610.636 463.314 C 610.952 462.053, 611.051 450.367, 610.856 437.344 C 610.588 419.550, 610.189 413.563, 609.250 413.250 C 608.563 413.021, 608 412.373, 608 411.811 C 608 411.249, 606.926 409.512, 605.613 407.952 L 603.227 405.116 602.663 413.308 M 376.250 466.745 C 381.063 466.928, 388.938 466.928, 393.750 466.745 C 398.563 466.561, 394.625 466.411, 385 466.411 C 375.375 466.411, 371.438 466.561, 376.250 466.745 M 376.768 770.725 C 378.565 770.947, 381.265 770.943, 382.768 770.715 C 384.271 770.486, 382.800 770.304, 379.500 770.310 C 376.200 770.315, 374.971 770.502, 376.768 770.725 M 377.296 772.744 C 381.583 772.932, 388.333 772.931, 392.296 772.742 C 396.258 772.552, 392.750 772.399, 384.500 772.400 C 376.250 772.401, 373.008 772.556, 377.296 772.744" stroke="none" fill="#ed6325" fill-rule="evenodd"/><path d="M 503.750 305.744 C 508.288 305.929, 515.712 305.929, 520.250 305.744 C 524.788 305.559, 521.075 305.407, 512 305.407 C 502.925 305.407, 499.212 305.559, 503.750 305.744 M 434.512 307.213 C 433.419 307.847, 431.711 309.296, 430.716 310.433 C 428.712 312.723, 424.726 321.059, 425.340 321.674 C 425.555 321.888, 426.320 320.587, 427.040 318.782 C 429.026 313.804, 431.939 310.008, 435.389 307.905 C 438.691 305.891, 437.887 305.257, 434.512 307.213 M 542 306.722 C 546.706 308.490, 549.314 311.803, 554.468 322.565 C 560.640 335.453, 562.740 338.129, 557.359 326.250 C 555.429 321.988, 553.199 317.063, 552.404 315.306 C 550.768 311.690, 544.321 305.960, 542.022 306.079 C 540.684 306.148, 540.681 306.226, 542 306.722 M 417.809 335.250 C 417.115 336.488, 416.086 338.229, 415.523 339.119 C 413.311 342.620, 410.967 347, 411.306 347 C 411.724 347, 417.208 338.520, 418.903 335.250 C 419.545 334.012, 419.845 333, 419.570 333 C 419.295 333, 418.503 334.012, 417.809 335.250 M 563.468 339.500 C 565.007 342.250, 566.730 344.950, 567.298 345.500 C 567.865 346.050, 567.070 344.250, 565.532 341.500 C 563.993 338.750, 562.270 336.050, 561.702 335.500 C 561.135 334.950, 561.930 336.750, 563.468 339.500 M 572.153 352.750 C 577.205 359.640, 587 371.358, 587 370.512 C 587 370.181, 583.347 365.330, 578.883 359.731 C 574.418 354.132, 570.545 348.977, 570.276 348.276 C 570.006 347.574, 569.370 347, 568.861 347 C 568.353 347, 569.834 349.587, 572.153 352.750 M 398.053 363.750 C 393.361 369.600, 392.978 370.274, 396.489 366.500 C 401.285 361.345, 405.466 356, 404.703 356 C 404.464 356, 401.472 359.488, 398.053 363.750 M 385.813 378.250 C 382.826 381.688, 379.129 386.300, 377.597 388.500 L 374.811 392.500 377.655 389.052 C 379.220 387.156, 383.127 382.543, 386.339 378.802 C 389.550 375.061, 391.968 372, 391.711 372 C 391.454 372, 388.800 374.813, 385.813 378.250 M 593 377.870 C 593 378.426, 593.490 379.185, 594.088 379.555 C 594.687 379.925, 597.884 383.889, 601.193 388.364 C 608.434 398.156, 608.771 398.519, 606.300 393.859 C 605.238 391.857, 602.376 387.807, 599.939 384.859 C 594.028 377.709, 593 376.673, 593 377.870 M 373.247 394.250 C 371.774 396.097, 368.801 402.134, 369.179 402.513 C 369.359 402.692, 370.742 400.625, 372.253 397.920 C 374.906 393.167, 375.315 391.659, 373.247 394.250 M 609 400.507 C 609 400.850, 609.563 402.114, 610.250 403.316 C 611.142 404.874, 611.643 414.240, 612 436 L 612.500 466.500 617.500 466.614 C 621.602 466.708, 621.784 466.650, 618.513 466.290 C 616.320 466.048, 614.190 465.322, 613.778 464.676 C 613.367 464.029, 613.021 451.125, 613.010 436 C 612.990 409.979, 612.299 401.921, 609.963 400.477 C 609.433 400.150, 609 400.163, 609 400.507 M 367.349 416 C 367.349 420.675, 367.522 422.587, 367.732 420.250 C 367.943 417.913, 367.943 414.087, 367.732 411.750 C 367.522 409.413, 367.349 411.325, 367.349 416 M 361.474 466.043 C 361.147 466.571, 362.226 467, 363.882 467 C 367.785 467, 368.672 465.563, 364.935 465.293 C 363.357 465.179, 361.799 465.516, 361.474 466.043 M 359.164 466 C 358.633 467.131, 358.888 775.222, 359.421 775.754 C 359.739 776.073, 360 770.858, 360 764.167 L 360 752 364 752 L 368 752 368 620.560 L 368 489.121 364.250 488.810 L 360.500 488.500 359.949 477 C 359.647 470.675, 359.293 465.725, 359.164 466 M 404.250 488.820 L 402 489.139 402 620.421 L 402 751.702 496.750 752.457 C 601.002 753.288, 594.969 753.289, 610.750 752.433 L 622 751.823 622 620.055 L 622 488.286 514.250 488.393 C 454.987 488.452, 405.488 488.644, 404.250 488.820 M 622.079 771.695 C 622.011 773.581, 621.330 773.943, 617.250 774.265 L 612.500 774.640 617.281 774.820 C 622.131 775.003, 623.851 773.715, 622.673 770.783 C 622.390 770.077, 622.122 770.488, 622.079 771.695" stroke="none" fill="#fcc8a0" fill-rule="evenodd"/><path d="M 436.571 47.712 C 433.476 48.520, 431.999 50.617, 432.015 54.179 C 432.027 56.691, 432.267 57.135, 433 56 C 433.727 54.875, 433.969 55.375, 433.969 58 C 433.969 60.625, 433.727 61.125, 433 60 C 432.346 58.987, 432.084 61.911, 432.195 69 L 432.360 79.500 433 72 L 433.640 64.500 433.820 72.250 C 433.927 76.870, 433.596 80, 433 80 C 432.450 80, 432 80.675, 432 81.500 C 432 82.325, 432.525 83, 433.167 83 C 433.808 83, 434.037 83.296, 433.675 83.658 C 433.313 84.020, 433.528 84.931, 434.151 85.682 C 434.775 86.434, 434.971 87.362, 434.588 87.745 C 434.205 88.128, 433.423 87.780, 432.851 86.971 C 431.970 85.725, 431.890 85.749, 432.328 87.128 C 432.611 88.024, 432.393 89.207, 431.843 89.757 C 431.218 90.382, 430.845 102.284, 430.848 121.410 L 430.855 152.062 433.177 153.998 C 434.455 155.062, 436.063 155.948, 436.750 155.967 C 438.304 156.008, 438.379 164.025, 436.974 179.904 C 436.418 186.176, 435.892 193.929, 435.804 197.133 C 435.641 203.039, 434.112 207.866, 433.945 203 C 433.898 201.625, 433.554 199.736, 433.180 198.803 C 432.806 197.870, 432.364 202.973, 432.198 210.144 C 431.969 220.034, 432.183 223.005, 433.086 222.447 C 433.956 221.909, 434.120 222.626, 433.693 225.105 C 433.372 226.972, 432.843 231.650, 432.517 235.500 C 430.976 253.739, 429.603 263.439, 428.910 261 L 428.199 258.500 428.100 261.191 C 428.045 262.671, 428.468 264.171, 429.041 264.525 C 429.613 264.879, 429.847 265.918, 429.560 266.834 C 429.273 267.750, 428.836 270.101, 428.590 272.058 C 427.961 277.039, 423.998 292.293, 423.018 293.500 C 422.572 294.050, 421.639 296.413, 420.945 298.750 C 420.251 301.087, 419.305 303, 418.842 303 C 417.679 303, 417.778 298.255, 418.956 297.527 C 419.482 297.202, 419.635 296.212, 419.295 295.328 C 418.191 292.450, 415.998 296.871, 416.015 301.941 C 416.027 305.431, 416.279 306.148, 417.090 305 C 417.872 303.893, 417.975 304.546, 417.484 307.492 C 416.659 312.444, 416.293 313.050, 414.541 312.377 C 413.557 312, 413.295 312.413, 413.652 313.777 C 413.949 314.913, 412.885 317.782, 411.079 320.717 C 409.386 323.469, 408 326.196, 408 326.777 C 408 327.358, 407.643 327.983, 407.207 328.167 C 406.771 328.350, 405.336 330.267, 404.016 332.427 C 402.697 334.587, 401.436 335.809, 401.214 335.143 C 400.993 334.478, 401.368 333.262, 402.048 332.442 C 402.728 331.622, 403.032 330.699, 402.724 330.390 C 401.854 329.521, 399.781 333.987, 400.357 335.488 C 400.832 336.725, 395.497 344.367, 390.235 349.990 C 388.944 351.368, 386.793 352.429, 385.235 352.455 C 383.311 352.487, 382.615 352.945, 382.887 354 C 384.143 358.875, 383.911 359.569, 380.047 362.500 C 377.872 364.150, 376.072 365.832, 376.046 366.239 C 376.001 366.954, 374.086 369.517, 371 372.988 C 367.407 377.030, 360.257 389.410, 358.901 393.937 C 358.242 396.136, 357.272 397.668, 356.745 397.342 C 356.155 396.978, 356.063 398.008, 356.504 400.020 C 356.899 401.819, 356.835 417.063, 356.361 433.895 L 355.500 464.500 354.963 447.500 L 354.426 430.500 354.213 446.136 C 354.069 456.694, 353.575 462.591, 352.690 464.296 C 351.969 465.686, 351.582 468.543, 351.828 470.654 C 352.229 474.087, 352.365 474.246, 353.129 472.179 C 353.666 470.728, 354.432 470.149, 355.192 470.619 C 356.130 471.198, 356.132 471.456, 355.201 471.766 C 354.540 471.987, 354 472.804, 354 473.583 C 354 474.363, 353.550 475, 353 475 C 352.450 475, 352 476.848, 352 479.107 C 352 482.375, 352.311 483.095, 353.523 482.629 C 354.751 482.158, 354.849 482.415, 354.025 483.953 C 353.266 485.372, 353.388 486.245, 354.502 487.359 C 355.326 488.183, 356 489.204, 356 489.629 C 356 490.053, 355.460 489.860, 354.800 489.200 C 354.140 488.540, 353.240 488, 352.800 488 C 351.588 488, 351.843 491.785, 353.107 492.566 C 353.878 493.043, 353.803 493.510, 352.857 494.110 C 351.781 494.792, 351.840 494.973, 353.143 494.985 C 354.047 494.993, 355.059 495.712, 355.393 496.582 C 355.727 497.452, 355.890 555.164, 355.756 624.832 L 355.511 751.500 355.006 624.083 C 354.606 523.400, 354.238 496.579, 353.250 496.250 C 352.254 495.918, 352 521.894, 352 623.917 C 352 708.639, 352.339 752, 353 752 C 353.583 752, 354 755.333, 354 760 C 354 764.667, 353.583 768, 353 768 C 352.450 768, 352 768.450, 352 769 C 352 769.550, 352.675 770, 353.500 770 C 354.325 770, 355 770.498, 355 771.107 C 355 771.716, 354.325 771.955, 353.500 771.638 C 352.483 771.248, 352 771.690, 352 773.012 C 352 774.258, 352.903 775.188, 354.500 775.589 C 357.855 776.431, 358.047 780.712, 354.750 781.180 C 353.512 781.356, 352.500 782.175, 352.500 783 C 352.500 783.959, 353.311 784.414, 354.750 784.262 L 357 784.024 356.864 802.262 C 356.789 812.293, 356.538 819.526, 356.305 818.335 C 356.073 817.144, 355.176 815.898, 354.311 815.566 C 352.713 814.953, 352.747 816.492, 354.520 825 C 354.955 827.088, 354.897 827.170, 354.168 825.500 C 353.298 823.505, 353.294 823.505, 352.653 825.522 C 351.735 828.408, 352.140 842.969, 353.155 843.596 C 353.623 843.885, 353.593 844.892, 353.089 845.835 C 352.584 846.777, 351.887 858.132, 351.538 871.068 C 350.997 891.166, 351.129 895.018, 352.446 897.544 C 353.972 900.470, 353.988 900.474, 354.009 898 C 354.027 895.971, 354.227 895.782, 355.073 897 C 355.816 898.069, 355.955 896.201, 355.558 890.500 C 354.361 873.308, 355.929 840.076, 358.388 830.500 C 359.561 825.933, 359.937 818.750, 359.964 800.417 C 359.984 787.171, 359.739 776.073, 359.421 775.754 C 358.672 775.006, 358.681 467.984, 359.430 466 C 359.741 465.175, 360.116 448.750, 360.261 429.500 L 360.527 394.500 360.766 430 L 361.005 465.500 364.002 465.606 L 367 465.713 367.033 437.106 C 367.061 412.313, 367.303 407.812, 368.848 403.341 C 370.973 397.194, 376.127 389.491, 385.058 379.117 C 390.197 373.148, 402.804 357.586, 409.937 348.406 C 410.405 347.804, 411.522 346.004, 412.420 344.406 C 413.317 342.808, 415.177 339.700, 416.553 337.500 C 419.295 333.115, 426.397 318.680, 427.378 315.500 C 428.428 312.097, 433.854 307.123, 437.768 305.976 C 440.316 305.230, 457.577 304.981, 492.158 305.191 L 542.816 305.500 546.614 308.574 C 550.717 311.896, 552.375 314.489, 555.834 323 C 558.026 328.391, 567.173 344.936, 569.636 347.965 C 570.323 348.809, 575.224 355.012, 580.527 361.750 C 585.830 368.488, 590.581 374, 591.085 374 C 591.588 374, 592 374.510, 592 375.133 C 592 375.756, 592.788 376.993, 593.750 377.883 C 596.162 380.112, 605 390.696, 605 391.356 C 605 391.651, 606.688 394.729, 608.750 398.196 L 612.500 404.500 612.758 433 C 612.900 448.675, 613.246 462.512, 613.527 463.750 C 613.952 465.621, 614.709 466, 618.019 466 C 620.209 466, 622 465.523, 622 464.941 C 622 464.359, 622.337 464.091, 622.750 464.347 C 623.163 464.603, 623.275 449.442, 623 430.656 L 622.500 396.500 619.250 389.638 C 617.462 385.863, 615.993 381.813, 615.985 380.638 C 615.974 379.116, 615.730 378.877, 615.139 379.810 C 614.312 381.113, 612.416 378.995, 609.413 373.417 C 608.407 371.548, 608.531 371.379, 610.608 371.776 C 611.895 372.022, 613.607 371.535, 614.462 370.681 C 616.546 368.597, 616.490 368.527, 612.558 368.312 C 610.666 368.208, 608.043 367.419, 606.729 366.558 C 605.415 365.697, 604.120 365.213, 603.851 365.482 C 602.990 366.343, 592.889 354.988, 593.556 353.909 C 593.964 353.249, 594.892 353.497, 596.099 354.590 C 597.145 355.536, 598 355.840, 598 355.265 C 598 354.690, 596.087 353.319, 593.750 352.216 C 588.776 349.871, 584 344.871, 584 342.009 C 584 340.904, 583.518 340, 582.929 340 C 580.091 340, 574.860 331.261, 575.715 327.949 C 576.264 325.822, 576.142 325.668, 574.788 326.777 C 573.465 327.862, 572.914 327.560, 571.138 324.777 C 569.987 322.975, 568.588 320.825, 568.027 320 C 566.706 318.055, 561.628 306.767, 559.480 301 C 553.242 284.250, 551.040 273.709, 549.034 251 C 548.475 244.675, 547.287 232.525, 546.393 224 C 545.500 215.475, 544.594 206.025, 544.380 203 C 544.166 199.975, 543.515 191.019, 542.932 183.098 C 542.072 171.407, 542.120 168.540, 543.186 167.864 C 544.004 167.345, 544.072 167.025, 543.367 167.015 C 541.831 166.995, 541.124 163.896, 542.071 161.336 C 542.672 159.713, 543.447 159.363, 545.553 159.765 C 547.573 160.151, 548.139 159.929, 547.781 158.892 C 547.464 157.970, 546.153 157.616, 543.901 157.843 C 540.070 158.229, 540.360 157.581, 545.100 155.162 C 548.286 153.537, 549.189 151.795, 549.204 147.250 C 549.216 143.647, 550.458 144.642, 551.854 149.373 C 553.130 153.692, 556.059 156.194, 558.750 155.265 C 560.540 154.647, 560.342 150, 558.526 150 C 557.715 150, 556.353 148.650, 555.500 147 C 554.401 144.874, 553.217 144, 551.435 144 L 548.922 144 549.051 117.910 C 549.175 92.817, 549.101 91.737, 547.112 89.619 C 545.185 87.568, 545.025 86.057, 544.772 67.459 L 544.500 47.500 491.500 47.354 C 462.350 47.274, 437.632 47.435, 436.571 47.712 M 438.045 88.250 C 438.054 127.033, 438.081 127.547, 440.292 131.470 C 443.247 136.712, 447.927 139.727, 454.300 140.495 C 457.160 140.840, 475.284 140.982, 494.575 140.811 L 529.650 140.500 533.805 137.749 C 536.091 136.236, 538.869 133.216, 539.980 131.039 C 541.904 127.267, 542 125.234, 542 88.040 L 542 49 490.018 49 L 438.035 49 438.045 88.250 M 550.349 81.534 C 550.032 82.358, 549.984 84.135, 550.241 85.482 C 550.499 86.828, 550.212 88.135, 549.605 88.386 C 548.894 88.679, 548.946 88.870, 549.750 88.921 C 550.442 88.965, 551 90.284, 551 91.878 C 551 96.240, 553.598 97.519, 558.578 95.608 C 560.674 94.804, 560.341 93.653, 557 90.157 C 555.077 88.145, 554 85.976, 554 84.116 C 554 80.941, 551.307 79.036, 550.349 81.534 M 433.604 91.590 C 433.268 92.464, 433.003 104.277, 433.015 117.840 C 433.037 145.074, 433.933 151.989, 437.439 152.015 C 439.172 152.028, 439.262 152.201, 438 153.102 C 436.787 153.969, 436.918 154.082, 438.685 153.697 C 440.848 153.226, 440.866 153.333, 440.456 164.361 C 440.229 170.487, 439.600 180.675, 439.059 187 C 438.519 193.325, 437.572 205.250, 436.954 213.500 C 436.337 221.750, 435.420 231.795, 434.916 235.822 C 433.796 244.773, 433.927 250.645, 435.076 243 C 435.878 237.665, 437.442 219.961, 440.447 182.234 C 441.247 172.188, 442.175 163.526, 442.510 162.984 C 442.895 162.361, 460.359 162, 490.118 162 C 515.968 162, 536.896 161.641, 536.625 161.202 C 536.354 160.763, 536.545 159.751, 537.051 158.952 C 537.681 157.956, 537.974 157.892, 537.985 158.750 C 537.993 159.438, 538.478 160, 539.063 160 C 539.647 160, 540.027 159.213, 539.907 158.250 C 539.786 157.287, 540.208 155.233, 540.844 153.685 C 541.480 152.137, 542 150.666, 542 150.417 C 542 150.168, 520.022 149.989, 493.161 150.019 C 460.627 150.055, 443.378 149.714, 441.495 148.998 C 437.577 147.508, 435.022 144.264, 434.880 140.597 C 434.814 138.894, 434.857 126.813, 434.975 113.750 C 435.094 100.688, 434.971 90, 434.702 90 C 434.434 90, 433.939 90.715, 433.604 91.590 M 428.328 142.500 C 428.333 146.350, 428.513 147.802, 428.730 145.728 C 428.946 143.653, 428.943 140.503, 428.722 138.728 C 428.501 136.952, 428.324 138.650, 428.328 142.500 M 545.750 148.757 C 544.788 148.971, 544 150, 544 151.042 C 544 153.265, 546.514 152.709, 547.446 150.280 C 548.168 148.398, 548.009 148.255, 545.750 148.757 M 432.342 158.175 C 432.621 160.196, 433.784 162.784, 434.925 163.925 L 437 166 437 163 C 437 161.275, 436.469 159.993, 435.750 159.985 C 434.917 159.974, 435 159.646, 436 159 C 437.434 158.073, 437.309 157.908, 434.964 157.625 C 434.393 157.556, 433.456 156.825, 432.881 156 C 432.099 154.880, 431.963 155.431, 432.342 158.175 M 432 184.893 C 432 191.229, 432.318 192.908, 433.611 193.404 C 434.791 193.857, 435.059 193.596, 434.611 192.430 C 434.275 191.553, 434 187.723, 434 183.918 C 434 179.973, 433.570 177, 433 177 C 432.418 177, 432 180.298, 432 184.893 M 433.607 209.582 C 432.672 212.019, 432.887 215.812, 434 216.500 C 434.611 216.878, 435 215.344, 435 212.559 C 435 207.770, 434.617 206.951, 433.607 209.582 M 424.764 259 C 424.359 260.375, 424.035 262.625, 424.044 264 C 424.059 266.198, 424.185 266.286, 425.092 264.728 C 425.659 263.754, 425.983 261.504, 425.812 259.728 C 425.513 256.635, 425.469 256.605, 424.764 259 M 424.385 269.824 C 424.039 271.553, 423.336 272.707, 422.821 272.390 C 421.311 271.456, 417 272.920, 417 274.366 C 417 275.096, 417.907 276.740, 419.015 278.017 C 420.915 280.207, 421.105 280.239, 422.327 278.567 C 424.030 276.239, 426.419 268.086, 425.630 267.297 C 425.291 266.958, 424.731 268.095, 424.385 269.824 M 556.546 272.925 C 555.853 274.048, 557.984 279, 559.161 279 C 559.622 279, 560 277.425, 560 275.500 C 560 272.122, 557.976 270.612, 556.546 272.925 M 563 304.937 C 563 305.521, 563.450 306, 564 306 C 564.550 306, 565 306.825, 565 307.833 C 565 310.305, 565.739 310.881, 568.112 310.261 C 569.579 309.877, 570.027 309.045, 569.804 307.119 C 569.555 304.973, 568.914 304.443, 566.250 304.187 C 564.424 304.011, 563 304.339, 563 304.937 M 389.184 338.673 C 389.627 342.415, 391.246 342.547, 393.335 339.010 L 395.113 336 391.990 336 C 389.193 336, 388.900 336.279, 389.184 338.673 M 588.474 337.042 C 587.744 338.224, 590.428 342.238, 591.340 341.327 C 591.703 340.964, 592 339.890, 592 338.940 C 592 336.992, 589.378 335.580, 588.474 337.042 M 368.695 366.639 C 368.313 367.021, 368 368.708, 368 370.389 C 368 373.437, 368.004 373.439, 369.553 371.228 C 371.047 369.095, 370.290 365.044, 368.695 366.639 M 621.417 377.384 C 619.468 379.497, 619.071 385.388, 620.734 387.526 C 621.918 389.049, 622.136 389.112, 621.685 387.801 C 621.273 386.600, 621.527 386.265, 622.551 386.658 C 623.698 387.098, 624 386.163, 624 382.166 C 624 376.863, 623.223 375.426, 621.417 377.384 M 622.049 620.180 L 622.059 774.500 617.529 774.805 L 613 775.110 613 797.989 C 613 815.603, 613.379 822.553, 614.646 828.185 C 615.847 833.518, 616.259 839.903, 616.167 851.750 L 616.042 868 620.675 868 L 625.308 868 624.629 882.218 C 623.444 907.040, 620.178 921.535, 614.382 927.689 L 611.264 931 490.132 931 C 383.126 931, 369 931.175, 369 932.500 C 369 933.325, 368.550 934, 368 934 C 367.450 934, 367 934.450, 367 935 C 367 935.661, 407.713 936, 487.140 936 C 593.623 936, 607.406 936.173, 608.394 937.524 C 609.180 938.599, 610.428 938.864, 612.629 938.424 C 615.128 937.924, 615.750 937.300, 615.750 935.293 C 615.750 933.915, 615.469 933.205, 615.125 933.716 C 613.954 935.458, 610.982 935.949, 608.488 934.813 C 604.640 933.059, 605.500 931.670, 610.054 932.280 C 612.795 932.648, 613.988 932.463, 613.737 931.710 C 613.267 930.302, 616.082 926.932, 617.167 927.603 C 617.613 927.879, 617.721 927.293, 617.407 926.302 C 616.869 924.601, 616.917 924.597, 618.267 926.234 C 619.636 927.894, 621 927.664, 621 925.774 C 621 925.284, 620.474 925.207, 619.830 925.605 C 619.032 926.098, 618.873 925.773, 619.330 924.582 C 619.699 923.622, 620 922.397, 620 921.859 C 620 921.322, 620.450 921.160, 621 921.500 C 621.550 921.840, 622 924.116, 622 926.559 C 622 929.002, 622.450 931, 623 931 C 624.863 931, 624.101 923.486, 622.011 921.242 C 620.880 920.028, 620.284 918.424, 620.629 917.524 C 621.169 916.118, 621.397 916.140, 622.673 917.721 C 623.970 919.326, 623.997 919.267, 622.952 917.123 C 622.055 915.283, 622.075 914.571, 623.040 913.975 C 623.726 913.551, 624.053 912.311, 623.767 911.219 C 623.482 910.126, 623.942 903.893, 624.791 897.366 C 626.808 881.850, 627.042 846.916, 625.161 842 C 623.423 837.458, 622.283 776, 623.937 776 C 624.522 776, 625 774.501, 625 772.669 C 625 770.139, 625.601 769.016, 627.500 768 C 629.793 766.773, 630 766.095, 630 759.810 C 630 753.471, 629.813 752.872, 627.500 751.818 L 625 750.679 625 622.423 C 625 527.084, 624.707 494.069, 623.857 493.786 C 623.030 493.510, 623.007 492.855, 623.775 491.420 C 624.360 490.328, 624.957 484.275, 625.102 477.968 C 625.334 467.940, 625.158 466.462, 623.703 466.181 C 622.157 465.884, 622.040 476.790, 622.049 620.180 M 361.510 776.251 C 361.275 776.938, 360.892 789.650, 360.658 804.500 C 360.387 821.701, 359.602 836.474, 358.496 845.206 C 357.478 853.242, 357.042 860.793, 357.441 863.456 C 358.068 867.635, 358.353 868, 360.993 868 L 363.864 868 363.738 850.439 C 363.668 840.780, 363.248 832.653, 362.805 832.380 C 362.362 832.106, 362 832.434, 362 833.108 C 362 833.782, 361.764 834.098, 361.476 833.810 C 361.189 833.522, 361.251 832.509, 361.616 831.559 C 362.129 830.221, 362.460 830.126, 363.085 831.137 C 365.689 835.351, 367.071 822.935, 366.770 798.017 L 366.500 775.698 364.218 775.350 C 362.963 775.159, 361.744 775.565, 361.510 776.251 M 630.985 851.338 C 630.973 853.748, 630.739 854.143, 630 853 C 629.216 851.787, 629.028 851.931, 629.015 853.750 C 629.007 854.987, 629.450 856, 630 856 C 630.550 856, 631 857.831, 631 860.070 C 631 863.718, 631.233 864.106, 633.250 863.820 C 635.315 863.526, 635.524 862.903, 635.794 856.250 C 635.955 852.263, 635.730 848.966, 635.294 848.923 C 634.857 848.881, 633.712 848.696, 632.750 848.512 C 631.384 848.250, 630.997 848.871, 630.985 851.338 M 628.712 881 C 629.016 884.575, 629.430 887.688, 629.633 887.917 C 630.301 888.675, 629.778 880.555, 628.961 877.500 C 628.456 875.610, 628.364 876.904, 628.712 881 M 355.734 904.500 C 355.370 907.250, 355.426 911.075, 355.857 913 L 356.641 916.500 357.274 912 C 357.622 909.525, 357.567 905.700, 357.151 903.500 L 356.395 899.500 355.734 904.500 M 353.301 904.179 C 351.824 908.437, 351.771 921.161, 353.241 918.533 C 353.795 917.545, 353.981 914.489, 353.656 911.742 C 353.328 908.977, 353.525 905.887, 354.097 904.819 C 354.665 903.757, 354.977 902.432, 354.791 901.874 C 354.605 901.316, 353.935 902.353, 353.301 904.179 M 359.696 919.637 C 359.313 920.020, 359 921.158, 359 922.167 C 359 923.175, 358.550 924, 358 924 C 357.450 924, 357 924.907, 357 926.016 C 357 927.631, 357.585 927.987, 359.941 927.808 C 361.590 927.682, 363.712 928.334, 364.770 929.292 C 367.576 931.831, 368.687 931.360, 366.181 928.693 C 364.989 927.424, 363.199 924.711, 362.203 922.663 C 361.207 920.616, 360.079 919.254, 359.696 919.637" stroke="none" fill="#dfdef0" fill-rule="evenodd"/><path d="M 438.098 106.756 C 437.989 126.607, 438.082 127.671, 440.258 131.470 C 443.265 136.724, 447.941 139.729, 454.300 140.495 C 457.160 140.840, 475.284 140.982, 494.575 140.811 L 529.650 140.500 533.805 137.749 C 541.306 132.783, 542 130.129, 542 106.433 C 542 87.534, 541.858 85.840, 540.325 86.429 C 538.418 87.161, 440.163 87.219, 438.982 86.489 C 438.558 86.227, 438.160 95.347, 438.098 106.756 M 433.604 91.590 C 433.268 92.464, 433.003 104.277, 433.015 117.840 C 433.037 145.074, 433.933 151.989, 437.439 152.015 C 439.172 152.028, 439.262 152.201, 438 153.102 C 436.787 153.969, 436.918 154.082, 438.685 153.697 C 440.848 153.226, 440.866 153.333, 440.456 164.361 C 440.229 170.487, 439.600 180.675, 439.059 187 C 438.519 193.325, 437.572 205.250, 436.954 213.500 C 436.337 221.750, 435.420 231.795, 434.916 235.822 C 433.796 244.773, 433.927 250.645, 435.076 243 C 435.878 237.665, 437.442 219.961, 440.447 182.234 C 441.247 172.188, 442.175 163.526, 442.510 162.984 C 442.895 162.361, 460.359 162, 490.118 162 C 515.968 162, 536.896 161.641, 536.625 161.202 C 536.354 160.763, 536.545 159.751, 537.051 158.952 C 537.681 157.956, 537.974 157.892, 537.985 158.750 C 537.993 159.438, 538.478 160, 539.063 160 C 539.647 160, 540.027 159.213, 539.907 158.250 C 539.786 157.287, 540.208 155.233, 540.844 153.685 C 541.480 152.137, 542 150.666, 542 150.417 C 542 150.168, 520.022 149.989, 493.161 150.019 C 460.627 150.055, 443.378 149.714, 441.495 148.998 C 437.577 147.508, 435.022 144.264, 434.880 140.597 C 434.814 138.894, 434.857 126.813, 434.975 113.750 C 435.094 100.688, 434.971 90, 434.702 90 C 434.434 90, 433.939 90.715, 433.604 91.590 M 545.750 148.757 C 544.788 148.971, 544 150, 544 151.042 C 544 153.265, 546.514 152.709, 547.446 150.280 C 548.168 148.398, 548.009 148.255, 545.750 148.757 M 450.750 305.743 C 454.738 305.932, 461.262 305.932, 465.250 305.743 C 469.238 305.553, 465.975 305.397, 458 305.397 C 450.025 305.397, 446.762 305.553, 450.750 305.743 M 483.750 305.732 C 486.087 305.943, 489.913 305.943, 492.250 305.732 C 494.587 305.522, 492.675 305.349, 488 305.349 C 483.325 305.349, 481.413 305.522, 483.750 305.732 M 360.452 431 C 360.452 451.075, 360.585 459.288, 360.749 449.250 C 360.912 439.213, 360.912 422.788, 360.749 412.750 C 360.585 402.713, 360.452 410.925, 360.452 431 M 367.423 444.500 C 367.424 456.050, 367.570 460.638, 367.747 454.696 C 367.924 448.753, 367.923 439.303, 367.745 433.696 C 367.567 428.088, 367.422 432.950, 367.423 444.500 M 360.137 798.500 C 360.003 819.058, 359.623 825.188, 358 833 C 356.690 839.304, 356.022 846.475, 356.013 854.316 C 356.006 860.814, 355.614 866.889, 355.141 867.816 C 354.151 869.758, 355.392 893.152, 357.035 903.500 C 358.719 914.115, 361.886 923.406, 365.182 927.405 L 368.146 931 489.705 931 L 611.264 931 614.382 927.689 C 620.178 921.535, 623.444 907.040, 624.629 882.218 L 625.308 868 620.727 868 C 617.206 868, 616.041 867.595, 615.689 866.250 C 615.438 865.288, 615.172 867.650, 615.098 871.500 C 614.816 886.168, 611.148 904.837, 607.386 910.750 L 605.954 913 490 913 L 374.046 913 372.614 910.750 C 368.894 904.904, 365.256 886.933, 364.869 872.500 C 364.766 868.650, 364.491 866.063, 364.258 866.750 C 364.024 867.438, 362.548 868, 360.978 868 C 358.356 868, 358.067 867.628, 357.441 863.456 C 357.042 860.794, 357.478 853.239, 358.495 845.206 C 360.145 832.169, 361.738 783.214, 360.734 776.430 C 360.495 774.818, 360.226 784.750, 360.137 798.500 M 367.430 798 C 367.430 810.925, 367.573 816.212, 367.747 809.750 C 367.921 803.288, 367.921 792.712, 367.747 786.250 C 367.573 779.788, 367.430 785.075, 367.430 798 M 612.429 797.500 C 612.429 810.150, 612.573 815.187, 612.747 808.694 C 612.922 802.200, 612.921 791.850, 612.746 785.694 C 612.571 779.537, 612.428 784.850, 612.429 797.500" stroke="none" fill="#c1acbb" fill-rule="evenodd"/><path d="M 439 67.500 L 439 86 490 86 L 541 86 541 67.500 L 541 49 490 49 L 439 49 439 67.500 M 368.429 797.500 C 368.429 810.150, 368.573 815.187, 368.747 808.694 C 368.922 802.200, 368.921 791.850, 368.746 785.694 C 368.571 779.537, 368.428 784.850, 368.429 797.500 M 611.411 801 C 611.411 810.625, 611.561 814.563, 611.745 809.750 C 611.928 804.938, 611.928 797.063, 611.745 792.250 C 611.561 787.438, 611.411 791.375, 611.411 801 M 366.103 831.332 C 365.076 837.225, 364.501 860.844, 365.407 859.917 C 365.630 859.688, 366.088 853.875, 366.424 847 C 366.760 840.125, 367.310 832.362, 367.646 829.750 C 368.544 822.774, 367.386 823.961, 366.103 831.332 M 613.607 839.582 C 612.633 842.119, 612.908 848, 614 848 C 614.550 848, 615 845.750, 615 843 C 615 837.795, 614.636 836.901, 613.607 839.582 M 365.514 874.157 C 366.226 891.292, 369.628 906.722, 373.681 911.200 C 375.232 912.913, 380.839 913, 490.082 913 L 604.855 913 606.912 910.384 C 610.580 905.721, 613.582 891.651, 614.506 874.793 L 615.125 863.500 612.603 870.409 C 609.965 877.640, 607.789 881.078, 608.130 877.479 C 608.746 870.963, 608.656 870.891, 600.250 871.208 C 592.929 871.484, 592.481 871.633, 592.161 873.899 L 591.822 876.298 579.754 875.649 C 573.117 875.292, 562.357 875, 555.843 875 C 545.983 875, 544 874.749, 544 873.500 C 544 872.292, 542.444 872, 536 872 C 529.556 872, 528 872.292, 528 873.500 C 528 874.815, 521.111 875, 472 875 C 435.333 875, 416 874.655, 416 874 C 416 872.590, 456.204 872.399, 494.465 873.627 C 505.164 873.971, 510.082 873.759, 511.715 872.885 C 512.972 872.212, 514 871.346, 514 870.959 C 514 870.572, 506.293 869.926, 496.873 869.524 C 482.956 868.929, 479.586 869.045, 478.889 870.146 C 478.190 871.248, 478.025 871.221, 478 870 C 477.973 868.667, 477.862 868.667, 477 870 C 476.138 871.333, 476.027 871.333, 476 870 C 475.973 868.667, 475.862 868.667, 475 870 C 474.138 871.333, 474.027 871.333, 474 870 C 473.973 868.667, 473.862 868.667, 473 870 C 472.138 871.333, 472.027 871.333, 472 870 C 471.973 868.667, 471.862 868.667, 471 870 C 470.138 871.333, 470.027 871.333, 470 870 C 469.973 868.667, 469.862 868.667, 469 870 C 468.138 871.333, 468.027 871.333, 468 870 C 467.973 868.667, 467.862 868.667, 467 870 C 466.138 871.333, 466.027 871.333, 466 870 C 465.973 868.667, 465.862 868.667, 465 870 C 464.467 870.825, 464.024 871.043, 464.015 870.485 C 463.995 869.125, 447.005 869.125, 446.985 870.485 C 446.976 871.043, 446.533 870.825, 446 870 C 445.138 868.667, 445.027 868.667, 445 870 C 444.973 871.333, 444.862 871.333, 444 870 C 443.138 868.667, 443.027 868.667, 443 870 C 442.973 871.333, 442.862 871.333, 442 870 C 441.138 868.667, 441.027 868.667, 441 870 C 440.973 871.333, 440.862 871.333, 440 870 C 439.138 868.667, 439.027 868.667, 439 870 C 438.973 871.333, 438.862 871.333, 438 870 C 437.138 868.667, 437.027 868.667, 437 870 C 436.973 871.333, 436.862 871.333, 436 870 C 435.138 868.667, 435.027 868.667, 435 870 C 434.980 870.980, 434.715 871.116, 434.235 870.393 C 433.391 869.122, 408.226 867.748, 383.045 867.598 L 366.590 867.500 365.810 865 C 365.380 863.625, 365.247 867.746, 365.514 874.157" stroke="none" fill="#7b331a" fill-rule="evenodd"/></svg>