<svg xmlns="http://www.w3.org/2000/svg" width="506" height="839" viewBox="0 0 506 839" version="1.1"><path d="" stroke="none" fill="#40448c" fill-rule="evenodd"/><path d="M 235.750 0.670 C 232.588 0.906, 230 1.527, 230 2.050 C 230 2.572, 228.200 3, 226 3 C 223.800 3, 222 3.450, 222 4 C 222 4.550, 221.325 5, 220.500 5 C 219.675 5, 219 5.450, 219 6 C 219 6.550, 217.650 7, 216 7 C 214.350 7, 213 7.450, 213 8 C 213 8.550, 212.309 9, 211.464 9 C 210.620 9, 208.810 10.013, 207.444 11.250 C 203.013 15.262, 196.551 21.626, 194.405 24.093 C 193.253 25.417, 191.341 27.162, 190.155 27.971 C 188.970 28.780, 188 30.216, 188 31.162 C 188 32.108, 187.550 33.160, 187 33.500 C 186.450 33.840, 186 35.666, 186 37.559 C 186 39.452, 185.648 41, 185.217 41 C 184.221 41, 182.160 52.250, 181.369 62 C 180.925 67.474, 181.196 70.958, 182.370 74.897 C 183.878 79.954, 183.870 80.378, 182.240 81.621 C 181.283 82.350, 179.713 83.214, 178.750 83.541 C 175.480 84.651, 176.690 111, 180.011 111 C 180.390 111, 182.185 113.925, 184 117.500 C 185.815 121.075, 187.907 124, 188.650 124 C 189.392 124, 190 124.450, 190 125 C 190 125.550, 191.308 126, 192.906 126 C 195.621 126, 195.856 126.318, 196.476 130.823 C 196.840 133.475, 197.771 136.738, 198.543 138.073 C 204.468 148.317, 204.980 150.164, 204.990 161.321 C 205.001 172.832, 204.221 175, 200.071 175 C 198.932 175, 198 175.450, 198 176 C 198 176.550, 197.199 177, 196.221 177 C 195.242 177, 193.793 177.900, 193 179 C 192.207 180.100, 190.416 181, 189.020 181 C 187.564 181, 185.948 181.853, 185.232 183 C 184.545 184.100, 183.107 185, 182.036 185 C 180.373 185, 174.885 188.017, 171.500 190.792 C 170.950 191.242, 169.037 192.259, 167.250 193.050 C 165.463 193.841, 164 194.828, 164 195.244 C 164 195.660, 163.100 196, 162 196 C 160.900 196, 160 196.450, 160 197 C 160 197.550, 159.199 198, 158.221 198 C 157.242 198, 155.793 198.900, 155 200 C 154.191 201.122, 152.411 202, 150.946 202 C 149.509 202, 148.025 202.308, 147.648 202.685 C 146.413 203.920, 139.565 205.969, 136.500 206.020 C 134.850 206.048, 132.375 206.714, 131 207.500 C 129.625 208.286, 127.587 208.945, 126.471 208.965 C 125.355 208.984, 123.793 209.900, 123 211 C 122.207 212.100, 120.758 213, 119.779 213 C 118.801 213, 118 213.450, 118 214 C 118 214.550, 117.100 215, 116 215 C 114.900 215, 114 215.450, 114 216 C 114 216.550, 113.531 217, 112.958 217 C 111.860 217, 111.195 217.490, 106.009 222.123 C 104.238 223.705, 102.386 225, 101.894 225 C 101.402 225, 101 225.470, 101 226.045 C 101 227.161, 96.509 232, 95.474 232 C 94.189 232, 91.999 234.931, 91.978 236.679 C 91.966 237.680, 91.076 239.625, 90 241 C 88.924 242.375, 88.034 244.287, 88.022 245.250 C 88.010 246.213, 87.550 247, 87 247 C 86.450 247, 86 247.675, 86 248.500 C 86 249.325, 85.550 250, 85 250 C 84.450 250, 84 250.675, 84 251.500 C 84 252.325, 83.550 253, 83 253 C 82.450 253, 82 253.681, 82 254.514 C 82 255.346, 81.605 256.809, 81.122 257.764 C 73.971 271.907, 72.846 282.010, 74.019 321.500 C 74.301 330.956, 73.392 338, 71.891 338 C 71.401 338, 71 339.323, 71 340.941 C 71 342.559, 70.550 344.160, 70 344.500 C 69.450 344.840, 69 346.441, 69 348.059 C 69 349.677, 68.550 351, 68 351 C 67.450 351, 67 352.800, 67 355 C 67 357.200, 66.550 359, 66 359 C 65.450 359, 65 360.380, 65 362.066 C 65 363.752, 64.565 365.945, 64.032 366.939 C 62.879 369.096, 59.109 388.030, 58.148 396.500 C 57.774 399.800, 57.196 402.950, 56.864 403.500 C 56.533 404.050, 56.661 411.925, 57.148 421 C 58.012 437.061, 57.428 443.458, 54.826 446.450 C 54.372 446.973, 54 448.660, 54 450.200 C 54 451.740, 53.550 453, 53 453 C 52.450 453, 52 454.350, 52 456 C 52 457.650, 51.550 459, 51 459 C 50.422 459, 50 462.167, 50 466.500 C 50 470.833, 49.578 474, 49 474 C 48.450 474, 48 475.605, 48 477.566 C 48 479.527, 47.539 481.993, 46.975 483.046 C 46.412 484.099, 45.475 492.507, 44.892 501.730 C 44.310 510.954, 42.916 530.875, 41.793 546 C 40.671 561.125, 39.396 578.900, 38.959 585.500 C 38.062 599.050, 37.188 604.766, 35.890 605.568 C 35.400 605.871, 35 606.783, 35 607.595 C 35 608.407, 34.098 610.068, 32.996 611.286 C 31.894 612.504, 28.730 616.425, 25.965 620 C 23.199 623.575, 20.276 627.293, 19.469 628.261 C 18.661 629.230, 18 630.693, 18 631.511 C 18 632.330, 17.550 633, 17 633 C 16.450 633, 16 634.350, 16 636 C 16 637.650, 15.550 639, 15 639 C 14.450 639, 14 640.988, 14 643.417 C 14 645.846, 13.643 647.983, 13.206 648.167 C 12.769 648.350, 11.671 651.425, 10.766 655 C 8.681 663.232, 4.732 674.397, 3.750 674.833 C 3.337 675.017, 3 675.767, 3 676.500 C 3 677.233, 2.457 678.014, 1.793 678.236 C 1.055 678.482, 0.429 681.409, 0.183 685.772 L -0.220 692.907 2.640 693.537 C 4.213 693.883, 6.095 694.353, 6.823 694.580 C 8.579 695.129, 18 692.014, 18 690.885 C 18 690.398, 18.519 690, 19.154 690 C 20.010 690, 20.092 693.296, 19.471 702.750 C 18.462 718.097, 18.825 736.805, 20.181 739.337 C 23.260 745.091, 30.666 748.984, 38.556 748.994 C 43.403 749.001, 54.695 745.430, 57.500 743.003 C 58.600 742.052, 60.303 740.848, 61.285 740.327 C 62.266 739.807, 65.242 737.274, 67.898 734.697 C 75.135 727.677, 78.539 717.686, 80.062 699 C 80.578 692.675, 81.510 684.800, 82.133 681.500 C 83.650 673.472, 84.424 624, 83.032 624 C 82.439 624, 82 621.485, 82 618.083 C 82 614.829, 81.563 612.017, 81.029 611.833 C 80.070 611.504, 81.881 604.785, 83.315 603.352 C 83.692 602.975, 84 601.842, 84 600.833 C 84 599.825, 84.450 599, 85 599 C 85.550 599, 86 597.650, 86 596 C 86 594.350, 86.450 593, 87 593 C 87.550 593, 88 592.190, 88 591.200 C 88 590.210, 88.379 588.973, 88.842 588.450 C 89.305 587.928, 90.504 584.350, 91.507 580.500 C 92.510 576.650, 93.662 572.825, 94.068 572 C 94.473 571.175, 95.329 568.475, 95.970 566 C 96.611 563.525, 97.555 560.118, 98.068 558.429 C 98.580 556.740, 99 554.404, 99 553.238 C 99 552.072, 99.450 550.840, 100 550.500 C 100.550 550.160, 101 549.009, 101 547.941 C 101 546.873, 101.450 546, 102 546 C 102.550 546, 103 543.975, 103 541.500 C 103 539.025, 103.450 537, 104 537 C 104.550 537, 105 536.094, 105 534.986 C 105 533.879, 105.425 532.191, 105.944 531.236 C 107.174 528.974, 110.832 517.027, 112.102 511.125 C 112.650 508.581, 113.569 504.700, 114.146 502.500 C 115.802 496.176, 116.836 484.094, 117.589 462.250 C 117.972 451.113, 118.672 442, 119.143 442 C 119.614 442, 120 441.100, 120 440 C 120 438.900, 120.450 438, 121 438 C 121.550 438, 122 437.137, 122 436.083 C 122 435.029, 122.359 434.017, 122.797 433.833 C 123.965 433.345, 128.031 424.274, 129.671 418.500 C 130.451 415.750, 131.482 412.600, 131.961 411.500 C 132.441 410.400, 133.418 407.363, 134.135 404.750 C 134.851 402.138, 135.788 400, 136.218 400 C 136.648 400, 137 402.250, 137 405 C 137 407.750, 137.450 410, 138 410 C 138.599 410, 139 413.933, 139 419.800 C 139 425.190, 139.416 430.027, 139.925 430.550 C 141.256 431.918, 141.912 443.205, 142.795 480 C 143.314 501.624, 143.981 513.443, 144.788 515.317 C 146.054 518.256, 145.403 529, 143.959 529 C 142.655 529, 141.841 538.670, 141.372 559.750 C 141.106 571.717, 140.528 580, 139.961 580 C 139.432 580, 139 582.025, 139 584.500 C 139 586.975, 138.550 589, 138 589 C 137.450 589, 137 591.250, 137 594 C 137 596.750, 136.590 599, 136.089 599 C 135.588 599, 134.948 601.587, 134.666 604.750 C 134.148 610.577, 133.154 616.437, 131.147 625.500 C 129.048 634.979, 126.803 647.513, 126.310 652.500 C 126.038 655.250, 125.407 657.927, 124.908 658.450 C 124.409 658.972, 124 662.460, 124 666.200 C 124 670.067, 123.569 673, 123 673 C 122.397 673, 122 677.167, 122 683.500 C 122 689.833, 121.603 694, 121 694 C 120.364 694, 120 701.833, 120 715.500 C 120 729.167, 119.636 737, 119 737 C 118.422 737, 118 740.167, 118 744.500 C 118 748.833, 118.422 752, 119 752 C 119.626 752, 120 758.167, 120 768.500 C 120 778.833, 120.374 785, 121 785 C 121.556 785, 122 787.667, 122 791 C 122 794.300, 122.407 797, 122.903 797 C 123.400 797, 124.053 801.163, 124.354 806.250 C 125.243 821.266, 126.657 835.372, 127.463 837.250 C 128.163 838.881, 131.379 839, 174.678 839 C 223.662 839, 224 838.970, 224 834.571 C 224 833.707, 224.450 833, 225 833 C 225.550 833, 226 831.912, 226 830.583 C 226 829.254, 226.360 828.017, 226.799 827.833 C 227.847 827.397, 235 805.916, 235 803.208 C 235 802.059, 235.450 800.840, 236 800.500 C 236.550 800.160, 237 799.009, 237 797.941 C 237 796.873, 237.450 796, 238 796 C 238.550 796, 239 793.750, 239 791 C 239 788.250, 239.450 786, 240 786 C 240.550 786, 241 784.425, 241 782.500 C 241 780.575, 241.450 779, 242 779 C 242.550 779, 243 776.750, 243 774 C 243 771.250, 243.450 769, 244 769 C 244.550 769, 245 767.178, 245 764.950 C 245 762.723, 245.628 759.686, 246.396 758.200 C 247.725 755.629, 250.208 744.996, 251.869 734.764 C 252.292 732.160, 252.914 729.752, 253.252 729.414 C 254.562 728.105, 256 730.275, 256 733.559 C 256 735.452, 256.450 737, 257 737 C 257.550 737, 258 739.025, 258 741.500 C 258 743.975, 258.450 746, 259 746 C 259.550 746, 260 747.800, 260 750 C 260 752.200, 260.450 754, 261 754 C 261.550 754, 262 755.548, 262 757.441 C 262 759.334, 262.450 761.160, 263 761.500 C 263.550 761.840, 264 763.666, 264 765.559 C 264 767.452, 264.405 769, 264.899 769 C 265.394 769, 266.040 770.913, 266.335 773.250 C 267.144 779.667, 268.167 784.385, 268.989 785.500 C 269.395 786.050, 270.012 788.373, 270.361 790.662 C 270.710 792.951, 271.896 796.926, 272.998 799.495 C 274.099 802.064, 275 805.254, 275 806.583 C 275 807.912, 275.450 809, 276 809 C 276.550 809, 277 810.125, 277 811.500 C 277 812.875, 277.450 814, 278 814 C 278.550 814, 279 815.350, 279 817 C 279 818.650, 279.450 820, 280 820 C 280.550 820, 281 821.350, 281 823 C 281 824.650, 281.450 826, 282 826 C 282.550 826, 283 826.815, 283 827.811 C 283 828.808, 283.900 830.589, 285 831.770 C 286.100 832.950, 287 835.060, 287 836.458 L 287 839 335 839 L 383 839 383 825.500 C 383 817.971, 383.406 812, 383.918 812 C 384.423 812, 385.041 808.962, 385.292 805.250 C 385.543 801.538, 386.516 794.675, 387.454 790 C 388.952 782.536, 389.096 776.565, 388.640 741 C 388.342 717.797, 387.657 698.365, 387.036 695.500 C 386.439 692.750, 385.678 687.238, 385.344 683.250 C 385.010 679.263, 384.346 676, 383.868 676 C 383.391 676, 383 672.850, 383 669 C 383 665, 382.571 662, 382 662 C 381.429 662, 381 659, 381 655 C 381 651, 380.571 648, 380 648 C 379.450 648, 379 645.975, 379 643.500 C 379 641.025, 378.592 639, 378.093 639 C 377.593 639, 376.957 636.638, 376.678 633.750 C 376.400 630.863, 375.702 626.475, 375.128 624 C 374.553 621.525, 373.162 615.225, 372.037 610 C 370.911 604.775, 369.542 598.581, 368.995 596.236 C 368.448 593.890, 368 590.853, 368 589.486 C 368 588.119, 367.550 587, 367 587 C 366.450 587, 366 584.975, 366 582.500 C 366 580.025, 365.593 578, 365.097 578 C 363.301 578, 362.714 568.298, 363.598 553.250 C 363.965 547.003, 363.794 544, 363.071 544 C 362.430 544, 362 541.615, 362 538.059 C 362 534.791, 361.550 531.840, 361 531.500 C 360.450 531.160, 360 529.596, 360 528.024 C 360 526.453, 359.593 525.017, 359.095 524.833 C 357.847 524.374, 359.601 438.186, 360.889 436.633 C 361.434 435.977, 362.100 429.829, 362.371 422.970 C 362.641 416.112, 363.162 408.137, 363.528 405.250 C 364.240 399.628, 366 398.026, 366 403 C 366 404.650, 366.450 406, 367 406 C 367.550 406, 368 407.548, 368 409.441 C 368 411.334, 368.450 413.160, 369 413.500 C 369.550 413.840, 370 415.179, 370 416.476 C 370 417.772, 370.337 418.983, 370.750 419.167 C 371.447 419.477, 373.766 425.069, 376.382 432.750 C 376.991 434.538, 377.829 436, 378.245 436 C 378.660 436, 379 436.900, 379 438 C 379 439.100, 379.450 440, 380 440 C 380.603 440, 381 444.167, 381 450.500 C 381 456.833, 381.397 461, 382 461 C 382.627 461, 383 467.333, 383 478 C 383 488.667, 383.373 495, 384 495 C 384.550 495, 385 496.725, 385 498.833 C 385 500.942, 385.308 502.975, 385.685 503.352 C 386.690 504.357, 388.967 511.212, 388.985 513.285 C 389.002 515.293, 393.668 530.560, 395.082 533.236 C 395.587 534.191, 396 536.104, 396 537.486 C 396 538.869, 396.450 540, 397 540 C 397.550 540, 398 541.800, 398 544 C 398 546.200, 398.450 548, 399 548 C 399.550 548, 400 549.125, 400 550.500 C 400 551.875, 400.450 553, 401 553 C 401.550 553, 402 554.131, 402 555.514 C 402 556.896, 402.395 558.809, 402.877 559.764 C 404.420 562.817, 406 568.564, 406 571.121 C 406 572.484, 406.392 574.027, 406.871 574.550 C 407.351 575.072, 408.546 578.200, 409.528 581.500 C 410.510 584.800, 411.693 587.928, 412.157 588.450 C 412.621 588.973, 413 590.210, 413 591.200 C 413 592.190, 413.450 593, 414 593 C 414.550 593, 415 594.350, 415 596 C 415 597.650, 415.450 599, 416 599 C 416.550 599, 417 600.125, 417 601.500 C 417 602.875, 417.450 604, 418 604 C 418.550 604, 419 605.800, 419 608 C 419 610.200, 418.592 612, 418.094 612 C 417.595 612, 417.423 612.900, 417.710 614 C 418.003 615.118, 417.741 616, 417.117 616 C 416.419 616, 416 618.249, 416 622 C 416 625.459, 415.563 628, 414.968 628 C 413.563 628, 414.357 677.546, 415.888 685.500 C 416.524 688.800, 417.427 696.225, 417.896 702 C 418.364 707.775, 419.527 716.325, 420.479 721 C 422.149 729.200, 422.412 729.698, 427.941 735.109 C 440.470 747.371, 454.414 753.722, 466.649 752.740 C 470.251 752.451, 473.997 751.513, 475.262 750.582 C 476.493 749.677, 478.937 748.021, 480.694 746.902 C 482.451 745.784, 484.360 743.435, 484.937 741.684 C 486.253 737.684, 486.435 721.100, 485.330 705.750 C 484.865 699.287, 484.736 694, 485.042 694 C 485.349 694, 486.042 694.442, 486.582 694.982 C 488.647 697.047, 496.817 698.765, 500.964 698.007 C 503.228 697.593, 505.327 697.007, 505.629 696.704 C 505.931 696.402, 506.346 692.407, 506.552 687.827 C 506.805 682.171, 506.654 680.462, 506.081 682.500 C 505.616 684.150, 505.183 684.712, 505.118 683.750 C 505.053 682.788, 504.550 682, 504 682 C 503.450 682, 503 681.325, 503 680.500 C 503 679.675, 502.618 679, 502.152 679 C 501.685 679, 500.589 676.862, 499.716 674.250 C 497.102 666.433, 495.743 662.671, 494.335 659.349 C 493.601 657.616, 493 655.253, 493 654.099 C 493 652.944, 492.550 652, 492 652 C 491.450 652, 491 649.975, 491 647.500 C 491 645.025, 490.550 643, 490 643 C 489.450 643, 489 642.151, 489 641.114 C 489 640.077, 488.436 638.165, 487.748 636.864 C 485.859 633.299, 477.965 622.898, 474.797 619.801 C 473.259 618.298, 472 616.558, 472 615.935 C 472 615.312, 470.650 613.541, 469 612 C 467.350 610.459, 466 608.478, 466 607.599 C 466 606.719, 465.550 606, 465 606 C 464.450 606, 464 605.325, 464 604.500 C 464 603.675, 463.604 603, 463.120 603 C 462.167 603, 461.429 597.142, 460.036 578.500 C 459.543 571.900, 458.399 556.600, 457.494 544.500 C 456.589 532.400, 455.608 514.513, 455.313 504.750 C 455.018 494.987, 454.377 487, 453.888 487 C 453.400 487, 453 484.075, 453 480.500 C 453 476.833, 452.564 474, 452 474 C 451.450 474, 451 471.777, 451 469.059 C 451 466.341, 450.550 463.840, 450 463.500 C 449.450 463.160, 449 461.109, 449 458.941 C 449 456.773, 448.550 455, 448 455 C 447.450 455, 447 453.725, 447 452.167 C 447 450.608, 446.692 449.025, 446.315 448.648 C 443.646 445.980, 442.823 439.681, 442.969 423.063 C 443.098 408.391, 442.683 402.840, 440.353 388.063 C 438.830 378.403, 437.228 370.350, 436.792 370.167 C 436.356 369.983, 436 368.296, 436 366.417 C 436 364.538, 435.550 363, 435 363 C 434.450 363, 434 360.750, 434 358 C 434 355.250, 433.550 353, 433 353 C 432.450 353, 432 351.452, 432 349.559 C 432 347.666, 431.550 345.840, 431 345.500 C 430.450 345.160, 430 343.634, 430 342.108 C 430 340.582, 429.692 339.025, 429.315 338.648 C 426.574 335.907, 425.948 329.525, 426.002 304.837 C 426.051 281.977, 425.831 278.319, 423.989 271.337 C 421.590 262.246, 418.826 255.009, 417.750 255.004 C 417.337 255.002, 417 253.875, 417 252.500 C 417 251.125, 416.550 250, 416 250 C 415.450 250, 415 249.325, 415 248.500 C 415 247.675, 414.550 247, 414 247 C 413.450 247, 413 246.282, 413 245.404 C 413 244.527, 412.196 242.614, 411.214 241.154 C 410.232 239.694, 408.769 237.190, 407.964 235.589 C 407.159 233.988, 404.587 230.708, 402.250 228.301 C 399.913 225.893, 398 223.491, 398 222.962 C 398 222.433, 397.582 222, 397.071 222 C 396.561 222, 395.548 221.438, 394.821 220.750 C 394.095 220.063, 392.233 218.846, 390.685 218.046 C 389.137 217.247, 386.554 215.334, 384.944 213.796 C 383.335 212.258, 381.339 211, 380.509 211 C 379.679 211, 379 210.660, 379 210.244 C 379 208.504, 370.212 205.738, 360.227 204.335 C 357.877 204.005, 355.713 203.344, 355.418 202.867 C 355.123 202.390, 353.805 202, 352.488 202 C 349.656 202, 345 200.035, 345 198.839 C 345 198.378, 344.100 198, 343 198 C 341.900 198, 341 197.550, 341 197 C 341 196.450, 340.100 196, 339 196 C 337.900 196, 336.998 195.662, 336.996 195.250 C 336.994 194.838, 334.969 193.668, 332.496 192.651 C 330.023 191.634, 328 190.396, 328 189.901 C 328 189.405, 327.576 189, 327.057 189 C 325.662 189, 304.556 178.627, 304.167 177.750 C 303.983 177.338, 302.521 177, 300.917 177 C 299.313 177, 298 176.550, 298 176 C 298 175.450, 297.293 175, 296.429 175 C 295.564 175, 294.222 174.365, 293.446 173.589 C 292.671 172.813, 291.550 172.017, 290.956 171.819 C 289.562 171.354, 291.530 143.657, 292.992 143.169 C 293.546 142.985, 294 141.971, 294 140.917 C 294 139.863, 294.450 139, 295 139 C 295.550 139, 296 137.425, 296 135.500 C 296 133.575, 296.450 132, 297 132 C 297.550 132, 298 130.760, 298 129.244 C 298 127.093, 298.713 126.177, 301.250 125.070 C 305.102 123.388, 308.997 119.206, 308.999 116.750 C 308.999 115.787, 309.450 115, 310 115 C 310.550 115, 311 114.100, 311 113 C 311 111.900, 311.450 111, 312 111 C 312.550 111, 313 110.138, 313 109.083 C 313 108.029, 313.489 107.004, 314.087 106.804 C 315.719 106.260, 315.874 85.794, 314.250 85.251 C 313.563 85.021, 313 84.426, 313 83.928 C 313 82.420, 309.649 79, 308.171 79 C 307.196 79, 307.037 78.482, 307.634 77.250 C 308.933 74.569, 309.300 45.900, 308.052 44.652 C 307.473 44.073, 307 42.115, 307 40.300 C 307 38.485, 306.606 37, 306.125 37 C 305.644 37, 304.979 35.645, 304.648 33.988 C 304.316 32.332, 302.685 29.647, 301.023 28.022 C 299.360 26.397, 298 24.602, 298 24.034 C 298 23.465, 297.550 23, 297 23 C 296.450 23, 296 22.546, 296 21.991 C 296 21.436, 294.650 19.569, 293 17.843 C 291.350 16.116, 290 14.383, 290 13.991 C 290 13.599, 287.975 12.204, 285.500 10.891 C 283.025 9.578, 281 8.165, 281 7.752 C 281 7.338, 280.100 7, 279 7 C 277.900 7, 277 6.550, 277 6 C 277 5.450, 276.100 5, 275 5 C 273.900 5, 273 4.550, 273 4 C 273 3.450, 271.012 3, 268.583 3 C 266.154 3, 264.015 2.546, 263.830 1.991 C 263.457 0.871, 244.805 -0.007, 235.750 0.670 M 0.320 687 C 0.320 690.575, 0.502 692.038, 0.723 690.250 C 0.945 688.462, 0.945 685.538, 0.723 683.750 C 0.502 681.962, 0.320 683.425, 0.320 687" stroke="none" fill="#3c448c" fill-rule="evenodd"/></svg>