<svg xmlns="http://www.w3.org/2000/svg" width="154" height="232" viewBox="0 0 154 232" version="1.1"><path d="M 95.162 6.543 C 94.523 7.946, 94.018 9.635, 94.039 10.297 C 94.061 10.959, 94.743 9.969, 95.554 8.099 C 97.263 4.161, 96.902 2.726, 95.162 6.543 M 93.195 14.500 C 93.215 16.150, 93.439 16.704, 93.693 15.731 C 93.947 14.758, 93.930 13.408, 93.656 12.731 C 93.382 12.054, 93.175 12.850, 93.195 14.500 M 92.116 19.677 C 92.036 21.183, 92.975 22.340, 95.162 23.431 C 96.902 24.299, 98.518 24.815, 98.755 24.578 C 98.992 24.341, 97.828 23.445, 96.169 22.587 C 94.510 21.729, 92.945 20.234, 92.692 19.264 C 92.330 17.877, 92.207 17.965, 92.116 19.677 M 89.083 59.377 C 90.106 60.303, 98 63.989, 98 63.541 C 98 62.972, 90.453 59, 89.373 59 C 88.985 59, 88.854 59.170, 89.083 59.377 M 102 67.500 C 103.866 69.425, 105.617 71, 105.892 71 C 106.167 71, 104.866 69.425, 103 67.500 C 101.134 65.575, 99.383 64, 99.108 64 C 98.833 64, 100.134 65.575, 102 67.500 M 113.286 101.500 C 113.294 104.250, 113.488 105.256, 113.718 103.736 C 113.947 102.216, 113.941 99.966, 113.704 98.736 C 113.467 97.506, 113.279 98.750, 113.286 101.500 M 47.910 99.832 C 48.450 100.840, 49.676 102.302, 50.637 103.082 C 51.717 103.960, 51.475 103.261, 50.003 101.250 C 47.377 97.662, 46.392 96.995, 47.910 99.832" stroke="none" fill="#e2eee2" fill-rule="evenodd"/><path d="M 53 3.463 C 53 5.368, 53.845 9.080, 54.878 11.713 C 55.911 14.346, 57.040 18.300, 57.388 20.500 C 57.979 24.245, 57.740 24.776, 53.626 28.833 C 51.209 31.216, 47.942 35.828, 46.366 39.081 C 43.628 44.731, 43.359 44.972, 40.354 44.472 C 33.352 43.307, 31.420 45.847, 28.851 59.594 L 27.712 65.688 17.374 68.852 C 5.814 72.390, 3.301 74.541, 4.476 79.890 C 5.564 84.843, 7.310 85.583, 13.390 83.666 C 18.808 81.958, 22.238 81.572, 23.224 82.558 C 23.531 82.864, 22.934 85.902, 21.899 89.308 C 20.863 92.713, 20.012 96.334, 20.008 97.353 C 20.003 98.372, 18.088 101.335, 15.750 103.937 C 10.506 109.774, 5.764 119.119, 3.033 129 C -2.637 149.511, 0.117 166.890, 11.802 184.334 C 17.462 192.785, 23.620 198.298, 26.739 197.706 C 28.407 197.390, 29.671 198.201, 31.701 200.891 C 33.199 202.876, 36.017 205.968, 37.962 207.763 C 42.454 211.906, 60.517 220.823, 73.500 225.306 C 93.673 232.273, 91.843 232, 118.323 232 C 142.576 232, 142.782 231.982, 144.231 229.750 C 151.876 217.972, 155.922 186.379, 152.586 164.500 C 151.664 158.450, 150.174 151.025, 149.276 148 C 146.807 139.689, 141.283 128.004, 139.807 127.970 C 139.003 127.951, 139.174 127.547, 140.250 126.920 C 141.213 126.359, 142 125.111, 142 124.147 C 142 121.581, 137.500 113.039, 134.020 109 C 132.362 107.075, 131.004 105.178, 131.002 104.785 C 130.998 103.481, 124.561 96.701, 120.600 93.828 C 115.803 90.350, 113.030 90.141, 112.921 93.250 C 112.850 95.243, 111.492 89.812, 109.669 80.250 C 109.107 77.299, 109.275 77, 111.502 77 C 112.851 77, 116.962 78.132, 120.639 79.516 C 124.315 80.900, 128.079 81.792, 129.002 81.499 C 131.465 80.718, 133.199 76.831, 132.826 72.925 C 132.570 70.241, 131.691 68.981, 128.748 67.083 C 125.457 64.960, 125.167 64.468, 126.387 63.081 C 128.863 60.266, 129.399 55.098, 127.439 52.933 C 124.919 50.148, 121.803 50.549, 118.437 54.089 C 116.822 55.788, 114.263 57.825, 112.750 58.615 L 110 60.051 110 51.704 C 110 42.051, 108.084 35.199, 103.880 29.809 C 102.296 27.779, 101.383 25.881, 101.851 25.592 C 102.733 25.047, 104.248 12.848, 104.408 5 L 104.500 0.500 92.837 0.217 L 81.173 -0.065 80.512 2.946 C 80.148 4.602, 80.156 8.400, 80.529 11.387 C 81.141 16.283, 80.997 16.931, 79.066 17.965 C 76.493 19.342, 73 18.439, 73 16.397 C 73 15.590, 72.376 13.933, 71.612 12.715 C 70.849 11.497, 69.909 8.700, 69.523 6.500 C 68.485 0.584, 67.618 0, 59.878 0 L 53 0 53 3.463 M 95.162 6.543 C 94.523 7.946, 94.018 9.635, 94.039 10.297 C 94.061 10.959, 94.743 9.969, 95.554 8.099 C 97.263 4.161, 96.902 2.726, 95.162 6.543 M 93.195 14.500 C 93.215 16.150, 93.439 16.704, 93.693 15.731 C 93.947 14.758, 93.930 13.408, 93.656 12.731 C 93.382 12.054, 93.175 12.850, 93.195 14.500 M 92.116 19.677 C 92.036 21.183, 92.975 22.340, 95.162 23.431 C 96.902 24.299, 98.518 24.815, 98.755 24.578 C 98.992 24.341, 97.828 23.445, 96.169 22.587 C 94.510 21.729, 92.945 20.234, 92.692 19.264 C 92.330 17.877, 92.207 17.965, 92.116 19.677 M 77.289 50.800 C 73.735 53.059, 72.190 62.304, 73.997 70.500 C 74.663 73.521, 74.746 72.645, 74.338 66.923 C 73.884 60.566, 74.079 59.064, 75.548 57.595 C 76.510 56.632, 78.131 56.063, 79.149 56.329 C 80.683 56.730, 81 56.229, 81 53.406 C 81 50.025, 79.816 49.194, 77.289 50.800 M 89.083 59.377 C 90.106 60.303, 98 63.989, 98 63.541 C 98 62.972, 90.453 59, 89.373 59 C 88.985 59, 88.854 59.170, 89.083 59.377 M 102 67.500 C 103.866 69.425, 105.617 71, 105.892 71 C 106.167 71, 104.866 69.425, 103 67.500 C 101.134 65.575, 99.383 64, 99.108 64 C 98.833 64, 100.134 65.575, 102 67.500 M 78 88 C 78 88.733, 78.300 89.033, 78.667 88.667 C 79.033 88.300, 79.033 87.700, 78.667 87.333 C 78.300 86.967, 78 87.267, 78 88 M 35.750 93.662 C 36.438 93.940, 37.563 93.940, 38.250 93.662 C 38.938 93.385, 38.375 93.158, 37 93.158 C 35.625 93.158, 35.063 93.385, 35.750 93.662 M 43.565 93.895 C 43.260 94.388, 43.661 95.040, 44.455 95.344 C 45.418 95.714, 45.713 95.416, 45.342 94.449 C 44.697 92.769, 44.331 92.655, 43.565 93.895 M 113.286 101.500 C 113.294 104.250, 113.488 105.256, 113.718 103.736 C 113.947 102.216, 113.941 99.966, 113.704 98.736 C 113.467 97.506, 113.279 98.750, 113.286 101.500 M 47.910 99.832 C 48.450 100.840, 49.676 102.302, 50.637 103.082 C 51.717 103.960, 51.475 103.261, 50.003 101.250 C 47.377 97.662, 46.392 96.995, 47.910 99.832 M 69.356 108.627 C 67.444 109.411, 68.946 112.827, 70.970 112.298 C 72.167 111.985, 72.600 111.188, 72.267 109.914 C 71.757 107.964, 71.379 107.797, 69.356 108.627 M 113.697 110.393 C 113.288 111.434, 113.189 112.522, 113.476 112.810 C 114.389 113.722, 115.191 112.227, 114.809 110.328 C 114.459 108.588, 114.405 108.591, 113.697 110.393 M 77.333 113.667 C 77.700 114.033, 78.300 114.033, 78.667 113.667 C 79.033 113.300, 78.733 113, 78 113 C 77.267 113, 76.967 113.300, 77.333 113.667 M 81.269 114.693 C 82.242 114.947, 83.592 114.930, 84.269 114.656 C 84.946 114.382, 84.150 114.175, 82.500 114.195 C 80.850 114.215, 80.296 114.439, 81.269 114.693 M 105.813 114.683 C 106.534 114.972, 107.397 114.936, 107.729 114.604 C 108.061 114.272, 107.471 114.036, 106.417 114.079 C 105.252 114.127, 105.015 114.364, 105.813 114.683 M 89.728 115.722 C 91.503 115.943, 94.653 115.946, 96.728 115.730 C 98.802 115.513, 97.350 115.333, 93.500 115.328 C 89.650 115.324, 87.952 115.501, 89.728 115.722 M 24 175 C 24 175.733, 24.300 176.033, 24.667 175.667 C 25.033 175.300, 25.033 174.700, 24.667 174.333 C 24.300 173.967, 24 174.267, 24 175" stroke="none" fill="#1d7c1d" fill-rule="evenodd"/></svg>