<svg xmlns="http://www.w3.org/2000/svg" width="435" height="258" viewBox="0 0 435 258" version="1.1"><path d="M 56.500 3.892 C 69.700 4.242, 81.175 4.926, 82 5.411 C 83.246 6.144, 83.280 6.057, 82.200 4.897 C 81.163 3.782, 76.010 3.475, 56.700 3.378 L 32.500 3.256 56.500 3.892 M 252 3.731 C 250.075 3.958, 248.137 4.496, 247.692 4.929 C 246.989 5.613, 251.382 5.175, 260 3.700 C 263.280 3.139, 256.828 3.164, 252 3.731 M 353.500 4 C 355.150 4.420, 357.400 4.772, 358.500 4.782 C 360.067 4.797, 359.959 4.627, 358 4 C 356.625 3.560, 354.375 3.208, 353 3.218 C 350.754 3.235, 350.805 3.314, 353.500 4 M 26.762 4.707 C 28.006 4.946, 29.806 4.937, 30.762 4.687 C 31.718 4.437, 30.700 4.241, 28.500 4.252 C 26.300 4.263, 25.518 4.468, 26.762 4.707 M 223.269 9.693 C 224.242 9.947, 225.592 9.930, 226.269 9.656 C 226.946 9.382, 226.150 9.175, 224.500 9.195 C 222.850 9.215, 222.296 9.439, 223.269 9.693 M 117 15.383 C 117 15.594, 118.111 15.979, 119.470 16.239 C 120.828 16.499, 121.702 16.326, 121.411 15.856 C 120.899 15.027, 117 14.610, 117 15.383 M 193.762 15.707 C 195.006 15.946, 196.806 15.937, 197.762 15.687 C 198.718 15.437, 197.700 15.241, 195.500 15.252 C 193.300 15.263, 192.518 15.468, 193.762 15.707 M 0.310 27.500 C 0.315 30.800, 0.502 32.029, 0.725 30.232 C 0.947 28.435, 0.943 25.735, 0.715 24.232 C 0.486 22.729, 0.304 24.200, 0.310 27.500 M 177.881 78.781 C 177.552 80.769, 177.698 81.702, 178.253 81.147 C 178.757 80.643, 179.002 79.166, 178.797 77.865 C 178.482 75.864, 178.342 76.004, 177.881 78.781 M 195.951 87.724 C 195.677 90.047, 195.833 91.567, 196.299 91.101 C 196.765 90.635, 196.989 88.735, 196.798 86.877 C 196.459 83.583, 196.438 83.604, 195.951 87.724 M 195.881 131.219 C 196.342 133.996, 196.482 134.136, 196.797 132.135 C 197.002 130.834, 196.757 129.357, 196.253 128.853 C 195.698 128.298, 195.552 129.231, 195.881 131.219 M 178.195 140.500 C 178.215 142.150, 178.439 142.704, 178.693 141.731 C 178.947 140.758, 178.930 139.408, 178.656 138.731 C 178.382 138.054, 178.175 138.850, 178.195 140.500 M 201 150.642 C 201 151.179, 201.700 152.491, 202.555 153.559 C 204.022 155.389, 204.042 155.357, 202.920 153 C 201.462 149.939, 201 149.372, 201 150.642 M 135.500 161 C 136.600 161.473, 138.175 161.859, 139 161.859 C 139.945 161.859, 139.761 161.542, 138.500 161 C 137.400 160.527, 135.825 160.141, 135 160.141 C 134.055 160.141, 134.239 160.458, 135.500 161 M 415.195 167.500 C 415.215 169.150, 415.439 169.704, 415.693 168.731 C 415.947 167.758, 415.930 166.408, 415.656 165.731 C 415.382 165.054, 415.175 165.850, 415.195 167.500 M 160.750 166.706 C 161.988 166.944, 164.012 166.944, 165.250 166.706 C 166.488 166.467, 165.475 166.272, 163 166.272 C 160.525 166.272, 159.512 166.467, 160.750 166.706 M 409.394 196.416 C 409.095 197.194, 409.013 199.107, 409.210 200.666 C 409.504 202.979, 409.660 202.718, 410.061 199.250 C 410.567 194.877, 410.345 193.936, 409.394 196.416" stroke="none" fill="#4c8c4c" fill-rule="evenodd"/><path d="M 268 0.722 C 265.463 0.931, 262.979 1.778, 262.305 2.663 C 261.493 3.728, 259.992 4.101, 257.625 3.825 C 255.709 3.601, 254.354 3.764, 254.615 4.187 C 254.877 4.609, 252.459 4.918, 249.244 4.873 C 241.200 4.760, 227.933 7.012, 227.326 8.594 C 227.021 9.389, 225.039 9.891, 222.165 9.902 C 215.528 9.928, 198.452 13.512, 198.734 14.820 C 198.885 15.519, 196.505 15.897, 192.040 15.883 C 188.229 15.871, 183.121 16.159, 180.689 16.524 C 173.380 17.620, 139.148 18.565, 139.712 17.655 C 140 17.191, 137.524 16.966, 134.210 17.155 C 130.897 17.345, 128.366 17.210, 128.587 16.855 C 128.808 16.499, 127.229 16.041, 125.079 15.836 C 122.928 15.631, 121.342 15.744, 121.554 16.087 C 121.766 16.430, 120.833 16.500, 119.481 16.241 C 118.129 15.983, 117.261 15.386, 117.553 14.915 C 118.261 13.768, 113.437 12.612, 111.902 13.560 C 111.172 14.012, 110.950 13.890, 111.343 13.254 C 111.993 12.202, 102.986 9.352, 100.053 9.681 C 99.257 9.770, 98.073 9.115, 97.422 8.225 C 96.686 7.218, 94.720 6.586, 92.219 6.553 C 90.008 6.524, 88.406 6.162, 88.659 5.750 C 89.136 4.970, 85.270 4.676, 78.639 4.988 C 76.515 5.087, 75.009 4.793, 75.293 4.335 C 75.576 3.876, 65.769 3.500, 53.499 3.500 C 41.229 3.500, 31.389 3.821, 31.632 4.214 C 31.875 4.606, 29.244 4.890, 25.787 4.845 C 17.058 4.730, 2.854 10.336, 4.623 13.198 C 5.012 13.828, 4.858 14.030, 4.268 13.666 C 1.788 12.133, 0.629 16.273, 0.535 26.998 C 0.483 32.964, 0.786 37.632, 1.209 37.371 C 1.631 37.110, 1.707 37.600, 1.377 38.459 C 0.775 40.028, 7.404 49.199, 8.803 48.732 C 9.186 48.605, 9.500 48.801, 9.500 49.169 C 9.500 50.604, 14.347 54.904, 15.300 54.315 C 15.855 53.972, 16.018 54.161, 15.663 54.736 C 15.025 55.769, 18.620 58.696, 21.178 59.226 C 21.905 59.377, 22.842 60.339, 23.260 61.364 C 23.768 62.611, 24.679 63.056, 26.011 62.707 C 27.107 62.421, 27.780 62.547, 27.507 62.988 C 27.007 63.798, 29.861 65.453, 31.250 65.159 C 31.663 65.071, 32 65.477, 32 66.059 C 32 66.641, 32.520 66.797, 33.155 66.405 C 33.841 65.980, 34.039 66.128, 33.643 66.769 C 32.869 68.020, 38.549 72.397, 39.879 71.574 C 40.371 71.271, 41.022 71.976, 41.327 73.141 C 41.683 74.503, 42.411 75.056, 43.367 74.689 C 44.185 74.376, 45.449 74.880, 46.177 75.809 C 47.381 77.347, 47.319 77.376, 45.500 76.125 C 44.400 75.369, 44.770 75.938, 46.322 77.390 C 47.875 78.841, 49.675 79.725, 50.322 79.354 C 50.970 78.983, 51.166 79.048, 50.759 79.498 C 49.805 80.550, 51.933 83.159, 53.138 82.415 C 53.639 82.105, 53.926 82.447, 53.775 83.176 C 53.624 83.904, 54.096 84.376, 54.824 84.225 C 55.553 84.074, 55.895 84.361, 55.585 84.862 C 55.064 85.705, 57.877 88.811, 58.654 88.250 C 58.844 88.112, 58.956 88.267, 58.902 88.593 C 58.763 89.440, 64.161 94.946, 64.892 94.703 C 65.226 94.591, 65.569 94.880, 65.652 95.343 C 65.967 97.082, 71.346 101.904, 72.308 101.310 C 72.858 100.970, 73.038 101.130, 72.706 101.666 C 71.667 103.347, 75.893 109.255, 77.652 108.580 C 78.742 108.162, 79.053 108.421, 78.667 109.427 C 78.053 111.024, 87.654 124.656, 89.106 124.250 C 89.598 124.112, 89.947 124.337, 89.882 124.750 C 89.568 126.735, 90.099 128.057, 90.989 127.507 C 91.563 127.152, 91.718 127.571, 91.359 128.508 C 90.936 129.608, 91.412 130.295, 92.859 130.673 C 94.024 130.978, 94.733 131.624, 94.433 132.108 C 93.636 133.399, 99.039 140.094, 100.266 139.336 C 100.852 138.974, 101.013 139.170, 100.633 139.785 C 99.803 141.127, 104.983 146.129, 106.337 145.292 C 106.871 144.961, 107.019 145.160, 106.664 145.734 C 105.602 147.453, 115.769 154.170, 120.996 155.204 C 121.819 155.367, 122.944 156.051, 123.496 156.724 C 125.048 158.616, 132.580 160.923, 135.076 160.270 C 136.609 159.869, 137.090 160.046, 136.604 160.831 C 136.141 161.581, 136.448 161.765, 137.496 161.363 C 138.423 161.007, 139.613 161.457, 140.325 162.430 C 141.159 163.570, 143.202 164.174, 146.672 164.306 C 149.486 164.413, 151.550 164.894, 151.258 165.375 C 150.966 165.857, 152.332 166.063, 154.293 165.834 C 156.255 165.605, 157.681 165.706, 157.464 166.059 C 157.246 166.411, 159.368 166.479, 162.180 166.209 C 165.781 165.863, 167.089 166.046, 166.605 166.829 C 165.727 168.251, 168.164 168.733, 179.750 169.425 C 187.605 169.895, 189 169.749, 189 168.457 C 189 166.515, 186.298 160, 185.492 160 C 185.156 160, 185.203 160.520, 185.595 161.155 C 186.046 161.884, 185.869 162.037, 185.114 161.570 C 184.429 161.147, 184.195 159.961, 184.566 158.791 C 184.923 157.668, 184.829 156.988, 184.357 157.279 C 183.886 157.571, 183.448 156.614, 183.385 155.155 C 183.196 150.774, 180.493 142.485, 179.327 142.710 C 178.015 142.963, 177.608 135.351, 177.582 110 C 177.556 85.778, 177.989 75.875, 179.046 76.529 C 179.857 77.029, 180.990 73.656, 182.491 66.277 C 182.857 64.478, 184.502 61.914, 186.214 60.473 C 188.744 58.345, 190.073 57.959, 193.806 58.272 C 197.954 58.620, 198.362 58.895, 198.691 61.576 C 198.888 63.184, 198.966 66.075, 198.865 68 C 198.763 69.925, 198.640 72.920, 198.590 74.655 C 198.541 76.389, 198.162 77.600, 197.750 77.345 C 196.980 76.870, 196.678 80.689, 196.973 87.161 C 197.088 89.688, 196.615 91.116, 195.446 91.770 C 193.958 92.603, 193.750 94.807, 193.730 109.892 C 193.710 125.265, 193.895 127.203, 195.500 128.376 C 196.758 129.296, 197.136 130.509, 196.767 132.438 C 196.062 136.127, 198.813 148.201, 200.697 149.683 C 201.543 150.350, 201.870 151.401, 201.446 152.088 C 200.963 152.868, 201.108 153.051, 201.845 152.595 C 202.480 152.203, 203.035 152.246, 203.077 152.691 C 203.119 153.136, 203.232 154.883, 203.327 156.574 C 203.523 160.057, 207.946 167.151, 209.372 166.270 C 209.887 165.952, 209.994 166.201, 209.608 166.825 C 208.644 168.385, 210.730 172, 212.594 172 C 213.432 172, 213.840 172.450, 213.500 173 C 212.606 174.446, 221.021 184.062, 222.912 183.757 C 223.785 183.615, 224.397 184.033, 224.272 184.684 C 223.910 186.565, 233.168 194.189, 235.177 193.664 C 236.142 193.412, 236.835 193.688, 236.716 194.278 C 236.441 195.645, 244.218 200.075, 247.223 200.262 C 248.475 200.340, 249.799 200.840, 250.164 201.373 C 251.178 202.850, 263.067 206.912, 264.627 206.313 C 265.393 206.019, 266 206.412, 266 207.202 C 266 208.022, 268.107 209.292, 271.003 210.218 C 273.754 211.098, 275.779 211.451, 275.501 211.002 C 275.224 210.554, 275.882 210.418, 276.963 210.701 C 278.044 210.983, 278.832 211.681, 278.714 212.252 C 278.596 212.822, 281.087 214.312, 284.250 215.562 C 287.413 216.812, 290 217.647, 290 217.417 C 290 217.188, 290.942 217.942, 292.092 219.092 C 293.390 220.390, 294.947 220.986, 296.191 220.660 C 297.295 220.372, 297.935 220.398, 297.614 220.719 C 296.684 221.650, 301.908 223.972, 303.531 223.350 C 304.374 223.026, 305.010 223.364, 305.025 224.143 C 305.055 225.831, 311.749 229.273, 313.225 228.361 C 313.879 227.957, 314.020 228.158, 313.581 228.869 C 313.108 229.635, 314.542 230.811, 317.676 232.229 C 320.329 233.429, 322.837 234.318, 323.250 234.205 C 323.663 234.092, 324 234.413, 324 234.918 C 324 236.489, 330.687 240.057, 332.399 239.401 C 333.554 238.957, 333.859 239.205, 333.454 240.260 C 332.823 241.903, 335.542 243.401, 337.245 242.349 C 337.831 241.987, 338.020 242.159, 337.666 242.732 C 336.866 244.026, 339.311 246.171, 341.145 245.785 C 341.890 245.628, 342.390 246.054, 342.256 246.731 C 342.122 247.408, 343.247 248.758, 344.756 249.731 C 346.265 250.703, 348.175 252.236, 349 253.137 C 351.068 255.395, 356.116 256.892, 359.488 256.247 C 361.445 255.873, 362.082 256.058, 361.590 256.855 C 361.074 257.689, 363.904 258, 372 258 C 379.715 258, 382.913 257.669, 382.450 256.919 C 382.046 256.265, 382.517 255.945, 383.641 256.110 C 384.663 256.260, 386.625 256.012, 388 255.558 C 390.987 254.572, 398 249.213, 398 247.916 C 398 247.412, 398.942 246.058, 400.092 244.908 C 401.334 243.666, 401.982 242.038, 401.686 240.906 C 401.411 239.856, 401.600 239.253, 402.105 239.565 C 402.987 240.110, 404.687 234.417, 404.174 232.638 C 404.037 232.163, 404.577 231.263, 405.373 230.638 C 407.117 229.268, 409.148 214.830, 409.154 203.760 C 409.156 199.321, 409.617 195.737, 410.233 195.356 C 410.924 194.929, 411.022 195.194, 410.508 196.095 C 409.980 197.020, 410.042 197.158, 410.689 196.500 C 411.882 195.285, 415.428 172.792, 415.142 168.250 C 415.004 166.064, 415.386 165, 416.309 165 C 417.713 165, 420.499 152.885, 420.173 148.195 C 420.079 146.834, 420.436 146.152, 421.047 146.529 C 421.713 146.941, 421.850 146.250, 421.432 144.584 C 420.958 142.696, 421.173 142, 422.232 142 C 423.695 142, 426.778 131.926, 426.165 129.150 C 426 128.407, 426.299 128.067, 426.827 128.393 C 427.356 128.720, 428.460 127.302, 429.282 125.244 C 431.487 119.717, 432.965 113.904, 432.016 114.490 C 431.560 114.772, 431.414 114.133, 431.692 113.071 C 431.970 112.008, 432.828 110.896, 433.599 110.601 C 435.645 109.815, 435.662 77.191, 433.617 76.407 C 432.798 76.092, 432.213 74.362, 432.183 72.165 C 432.110 66.886, 428.770 57.432, 427.105 57.791 C 426.234 57.979, 425.972 57.514, 426.368 56.483 C 427.164 54.408, 423.772 47.866, 421.044 46.217 C 419.877 45.512, 419.186 44.509, 419.507 43.988 C 420.357 42.613, 418.176 39, 416.496 39 C 415.708 39, 415.284 38.423, 415.555 37.717 C 415.826 37.012, 412.999 33.507, 409.274 29.929 C 402.678 23.594, 395.968 18.521, 397.531 21.051 C 398.036 21.867, 397.904 22.059, 397.155 21.595 C 396.520 21.203, 396 20.181, 396 19.324 C 396 18.259, 395.368 17.932, 393.999 18.290 C 392.898 18.578, 392.235 18.428, 392.527 17.957 C 393.261 16.769, 389.217 14.748, 387.825 15.608 C 387.148 16.027, 386.966 15.864, 387.373 15.205 C 388.231 13.817, 384.351 11.651, 382.370 12.412 C 381.559 12.723, 381.144 12.576, 381.447 12.086 C 382.076 11.068, 376.482 8.851, 375.575 9.759 C 375.247 10.086, 374.421 9.629, 373.740 8.742 C 372.168 6.699, 362.070 4.073, 358.448 4.765 C 356.754 5.089, 355.940 4.907, 356.321 4.289 C 356.697 3.682, 355.951 3.478, 354.422 3.770 C 352.756 4.089, 351.470 3.657, 350.621 2.497 C 349.686 1.218, 348.362 0.856, 345.739 1.162 C 343.760 1.393, 342.360 1.226, 342.629 0.791 C 343.101 0.027, 277.138 -0.034, 268 0.722" stroke="none" fill="#1c7c1c" fill-rule="evenodd"/></svg>