<svg xmlns="http://www.w3.org/2000/svg" width="435" height="258" viewBox="0 0 435 258" version="1.1"><path d="M 268.500 0.659 C 266.300 0.876, 263.600 1.448, 262.500 1.930 C 261.400 2.413, 253.398 3.756, 244.717 4.916 C 236.037 6.075, 228.162 7.437, 227.217 7.942 C 226.273 8.446, 219.875 9.820, 213 10.994 C 206.125 12.168, 199.600 13.536, 198.500 14.034 C 195.664 15.317, 178.984 16.981, 162 17.675 L 147.500 18.268 135.059 17.057 L 122.617 15.846 118.559 14.505 C 116.326 13.767, 111.125 12.197, 107 11.017 C 102.875 9.837, 98.150 8.267, 96.500 7.528 C 94.850 6.789, 88.946 5.467, 83.381 4.592 L 73.261 3 53.703 3 L 34.145 3 26.406 4.076 L 18.667 5.153 13.083 7.230 L 7.500 9.307 3.750 13.036 L 0 16.765 -0 26.817 L -0 36.870 0.947 39.360 C 2.222 42.713, 14.320 55.427, 18.856 58.179 C 20.860 59.395, 22.860 60.977, 23.300 61.695 C 23.740 62.413, 24.707 63, 25.451 63 C 26.194 63, 29.496 65.025, 32.788 67.500 C 36.081 69.975, 39.007 72, 39.291 72 C 40.442 72, 48.193 79.167, 60.500 91.613 C 74.648 105.919, 74.971 106.295, 84.409 119.500 C 87.947 124.450, 91.552 129.287, 92.421 130.250 C 93.289 131.213, 94 132.267, 94 132.593 C 94 134.017, 101.819 142.906, 106.547 146.856 L 111.718 151.176 119.609 155.125 C 123.949 157.298, 129.975 159.753, 133 160.581 C 136.025 161.410, 139.223 162.481, 140.108 162.963 C 140.992 163.445, 146.617 164.595, 152.608 165.518 C 158.598 166.442, 165.075 167.580, 167 168.048 C 168.925 168.515, 174.662 169.141, 179.750 169.438 L 189 169.978 189 168.305 C 189 167.384, 188.126 164.802, 187.058 162.566 C 184.641 157.507, 182.036 149.992, 182.008 148 C 181.997 147.175, 181.350 145.277, 180.570 143.783 L 179.153 141.066 177.934 131.385 L 176.716 121.705 177.318 102.602 L 177.921 83.500 179.038 79.500 C 179.652 77.300, 180.842 72.688, 181.682 69.251 L 183.210 63.001 186.182 60.501 L 189.153 58 191.495 58 C 192.783 58, 194.565 58.280, 195.455 58.621 L 197.075 59.243 198.496 62.646 C 199.279 64.518, 199.715 66.600, 199.467 67.275 C 198.334 70.348, 194.733 92.444, 193.958 101.072 L 193.098 110.645 193.942 119.572 C 194.407 124.483, 195.721 132.775, 196.863 138 L 198.939 147.500 200.970 151.702 C 202.086 154.013, 203 156.503, 203 157.235 C 203 158.687, 208.848 168.432, 211.409 171.250 C 212.284 172.213, 213 173.423, 213 173.940 C 213 175.443, 229.368 191.110, 233.626 193.682 C 240.211 197.661, 251.002 202.541, 260 205.608 C 263.025 206.640, 265.725 207.760, 266 208.097 C 266.275 208.434, 268.300 209.275, 270.500 209.966 C 272.700 210.656, 276.300 212.028, 278.500 213.015 C 286.995 216.825, 298.578 222.184, 300.236 223.071 C 301.191 223.582, 302.654 224, 303.486 224 C 304.319 224, 305.004 224.338, 305.008 224.750 C 305.012 225.162, 306.025 225.994, 307.258 226.598 C 312.846 229.336, 323.705 235.407, 326.923 237.594 C 328.871 238.917, 330.829 240, 331.274 240 C 331.720 240, 332.628 240.452, 333.292 241.005 C 333.956 241.558, 337.200 244.015, 340.500 246.466 C 343.800 248.917, 347.400 251.818, 348.500 252.913 L 350.500 254.905 356.460 256.453 L 362.420 258 372.190 258 L 381.960 258 386.230 256.331 C 390.834 254.531, 398 249.408, 398 247.916 C 398 247.412, 398.810 246.190, 399.800 245.200 L 401.601 243.399 403.438 237.450 C 404.448 234.177, 405.616 231.050, 406.032 230.500 C 406.767 229.529, 408.308 218.258, 409.518 205 C 409.844 201.425, 410.498 197.600, 410.970 196.500 C 411.442 195.400, 412.840 187.975, 414.077 180 C 415.315 172.025, 416.638 165.275, 417.019 165 C 417.400 164.725, 418.030 162.700, 418.419 160.500 C 419.693 153.302, 422.376 142.511, 423.019 142 C 423.365 141.725, 424.248 139.250, 424.981 136.500 C 425.714 133.750, 427.102 129.911, 428.065 127.970 C 429.028 126.028, 430.552 121.753, 431.452 118.470 C 432.351 115.186, 433.518 111.719, 434.044 110.764 L 435 109.027 435 93.073 L 435 77.118 434.135 76.583 C 433.659 76.289, 432.725 73.225, 432.060 69.774 L 430.850 63.500 427.820 57 C 424.065 48.949, 418.007 39, 416.858 39 C 416.386 39, 416 38.412, 416 37.694 L 416 36.388 409.250 29.864 C 405.538 26.275, 401.038 22.491, 399.250 21.454 C 397.462 20.417, 396 19.216, 396 18.784 C 396 18.353, 395.541 18, 394.980 18 C 394.419 18, 392.165 16.867, 389.971 15.482 C 387.778 14.097, 383.624 12.052, 380.741 10.937 C 377.859 9.821, 374.150 8.294, 372.500 7.543 C 370.850 6.791, 365.675 5.421, 361 4.497 C 356.325 3.573, 351.600 2.296, 350.500 1.658 L 348.500 0.500 310.500 0.382 C 289.600 0.317, 270.700 0.442, 268.500 0.659" stroke="none" fill="#801c24" fill-rule="evenodd"/><path d="" stroke="none" fill="#7c1c24" fill-rule="evenodd"/></svg>