<svg xmlns="http://www.w3.org/2000/svg" width="394" height="549" viewBox="0 0 394 549" version="1.1"><path d="M 138.250 0.728 C 140.313 0.944, 143.688 0.944, 145.750 0.728 C 147.813 0.513, 146.125 0.336, 142 0.336 C 137.875 0.336, 136.188 0.513, 138.250 0.728 M 190.750 0.732 C 193.088 0.943, 196.912 0.943, 199.250 0.732 C 201.588 0.522, 199.675 0.349, 195 0.349 C 190.325 0.349, 188.412 0.522, 190.750 0.732 M 116 8.500 C 116 9.495, 114.906 10.050, 112.750 10.150 L 109.500 10.300 112.451 10.736 C 114.344 11.015, 115.798 10.629, 116.508 9.658 C 117.117 8.825, 119.389 7.962, 121.558 7.740 C 125.409 7.346, 125.390 7.332, 120.750 7.168 C 117.120 7.040, 116 7.354, 116 8.500 M 217.500 7.743 C 219.700 7.966, 221.860 8.790, 222.300 9.574 C 222.800 10.467, 224.723 11, 227.443 11 C 230.381 11, 231.972 11.485, 232.362 12.500 C 232.678 13.325, 233.739 13.948, 234.719 13.884 C 236.388 13.775, 236.390 13.739, 234.750 13.311 C 233.787 13.059, 233 12.211, 233 11.427 C 233 10.381, 231.664 10, 228 10 C 224.222 10, 223 9.633, 223 8.500 C 223 7.354, 221.880 7.040, 218.250 7.168 C 213.528 7.335, 213.524 7.339, 217.500 7.743 M 245.319 18.489 C 245.439 19.654, 246.346 20.561, 247.511 20.681 C 248.954 20.829, 249.036 20.747, 247.811 20.381 C 246.883 20.104, 245.896 19.117, 245.619 18.189 C 245.253 16.964, 245.171 17.046, 245.319 18.489 M 94.750 19.689 C 93.787 19.941, 93 20.789, 93 21.573 C 93 22.358, 91.987 23.052, 90.750 23.116 C 88.976 23.207, 88.881 23.331, 90.303 23.700 C 91.374 23.977, 93.154 23.119, 94.689 21.584 C 96.110 20.163, 97.099 19.052, 96.886 19.116 C 96.674 19.180, 95.713 19.438, 94.750 19.689 M 252 23.737 C 253.375 23.993, 254.831 24.719, 255.235 25.351 C 255.707 26.089, 255.975 25.874, 255.985 24.750 C 255.996 23.412, 255.236 23.032, 252.750 23.136 C 249.998 23.251, 249.883 23.344, 252 23.737 M 264.857 32.076 C 266.206 33.525, 267.654 34.024, 269.646 33.726 C 272.432 33.310, 272.422 33.296, 269.250 33.150 C 267.094 33.050, 266 32.495, 266 31.500 C 266 30.675, 265.307 30, 264.461 30 C 263.203 30, 263.275 30.379, 264.857 32.076 M 73.015 34.750 C 73.025 35.874, 73.293 36.089, 73.765 35.351 C 74.169 34.719, 75.625 33.993, 77 33.737 C 79.117 33.344, 79.002 33.251, 76.250 33.136 C 73.764 33.032, 73.004 33.412, 73.015 34.750 M 274.211 37.399 C 274.920 38.169, 275.658 38.649, 275.850 38.466 C 276.443 37.902, 274.940 36, 273.902 36 C 273.362 36, 273.501 36.630, 274.211 37.399 M 70.195 39.500 C 70.215 41.150, 70.439 41.704, 70.693 40.731 C 70.947 39.758, 70.930 38.408, 70.656 37.731 C 70.382 37.054, 70.175 37.850, 70.195 39.500 M 278.316 41.500 C 278.471 43.051, 279.301 43.529, 282.008 43.631 C 285.388 43.757, 285.398 43.747, 282.312 43.322 C 280.455 43.066, 278.913 42.176, 278.619 41.191 C 278.254 39.968, 278.170 40.053, 278.316 41.500 M 287.211 47.399 C 287.920 48.169, 288.658 48.649, 288.850 48.466 C 289.443 47.902, 287.940 46, 286.902 46 C 286.362 46, 286.501 46.630, 287.211 47.399 M 63.079 51.250 C 63.036 52.212, 62.325 53, 61.500 53 C 60.675 53, 60 53.675, 60 54.500 C 60 55.325, 59.325 56, 58.500 56 C 57.675 56, 57 56.697, 57 57.548 C 57 58.585, 58.189 57.941, 60.600 55.600 C 62.581 53.676, 63.966 51.517, 63.679 50.801 C 63.343 49.963, 63.130 50.122, 63.079 51.250 M 296.572 56.750 C 297.069 57.163, 297.813 57.950, 298.223 58.500 C 298.649 59.071, 298.976 58.749, 298.985 57.750 C 298.993 56.777, 298.260 56, 297.333 56 C 296.417 56, 296.074 56.337, 296.572 56.750 M 50.015 70.750 C 50.024 71.749, 50.351 72.071, 50.777 71.500 C 51.187 70.950, 51.931 70.162, 52.428 69.750 C 52.926 69.338, 52.583 69, 51.667 69 C 50.740 69, 50.007 69.777, 50.015 70.750 M 310.211 70.399 C 310.920 71.169, 311.658 71.649, 311.850 71.466 C 312.443 70.902, 310.940 69, 309.902 69 C 309.362 69, 309.501 69.630, 310.211 70.399 M 47.286 77.500 C 47.294 80.250, 47.488 81.256, 47.718 79.736 C 47.947 78.216, 47.941 75.966, 47.704 74.736 C 47.467 73.506, 47.279 74.750, 47.286 77.500 M 319.572 79.750 C 320.069 80.162, 320.813 80.950, 321.223 81.500 C 321.649 82.071, 321.976 81.749, 321.985 80.750 C 321.993 79.777, 321.260 79, 320.333 79 C 319.417 79, 319.074 79.338, 319.572 79.750 M 40.201 100.750 C 40.041 107.327, 39.696 109, 38.500 109 C 37.216 109, 37.032 111.484, 37.223 126.250 L 37.447 143.500 37.749 127.092 C 37.994 113.809, 38.341 110.471, 39.572 109.571 C 40.768 108.697, 41.019 106.756, 40.747 100.480 L 40.402 92.500 40.201 100.750 M 334.133 97 C 334.001 99.005, 338.636 103.311, 340.233 102.668 C 341.010 102.355, 340.823 102.127, 339.750 102.079 C 338.788 102.036, 338 101.325, 338 100.500 C 338 99.675, 337.358 99, 336.573 99 C 335.789 99, 334.941 98.213, 334.689 97.250 C 334.366 96.012, 334.203 95.939, 334.133 97 M 344.116 110.028 C 344.052 110.868, 344.900 112.326, 346 113.268 C 347.673 114.700, 348 114.736, 348 113.490 C 348 112.671, 347.358 112, 346.573 112 C 345.789 112, 344.941 111.213, 344.689 110.250 C 344.349 108.946, 344.202 108.889, 344.116 110.028 M 357.116 130.281 C 357.052 131.261, 357.675 132.322, 358.500 132.638 C 359.325 132.955, 360 134.264, 360 135.548 C 360 136.832, 360.356 138.102, 360.791 138.371 C 361.226 138.640, 361.402 137.316, 361.182 135.430 C 360.952 133.462, 360.220 132, 359.464 132 C 358.739 132, 357.941 131.213, 357.689 130.250 C 357.261 128.610, 357.225 128.612, 357.116 130.281 M 40.320 150 C 40.320 153.575, 40.502 155.037, 40.723 153.250 C 40.945 151.463, 40.945 148.537, 40.723 146.750 C 40.502 144.963, 40.320 146.425, 40.320 150 M 365.649 145.765 C 366.281 146.169, 367.007 147.625, 367.263 149 C 367.656 151.117, 367.749 151.002, 367.864 148.250 C 367.968 145.764, 367.588 145.004, 366.250 145.015 C 365.126 145.025, 364.911 145.293, 365.649 145.765 M 370.250 155.242 C 370.425 157.509, 371.032 158.531, 372.270 158.640 C 373.396 158.740, 373.508 158.629, 372.578 158.336 C 371.775 158.083, 370.866 156.554, 370.559 154.938 C 370.026 152.135, 370.011 152.149, 370.250 155.242 M 377.232 171 C 377.232 172.925, 377.438 173.713, 377.689 172.750 C 377.941 171.787, 377.941 170.213, 377.689 169.250 C 377.438 168.287, 377.232 169.075, 377.232 171 M 46.921 172.751 C 47.399 176.202, 47.468 176.272, 47.798 173.628 C 47.995 172.049, 47.762 170.362, 47.279 169.879 C 46.776 169.376, 46.623 170.601, 46.921 172.751 M 380.160 177.700 C 380.066 179.572, 380.592 181.233, 381.426 181.700 C 382.210 182.140, 383.034 184.300, 383.257 186.500 C 383.661 190.476, 383.665 190.472, 383.832 185.750 C 383.957 182.210, 383.634 181, 382.563 181 C 381.692 181, 380.968 179.721, 380.723 177.750 L 380.320 174.500 380.160 177.700 M 50.136 179.750 C 50.032 182.236, 50.412 182.996, 51.750 182.985 C 52.874 182.975, 53.089 182.707, 52.351 182.235 C 51.719 181.831, 50.993 180.375, 50.737 179 C 50.344 176.883, 50.251 176.998, 50.136 179.750 M 58.250 192.689 C 59.212 192.941, 60 193.736, 60 194.457 C 60 195.177, 60.909 196.004, 62.020 196.295 C 63.930 196.794, 63.916 196.693, 61.770 194.429 C 60.521 193.112, 58.825 192.079, 58 192.133 C 56.939 192.203, 57.012 192.366, 58.250 192.689 M 68.250 202.689 C 69.213 202.941, 70 203.789, 70 204.573 C 70 205.358, 70.675 206, 71.500 206 C 72.325 206, 73.036 206.787, 73.079 207.750 C 73.127 208.823, 73.355 209.010, 73.668 208.233 C 74.311 206.636, 70.005 202.001, 68 202.133 C 66.939 202.203, 67.012 202.366, 68.250 202.689 M 390.328 213.500 C 390.333 217.350, 390.513 218.802, 390.730 216.728 C 390.946 214.653, 390.943 211.503, 390.722 209.728 C 390.501 207.952, 390.324 209.650, 390.328 213.500 M 81.250 215.689 C 82.213 215.941, 83.787 215.941, 84.750 215.689 C 85.713 215.438, 84.925 215.232, 83 215.232 C 81.075 215.232, 80.287 215.438, 81.250 215.689 M 88.269 218.693 C 89.242 218.947, 90.592 218.930, 91.269 218.656 C 91.946 218.382, 91.150 218.175, 89.500 218.195 C 87.850 218.215, 87.296 218.439, 88.269 218.693 M 393.392 234 C 393.392 241.425, 393.549 244.463, 393.742 240.750 C 393.934 237.037, 393.934 230.963, 393.742 227.250 C 393.549 223.537, 393.392 226.575, 393.392 234 M 104.250 225.689 C 105.213 225.941, 106.787 225.941, 107.750 225.689 C 108.713 225.438, 107.925 225.232, 106 225.232 C 104.075 225.232, 103.287 225.438, 104.250 225.689 M 115.250 228.739 C 118.412 228.937, 123.587 228.937, 126.750 228.739 C 129.912 228.541, 127.325 228.378, 121 228.378 C 114.675 228.378, 112.087 228.541, 115.250 228.739 M 134.762 231.707 C 136.006 231.946, 137.806 231.937, 138.762 231.687 C 139.718 231.437, 138.700 231.241, 136.500 231.252 C 134.300 231.263, 133.518 231.468, 134.762 231.707 M 73 235.500 C 73 236.788, 69.425 237.033, 47.750 237.232 L 22.500 237.463 47.409 237.750 C 71.298 238.024, 72.395 237.953, 74.198 236.018 C 75.753 234.349, 75.812 234, 74.539 234 C 73.693 234, 73 234.675, 73 235.500 M 142.286 238.500 C 142.294 241.250, 142.488 242.256, 142.718 240.736 C 142.947 239.216, 142.941 236.966, 142.704 235.736 C 142.467 234.506, 142.279 235.750, 142.286 238.500 M 7.015 238.750 C 7.024 239.749, 7.351 240.071, 7.777 239.500 C 8.187 238.950, 8.931 238.162, 9.428 237.750 C 9.926 237.338, 9.583 237, 8.667 237 C 7.740 237, 7.007 237.777, 7.015 238.750 M 4.150 243.750 C 4.050 245.906, 3.495 247, 2.500 247 C 1.238 247, 1 249.222, 1 261 L 1 275 10 275 L 19 275 18.850 271.750 C 18.711 268.725, 18.671 268.690, 18.284 271.250 C 17.870 273.984, 17.821 274, 9.934 274 L 2 274 2 261.360 C 2 250.975, 2.283 248.514, 3.586 247.561 C 4.628 246.799, 5.022 245.389, 4.736 243.451 L 4.300 240.500 4.150 243.750 M 139.378 255 C 139.378 261.325, 139.541 263.913, 139.739 260.750 C 139.937 257.587, 139.937 252.412, 139.739 249.250 C 139.541 246.088, 139.378 248.675, 139.378 255 M 133.427 249.329 C 133.147 250.060, 133.068 254.673, 133.253 259.579 L 133.589 268.500 133.794 258.823 C 133.970 250.552, 134.254 249.080, 135.750 248.689 C 137.390 248.261, 137.388 248.225, 135.719 248.116 C 134.739 248.052, 133.708 248.598, 133.427 249.329 M 37 257.740 C 38.925 257.971, 40.860 258.799, 41.300 259.580 C 41.799 260.466, 43.733 261, 46.443 261 C 49.381 261, 50.972 261.485, 51.362 262.500 C 51.786 263.607, 53.322 263.951, 57.219 263.815 L 62.500 263.630 57.250 263.263 C 53.503 263.001, 52 262.481, 52 261.448 C 52 260.377, 50.698 260, 47 260 C 43.222 260, 42 259.633, 42 258.500 C 42 257.377, 40.932 257.040, 37.750 257.160 C 33.691 257.313, 33.657 257.339, 37 257.740 M 53.250 258.742 C 58.329 259.005, 60 259.451, 60 260.546 C 60 261.669, 61.480 262, 66.500 262 C 71.611 262, 73 262.321, 73 263.500 C 73 264.801, 76.480 264.969, 99.250 264.768 L 125.500 264.536 100.030 264.250 C 78.772 264.012, 74.423 263.720, 73.730 262.482 C 73.145 261.436, 71.181 261, 67.057 261 C 62.786 261, 61.059 260.597, 60.638 259.500 C 60.194 258.342, 58.516 258.045, 53.281 258.196 L 46.500 258.392 53.250 258.742 M 27.211 260.538 C 26.145 261.746, 26.189 262, 27.461 262 C 28.307 262, 29 261.325, 29 260.500 C 29 258.676, 28.850 258.680, 27.211 260.538 M 30 261.500 C 30 262.325, 29.325 263, 28.500 263 C 27.675 263, 27 263.707, 27 264.571 C 27 265.984, 27.155 265.988, 28.536 264.607 C 29.380 263.762, 30.762 262.380, 31.607 261.536 C 32.988 260.155, 32.984 260, 31.571 260 C 30.707 260, 30 260.675, 30 261.500 M 23.921 270.249 C 23.623 272.399, 23.776 273.624, 24.279 273.121 C 24.762 272.638, 24.995 270.951, 24.798 269.372 C 24.468 266.728, 24.399 266.798, 23.921 270.249 M 105.268 270.749 C 134.587 271.103, 132.805 270.150, 133.216 285.704 C 133.465 295.163, 133.716 296.496, 135.270 296.636 C 136.509 296.748, 136.584 296.655, 135.520 296.325 C 134.276 295.939, 134 293.776, 134 284.427 C 134 274.936, 133.746 273, 132.500 273 C 131.675 273, 131 272.325, 131 271.500 C 131 270.201, 127.686 270.031, 106.250 270.231 L 81.500 270.462 105.268 270.749 M 139.389 291.500 C 139.390 298.650, 139.550 301.444, 139.742 297.708 C 139.935 293.973, 139.934 288.123, 139.739 284.708 C 139.545 281.294, 139.387 284.350, 139.389 291.500 M 40.750 304.732 C 43.087 304.943, 46.912 304.943, 49.250 304.732 C 51.587 304.522, 49.675 304.349, 45 304.349 C 40.325 304.349, 38.412 304.522, 40.750 304.732 M 142.286 309.500 C 142.294 312.250, 142.488 313.256, 142.718 311.736 C 142.947 310.216, 142.941 307.966, 142.704 306.736 C 142.467 305.506, 142.279 306.750, 142.286 309.500 M 393.407 321 C 393.407 330.075, 393.559 333.788, 393.744 329.250 C 393.929 324.712, 393.929 317.288, 393.744 312.750 C 393.559 308.212, 393.407 311.925, 393.407 321 M 59.250 307.739 C 62.412 307.937, 67.587 307.937, 70.750 307.739 C 73.912 307.541, 71.325 307.378, 65 307.378 C 58.675 307.378, 56.087 307.541, 59.250 307.739 M 140.286 314.500 C 140.294 317.250, 140.488 318.256, 140.718 316.736 C 140.947 315.216, 140.941 312.966, 140.704 311.736 C 140.467 310.506, 140.279 311.750, 140.286 314.500 M 84.750 316.723 C 86.537 316.945, 89.463 316.945, 91.250 316.723 C 93.037 316.502, 91.575 316.320, 88 316.320 C 84.425 316.320, 82.963 316.502, 84.750 316.723 M 107.250 317.689 C 108.213 317.941, 109.787 317.941, 110.750 317.689 C 111.713 317.438, 110.925 317.232, 109 317.232 C 107.075 317.232, 106.287 317.438, 107.250 317.689 M 96.762 319.707 C 98.006 319.946, 99.806 319.937, 100.762 319.687 C 101.718 319.437, 100.700 319.241, 98.500 319.252 C 96.300 319.263, 95.518 319.468, 96.762 319.707 M 60.168 324.177 C 60.041 327.700, 59.569 328.966, 58.250 329.311 C 56.610 329.739, 56.612 329.775, 58.281 329.884 C 60.550 330.032, 61.236 328.205, 60.735 323.355 C 60.350 319.635, 60.330 319.664, 60.168 324.177 M 115.264 320.718 C 116.784 320.947, 119.034 320.941, 120.264 320.704 C 121.494 320.467, 120.250 320.279, 117.500 320.286 C 114.750 320.294, 113.744 320.488, 115.264 320.718 M 143 323.417 C 143 325.296, 142.438 327.060, 141.750 327.338 C 141.003 327.639, 141.205 327.874, 142.250 327.921 C 143.638 327.984, 144 327.173, 144 324 C 144 321.800, 143.775 320, 143.500 320 C 143.225 320, 143 321.538, 143 323.417 M 129 326.333 C 129 327.260, 129.777 327.993, 130.750 327.985 C 131.749 327.976, 132.071 327.649, 131.500 327.223 C 130.950 326.813, 130.162 326.069, 129.750 325.572 C 129.338 325.074, 129 325.417, 129 326.333 M 149.079 326.687 C 149.017 328.389, 148.298 328.943, 145.827 329.187 C 144.082 329.359, 142.541 330.074, 142.402 330.775 C 142.263 331.476, 142.379 331.589, 142.658 331.025 C 142.938 330.461, 144.493 330, 146.115 330 C 149.097 330, 150.635 328.177, 149.673 325.783 C 149.390 325.077, 149.122 325.484, 149.079 326.687 M 118.500 326.743 C 120.700 326.966, 122.860 327.790, 123.300 328.574 C 123.740 329.359, 125.400 330, 126.989 330 C 129.592 330, 129.918 330.372, 130.272 333.750 L 130.664 337.500 130.832 333.250 C 130.999 329.028, 130.977 329, 127.500 329 C 125.056 329, 124 328.548, 124 327.500 C 124 326.354, 122.880 326.040, 119.250 326.168 C 114.528 326.335, 114.524 326.339, 118.500 326.743 M 134.762 330.707 C 136.006 330.946, 137.806 330.937, 138.762 330.687 C 139.718 330.437, 138.700 330.241, 136.500 330.252 C 134.300 330.263, 133.518 330.468, 134.762 330.707 M 132.079 337.250 C 132.036 338.212, 131.325 339, 130.500 339 C 129.675 339, 129 339.675, 129 340.500 C 129 341.325, 128.213 342.036, 127.250 342.079 C 126.140 342.129, 125.972 342.347, 126.790 342.676 C 128.468 343.349, 133.349 338.468, 132.676 336.790 C 132.347 335.972, 132.129 336.140, 132.079 337.250 M 390.378 349 C 390.378 355.325, 390.541 357.913, 390.739 354.750 C 390.937 351.587, 390.937 346.413, 390.739 343.250 C 390.541 340.087, 390.378 342.675, 390.378 349 M 119.161 342.501 C 117.875 343.857, 117.052 345.537, 117.332 346.233 C 117.645 347.010, 117.873 346.823, 117.921 345.750 C 117.964 344.788, 118.675 344, 119.500 344 C 120.325 344, 121 343.356, 121 342.570 C 121 341.783, 122.013 340.944, 123.250 340.706 C 125.189 340.332, 125.224 340.256, 123.500 340.153 C 122.400 340.088, 120.447 341.144, 119.161 342.501 M 119.079 347.250 C 119.036 348.212, 118.325 349, 117.500 349 C 116.675 349, 116 349.693, 116 350.539 C 116 351.790, 116.395 351.710, 118.108 350.114 C 119.268 349.033, 119.978 347.553, 119.687 346.825 C 119.335 345.944, 119.131 346.086, 119.079 347.250 M 110 355 C 109.274 356.356, 109.263 357, 109.965 357 C 110.534 357, 111 356.363, 111 355.583 C 111 354.804, 111.563 353.940, 112.250 353.662 C 113.192 353.282, 113.201 353.138, 112.285 353.079 C 111.617 353.036, 110.589 353.900, 110 355 M 51.750 358.689 C 50.141 359.110, 50 361.198, 50 384.573 C 50 408.153, 50.127 409.994, 51.750 409.921 C 52.795 409.874, 52.997 409.639, 52.250 409.338 C 51.299 408.954, 51 403.086, 51 384.777 C 51 363.039, 51.169 360.592, 52.750 359.392 C 54.592 357.994, 54.544 357.959, 51.750 358.689 M 109.079 363.250 C 109.036 364.212, 108.325 365, 107.500 365 C 106.458 365, 106 366.047, 106 368.427 C 106 370.619, 105.452 372.023, 104.480 372.325 C 103.414 372.656, 103.488 372.750, 104.730 372.640 C 105.899 372.536, 106.614 371.483, 106.836 369.539 C 107.021 367.920, 107.870 366.084, 108.724 365.460 C 109.577 364.836, 110.024 363.690, 109.717 362.913 C 109.305 361.872, 109.137 361.961, 109.079 363.250 M 97.286 375.500 C 97.294 378.250, 97.488 379.256, 97.718 377.736 C 97.947 376.216, 97.941 373.966, 97.704 372.736 C 97.467 371.506, 97.279 372.750, 97.286 375.500 M 94.232 384 C 94.232 385.925, 94.438 386.712, 94.689 385.750 C 94.941 384.788, 94.941 383.212, 94.689 382.250 C 94.438 381.288, 94.232 382.075, 94.232 384 M 383.320 387 C 383.320 390.575, 383.502 392.038, 383.723 390.250 C 383.945 388.462, 383.945 385.538, 383.723 383.750 C 383.502 381.962, 383.320 383.425, 383.320 387 M 380.320 400 C 380.320 403.575, 380.502 405.038, 380.723 403.250 C 380.945 401.462, 380.945 398.538, 380.723 396.750 C 380.502 394.962, 380.320 396.425, 380.320 400 M 96.407 411 C 96.407 420.075, 96.559 423.788, 96.744 419.250 C 96.929 414.712, 96.929 407.288, 96.744 402.750 C 96.559 398.212, 96.407 401.925, 96.407 411 M 377.286 411.500 C 377.294 414.250, 377.488 415.256, 377.718 413.736 C 377.947 412.216, 377.941 409.966, 377.704 408.736 C 377.467 407.506, 377.279 408.750, 377.286 411.500 M 370.286 431.500 C 370.294 434.250, 370.488 435.256, 370.718 433.736 C 370.947 432.216, 370.941 429.966, 370.704 428.736 C 370.467 427.506, 370.279 428.750, 370.286 431.500 M 367 439.417 C 367 440.746, 366.438 442.060, 365.750 442.338 C 365.003 442.639, 365.205 442.874, 366.250 442.921 C 367.545 442.979, 368 442.221, 368 440 C 368 438.350, 367.775 437, 367.500 437 C 367.225 437, 367 438.087, 367 439.417 M 360.232 456 C 360.232 457.925, 360.438 458.712, 360.689 457.750 C 360.941 456.788, 360.941 455.212, 360.689 454.250 C 360.438 453.288, 360.232 454.075, 360.232 456 M 106.136 462.750 C 106.041 465.033, 106.446 466, 107.500 466 C 108.495 466, 109.050 467.094, 109.150 469.250 L 109.300 472.500 109.736 469.549 C 110.013 467.673, 109.630 466.202, 108.683 465.510 C 107.864 464.911, 106.987 463.314, 106.733 461.961 C 106.351 459.920, 106.249 460.055, 106.136 462.750 M 58.224 465.626 C 59.732 466.073, 59.987 467.938, 60.265 480.569 L 60.583 495.002 60.542 480.264 C 60.502 466.276, 60.398 465.515, 58.500 465.320 C 56.995 465.166, 56.927 465.241, 58.224 465.626 M 346.180 477.481 C 344.559 479.190, 343.987 480.767, 344.280 482.714 C 344.678 485.352, 344.708 485.327, 344.850 482.250 C 344.944 480.222, 345.520 479, 346.383 479 C 347.144 479, 348.002 478.100, 348.290 477 C 348.936 474.528, 348.993 474.515, 346.180 477.481 M 119.136 488.750 C 119.032 491.236, 119.412 491.996, 120.750 491.985 C 121.874 491.975, 122.089 491.707, 121.351 491.235 C 120.719 490.831, 119.993 489.375, 119.737 488 C 119.344 485.883, 119.251 485.998, 119.136 488.750 M 337.390 489.427 C 337.088 490.212, 337.041 491.900, 337.285 493.177 C 337.630 494.987, 337.758 494.798, 337.864 492.323 C 337.954 490.215, 338.588 488.993, 339.750 488.689 C 341.390 488.261, 341.388 488.225, 339.719 488.116 C 338.739 488.052, 337.691 488.642, 337.390 489.427 M 63.382 507.500 C 63.384 514.100, 63.546 516.670, 63.741 513.211 C 63.937 509.752, 63.936 504.352, 63.738 501.211 C 63.540 498.070, 63.380 500.900, 63.382 507.500 M 333.211 497.601 C 332.501 498.370, 332.362 499, 332.902 499 C 333.940 499, 335.443 497.098, 334.850 496.534 C 334.658 496.351, 333.920 496.831, 333.211 497.601 M 125.695 499.942 C 125.991 501.074, 126.856 502, 127.617 502 C 128.377 502, 129.036 502.788, 129.079 503.750 C 129.129 504.860, 129.347 505.028, 129.676 504.210 C 129.960 503.501, 129.060 501.787, 127.675 500.402 C 125.388 498.115, 125.206 498.073, 125.695 499.942 M 132 506.902 C 132 507.940, 133.902 509.443, 134.466 508.850 C 134.649 508.658, 134.169 507.920, 133.399 507.211 C 132.630 506.501, 132 506.362, 132 506.902 M 94.365 516.500 C 94.368 522, 94.536 524.122, 94.738 521.216 C 94.941 518.311, 94.939 513.811, 94.734 511.216 C 94.528 508.622, 94.363 511, 94.365 516.500 M 137.189 514.619 C 138.117 514.896, 139.104 515.883, 139.381 516.811 C 139.747 518.036, 139.829 517.954, 139.681 516.511 C 139.561 515.346, 138.654 514.439, 137.489 514.319 C 136.046 514.171, 135.964 514.253, 137.189 514.619 M 311.345 515.543 C 311.019 516.392, 311.034 517.367, 311.376 517.710 C 311.719 518.053, 312 517.612, 312 516.730 C 312 515.671, 313.102 514.990, 315.250 514.723 L 318.500 514.320 315.219 514.160 C 313.073 514.055, 311.732 514.534, 311.345 515.543 M 146.750 521.706 C 147.988 521.944, 149 522.783, 149 523.570 C 149 524.356, 149.675 525, 150.500 525 C 151.325 525, 152.036 525.788, 152.079 526.750 C 152.127 527.823, 152.355 528.010, 152.668 527.233 C 153.389 525.441, 148.895 521.011, 146.500 521.153 C 144.776 521.256, 144.811 521.332, 146.750 521.706 M 298.345 525.543 C 298.019 526.392, 298.034 527.367, 298.376 527.710 C 298.719 528.053, 299 527.612, 299 526.730 C 299 525.671, 300.102 524.990, 302.250 524.723 L 305.500 524.320 302.219 524.160 C 300.073 524.055, 298.732 524.534, 298.345 525.543 M 97 536.974 L 97 546.948 81.750 547.252 L 66.500 547.556 82.250 547.778 L 98 548 98 537.500 C 98 531.725, 97.775 527, 97.500 527 C 97.225 527, 97 531.488, 97 536.974 M 159.750 531.706 C 160.988 531.944, 162 532.783, 162 533.570 C 162 534.356, 162.675 535, 163.500 535 C 164.325 535, 165 535.675, 165 536.500 C 165 537.554, 165.967 537.959, 168.250 537.864 C 170.883 537.753, 171.041 537.641, 169.079 537.272 C 167.748 537.021, 165.510 535.507, 164.106 533.908 C 162.703 532.309, 160.642 531.061, 159.527 531.136 C 157.728 531.257, 157.753 531.321, 159.750 531.706 M 288.362 532.500 C 288.037 533.347, 286.548 534, 284.943 534 C 283.379 534, 281.740 534.632, 281.300 535.404 C 280.860 536.176, 279.375 537.015, 278 537.268 C 275.889 537.656, 276.006 537.749, 278.750 537.864 C 281.033 537.959, 282 537.554, 282 536.500 C 282 535.452, 283.056 535, 285.500 535 C 287.864 535, 289 534.537, 289 533.573 C 289 532.789, 289.788 531.941, 290.750 531.689 C 292.390 531.261, 292.388 531.225, 290.719 531.116 C 289.739 531.052, 288.678 531.675, 288.362 532.500 M 265 542.833 C 265 543.547, 263.274 544, 260.550 544 C 257.689 544, 255.808 544.521, 255.283 545.459 C 254.679 546.538, 251.992 547.006, 244.983 547.252 L 235.500 547.585 245.750 547.792 C 254.287 547.965, 256 547.749, 256 546.500 C 256 545.392, 257.160 545, 260.441 545 C 264.550 545, 267.023 543.690, 265.600 542.267 C 265.270 541.937, 265 542.192, 265 542.833 M 181.264 544.718 C 182.784 544.947, 185.034 544.941, 186.264 544.704 C 187.494 544.467, 186.250 544.279, 183.500 544.286 C 180.750 544.294, 179.744 544.488, 181.264 544.718 M 191.750 547.723 C 193.537 547.945, 196.463 547.945, 198.250 547.723 C 200.037 547.502, 198.575 547.320, 195 547.320 C 191.425 547.320, 189.963 547.502, 191.750 547.723 M 222.750 548.706 C 223.988 548.944, 226.012 548.944, 227.250 548.706 C 228.488 548.467, 227.475 548.272, 225 548.272 C 222.525 548.272, 221.512 548.467, 222.750 548.706" stroke="none" fill="#2c6c1c" fill-rule="evenodd"/><path d="M 132 1.661 C 132 2.488, 130.830 3, 128.941 3 C 127.141 3, 126.138 3.415, 126.505 4.008 C 127.579 5.747, 124.291 8, 120.678 8 C 118.418 8, 117 8.559, 116.597 9.608 C 116.146 10.782, 115.037 11.106, 112.490 10.809 C 109.597 10.471, 109 10.723, 109 12.280 C 109 13.835, 108.498 14.049, 106.084 13.518 C 104.046 13.071, 102.917 13.319, 102.334 14.343 C 101.875 15.148, 100.375 15.963, 99 16.154 C 97.574 16.351, 96.492 17.163, 96.482 18.042 C 96.473 18.891, 95.498 20.622, 94.317 21.890 C 92.600 23.734, 91.550 24.060, 89.084 23.519 C 86.654 22.985, 86 23.176, 86 24.421 C 86 25.289, 85.298 26, 84.441 26 C 83.584 26, 83.162 26.453, 83.505 27.008 C 84.316 28.320, 81.320 31.316, 80.008 30.505 C 79.453 30.162, 79 30.809, 79 31.941 C 79 33.471, 78.357 34, 76.500 34 C 75.125 34, 74 34.450, 74 35 C 74 35.550, 73.162 36, 72.139 36 C 70.700 36, 70.384 36.559, 70.748 38.462 C 71.257 41.127, 68.712 44.558, 67.008 43.505 C 66.449 43.160, 66 43.848, 66 45.048 C 66 46.638, 65.567 47.048, 64.371 46.589 C 63.004 46.064, 62.845 46.477, 63.383 49.163 C 63.947 51.985, 63.549 52.805, 60.011 56.103 C 57.805 58.160, 56 60.281, 56 60.815 C 56 61.349, 55.325 62.045, 54.500 62.362 C 53.613 62.702, 53 64.204, 53 66.040 C 53 69.275, 51.089 72, 48.821 71.999 C 47.859 71.999, 47.593 73.335, 47.841 76.918 C 48.154 81.432, 47.989 81.864, 45.841 82.169 C 43.920 82.441, 43.443 83.188, 43.185 86.332 C 42.968 88.967, 42.466 90.009, 41.579 89.669 C 40.559 89.277, 40.393 91.182, 40.788 98.744 C 41.207 106.746, 41.027 108.507, 39.693 109.483 C 38.364 110.454, 38.046 113.444, 37.798 127.326 C 37.519 142.946, 37.616 144.003, 39.335 144.001 C 40.962 144, 41.133 144.739, 40.835 150.502 C 40.599 155.086, 40.855 157.004, 41.702 157.002 C 42.479 157.001, 43.010 159.213, 43.202 163.250 C 43.463 168.730, 43.746 169.501, 45.500 169.511 C 47.142 169.519, 47.500 170.191, 47.500 173.261 C 47.500 176.157, 47.895 177.001, 49.250 177.001 C 50.450 177, 51 177.785, 51 179.500 C 51 180.875, 51.450 182, 52 182 C 52.550 182, 53 182.914, 53 184.031 C 53 185.149, 53.675 186.322, 54.500 186.638 C 55.325 186.955, 56 188.291, 56 189.607 C 56 191.234, 56.569 192, 57.778 192 C 59.875 192, 63.577 195.949, 63.182 197.763 C 63.030 198.458, 63.602 199.294, 64.453 199.620 C 65.304 199.947, 66 200.827, 66 201.576 C 66 202.384, 66.619 202.700, 67.521 202.353 C 69.535 201.581, 74.419 206.465, 73.647 208.479 C 73.325 209.315, 73.520 210, 74.079 210 C 74.638 210, 76.138 211.125, 77.412 212.500 C 78.935 214.142, 80.805 215, 82.865 215 C 85.255 215, 86 215.442, 86 216.861 C 86 218.300, 86.559 218.616, 88.462 218.252 C 91.127 217.743, 94.558 220.288, 93.505 221.992 C 93.140 222.582, 94.106 223, 95.834 223 C 97.523 223, 99.030 223.636, 99.356 224.486 C 99.797 225.634, 100.959 225.830, 104.463 225.350 C 108.462 224.802, 109 224.952, 108.998 226.614 C 108.996 228.371, 109.784 228.479, 120.498 228.189 C 131.047 227.905, 132 228.029, 131.999 229.689 C 131.997 232.474, 140.239 232.303, 141.150 229.500 C 141.762 227.620, 141.807 227.633, 141.900 229.719 C 141.966 231.187, 142.473 231.756, 143.399 231.400 C 144.168 231.105, 145.095 231.344, 145.458 231.932 C 145.821 232.519, 145.416 233, 144.559 233 C 143.355 233, 143 234.138, 143 238 C 143 242.096, 142.684 243, 141.250 242.998 C 139.667 242.996, 139.530 244.088, 139.809 254.421 C 140.115 265.699, 140.089 265.850, 137.809 266.173 C 135.740 266.466, 135.469 267.107, 135.197 272.342 C 134.994 276.269, 135.242 277.968, 135.955 277.528 C 136.538 277.167, 137.713 277.570, 138.565 278.422 C 139.835 279.693, 140.059 282.227, 139.807 292.488 C 139.522 304.102, 139.633 305.004, 141.347 305.002 C 142.942 305, 143.146 305.680, 142.847 310.001 C 142.611 313.406, 142.881 315.001, 143.695 315.001 C 144.412 315, 145.012 316.902, 145.195 319.750 C 145.458 323.843, 145.820 324.545, 147.809 324.827 C 149.535 325.072, 150.041 325.704, 149.809 327.327 C 149.557 329.101, 148.834 329.500, 145.876 329.500 C 143.387 329.500, 142.403 329.892, 142.733 330.750 C 143.064 331.609, 142.076 332, 139.576 332 C 137.264 332, 135.727 332.547, 135.362 333.500 C 135.045 334.325, 134.173 335, 133.424 335 C 132.616 335, 132.300 335.619, 132.647 336.521 C 132.986 337.407, 132.177 339.096, 130.709 340.564 C 128.786 342.487, 127.574 342.931, 125.603 342.437 C 123.732 341.967, 122.849 342.231, 122.402 343.394 C 122.063 344.277, 121.173 345, 120.424 345 C 119.603 345, 119.300 345.617, 119.660 346.556 C 120.005 347.456, 119.378 348.931, 118.170 350.056 C 115.541 352.505, 115 352.496, 115 350 C 115 348.900, 115.661 348, 116.469 348 C 117.372 348, 117.713 347.415, 117.353 346.479 C 117.012 345.590, 117.837 343.890, 119.338 342.389 C 121.415 340.313, 122.490 339.949, 124.953 340.490 C 127.345 341.015, 128 340.820, 128 339.579 C 128 338.711, 128.574 338, 129.276 338 C 130.162 338, 130.436 336.777, 130.171 334 C 129.822 330.331, 129.547 330, 126.864 330 C 125.185 330, 123.692 329.360, 123.362 328.500 C 122.989 327.529, 121.439 327, 118.963 327 C 115.759 327, 115.087 326.635, 114.820 324.750 C 114.547 322.830, 113.803 322.455, 109.750 322.195 C 106.494 321.986, 105 321.451, 105 320.492 C 105 319.402, 103.898 319.225, 100 319.686 C 95.555 320.213, 95 320.069, 95.002 318.389 C 95.004 316.700, 94.330 316.535, 88.634 316.829 C 82.472 317.148, 82.247 317.074, 81.770 314.579 C 81.282 312.022, 81.332 312, 87.746 312 C 93.220 312, 94.121 312.242, 93.610 313.574 C 93.101 314.901, 93.830 315.108, 98.253 314.892 C 102.605 314.681, 103.477 314.918, 103.367 316.283 C 103.255 317.664, 103.941 317.833, 107.617 317.329 C 111.457 316.803, 112 316.962, 111.999 318.614 C 111.999 320.253, 112.644 320.455, 116.918 320.159 C 121.432 319.846, 121.864 320.011, 122.169 322.159 C 122.430 324.008, 123.213 324.568, 125.896 324.824 C 129.475 325.166, 132 326.967, 132 329.179 C 132 330.078, 133.437 330.500, 136.500 330.500 C 140.119 330.500, 141 330.157, 141 328.750 C 141 327.788, 141.403 327, 141.895 327 C 142.387 327, 142.962 325.200, 143.171 323 C 143.494 319.621, 143.262 319, 141.680 319 C 140.053 319, 139.852 318.344, 140.153 313.999 C 140.397 310.481, 140.130 308.999, 139.250 308.999 C 138.382 309, 138 307.068, 138 302.671 C 138 296.750, 137.855 296.346, 135.750 296.421 C 133.568 296.498, 133.491 296.176, 133.216 285.716 C 132.804 270.076, 134.545 271, 105.500 271 C 83.051 271, 82 270.915, 82 269.094 C 82 267.680, 81.483 267.322, 80 267.710 C 78.882 268.003, 78 267.741, 78 267.117 C 78 266.399, 75.459 266, 70.893 266 C 65.265 266, 63.896 265.713, 64.315 264.621 C 64.743 263.507, 63.616 263.341, 58.443 263.757 C 53.131 264.183, 51.934 263.992, 51.414 262.635 C 50.966 261.469, 49.541 261, 46.443 261 C 43.813 261, 41.784 260.458, 41.300 259.625 C 40.175 257.692, 33 256.959, 33 258.778 C 33 260.538, 27.574 266, 25.827 265.999 C 24.961 265.999, 24.500 267.297, 24.500 269.739 C 24.500 272.809, 24.142 273.481, 22.500 273.489 C 20.596 273.499, 20.500 274.170, 20.500 287.500 L 20.500 301.500 24.332 301.815 C 27.220 302.053, 28.025 302.493, 27.600 303.601 C 27.113 304.870, 28.817 304.978, 40.018 304.386 C 52.345 303.735, 53 303.797, 52.998 305.600 C 52.996 307.373, 53.754 307.479, 64.370 307.192 L 75.745 306.883 76.225 309.399 C 76.696 311.860, 76.561 311.922, 70.103 312.208 L 63.500 312.500 63.754 315.750 C 63.951 318.278, 63.618 319, 62.254 318.998 C 60.804 318.997, 60.500 319.908, 60.500 324.248 C 60.500 328.933, 60.257 329.534, 58.250 329.820 C 56.311 330.095, 56 330.739, 56 334.486 C 56 337.076, 55.495 339.001, 54.750 339.249 C 53.880 339.538, 53.441 342.678, 53.306 349.564 C 53.190 355.451, 52.683 359.606, 52.056 359.815 C 50.638 360.287, 50.583 409, 52 409 C 52.622 409, 53 414.677, 53 424.031 C 53 436.470, 53.259 439.162, 54.500 439.638 C 55.721 440.107, 56 442.506, 56 452.537 C 56 464.556, 56.056 464.869, 58.250 465.180 C 60.471 465.496, 60.500 465.697, 60.500 480.751 C 60.500 495.088, 60.614 496.002, 62.407 496.001 C 64.236 496, 64.287 496.720, 63.653 513.530 C 63.084 528.624, 63.201 531.140, 64.496 531.637 C 65.653 532.081, 66 533.975, 65.999 539.857 L 65.997 547.500 81.435 547.202 L 96.873 546.903 97.187 536.450 C 97.478 526.725, 97.367 525.996, 95.595 525.998 C 93.778 526, 93.720 525.324, 94.347 511.531 C 94.921 498.895, 94.814 497.134, 93.502 497.638 C 92.178 498.146, 92 492.059, 92 446.214 C 92 399.504, 92.163 394.152, 93.597 393.601 C 94.928 393.090, 95.079 391.986, 94.499 386.994 C 93.871 381.580, 93.982 381, 95.652 381.001 C 97.245 381.001, 97.453 380.323, 97.159 376.082 C 96.846 371.568, 97.011 371.136, 99.159 370.831 C 100.722 370.610, 101.610 369.727, 101.830 368.174 C 102.046 366.644, 102.645 366.034, 103.580 366.392 C 104.610 366.788, 105 366.123, 105 363.969 C 105 362.025, 105.507 361, 106.469 361 C 107.363 361, 107.712 360.414, 107.362 359.500 C 107.045 358.675, 107.212 358, 107.732 358 C 108.253 358, 109.192 356.875, 109.818 355.500 C 110.445 354.125, 111.375 353, 111.885 353 C 113.237 353, 111.927 357.354, 110.279 358.334 C 109.336 358.895, 109.081 360.094, 109.500 362 C 109.930 363.959, 109.667 365.089, 108.648 365.666 C 107.837 366.125, 107.022 367.850, 106.837 369.500 C 106.570 371.875, 106.031 372.483, 104.250 372.421 C 102.448 372.357, 102 372.884, 102 375.064 C 102 376.614, 101.325 378.045, 100.431 378.388 C 99.187 378.865, 98.908 380.390, 99.084 385.745 C 99.258 391.019, 99 392.479, 97.904 392.404 C 96.742 392.325, 96.500 395.793, 96.500 412.527 C 96.500 428.292, 96.775 432.640, 97.750 432.266 C 98.677 431.910, 99 433.612, 99 438.862 C 99 444.642, 99.266 445.835, 100.454 445.379 C 101.630 444.928, 101.965 446.226, 102.204 452.161 C 102.476 458.905, 102.682 459.526, 104.750 459.820 C 106.346 460.046, 107 460.814, 107 462.463 C 107 463.740, 107.735 465.068, 108.633 465.413 C 109.947 465.917, 110.146 466.922, 109.647 470.557 C 109.170 474.041, 109.368 475.204, 110.514 475.644 C 111.364 475.970, 112 477.477, 112 479.166 C 112 480.894, 112.418 481.860, 113.008 481.495 C 114.320 480.684, 117.316 483.680, 116.505 484.992 C 116.162 485.547, 116.809 486, 117.941 486 C 119.471 486, 120 486.643, 120 488.500 C 120 489.875, 120.423 491, 120.940 491 C 121.456 491, 122.019 492.688, 122.190 494.750 C 122.402 497.318, 122.986 498.506, 124.042 498.518 C 126.434 498.545, 130.342 502.668, 129.660 504.444 C 129.238 505.544, 129.671 506, 131.138 506 C 132.540 506, 133.033 506.470, 132.658 507.449 C 132.286 508.418, 132.582 508.714, 133.551 508.342 C 134.643 507.923, 135 508.632, 135 511.222 C 135 514.143, 135.338 514.647, 137.250 514.579 C 138.962 514.519, 139.481 515.038, 139.421 516.750 C 139.377 517.995, 139.935 519, 140.671 519 C 141.402 519, 142 519.711, 142 520.579 C 142 521.820, 142.655 522.015, 145.047 521.490 C 147.510 520.949, 148.585 521.313, 150.662 523.389 C 152.163 524.890, 152.988 526.590, 152.647 527.479 C 152.287 528.415, 152.628 529, 153.531 529 C 154.339 529, 155 529.711, 155 530.579 C 155 531.826, 155.654 532.015, 158.109 531.476 C 160.758 530.894, 161.638 531.253, 164.053 533.897 C 165.612 535.603, 167.620 537, 168.515 537 C 170.622 537, 173.310 539.690, 172.505 540.992 C 172.138 541.585, 173.141 542, 174.941 542 C 176.722 542, 178 542.522, 177.999 543.250 C 177.999 544.130, 179.481 544.397, 182.999 544.153 C 187.320 543.854, 188 544.058, 187.998 545.653 C 187.996 547.294, 188.721 547.463, 194.498 547.165 C 198.732 546.946, 201 547.210, 201 547.920 C 201 548.676, 206.380 548.936, 218.500 548.768 C 228.125 548.634, 236 548.182, 236 547.762 C 236 547.343, 240.227 547, 245.393 547 C 253.071 547, 254.898 546.709, 255.399 545.404 C 255.871 544.173, 257.125 543.887, 260.880 544.154 C 264.355 544.401, 265.617 544.158, 265.288 543.305 C 264.975 542.492, 266.531 542.013, 270.164 541.805 C 274.826 541.539, 275.540 541.216, 275.820 539.250 C 276.046 537.654, 276.814 537, 278.463 537 C 279.740 537, 281.045 536.325, 281.362 535.500 C 281.692 534.640, 283.185 534, 284.862 534 C 286.604 534, 288.031 533.362, 288.392 532.420 C 288.844 531.242, 289.760 531.008, 292 531.500 C 294.240 531.992, 295.156 531.758, 295.608 530.580 C 295.941 529.711, 296.764 529, 297.436 529 C 298.109 529, 298.623 527.988, 298.579 526.750 C 298.511 524.802, 299.004 524.500, 302.251 524.500 C 305.239 524.500, 306.001 524.122, 306.001 522.643 C 306 521.403, 306.498 520.977, 307.500 521.362 C 308.414 521.712, 309 521.363, 309 520.469 C 309 519.661, 309.598 519, 310.329 519 C 311.065 519, 311.623 517.995, 311.579 516.750 C 311.511 514.802, 312.004 514.500, 315.251 514.500 C 318.239 514.500, 319.001 514.122, 319.001 512.643 C 319 511.403, 319.498 510.977, 320.500 511.362 C 321.414 511.712, 322 511.363, 322 510.469 C 322 509.661, 322.661 509, 323.469 509 C 324.327 509, 324.711 508.409, 324.392 507.580 C 324.034 506.645, 324.644 506.046, 326.174 505.830 C 327.722 505.610, 328.610 504.722, 328.830 503.174 C 329.046 501.644, 329.645 501.034, 330.580 501.392 C 331.526 501.755, 332 501.244, 332 499.862 C 332 498.460, 332.470 497.967, 333.449 498.342 C 334.418 498.714, 334.714 498.418, 334.342 497.449 C 333.979 496.504, 334.432 496, 335.643 496.001 C 337.122 496.001, 337.500 495.239, 337.500 492.251 C 337.500 489.004, 337.802 488.511, 339.750 488.579 C 340.995 488.623, 342 488.065, 342 487.329 C 342 486.598, 342.597 486, 343.327 486 C 344.238 486, 344.513 485.041, 344.204 482.938 C 343.868 480.647, 344.341 479.331, 346.085 477.706 C 347.367 476.512, 349.109 475.527, 349.958 475.518 C 351.020 475.505, 351.598 474.308, 351.815 471.668 C 352.049 468.825, 352.501 467.978, 353.565 468.387 C 354.613 468.789, 355 468.137, 355 465.969 C 355 464.025, 355.507 463, 356.469 463 C 357.363 463, 357.712 462.414, 357.362 461.500 C 356.974 460.490, 357.409 460, 358.692 460 C 360.273 460, 360.530 459.417, 360.199 456.583 C 359.853 453.617, 360.111 453.121, 362.150 452.833 C 364.229 452.538, 364.535 451.894, 364.802 447.250 C 364.969 444.362, 365.531 442, 366.052 442 C 366.574 442, 367 440.875, 367 439.500 C 367 437.785, 367.550 437, 368.750 437.001 C 370.226 437.001, 370.447 436.230, 370.159 432.082 C 369.846 427.568, 370.011 427.136, 372.159 426.831 C 374.186 426.544, 374.541 425.863, 374.805 421.750 C 374.988 418.902, 375.588 417, 376.305 417.001 C 377.119 417.001, 377.389 415.406, 377.153 412.001 C 376.854 407.680, 377.058 407, 378.653 407.002 C 380.294 407.004, 380.463 406.279, 380.165 400.502 C 379.867 394.739, 380.038 394, 381.665 394.002 C 383.278 394.003, 383.459 393.281, 383.162 388.018 C 382.910 383.555, 383.226 381.631, 384.404 380.453 C 385.274 379.584, 386.438 379.153, 386.992 379.495 C 387.642 379.897, 388 376.726, 388 370.559 C 388 363.577, 388.337 361.001, 389.250 361.002 C 390.196 361.003, 390.424 358.203, 390.189 349.502 C 389.905 338.954, 390.029 338, 391.689 338 C 393.416 338, 393.502 335.260, 393.541 279 C 393.580 221.482, 393.533 220, 391.662 220 C 389.891 220, 389.779 219.382, 390.206 212 C 390.567 205.765, 390.375 204, 389.335 204 C 388.357 204, 388 202.243, 388 197.441 C 388 193.290, 387.630 191.111, 386.992 191.505 C 385.253 192.579, 383 189.291, 383 185.678 C 383 183.418, 382.441 182, 381.392 181.597 C 380.218 181.146, 379.894 180.037, 380.191 177.490 C 380.532 174.565, 380.285 174, 378.663 174 C 376.943 174, 376.797 173.497, 377.350 169.463 C 377.830 165.959, 377.634 164.797, 376.486 164.356 C 375.669 164.043, 375 162.561, 375 161.064 C 375 158.884, 374.552 158.357, 372.750 158.421 C 370.802 158.489, 370.500 157.996, 370.500 154.749 C 370.500 151.844, 370.106 150.999, 368.750 150.999 C 367.550 151, 367 150.215, 367 148.500 C 367 147.125, 366.577 146, 366.060 146 C 365.544 146, 364.981 144.312, 364.810 142.250 C 364.564 139.270, 364.089 138.500, 362.500 138.500 C 361.136 138.500, 360.390 137.718, 360.153 136.039 C 359.962 134.686, 359.101 133.063, 358.240 132.434 C 357.332 131.770, 356.940 130.599, 357.306 129.645 C 357.715 128.579, 357.421 128, 356.469 128 C 355.507 128, 355 126.975, 355 125.031 C 355 122.863, 354.613 122.211, 353.565 122.613 C 352.501 123.022, 352.049 122.176, 351.815 119.340 C 351.587 116.566, 350.993 115.421, 349.654 115.167 C 346.966 114.657, 344 111.830, 344 109.778 C 344 108.800, 343.550 108, 343 108 C 342.450 108, 342 106.664, 342 105.031 C 342 102.785, 341.630 102.205, 340.479 102.647 C 338.465 103.419, 333.581 98.535, 334.353 96.521 C 334.713 95.585, 334.372 95, 333.469 95 C 332.507 95, 332 93.975, 332 92.031 C 332 89.877, 331.610 89.212, 330.580 89.608 C 329.645 89.966, 329.046 89.356, 328.830 87.826 C 328.610 86.278, 327.722 85.390, 326.174 85.170 C 324.644 84.954, 324.034 84.355, 324.392 83.420 C 324.718 82.572, 324.317 82, 323.397 82 C 321.380 82, 319 79.571, 319 77.512 C 319 76.616, 318.547 76.162, 317.992 76.505 C 316.680 77.316, 313.684 74.320, 314.495 73.008 C 314.840 72.449, 314.152 72, 312.952 72 C 311.471 72, 310.962 71.542, 311.342 70.551 C 311.714 69.582, 311.418 69.286, 310.449 69.658 C 309.470 70.033, 309 69.540, 309 68.138 C 309 66.756, 308.526 66.245, 307.580 66.608 C 306.645 66.966, 306.046 66.356, 305.830 64.826 C 305.610 63.278, 304.722 62.390, 303.174 62.170 C 301.644 61.954, 301.034 61.355, 301.392 60.420 C 301.718 59.572, 301.317 59, 300.397 59 C 298.380 59, 296 56.571, 296 54.512 C 296 53.616, 295.547 53.162, 294.992 53.505 C 293.680 54.316, 290.684 51.320, 291.495 50.008 C 291.840 49.449, 291.152 49, 289.952 49 C 288.471 49, 287.962 48.542, 288.342 47.551 C 288.714 46.582, 288.418 46.286, 287.449 46.658 C 286.504 47.021, 286 46.568, 286.001 45.357 C 286.001 43.878, 285.239 43.500, 282.251 43.500 C 279.004 43.500, 278.511 43.198, 278.579 41.250 C 278.635 39.664, 278.087 39, 276.722 39 C 275.442 39, 274.974 38.509, 275.342 37.551 C 275.714 36.582, 275.418 36.286, 274.449 36.658 C 273.492 37.025, 273 36.558, 273 35.280 C 273 33.692, 272.453 33.427, 269.938 33.796 C 266.623 34.282, 263.511 31.916, 262.844 28.402 C 262.580 27.009, 261.482 26.417, 258.742 26.190 C 256.684 26.019, 255 25.456, 255 24.940 C 255 24.423, 253.875 24, 252.500 24 C 250.744 24, 250 23.455, 250 22.171 C 250 20.917, 249.292 20.366, 247.750 20.421 C 246.038 20.481, 245.519 19.962, 245.579 18.250 C 245.643 16.448, 245.116 16, 242.936 16 C 241.378 16, 239.955 15.325, 239.608 14.420 C 239.156 13.242, 238.240 13.008, 236 13.500 C 233.760 13.992, 232.844 13.758, 232.392 12.580 C 231.966 11.469, 230.471 11, 227.362 11 C 224.351 11, 222.753 10.521, 222.362 9.500 C 222.003 8.566, 220.479 8, 218.322 8 C 214.709 8, 211.421 5.747, 212.495 4.008 C 212.878 3.388, 211.394 3, 208.642 3 C 205.985 3, 204 2.499, 203.756 1.768 C 203.126 -0.121, 132 -0.227, 132 1.661 M 103.638 231.500 C 104.133 232.789, 102.262 233, 90.344 233 C 76.717 233, 76.442 233.044, 74.597 235.500 L 72.720 238 47.929 238 L 23.139 238 22.820 235.750 C 22.529 233.703, 21.960 233.500, 16.514 233.500 C 11.396 233.500, 10.474 233.780, 10.156 235.429 C 9.697 237.813, 7.599 240, 5.772 240 C 4.795 240, 4.519 241.003, 4.809 243.490 C 5.106 246.037, 4.782 247.146, 3.608 247.597 C 2.246 248.120, 2 250.183, 2 261.107 L 2 274 10 274 C 17.806 274, 18 273.941, 18 271.570 C 18 269.810, 18.621 269.051, 20.250 268.820 C 21.722 268.611, 22.614 267.695, 22.830 266.174 C 23.046 264.644, 23.645 264.034, 24.580 264.392 C 25.428 264.718, 26 264.317, 26 263.397 C 26 261.416, 28.416 259, 30.397 259 C 31.355 259, 31.720 258.433, 31.362 257.500 C 30.889 256.269, 31.864 256, 36.786 256 C 40.878 256, 42.950 256.426, 43.300 257.340 C 43.693 258.362, 45.728 258.569, 51.890 258.213 C 58.706 257.818, 60.062 257.999, 60.589 259.373 C 61.069 260.622, 62.589 261, 67.138 261 C 71.482 261, 73.216 261.400, 73.638 262.500 C 74.129 263.778, 77.910 264, 99.178 264 C 119.979 264, 124.392 264.249, 125.635 265.492 C 126.456 266.313, 126.847 267.438, 126.505 267.992 C 126.128 268.602, 127.387 269.001, 129.691 269.001 L 133.500 269.003 133.500 258.751 C 133.500 248.711, 133.547 248.502, 135.789 248.584 C 138.005 248.665, 138.069 248.424, 137.789 241.084 L 137.500 233.500 123.654 233.221 C 111.952 232.985, 109.896 232.715, 110.373 231.471 C 110.811 230.330, 110.055 230, 107 230 C 103.911 230, 103.187 230.323, 103.638 231.500" stroke="none" fill="#1c7c1c" fill-rule="evenodd"/></svg>